<svg width="160" height="163" viewBox="0 0 160 163" fill="none" xmlns="http://www.w3.org/2000/svg">
<g filter="url(#filter0_d_78_30)">
<g clip-path="url(#clip0_78_30)">
<rect x="4" y="2" width="152" height="152" rx="76" fill="#404354"/>
<g clip-path="url(#clip1_78_30)">
<path d="M155.676 77.9264C155.681 90.936 152.34 103.728 145.976 115.075C139.611 126.422 130.437 135.941 119.333 142.72C120.049 142.239 120.737 141.718 121.394 141.159C121.437 141.131 121.469 141.09 121.485 141.042C121.501 140.994 121.5 140.942 121.483 140.894C121.479 140.846 121.464 140.799 121.439 140.758C121.413 140.717 121.377 140.683 121.335 140.658C119.215 139.598 114.385 138.037 107.523 137.419H107.434C105.255 137.183 101.544 137.095 101.279 137.095C101.216 137.101 101.156 137.121 101.102 137.154C98.8892 137.15 96.6775 137.258 94.4755 137.478C94.0337 137.419 89.1153 136.594 88.8502 133.678C88.7619 132.706 88.703 130.939 88.703 128.996C90.4701 129.555 92.944 128.819 94.2693 128.23C94.5649 128.088 94.8419 127.91 95.094 127.7C95.7125 127.228 96.0953 126.934 99.2467 128.23C103.193 129.82 103.606 129.585 105.549 127.14C105.726 126.904 105.932 126.669 106.138 126.404C107.994 124.165 110.703 125.461 112.146 126.168C112.391 126.3 112.647 126.409 112.912 126.492C114.061 126.816 118.037 123.547 119.244 120.896C119.303 120.837 119.48 120.749 119.657 120.631C120.894 119.866 123.426 118.246 123.426 116.714C123.426 115.094 123.78 114.505 125.135 113.769C125.497 113.579 125.871 113.412 126.254 113.268C127.402 112.797 128.728 112.238 129.67 110.441C130.259 109.322 130.171 108.88 129.994 108.291C129.847 107.82 129.67 107.319 130.348 105.729C131.143 103.814 131.526 103.667 131.643 103.638C131.938 103.52 131.967 103.343 131.967 102.96C131.967 102.047 131.967 100.31 132.91 96.5987C133.107 95.6407 133.509 94.7366 134.088 93.9481C134.648 93.1529 134.677 92.8289 133.823 91.4152C132.409 89.118 131.85 82.3147 131.997 80.7537C132.085 79.7524 131.408 78.9572 130.76 78.2209C130.329 77.7797 129.971 77.2727 129.7 76.7188C129.287 75.8353 129.405 75.5702 129.788 74.7456C130.02 74.2396 130.217 73.718 130.377 73.1847C130.937 71.4176 129.729 70.6813 128.05 69.6799C127.432 69.297 126.725 68.8553 125.989 68.3251C125.252 67.795 124.87 67.3238 124.811 66.9409C124.752 66.4697 125.194 65.9101 125.783 65.1443C126.324 64.5049 126.816 63.8256 127.255 63.1122C127.874 62.0814 128.021 61.2273 127.697 60.491C127.049 59.1068 124.84 58.4883 121.718 57.9876C120.658 57.8109 120.364 57.5753 120.275 57.428C120.157 57.163 120.511 56.6328 120.864 56.0732C121.483 55.1308 122.278 53.9233 121.954 52.4801C121.859 51.9213 121.637 51.3918 121.305 50.9322C120.973 50.4727 120.54 50.0954 120.04 49.8295C119.451 49.4761 119.127 49.2994 119.303 48.4453C119.627 46.7076 117.683 44.9994 115.975 43.4974C115.428 43.0355 114.907 42.5439 114.414 42.0248C113.266 40.7584 111.027 41.4652 109.054 42.0543C108.082 42.3488 107.169 42.6433 106.58 42.5844C105.785 42.5255 105.667 41.907 105.608 40.3461C105.598 39.5943 105.519 38.8451 105.373 38.1077C104.842 35.9578 98.5693 36.1639 97.0378 36.2523C96.272 33.1304 90.7646 32.777 88.379 32.777C88.1603 32.7775 87.9459 32.7163 87.7605 32.6003C87.3133 32.3757 86.8177 32.2644 86.3174 32.2763C85.3083 32.3137 84.3084 32.482 83.3428 32.777C81.4579 33.2482 81.0161 33.6605 80.6627 33.955C80.3976 34.1907 80.2209 34.3379 79.3668 34.4852C78.5279 34.6119 77.6755 34.6219 76.834 34.5146C76.0731 34.4003 75.3002 34.3904 74.5367 34.4852C73.771 34.603 73.0936 35.1626 72.4457 35.7221C71.3265 36.6646 70.7375 37.018 70.119 36.3112C69.7687 35.9299 69.3311 35.6396 68.8436 35.4651C68.3562 35.2907 67.8337 35.2374 67.3211 35.3098C65.9368 35.4865 64.6999 36.4584 63.9047 37.9899C63.0211 39.6981 62.1376 39.7276 60.5472 39.8159C59.4846 39.8351 58.4276 39.9734 57.3959 40.2283C55.776 40.6406 54.7158 41.583 53.7733 42.4077C52.5658 43.4974 51.6822 44.2631 50.0918 43.5857C47.9419 42.6433 45.1145 43.2618 43.3769 44.2337C42.2872 44.8227 41.6392 45.5295 41.5214 46.2364C41.2858 47.7384 40.3433 48.0035 38.4584 48.0035C37.4276 48.0035 37.0448 49.1521 36.6619 50.3007C36.2201 51.626 35.7489 53.0103 34.3352 52.9514C33.9979 52.9249 33.6588 52.9689 33.3394 53.0804C33.02 53.1919 32.7273 53.3686 32.4798 53.5993C31.2133 54.8363 31.2133 57.3986 31.2133 58.7828V58.989C31.2133 59.4896 30.7421 59.6958 29.9175 60.0787C28.8572 60.5204 27.5319 61.1095 27.2079 62.8177C27.0017 63.9368 27.2374 65.056 27.473 66.0574C27.8264 67.6772 28.1209 68.9436 26.56 69.8566C24.41 71.0936 24.1744 72.684 23.9093 74.5394C23.8104 75.2846 23.6629 76.0224 23.4675 76.7483C23.0552 78.2209 23.4381 79.2811 23.7032 80.0469C23.9977 80.8715 24.1155 81.225 23.5559 81.6667C22.8785 82.1969 22.7313 83.3749 22.7018 84.2585C22.6429 86.2906 23.3203 89.2064 24.3511 90.1194C25.1757 90.8557 25.1463 91.1796 25.0285 92.9467C24.9696 93.7714 24.9107 94.8905 24.9107 96.4515C24.9107 100.103 28.0915 101.458 30.0058 102.253C30.5065 102.46 31.1544 102.754 31.2133 102.872C31.2133 103.019 31.1839 103.196 31.1839 103.373C31.0955 104.168 30.9777 105.14 32.1852 108.32C32.9215 110.264 33.4222 110.559 33.8934 110.677H33.9523C34.0407 110.824 34.0407 111.766 34.0407 112.061C34.0407 114.034 34.7181 114.329 35.6605 114.535C36.1612 114.653 36.6619 114.77 37.0153 115.418C37.5749 116.39 37.4865 116.567 37.3098 116.92C37.0805 117.355 36.9688 117.843 36.9859 118.334C36.9825 118.509 37.0147 118.683 37.0805 118.845C37.1463 119.007 37.2444 119.154 37.3687 119.276C38.2817 120.16 40.579 120.16 42.4344 120.131H43.1707C43.7008 120.131 44.0837 120.248 44.3193 120.513C44.7905 121.014 44.7022 122.104 44.6433 123.252V123.311C44.6065 123.598 44.6441 123.89 44.7524 124.158C44.8607 124.426 45.0361 124.662 45.2618 124.843C46.1453 125.52 47.9124 125.52 50.1213 124.813C50.574 124.644 51.0598 124.583 51.5402 124.634C52.0207 124.685 52.4827 124.848 52.8898 125.108C53.6771 125.635 54.2269 126.449 54.4212 127.376C54.4199 127.52 54.4541 127.663 54.5209 127.792C54.5876 127.92 54.6849 128.03 54.8041 128.112C55.2459 128.436 55.9822 128.289 57.337 128.024C57.9554 127.906 58.6917 127.759 59.6047 127.611C61.5191 127.317 61.578 127.494 61.7253 127.906C61.8953 128.451 62.2629 128.913 62.7561 129.202C63.9636 129.938 64.8177 129.349 65.7012 128.672C66.2832 128.192 66.9536 127.832 67.6745 127.611C69.6772 127.111 71.5916 128.141 72.1806 129.084C72.232 129.159 72.2913 129.228 72.3573 129.29V133.59C72.1217 134.68 70.2957 136.977 68.0868 137.419C67.3505 137.566 65.3478 137.478 62.7855 137.36C61.4896 137.301 60.0465 137.242 58.5445 137.183C58.5167 137.138 58.4777 137.101 58.4312 137.075C58.3848 137.049 58.3325 137.036 58.2794 137.036H52.2124C52.1663 137.034 52.1204 137.043 52.0791 137.064C52.0378 137.084 52.0026 137.115 51.9767 137.154C46.0864 137.301 40.1372 138.008 36.8386 140.364C17.0176 126.669 4 103.785 4 77.8675C4 35.9578 37.9872 2 79.8969 2C121.689 2.0589 155.676 36.0167 155.676 77.9264Z" fill="#363A4D"/>
<path d="M133.617 93.5947C133.004 94.4505 132.573 95.4228 132.351 96.4515C131.408 100.221 131.408 101.988 131.408 102.931V103.078C131.143 103.196 130.672 103.461 129.818 105.493C129.081 107.29 129.288 107.938 129.435 108.468C129.553 108.88 129.67 109.175 129.14 110.147C128.286 111.766 127.167 112.208 125.989 112.709C125.595 112.861 125.212 113.038 124.84 113.239C123.279 114.093 122.808 114.888 122.808 116.714C122.808 117.922 120.246 119.512 119.303 120.131C118.832 120.425 118.685 120.514 118.685 120.661C117.419 123.37 113.678 126.139 113.03 125.933C112.795 125.858 112.568 125.759 112.353 125.638C110.88 124.931 107.758 123.429 105.638 126.021C105.432 126.286 105.226 126.522 105.049 126.757C103.252 128.996 103.105 129.172 99.4236 127.67C96.125 126.345 95.536 126.61 94.6819 127.229C94.4592 127.395 94.2227 127.543 93.975 127.67C92.9442 128.142 90.2936 128.996 88.6443 128.348C88.6443 125.579 88.6737 122.575 88.7326 120.867C92.7381 118.776 95.801 115.389 97.8921 112.355C102.222 106.112 104.283 98.8077 103.576 96.9228C103.311 96.2159 103.017 95.5091 102.722 94.8611C101.78 92.6228 101.014 90.8852 102.015 89.8838C103.017 88.8825 101.956 87.6455 101.102 86.6441C100.513 85.9667 99.8948 85.2599 100.072 84.8476C100.16 84.612 100.307 84.288 100.484 83.9346C101.132 82.6387 101.986 80.8422 101.574 79.6641C101.498 79.455 101.381 79.2636 101.229 79.1015C101.077 78.9394 100.894 78.8102 100.69 78.7216C99.6298 78.221 98.8935 78.5744 98.2455 78.8394C97.5092 79.1634 96.8908 79.4285 95.801 78.7216C94.881 78.1297 94.0897 77.3584 93.4744 76.4539C93.0173 75.7837 92.4496 75.1961 91.7956 74.7162C90.9121 74.1272 89.6751 74.1861 88.3792 74.2744C87.1423 74.3333 85.8758 74.4217 84.9628 73.921C84.0498 73.4203 83.932 72.684 83.7848 71.9183C83.6375 71.1526 83.5197 70.2985 82.5478 69.7683C81.7821 69.356 80.8396 69.2677 79.9266 69.1793C78.6602 69.0615 77.4821 68.9142 77.0698 68.0307C76.2451 66.2341 73.3294 64.6143 73.2116 64.5554C73.1714 64.5367 73.1276 64.5273 73.0833 64.528C73.039 64.5286 72.9954 64.5392 72.9557 64.559C72.9161 64.5788 72.8815 64.6073 72.8544 64.6424C72.8273 64.6775 72.8085 64.7182 72.7993 64.7616C72.6226 65.8218 71.6212 68.2368 69.1767 69.7683C69.1224 69.8032 69.081 69.8549 69.0589 69.9156C68.4404 71.506 66.5261 74.569 63.6987 74.6868H63.6398C61.9316 75.1285 58.7803 76.6011 59.1337 79.0162C59.3395 80.4171 59.8092 81.7663 60.5179 82.9921C59.8995 83.051 59.0748 83.4339 58.2502 84.5531C57.9513 84.9658 57.6267 85.3593 57.2783 85.7311C55.9529 87.3215 54.5982 88.9414 55.3934 91.2386C55.6584 92.0043 55.9824 92.7112 56.2769 93.418C57.1016 95.2735 57.5433 96.4221 56.8659 96.7755C56.6892 96.8639 56.218 97.0995 56.8659 99.8385C58.0735 104.904 62.8152 116.331 72.1514 120.926V128.436C71.6793 127.966 71.1188 127.593 70.5021 127.34C69.8854 127.088 69.2247 126.96 68.5583 126.963C68.1516 126.969 67.7468 127.018 67.3507 127.111C66.5538 127.342 65.8123 127.732 65.1713 128.259C64.2289 128.937 63.7282 129.261 62.8741 128.76C62.4962 128.548 62.2122 128.201 62.0789 127.788C61.8138 126.993 61.4015 126.787 59.3104 127.111C58.3974 127.258 57.6317 127.405 57.0427 127.523C55.9824 127.729 55.2167 127.876 54.981 127.7C54.9352 127.659 54.8985 127.609 54.8731 127.553C54.8477 127.498 54.8343 127.437 54.8338 127.376C54.7454 126.551 54.0975 125.373 53.0372 124.666C52.5558 124.361 52.0107 124.17 51.4438 124.109C50.877 124.047 50.3036 124.117 49.7681 124.313C47.7654 124.961 46.175 124.99 45.4681 124.431C45.3151 124.311 45.1983 124.151 45.1307 123.969C45.0631 123.787 45.0474 123.59 45.0853 123.4V123.341C45.1736 122.074 45.262 120.867 44.614 120.16C44.2606 119.777 43.76 119.601 43.0531 119.601H42.3168C40.7559 119.63 38.3997 119.659 37.6635 118.923C37.5949 118.86 37.5409 118.782 37.5053 118.695C37.4697 118.609 37.4533 118.516 37.4573 118.422C37.4413 118.023 37.5328 117.626 37.7224 117.274C37.9874 116.773 38.1052 116.42 37.3984 115.212C37.2179 114.89 36.9637 114.616 36.6565 114.411C36.3493 114.206 35.998 114.077 35.6313 114.034C34.9539 113.887 34.4827 113.769 34.4827 112.149C34.4827 110.677 34.4238 110.323 33.8936 110.176C33.6875 110.117 33.2752 109.999 32.5683 108.173C31.4197 105.11 31.5081 104.227 31.5964 103.49C31.6321 103.306 31.6518 103.119 31.6553 102.931C31.6553 102.46 31.0663 102.195 30.0944 101.782C28.2095 100.987 25.3821 99.7501 25.3821 96.5104C25.3821 94.9495 25.441 93.8598 25.4999 93.0351C25.6177 91.2091 25.6472 90.6496 24.6164 89.7366C23.8212 89.0297 23.1143 86.3791 23.1732 84.3175C23.2027 83.2277 23.4383 82.462 23.8212 82.1675C24.7342 81.4312 24.4397 80.6654 24.1451 79.8703C23.8801 79.134 23.5267 78.221 23.9095 76.9251C24.1193 76.1827 24.267 75.4242 24.3513 74.6573C24.6164 72.8902 24.8225 71.506 26.7074 70.4163C28.6512 69.2971 28.2684 67.6184 27.915 65.9985C27.7088 65.0266 27.4732 63.9958 27.6499 62.9945C27.915 61.5808 29.0341 61.1095 30.006 60.6678C30.8601 60.2849 31.6553 59.9609 31.6553 59.0479V58.8712C31.6553 57.6637 31.6553 55.1603 32.745 54.1C32.9317 53.9211 33.1543 53.7839 33.398 53.6976C33.6417 53.6113 33.901 53.5778 34.1587 53.5994C36.0142 53.6877 36.6032 51.9501 37.0744 50.5364C37.4573 49.3583 37.7518 48.6515 38.3114 48.6515C39.9901 48.6515 41.6394 48.4748 41.9634 46.3837C42.0518 45.9125 42.6113 45.3235 43.4949 44.8228C45.1147 43.9392 47.7654 43.3502 49.7092 44.2043C51.653 45.0584 52.8016 44.0276 54.0091 42.9379C54.8927 42.1427 55.894 41.2591 57.3666 40.8763C58.3603 40.6316 59.3772 40.4934 60.4001 40.4639C62.02 40.3756 63.1981 40.3167 64.2583 38.314C64.9651 36.9592 66.0549 36.1051 67.2329 35.9578C67.6542 35.8945 68.0846 35.9366 68.4855 36.0806C68.8864 36.2245 69.2454 36.4657 69.5302 36.7825C70.6199 37.9605 71.7096 37.0475 72.6815 36.2229C73.2705 35.7222 73.889 35.2215 74.478 35.1332C75.1924 35.0392 75.9165 35.0491 76.628 35.1626C77.517 35.2995 78.4224 35.2896 79.3081 35.1332C80.3095 34.9565 80.5745 34.7209 80.8985 34.4558C81.2225 34.1907 81.6053 33.8373 83.343 33.3955C86.1998 32.6592 86.8772 32.9538 87.3779 33.1894C87.6402 33.3301 87.9343 33.4011 88.232 33.3955C90.0285 33.3955 95.8894 33.6311 96.3606 36.6352C96.375 36.7081 96.4163 36.7729 96.4764 36.8166C96.5365 36.8603 96.6108 36.8797 96.6846 36.8708C100.337 36.6352 104.371 37.0181 104.666 38.2551C104.815 38.9522 104.894 39.6626 104.902 40.3756C104.961 41.7598 104.99 43.0557 106.404 43.1735C107.081 43.2324 107.994 42.9379 109.084 42.6139C110.88 42.0543 112.912 41.4358 113.825 42.4077C114.339 42.9364 114.879 43.4378 115.445 43.9098C117.036 45.3235 118.832 46.8844 118.567 48.2981C118.332 49.535 118.98 49.9179 119.569 50.3008C120.158 50.6837 120.923 51.1254 121.218 52.5686C121.483 53.7761 120.776 54.8658 120.216 55.7199C119.745 56.4267 119.333 57.0747 119.569 57.6342C119.775 58.076 120.364 58.3705 121.453 58.5472C124.016 58.9596 126.431 59.5192 126.99 60.7267C127.226 61.2568 127.108 61.9342 126.607 62.7883C126.178 63.4747 125.705 64.1337 125.194 64.7616C124.487 65.6157 123.986 66.2636 124.104 66.9999C124.163 67.5595 124.605 68.119 125.518 68.7964C126.284 69.356 126.99 69.7978 127.638 70.1807C129.346 71.2115 130.112 71.7416 129.7 73.008C129.537 73.521 129.34 74.0228 129.111 74.51C128.728 75.3641 128.522 75.8354 129.023 76.9545C129.337 77.5491 129.722 78.103 130.171 78.6038C130.79 79.3107 131.32 79.9292 131.261 80.6949C131.143 82.0791 131.614 89.1475 133.175 91.7098C134.088 92.9468 134.029 93.0351 133.617 93.5947Z" fill="#2D140F"/>
<path d="M100.836 137.743C96.7425 149.524 86.7584 152.204 78.4825 152.204C76.283 152.193 74.0875 152.016 71.9148 151.674C64.2573 150.495 59.9574 142.396 58.6026 137.831C60.0457 137.89 61.43 137.949 62.6669 137.979C65.3765 138.096 67.3203 138.185 68.1155 138.037C70.6483 137.566 72.6216 134.974 72.8572 133.737V121.191C75.3473 122.312 78.0491 122.884 80.7797 122.87C83.3518 122.877 85.8911 122.292 88.2015 121.162C88.1426 122.84 88.1132 125.491 88.1132 127.994V128.701C88.1132 130.763 88.1721 132.648 88.2604 133.679C88.5255 136.624 92.796 137.802 94.4453 138.037H94.5042C96.7131 137.861 98.8336 137.772 100.836 137.743Z" fill="#C06E3D"/>
<path d="M120.657 141.011C119.332 142.042 114.413 145.724 106.432 148.816C106.049 146.165 107.463 140.835 108.317 138.125C114.237 138.714 118.507 140.01 120.657 141.011Z" fill="#C06E3D"/>
<path d="M51.7997 137.802C51.7508 141.066 51.1637 144.3 50.0621 147.374C47.2498 146.272 44.4972 145.023 41.8156 143.633C39.3711 142.367 37.7218 141.365 37.0444 140.924C37.1057 140.865 37.1752 140.815 37.2506 140.776C40.4608 138.626 46.145 137.949 51.7997 137.802Z" fill="#C06E3D"/>
<path d="M105.843 148.993C105.843 149.023 105.873 149.023 105.843 148.993C104.93 149.435 101.926 150.672 96.772 151.703C92.2954 152.616 86.1989 153.411 78.4531 153.411H77.923C75.9723 153.376 74.0253 153.228 72.0915 152.969H72.0032C62.4903 151.732 52.5651 148.345 50.5624 147.55C51.6898 144.412 52.287 141.107 52.3295 137.772C54.2438 137.743 56.1287 137.772 57.9253 137.802C59.2506 142.455 63.6978 150.996 71.7676 152.233C80.5736 153.588 96.0652 153.499 101.425 137.713C103.458 137.713 105.342 137.802 107.11 137.949H107.139C107.316 137.978 107.492 137.978 107.669 138.008C106.815 140.894 105.431 146.313 105.843 148.993Z" fill="#F7C501"/>
<path d="M103.075 97.1585C102.81 96.4517 102.516 95.7743 102.251 95.1264C101.249 92.7997 100.395 90.7675 101.691 89.5011C102.28 88.9121 101.691 88.1463 100.749 87.0566C100.012 86.2025 99.3057 85.4073 99.6296 84.6416C99.7474 84.3765 99.8947 84.0525 100.071 83.6991C100.631 82.5505 101.485 80.8423 101.132 79.8704C101.09 79.736 101.017 79.613 100.92 79.5109C100.823 79.4088 100.704 79.3303 100.572 79.2814C99.7769 78.8985 99.2173 79.1341 98.5988 79.4286C97.8331 79.7821 96.9495 80.1649 95.5947 79.2814C94.6181 78.6484 93.7772 77.8274 93.1208 76.8663C92.7123 76.2467 92.1931 75.7076 91.5893 75.276C90.8825 74.8047 89.7339 74.8636 88.5263 74.9225C87.2305 74.9814 85.8757 75.0698 84.786 74.4808C83.6079 73.8623 83.4607 72.9198 83.3134 72.0657C83.1956 71.3294 83.0778 70.7109 82.371 70.3281C81.723 69.9747 80.81 69.8863 79.9559 69.7979C78.6011 69.6507 77.158 69.5034 76.6279 68.3254C76.1272 67.2356 74.5074 65.9987 73.3587 65.3213C72.7597 67.3645 71.4416 69.122 69.6478 70.2692C68.941 72.0068 66.8794 75.1876 63.8459 75.3054C62.3144 75.7177 59.5165 76.9841 59.811 78.9869C60.002 80.529 60.5795 81.9979 61.4897 83.2573C61.5327 83.3119 61.5561 83.3793 61.5561 83.4488C61.5561 83.5182 61.5327 83.5857 61.4897 83.6402C61.4685 83.6692 61.4417 83.6938 61.4109 83.7124C61.3802 83.7311 61.346 83.7435 61.3105 83.749C61.2749 83.7544 61.2387 83.7529 61.2037 83.7443C61.1688 83.7358 61.1359 83.7204 61.1069 83.6991C60.8418 83.5519 59.8993 83.4635 58.8096 84.9655C58.5151 85.3779 58.1617 85.7902 57.8377 86.2025C56.5713 87.734 55.3638 89.1477 56.0412 91.1209C56.2999 91.8422 56.5948 92.5499 56.9247 93.2415C57.7494 95.0969 58.4562 96.7168 57.2781 97.3352C56.9836 98.0126 58.1028 103.314 61.313 108.969C63.3452 112.532 67.115 117.834 72.917 120.573C73.1231 120.661 73.2998 120.749 73.506 120.838L74.1245 121.103C76.244 121.936 78.5033 122.356 80.7806 122.34C83.3683 122.341 85.9204 121.736 88.2318 120.573C88.3202 120.514 88.438 120.484 88.5263 120.425C88.6183 120.365 88.7172 120.315 88.8209 120.278C92.5907 118.216 95.4769 115.006 97.4797 112.091C101.897 105.641 103.664 98.6606 103.075 97.1585ZM66.1725 83.9936C66.114 84.0522 66.0345 84.0851 65.9517 84.0851C65.8688 84.0851 65.7894 84.0522 65.7308 83.9936C65.6722 83.9351 65.6393 83.8556 65.6393 83.7728C65.6393 83.6899 65.6722 83.6104 65.7308 83.5519C66.7027 82.58 68.028 82.0793 69.265 81.8142C70.3007 81.5993 71.3614 81.5299 72.4163 81.6081C72.4588 81.6119 72.5002 81.6241 72.538 81.644C72.5759 81.6638 72.6094 81.691 72.6367 81.7238C72.6641 81.7566 72.6847 81.7945 72.6974 81.8353C72.7101 81.876 72.7147 81.9189 72.7108 81.9615C72.7069 82.004 72.6947 82.0454 72.6749 82.0832C72.655 82.121 72.6279 82.1546 72.5951 82.1819C72.5623 82.2093 72.5244 82.2299 72.4836 82.2426C72.4428 82.2553 72.3999 82.2599 72.3574 82.256C71.3722 82.1799 70.3812 82.2394 69.4122 82.4327C68.2342 82.6683 67.0266 83.1395 66.1725 83.9936ZM71.8567 93.5065C70.9437 93.536 70.1485 92.2401 70.1191 90.6203C70.0896 89.0004 70.7965 87.6751 71.7095 87.6751C72.6225 87.6751 73.4177 88.9415 73.4471 90.5614C73.4766 92.1812 72.7697 93.4771 71.8567 93.5065ZM82.1059 98.1599C80.8689 96.3928 80.3682 93.3298 80.3093 91.9456C80.309 91.8723 80.3359 91.8015 80.3849 91.7471C80.434 91.6926 80.5015 91.6584 80.5744 91.6511C80.6512 91.6492 80.7261 91.6749 80.7855 91.7235C80.845 91.7722 80.885 91.8405 80.8984 91.9161C80.9867 93.2415 81.4285 96.1866 82.6066 97.8065C82.8117 98.0522 82.9538 98.3442 83.0205 98.6573C83.0873 98.9704 83.0766 99.295 82.9894 99.603C82.6066 100.869 81.0162 101.517 80.7217 101.635C80.6922 101.635 80.6628 101.665 80.6333 101.665C80.5757 101.669 80.5181 101.655 80.47 101.622C80.4218 101.59 80.386 101.543 80.3682 101.488C80.3542 101.451 80.3476 101.412 80.3489 101.373C80.3503 101.334 80.3594 101.295 80.3759 101.259C80.3924 101.224 80.4158 101.192 80.4448 101.165C80.4739 101.139 80.5079 101.118 80.5449 101.105C81.3401 100.811 82.2531 100.163 82.4593 99.4558C82.4919 99.2271 82.4773 98.9941 82.4166 98.7713C82.3558 98.5484 82.2501 98.3404 82.1059 98.1599ZM86.8771 106.141C86.4365 107.324 85.777 108.413 84.9332 109.352C83.9908 110.382 82.7538 111.207 81.2518 111.148C79.8184 111.028 78.4586 110.462 77.3642 109.528C76.3334 108.674 75.5676 107.555 75.3615 106.524C75.352 106.473 75.3582 106.421 75.3792 106.373C75.4003 106.326 75.4351 106.286 75.4793 106.259C75.5175 106.23 75.564 106.215 75.6118 106.215C75.6596 106.215 75.7061 106.23 75.7443 106.259C76.8046 106.907 78.8368 107.378 80.9867 107.378C83.1367 107.378 85.2572 106.936 86.4647 105.847C86.5022 105.807 86.5525 105.783 86.6065 105.777C86.6606 105.772 86.7148 105.786 86.7593 105.817C86.8074 105.855 86.844 105.905 86.8648 105.962C86.8857 106.02 86.8899 106.082 86.8771 106.141ZM91.177 91.1504C90.9414 92.7408 90.0284 93.9189 89.1154 93.801C88.2024 93.6832 87.6723 92.2696 87.9079 90.6792C88.1435 89.0888 89.0565 87.9107 89.9695 88.0285C90.8825 88.1463 91.4126 89.56 91.177 91.1504ZM95.5947 83.8464C95.546 83.9144 95.4733 83.9613 95.3913 83.9777C95.3093 83.9941 95.2241 83.9788 95.153 83.9347C94.3335 83.3751 93.4418 82.9292 92.5023 82.6094C91.3634 82.1859 90.1277 82.094 88.9387 82.3443C88.8578 82.3607 88.7739 82.3449 88.7044 82.3005C88.6349 82.2561 88.5854 82.1864 88.5663 82.1062C88.5472 82.026 88.56 81.9415 88.602 81.8706C88.644 81.7996 88.7119 81.7477 88.7914 81.7259C90.1167 81.3724 91.5304 81.6081 92.7379 81.9909C93.7493 82.3095 94.7036 82.7867 95.5653 83.4046C95.6266 83.46 95.664 83.5371 95.6695 83.6195C95.675 83.702 95.6482 83.7833 95.5947 83.8464Z" fill="#C06E3D"/>
<path d="M91.1767 91.15C90.9411 92.7404 90.0281 93.9185 89.1151 93.8007C88.2021 93.6829 87.6719 92.2692 87.9075 90.6788C88.1432 89.0884 89.0562 87.9103 89.9692 88.0281C90.8822 88.1459 91.4123 89.5596 91.1767 91.15Z" fill="black"/>
<path d="M73.4472 90.5611C73.4766 92.1809 72.7698 93.5062 71.8568 93.5062C70.9438 93.5062 70.1486 92.2398 70.1191 90.62C70.0897 89.0001 70.7965 87.6748 71.7095 87.6748C72.6225 87.6748 73.4177 88.9412 73.4472 90.5611Z" fill="black"/>
<path fill-rule="evenodd" clip-rule="evenodd" d="M72.71 81.9318C72.6965 82.0153 72.6533 82.0911 72.5883 82.1452C72.5234 82.1993 72.4411 82.2281 72.3565 82.2264C71.3714 82.1503 70.3804 82.2097 69.4114 82.4031C68.207 82.6108 67.0847 83.1515 66.1717 83.964C66.1131 84.0226 66.0337 84.0555 65.9508 84.0555C65.868 84.0555 65.7885 84.0226 65.7299 83.964C65.6713 83.9054 65.6384 83.826 65.6384 83.7431C65.6384 83.6603 65.6713 83.5808 65.7299 83.5222C66.7018 82.5503 68.0272 82.0496 69.2641 81.7846C70.2999 81.5697 71.3605 81.5003 72.4155 81.5784C72.4596 81.5775 72.5034 81.5866 72.5436 81.6049C72.5838 81.6232 72.6194 81.6504 72.6477 81.6843C72.676 81.7183 72.6962 81.7581 72.707 81.801C72.7178 81.8438 72.7188 81.8886 72.71 81.9318Z" fill="#2D140F"/>
<path fill-rule="evenodd" clip-rule="evenodd" d="M95.5941 83.8459C95.5454 83.9139 95.4727 83.9608 95.3907 83.9772C95.3087 83.9936 95.2235 83.9783 95.1524 83.9342C94.3328 83.3746 93.4411 82.9287 92.5017 82.6089C91.3628 82.1854 90.1271 82.0935 88.9381 82.3438C88.8572 82.3601 88.7732 82.3444 88.7038 82.3C88.6343 82.2556 88.5848 82.1859 88.5657 82.1057C88.5466 82.0255 88.5594 81.941 88.6014 81.8701C88.6434 81.7991 88.7113 81.7472 88.7908 81.7254C90.1161 81.3719 91.5298 81.6076 92.7373 81.9904C93.7487 82.309 94.703 82.7861 95.5647 83.4041C95.626 83.4595 95.6634 83.5366 95.6689 83.619C95.6744 83.7015 95.6476 83.7828 95.5941 83.8459Z" fill="#2D140F"/>
<path d="M82.9594 99.6029C82.5766 100.869 80.9862 101.517 80.6917 101.635C80.6622 101.635 80.6328 101.665 80.6033 101.665C80.5457 101.669 80.4881 101.654 80.44 101.622C80.3918 101.59 80.356 101.543 80.3382 101.488C80.3242 101.451 80.3176 101.412 80.319 101.373C80.3203 101.333 80.3294 101.295 80.3459 101.259C80.3624 101.223 80.3858 101.191 80.4148 101.165C80.4439 101.138 80.4779 101.118 80.5149 101.105C81.3101 100.81 82.2231 100.163 82.4293 99.4557C82.4852 99.2317 82.4877 98.9977 82.4365 98.7726C82.3854 98.5475 82.282 98.3376 82.1348 98.1598C80.8978 96.3927 80.3971 93.3297 80.3382 91.9455C80.3379 91.8722 80.3648 91.8015 80.4138 91.747C80.4629 91.6925 80.5304 91.6583 80.6033 91.651C80.6801 91.6491 80.755 91.6748 80.8144 91.7234C80.8739 91.7721 80.9139 91.8404 80.9273 91.916C81.0156 93.2414 81.4574 96.1865 82.6355 97.8064C82.8191 98.0632 82.9434 98.3575 82.9994 98.6682C83.0555 98.9789 83.0418 99.2982 82.9594 99.6029Z" fill="black"/>
<path fill-rule="evenodd" clip-rule="evenodd" d="M86.0528 106.789C85.6633 107.604 85.1574 108.358 84.5508 109.027C83.6673 109.999 82.5481 110.706 81.2522 110.647C79.9281 110.53 78.6729 110.005 77.6591 109.145C76.9283 108.575 76.3597 107.824 76.0098 106.966C77.2468 107.525 79.1022 107.879 80.9872 107.879C82.8132 107.908 84.6981 107.584 86.0528 106.789Z" fill="#AE5646"/>
<path d="M133.853 91.4152C132.439 89.118 131.88 82.3146 132.027 80.7537C132.115 79.7523 131.438 78.9571 130.79 78.2208C130.359 77.7797 130.001 77.2726 129.73 76.7188C129.317 75.8353 129.435 75.5702 129.818 74.7455C130.05 74.2396 130.247 73.718 130.407 73.1846C130.967 71.4175 129.759 70.6812 128.08 69.6799C127.462 69.297 126.755 68.8552 126.019 68.3251C125.282 67.7949 124.9 67.3237 124.841 66.9408C124.782 66.4696 125.224 65.91 125.813 65.1443C126.354 64.5048 126.846 63.8255 127.285 63.1121C127.904 62.0813 128.051 61.2272 127.727 60.4909C127.079 59.1067 124.87 58.4882 121.748 57.9875C120.688 57.8108 120.393 57.5752 120.305 57.428C120.187 57.1629 120.541 56.6328 120.894 56.0732C121.513 55.1307 122.308 53.9232 121.984 52.4801C121.889 51.9213 121.667 51.3917 121.335 50.9322C121.003 50.4726 120.57 50.0954 120.07 49.8294C119.48 49.476 119.157 49.2993 119.333 48.4452C119.657 46.7076 117.713 44.9994 116.005 43.4973C115.458 43.0355 114.937 42.5439 114.444 42.0247C113.296 40.7583 111.057 41.4652 109.084 42.0542C108.112 42.3487 107.199 42.6432 106.61 42.5843C105.815 42.5254 105.697 41.9069 105.638 40.346C105.628 39.5943 105.549 38.845 105.403 38.1077C104.872 35.9577 98.5993 36.1639 97.0678 36.2522C96.302 33.1303 90.7946 32.7769 88.409 32.7769C88.1903 32.7775 87.9759 32.7162 87.7905 32.6002C87.3433 32.3756 86.8477 32.2644 86.3474 32.2763C85.3383 32.3136 84.3384 32.4819 83.3727 32.7769C81.4878 33.2482 81.0461 33.6605 80.6926 33.955C80.4276 34.1906 80.2509 34.3379 79.3968 34.4851C78.5579 34.6119 77.7055 34.6218 76.8639 34.5146C76.1031 34.4003 75.3302 34.3903 74.5667 34.4851C73.801 34.6029 73.1236 35.1625 72.4756 35.7221C71.3565 36.6645 70.7674 37.018 70.1489 36.3111C69.7987 35.9299 69.361 35.6395 68.8736 35.4651C68.3862 35.2906 67.8636 35.2373 67.351 35.3098C65.9668 35.4865 64.7298 36.4584 63.9346 37.9899C63.0511 39.6981 62.1675 39.7275 60.5772 39.8159C59.5146 39.835 58.4575 39.9733 57.4258 40.2282C55.806 40.6405 54.7457 41.583 53.8033 42.4076C52.5958 43.4973 51.7122 44.2631 50.1218 43.5857C47.9718 42.6432 45.1445 43.2617 43.4068 44.2336C42.3171 44.8227 41.6692 45.5295 41.5514 46.2363C41.3158 47.7384 40.3733 48.0034 38.4884 48.0034C37.4576 48.0034 37.0747 49.1521 36.6919 50.3007C36.2501 51.626 35.7789 53.0102 34.3652 52.9513C34.0279 52.9249 33.6888 52.9688 33.3694 53.0803C33.05 53.1919 32.7572 53.3686 32.5097 53.5992C31.2433 54.8362 31.2433 57.3985 31.2433 58.7827V58.9889C31.2433 59.4896 30.7721 59.6957 29.9474 60.0786C28.8872 60.5204 27.5618 61.1094 27.2379 62.8176C27.0317 63.9368 27.2673 65.0559 27.5029 66.0573C27.8564 67.6771 28.1509 68.9436 26.5899 69.8566C24.44 71.0935 24.2044 72.6839 23.9393 74.5394C23.8404 75.2845 23.6928 76.0224 23.4975 76.7483C23.0852 78.2208 23.4681 79.2811 23.7331 80.0468C24.0276 80.8715 24.1454 81.2249 23.5859 81.6667C22.9085 82.1968 22.7612 83.3749 22.7318 84.2584C22.6729 86.2906 23.3503 89.2063 24.3811 90.1193C25.2057 90.8556 25.1763 91.1796 25.0585 92.9467C24.9995 93.7713 24.9406 94.8905 24.9406 96.4514C24.9406 100.103 28.1214 101.458 30.0358 102.253C30.5365 102.46 31.1844 102.754 31.2433 102.872C31.2433 103.019 31.2138 103.196 31.2138 103.373C31.1255 104.168 31.0077 105.14 32.2152 108.32C32.9515 110.264 33.4522 110.559 33.9234 110.677H33.9823C34.0707 110.824 34.0707 111.766 34.0707 112.061C34.0707 114.034 34.748 114.329 35.6905 114.535C36.1912 114.653 36.6919 114.77 37.0453 115.418C37.6049 116.39 37.5165 116.567 37.3398 116.92C37.1105 117.355 36.9988 117.843 37.0158 118.334C37.0124 118.509 37.0446 118.683 37.1104 118.845C37.1763 119.007 37.2743 119.154 37.3987 119.276C38.3117 120.16 40.6089 120.16 42.4644 120.131H43.2007C43.7308 120.131 44.1137 120.248 44.3493 120.513C44.8205 121.014 44.7322 122.104 44.6733 123.252V123.311C44.6365 123.598 44.674 123.89 44.7823 124.158C44.8906 124.426 45.0661 124.662 45.2917 124.843C46.1753 125.52 47.9424 125.52 50.1513 124.813C50.604 124.644 51.0897 124.583 51.5702 124.634C52.0507 124.685 52.5127 124.847 52.9197 125.108C53.7071 125.634 54.2568 126.449 54.4512 127.376C54.4499 127.52 54.4841 127.663 54.5508 127.792C54.6176 127.92 54.7149 128.03 54.8341 128.112C55.2759 128.436 56.0121 128.289 57.3669 128.024C57.9854 127.906 58.7217 127.759 59.6347 127.611C61.5491 127.317 61.608 127.493 61.7552 127.906C61.9253 128.451 62.2929 128.913 62.786 129.202C63.9935 129.938 64.8476 129.349 65.7312 128.672C66.3132 128.192 66.9836 127.832 67.7045 127.611C69.7072 127.111 71.6215 128.141 72.2106 129.084C72.262 129.159 72.3212 129.228 72.3873 129.29V133.59C72.1517 134.68 70.3257 136.977 68.1168 137.419C67.3805 137.566 65.3778 137.478 62.8155 137.36C61.5196 137.301 60.0765 137.242 58.5744 137.183C58.5466 137.138 58.5076 137.1 58.4612 137.075C58.4148 137.049 58.3625 137.036 58.3094 137.036H52.2423C52.1962 137.033 52.1503 137.043 52.1091 137.064C52.0678 137.084 52.0325 137.115 52.0067 137.154C46.1164 137.301 40.1672 138.008 36.8686 140.364C36.7356 140.455 36.6077 140.553 36.4857 140.658C36.4474 140.684 36.4165 140.719 36.3958 140.761C36.3752 140.802 36.3656 140.848 36.3679 140.894C36.3762 140.984 36.4183 141.069 36.4857 141.13C36.6624 141.247 51.4471 151.143 72.2106 153.499C74.1443 153.758 76.0913 153.906 78.042 153.941H78.0714C79.0433 153.97 80.0153 154 80.9872 154C86.3384 154.017 91.6741 153.424 96.8911 152.233C96.9205 152.233 96.9794 152.203 97.0089 152.203C102.722 151.025 105.844 149.641 106.374 149.376C106.404 149.376 106.404 149.347 106.433 149.347C111.002 147.625 115.352 145.372 119.392 142.632C120.108 142.151 120.797 141.63 121.454 141.071C121.496 141.043 121.528 141.002 121.544 140.954C121.56 140.905 121.56 140.853 121.542 140.806C121.539 140.757 121.524 140.71 121.498 140.669C121.472 140.628 121.437 140.594 121.395 140.57C119.274 139.51 114.444 137.949 107.582 137.33H107.494C105.314 137.095 101.603 137.006 101.338 137.006C101.276 137.012 101.215 137.033 101.162 137.065C98.9486 137.061 96.7369 137.169 94.5349 137.389C94.0931 137.33 89.1747 136.506 88.9097 133.59C88.8213 132.618 88.7624 130.851 88.7624 128.907C90.5295 129.467 93.0034 128.73 94.3288 128.141C94.6243 127.999 94.9013 127.821 95.1534 127.611C95.7719 127.14 96.1548 126.846 99.3061 128.141C103.253 129.732 103.665 129.496 105.609 127.052C105.785 126.816 105.992 126.58 106.198 126.315C108.053 124.077 110.763 125.373 112.206 126.08C112.45 126.212 112.707 126.32 112.972 126.404C114.12 126.728 118.096 123.459 119.304 120.808C119.363 120.749 119.539 120.661 119.716 120.543C120.953 119.777 123.486 118.157 123.486 116.626C123.486 115.006 123.839 114.417 125.194 113.681C125.556 113.491 125.93 113.323 126.313 113.18C127.462 112.709 128.787 112.149 129.73 110.353C130.319 109.233 130.23 108.792 130.054 108.203C129.906 107.731 129.73 107.231 130.407 105.64C131.202 103.726 131.585 103.579 131.703 103.549C131.997 103.431 132.027 103.255 132.027 102.872C132.027 101.959 132.027 100.221 132.969 96.5103C133.167 95.5523 133.569 94.6482 134.147 93.8597C134.678 93.1528 134.707 92.8289 133.853 91.4152ZM41.8164 143.633C39.372 142.367 37.7227 141.365 37.0453 140.923C37.1066 140.865 37.176 140.815 37.2514 140.776C40.4617 138.626 46.1458 137.949 51.8006 137.802C51.7517 141.066 51.1646 144.3 50.0629 147.373C47.2507 146.271 44.4981 145.023 41.8164 143.633ZM120.659 141.012C119.333 142.043 114.415 145.724 106.433 148.816C106.051 146.166 107.464 140.835 108.318 138.126C114.238 138.715 118.509 140.01 120.659 141.012ZM101.456 137.743C103.488 137.743 105.373 137.831 107.14 137.978H107.17C107.346 138.008 107.523 138.008 107.7 138.037C106.787 140.894 105.403 146.313 105.844 148.993V149.023C104.931 149.435 101.927 150.672 96.7732 151.703C92.2966 152.616 86.2001 153.411 78.4543 153.411H77.9242C75.9735 153.375 74.0265 153.228 72.0928 152.969H72.0044C62.4915 151.732 52.5663 148.345 50.5636 147.55C51.691 144.411 52.2882 141.107 52.3307 137.772C54.2451 137.743 56.13 137.772 57.9265 137.802C59.2518 142.455 63.699 150.996 71.7688 152.233C80.6043 153.617 96.0959 153.499 101.456 137.743ZM94.4171 138.067H94.476C96.7143 137.86 98.8349 137.772 100.838 137.743C96.7438 149.523 86.7597 152.203 78.4838 152.203C76.2843 152.193 74.0888 152.015 71.916 151.673C64.2586 150.495 59.9587 142.396 58.6039 137.831C60.047 137.89 61.4313 137.949 62.6682 137.978C65.3778 138.096 67.3216 138.184 68.1168 138.037C70.6496 137.566 72.6229 134.974 72.8585 133.737V121.191C75.3485 122.312 78.0504 122.884 80.781 122.87C83.3531 122.876 85.8924 122.292 88.2028 121.161C88.1439 122.84 88.1145 125.491 88.1145 127.994V128.701C88.1145 130.763 88.1734 132.647 88.2617 133.678C88.5268 136.653 92.7973 137.86 94.4171 138.067ZM56.8957 93.1823C56.6012 92.5049 56.2772 91.7686 56.0121 91.0618C55.3348 89.0885 56.5423 87.6454 57.8087 86.1433C58.1327 85.731 58.4861 85.3481 58.7806 84.9064C59.8703 83.4338 60.8128 83.4927 61.0778 83.6399C61.1407 83.6674 61.21 83.6764 61.2778 83.666C61.3456 83.6555 61.409 83.6261 61.4607 83.581C61.5037 83.5265 61.5271 83.4591 61.5271 83.3896C61.5271 83.3201 61.5037 83.2527 61.4607 83.1982C61.0189 82.668 60.1059 81.0777 59.782 78.9277C59.4874 76.925 62.2854 75.6585 63.8168 75.2462C66.8504 75.099 68.912 71.9476 69.6188 70.21C71.4039 69.0535 72.7193 67.2996 73.3297 65.2621C74.4783 65.9395 76.0982 67.1765 76.5989 68.2662C77.1584 69.4442 78.5721 69.5915 79.9269 69.7388C80.781 69.8271 81.694 69.9155 82.3419 70.2689C83.0488 70.6518 83.1666 71.2702 83.2844 72.0065C83.4316 72.8606 83.5789 73.8031 84.757 74.4216C85.8467 75.0106 87.2015 74.9222 88.4973 74.8633C89.7048 74.8044 90.8535 74.7455 91.5603 75.2168C92.1644 75.6481 92.6836 76.1872 93.0918 76.8072C93.7482 77.7682 94.5891 78.5892 95.5657 79.2222C96.9205 80.1057 97.8041 79.7229 98.5698 79.3695C99.1883 79.1044 99.7184 78.8688 100.543 79.2222C100.673 79.2755 100.789 79.3555 100.886 79.457C100.982 79.5585 101.056 79.6792 101.103 79.8112C101.456 80.7831 100.602 82.4913 100.042 83.6399C99.8657 84.0228 99.689 84.3468 99.6006 84.5824C99.3061 85.3481 99.9835 86.1433 100.72 86.9974C101.662 88.0871 102.251 88.8529 101.662 89.4419C100.366 90.7378 101.25 92.7405 102.222 95.0672C102.516 95.7151 102.781 96.3925 103.046 97.0993C103.606 98.6014 101.868 105.581 97.4212 111.972C95.4185 114.859 92.5322 118.098 88.7624 120.16C88.6705 120.221 88.5716 120.27 88.4679 120.307C88.3795 120.366 88.2617 120.396 88.1734 120.455C85.8619 121.618 83.3098 122.223 80.7221 122.222C78.4461 122.223 76.1895 121.804 74.066 120.985L73.4475 120.72C73.2414 120.631 73.0647 120.543 72.8585 120.455C67.0565 117.716 63.2867 112.414 61.2545 108.851C58.0443 103.166 56.9251 97.8651 57.2197 97.2171C58.4272 96.6576 57.7203 95.0672 56.8957 93.1823ZM133.617 93.5946C133.004 94.4504 132.573 95.4227 132.351 96.4514C131.408 100.221 131.408 101.988 131.408 102.931V103.078C131.143 103.196 130.672 103.461 129.818 105.493C129.082 107.29 129.288 107.938 129.435 108.468C129.553 108.88 129.671 109.175 129.141 110.146C128.287 111.766 127.167 112.208 125.989 112.709C125.596 112.861 125.212 113.038 124.841 113.239C123.28 114.093 122.809 114.888 122.809 116.714C122.809 117.922 120.246 119.512 119.304 120.131C118.833 120.425 118.685 120.513 118.685 120.661C117.419 123.37 113.679 126.139 113.031 125.933C112.795 125.858 112.568 125.759 112.353 125.638C110.881 124.931 107.759 123.429 105.638 126.021C105.432 126.286 105.226 126.522 105.049 126.757C103.253 128.995 103.105 129.172 99.4239 127.67C96.1253 126.345 95.5363 126.61 94.6822 127.228C94.4594 127.395 94.223 127.543 93.9753 127.67C92.9445 128.141 90.2939 128.995 88.6446 128.348C88.6446 125.579 88.674 122.575 88.7329 120.867C92.7384 118.776 95.8013 115.389 97.8924 112.355C102.222 106.112 104.283 98.8075 103.577 96.9226C103.312 96.2158 103.017 95.509 102.722 94.861C101.78 92.6227 101.014 90.885 102.016 89.8837C103.017 88.8823 101.957 87.6454 101.103 86.644C100.514 85.9666 99.8951 85.2598 100.072 84.8475C100.16 84.6118 100.307 84.2879 100.484 83.9345C101.132 82.6386 101.986 80.842 101.574 79.664C101.499 79.4549 101.381 79.2635 101.23 79.1014C101.078 78.9393 100.894 78.81 100.69 78.7215C99.6301 78.2208 98.8938 78.5743 98.2458 78.8393C97.5095 79.1633 96.8911 79.4284 95.8013 78.7215C94.8813 78.1296 94.09 77.3583 93.4747 76.4537C93.0176 75.7836 92.4499 75.196 91.7959 74.7161C90.9124 74.1271 89.6754 74.186 88.3795 74.2743C87.1426 74.3332 85.8761 74.4216 84.9631 73.9209C84.0501 73.4202 83.9323 72.6839 83.7851 71.9182C83.6378 71.1524 83.52 70.2983 82.5481 69.7682C81.7824 69.3559 80.8399 69.2675 79.9269 69.1792C78.6605 69.0614 77.4824 68.9141 77.0701 68.0306C76.2454 66.234 73.3297 64.6142 73.2119 64.5553C73.1717 64.5366 73.1279 64.5272 73.0836 64.5278C73.0393 64.5285 72.9957 64.5391 72.956 64.5589C72.9164 64.5787 72.8818 64.6072 72.8547 64.6423C72.8276 64.6773 72.8088 64.7181 72.7996 64.7614C72.6229 65.8217 71.6215 68.2367 69.177 69.7682C69.1227 69.8031 69.0813 69.8548 69.0592 69.9155C68.4407 71.5059 66.5264 74.5688 63.699 74.6866H63.6401C61.9319 75.1284 58.7806 76.601 59.134 79.016C59.3398 80.417 59.8095 81.7662 60.5182 82.992C59.8998 83.0509 59.0751 83.4338 58.2505 84.5529C57.9516 84.9657 57.627 85.3591 57.2786 85.731C55.9532 87.3214 54.5985 88.9412 55.3937 91.2385C55.6587 92.0042 55.9827 92.711 56.2772 93.4179C57.1019 95.2733 57.5436 96.422 56.8662 96.7754C56.6895 96.8637 56.2183 97.0993 56.8662 99.8384C58.0738 104.904 62.8155 116.331 72.1517 120.926V128.436C71.6796 127.965 71.1191 127.593 70.5024 127.34C69.8857 127.088 69.225 126.959 68.5586 126.963C68.1519 126.969 67.7471 127.018 67.351 127.111C66.5541 127.342 65.8126 127.732 65.1716 128.259C64.2292 128.937 63.7285 129.261 62.8744 128.76C62.4965 128.547 62.2125 128.2 62.0792 127.788C61.8141 126.993 61.4018 126.787 59.3107 127.111C58.3977 127.258 57.632 127.405 57.043 127.523C55.9827 127.729 55.217 127.876 54.9813 127.7C54.9355 127.659 54.8988 127.609 54.8734 127.553C54.848 127.497 54.8346 127.437 54.8341 127.376C54.7457 126.551 54.0978 125.373 53.0375 124.666C52.5561 124.361 52.011 124.17 51.4441 124.109C50.8773 124.047 50.3039 124.117 49.7684 124.313C47.7657 124.961 46.1753 124.99 45.4685 124.43C45.3155 124.311 45.1986 124.151 45.131 123.969C45.0634 123.787 45.0477 123.59 45.0856 123.4V123.341C45.1739 122.074 45.2623 120.867 44.6144 120.16C44.2609 119.777 43.7603 119.6 43.0534 119.6H42.3171C40.7562 119.63 38.4001 119.659 37.6638 118.923C37.5952 118.859 37.5412 118.782 37.5056 118.695C37.47 118.609 37.4536 118.516 37.4576 118.422C37.4416 118.023 37.5331 117.626 37.7227 117.274C37.9877 116.773 38.1055 116.42 37.3987 115.212C37.2182 114.89 36.964 114.615 36.6568 114.411C36.3496 114.206 35.9983 114.077 35.6316 114.034C34.9542 113.887 34.483 113.769 34.483 112.149C34.483 110.677 34.4241 110.323 33.894 110.176C33.6878 110.117 33.2755 109.999 32.5686 108.173C31.42 105.11 31.5084 104.227 31.5967 103.49C31.6324 103.306 31.6521 103.119 31.6556 102.931C31.6556 102.46 31.0666 102.194 30.0947 101.782C28.2098 100.987 25.3824 99.75 25.3824 96.5103C25.3824 94.9494 25.4413 93.8597 25.5002 93.035C25.618 91.209 25.6475 90.6494 24.6167 89.7364C23.8215 89.0296 23.1146 86.3789 23.1735 84.3173C23.203 83.2276 23.4386 82.4619 23.8215 82.1674C24.7345 81.4311 24.44 80.6653 24.1455 79.8701C23.8804 79.1338 23.527 78.2208 23.9098 76.925C24.1196 76.1826 24.2673 75.424 24.3516 74.6572C24.6167 72.8901 24.8228 71.5059 26.7077 70.4161C28.6516 69.297 28.2687 67.6182 27.9153 65.9984C27.7091 65.0265 27.4735 63.9957 27.6502 62.9943C27.9153 61.5807 29.0344 61.1094 30.0063 60.6676C30.8604 60.2848 31.6556 59.9608 31.6556 59.0478V58.8711C31.6556 57.6636 31.6556 55.1602 32.7453 54.0999C32.932 53.921 33.1546 53.7838 33.3983 53.6975C33.642 53.6112 33.9013 53.5777 34.159 53.5992C36.0145 53.6876 36.6035 51.95 37.0747 50.5363C37.4576 49.3582 37.7521 48.6514 38.3117 48.6514C39.9904 48.6514 41.6397 48.4747 41.9637 46.3836C42.0521 45.9124 42.6116 45.3233 43.4952 44.8227C45.115 43.9391 47.7657 43.3501 49.7095 44.2042C51.6533 45.0583 52.8019 44.0275 54.0094 42.9377C54.893 42.1426 55.8943 41.259 57.3669 40.8761C58.3606 40.6315 59.3775 40.4933 60.4004 40.4638C62.0203 40.3755 63.1984 40.3166 64.2586 38.3138C64.9655 36.9591 66.0552 36.105 67.2332 35.9577C67.6545 35.8943 68.0849 35.9365 68.4858 36.0804C68.8867 36.2244 69.2457 36.4655 69.5305 36.7824C70.6202 37.9604 71.7099 37.0474 72.6818 36.2228C73.2708 35.7221 73.8893 35.2214 74.4783 35.1331C75.1927 35.039 75.9168 35.049 76.6283 35.1625C77.5173 35.2994 78.4227 35.2894 79.3084 35.1331C80.3098 34.9564 80.5748 34.7207 80.8988 34.4557C81.2228 34.1906 81.6056 33.8372 83.3433 33.3954C86.2001 32.6591 86.8775 32.9536 87.3782 33.1893C87.6405 33.33 87.9346 33.401 88.2323 33.3954C90.0288 33.3954 95.8897 33.631 96.3609 36.6351C96.3753 36.708 96.4166 36.7728 96.4767 36.8165C96.5368 36.8602 96.6111 36.8795 96.6849 36.8707C100.337 36.6351 104.372 37.018 104.666 38.2549C104.816 38.9521 104.895 39.6625 104.902 40.3755C104.961 41.7597 104.99 43.0556 106.404 43.1734C107.081 43.2323 107.994 42.9377 109.084 42.6138C110.881 42.0542 112.913 41.4357 113.826 42.4076C114.339 42.9363 114.88 43.4376 115.446 43.9097C117.036 45.3233 118.833 46.8843 118.567 48.298C118.332 49.5349 118.98 49.9178 119.569 50.3007C120.158 50.6835 120.924 51.1253 121.218 52.5684C121.483 53.776 120.776 54.8657 120.217 55.7198C119.746 56.4266 119.333 57.0745 119.569 57.6341C119.775 58.0759 120.364 58.3704 121.454 58.5471C124.016 58.9595 126.431 59.519 126.991 60.7265C127.226 61.2567 127.108 61.9341 126.608 62.7882C126.178 63.4745 125.706 64.1336 125.194 64.7614C124.487 65.6155 123.987 66.2635 124.104 66.9998C124.163 67.5593 124.605 68.1189 125.518 68.7963C126.284 69.3559 126.991 69.7977 127.639 70.1805C129.347 71.2113 130.113 71.7415 129.7 73.0079C129.537 73.5209 129.34 74.0226 129.111 74.5099C128.728 75.364 128.522 75.8353 129.023 76.9544C129.337 77.549 129.723 78.1028 130.171 78.6037C130.79 79.3106 131.32 79.929 131.261 80.6948C131.143 82.079 131.615 89.1474 133.176 91.7097C134.089 92.9467 134.03 93.035 133.617 93.5946Z" fill="black"/>
<path d="M86.788 105.847C86.7437 105.815 86.6894 105.8 86.6351 105.806C86.5809 105.811 86.5305 105.836 86.4934 105.876C85.2859 106.936 83.1654 107.408 81.0154 107.408C78.8655 107.408 76.8333 106.936 75.773 106.288C75.7348 106.26 75.6883 106.244 75.6405 106.244C75.5927 106.244 75.5462 106.26 75.508 106.288C75.4671 106.319 75.4348 106.359 75.4142 106.406C75.3935 106.452 75.3853 106.503 75.3902 106.554C75.5963 107.584 76.3326 108.704 77.3929 109.558C78.4843 110.496 79.8457 111.063 81.2805 111.177C82.7825 111.266 84.0195 110.441 84.962 109.381C85.7997 108.438 86.4584 107.35 86.9058 106.171C86.9089 106.112 86.9 106.052 86.8798 105.997C86.8595 105.941 86.8283 105.89 86.788 105.847ZM81.2805 110.647C79.9564 110.53 78.7012 110.005 77.6874 109.145C76.9566 108.575 76.3879 107.824 76.0381 106.966C77.2751 107.525 79.1305 107.879 81.0154 107.879C82.8414 107.879 84.7264 107.555 86.0811 106.76C85.6916 107.575 85.1856 108.329 84.5791 108.998C83.6661 109.999 82.5764 110.706 81.2805 110.647Z" fill="black"/>
</g>
</g>
<rect x="3.36134" y="1.36134" width="153.277" height="153.277" rx="76.6387" stroke="#3F4561" stroke-width="1.27731"/>
</g>
<defs>
<filter id="filter0_d_78_30" x="0.168096" y="0.722656" width="159.664" height="162.219" filterUnits="userSpaceOnUse" color-interpolation-filters="sRGB">
<feFlood flood-opacity="0" result="BackgroundImageFix"/>
<feColorMatrix in="SourceAlpha" type="matrix" values="0 0 0 0 0 0 0 0 0 0 0 0 0 0 0 0 0 0 127 0" result="hardAlpha"/>
<feOffset dy="5.10924"/>
<feGaussianBlur stdDeviation="1.27731"/>
<feComposite in2="hardAlpha" operator="out"/>
<feColorMatrix type="matrix" values="0 0 0 0 0 0 0 0 0 0 0 0 0 0 0 0 0 0 0.02 0"/>
<feBlend mode="normal" in2="BackgroundImageFix" result="effect1_dropShadow_78_30"/>
<feBlend mode="normal" in="SourceGraphic" in2="effect1_dropShadow_78_30" result="shape"/>
</filter>
<clipPath id="clip0_78_30">
<rect x="4" y="2" width="152" height="152" rx="76" fill="white"/>
</clipPath>
<clipPath id="clip1_78_30">
<rect width="151.676" height="152" fill="white" transform="translate(4 2)"/>
</clipPath>
</defs>
</svg>
