<svg width="86" height="87" viewBox="0 0 86 87" fill="none" xmlns="http://www.w3.org/2000/svg">
<path d="M86 43.5C86 67.2482 66.7482 86.5 43 86.5C19.2518 86.5 0 67.2482 0 43.5C0 19.7518 19.2518 0.5 43 0.5C66.7482 0.5 86 19.7518 86 43.5ZM10.75 43.5C10.75 61.3112 25.1888 75.75 43 75.75C60.8112 75.75 75.25 61.3112 75.25 43.5C75.25 25.6888 60.8112 11.25 43 11.25C25.1888 11.25 10.75 25.6888 10.75 43.5Z" fill="#363C53"/>
<path d="M86 43.5C86 67.2482 66.7482 86.5 43 86.5C19.2518 86.5 0 67.2482 0 43.5C0 19.7518 19.2518 0.5 43 0.5C66.7482 0.5 86 19.7518 86 43.5ZM10.75 43.5C10.75 61.3112 25.1888 75.75 43 75.75C60.8112 75.75 75.25 61.3112 75.25 43.5C75.25 25.6888 60.8112 11.25 43 11.25C25.1888 11.25 10.75 25.6888 10.75 43.5Z" fill="#EEA20E"/>
<path d="M33.1232 52.2293C32.0988 52.2293 31.1815 52.0535 30.3712 51.7019C29.5609 51.3502 28.9188 50.8228 28.4448 50.1195C27.9861 49.4009 27.7568 48.5141 27.7568 47.4592L30.0043 47.1381C30.0348 48.1319 30.3406 48.8964 30.9216 49.4315C31.5179 49.9513 32.267 50.2112 33.1691 50.2112C33.9488 50.2112 34.5909 50.0048 35.0955 49.592C35.6153 49.1639 35.8752 48.6288 35.8752 47.9867C35.8752 47.4821 35.7452 47.0923 35.4853 46.8171C35.2254 46.5266 34.8967 46.3202 34.4992 46.1979C34.117 46.0603 33.7348 45.9915 33.3525 45.9915H31.816V44.776H33.3984C34.0252 44.776 34.5604 44.646 35.0037 44.3861C35.4624 44.1262 35.6917 43.6981 35.6917 43.1019C35.6917 42.3986 35.4471 41.8405 34.9579 41.4277C34.4686 41.0149 33.8112 40.8085 32.9856 40.8085C32.3282 40.8085 31.7931 40.9461 31.3803 41.2213C30.9675 41.4965 30.654 41.8329 30.44 42.2304C30.2412 42.6279 30.1342 43.0101 30.1189 43.3771L28.032 43.0331C28.032 42.7884 28.1084 42.4444 28.2613 42.0011C28.4142 41.5424 28.6665 41.0761 29.0181 40.6021C29.3851 40.1129 29.882 39.7001 30.5088 39.3637C31.1509 39.0274 31.9536 38.8592 32.9168 38.8592C34.461 38.8592 35.6612 39.1956 36.5173 39.8683C37.3735 40.5257 37.8016 41.4201 37.8016 42.5515C37.8016 43.3006 37.5876 43.9428 37.1595 44.4779C36.7467 45.013 36.1351 45.334 35.3248 45.4411C36.1351 45.5481 36.7925 45.8844 37.2971 46.4501C37.8016 47.0005 38.0539 47.6809 38.0539 48.4912C38.0539 49.2709 37.8398 49.9436 37.4117 50.5093C36.9989 51.0597 36.418 51.4878 35.6688 51.7936C34.9196 52.0841 34.0711 52.2293 33.1232 52.2293ZM39.3983 52L45.2234 39.0885H47.4479L41.6229 52H39.3983ZM53.7946 52.2293C52.7702 52.2293 51.8529 52.0535 51.0426 51.7019C50.2322 51.3502 49.5901 50.8228 49.1162 50.1195C48.6575 49.4009 48.4282 48.5141 48.4282 47.4592L50.6756 47.1381C50.7062 48.1319 51.012 48.8964 51.593 49.4315C52.1892 49.9513 52.9384 50.2112 53.8404 50.2112C54.6202 50.2112 55.2623 50.0048 55.7668 49.592C56.2866 49.1639 56.5466 48.6288 56.5466 47.9867C56.5466 47.4821 56.4166 47.0923 56.1567 46.8171C55.8968 46.5266 55.5681 46.3202 55.1706 46.1979C54.7883 46.0603 54.4061 45.9915 54.0239 45.9915H52.4874V44.776H54.0698C54.6966 44.776 55.2317 44.646 55.6751 44.3861C56.1338 44.1262 56.3631 43.6981 56.3631 43.1019C56.3631 42.3986 56.1185 41.8405 55.6292 41.4277C55.14 41.0149 54.4826 40.8085 53.657 40.8085C52.9995 40.8085 52.4644 40.9461 52.0516 41.2213C51.6388 41.4965 51.3254 41.8329 51.1114 42.2304C50.9126 42.6279 50.8056 43.0101 50.7903 43.3771L48.7034 43.0331C48.7034 42.7884 48.7798 42.4444 48.9327 42.0011C49.0856 41.5424 49.3378 41.0761 49.6895 40.6021C50.0564 40.1129 50.5533 39.7001 51.1802 39.3637C51.8223 39.0274 52.625 38.8592 53.5882 38.8592C55.1323 38.8592 56.3325 39.1956 57.1887 39.8683C58.0449 40.5257 58.473 41.4201 58.473 42.5515C58.473 43.3006 58.2589 43.9428 57.8308 44.4779C57.418 45.013 56.8065 45.334 55.9962 45.4411C56.8065 45.5481 57.4639 45.8844 57.9684 46.4501C58.473 47.0005 58.7252 47.6809 58.7252 48.4912C58.7252 49.2709 58.5112 49.9436 58.0831 50.5093C57.6703 51.0597 57.0893 51.4878 56.3402 51.7936C55.591 52.0841 54.7425 52.2293 53.7946 52.2293Z" fill="white"/>
</svg>
