<svg width="52" height="52" viewBox="0 0 52 52" fill="none" xmlns="http://www.w3.org/2000/svg">
<rect x="0.5" y="0.5" width="51" height="51" rx="25.5" fill="#363A4D"/>
<rect x="0.5" y="0.5" width="51" height="51" rx="25.5" stroke="#6A7294"/>
<path fill-rule="evenodd" clip-rule="evenodd" d="M26 15C26.1831 15.0001 26.3638 15.0414 26.5288 15.1207C26.6938 15.2 26.8389 15.3154 26.9533 15.4583L31.8422 21.5694C31.9485 21.6939 32.0288 21.8385 32.0781 21.9946C32.1275 22.1507 32.145 22.3152 32.1295 22.4782C32.1141 22.6411 32.0661 22.7994 31.9884 22.9435C31.9107 23.0875 31.8048 23.2145 31.677 23.3169C31.5493 23.4193 31.4022 23.4949 31.2447 23.5394C31.0871 23.5839 30.9222 23.5962 30.7598 23.5757C30.5973 23.5552 30.4407 23.5023 30.2991 23.4201C30.1575 23.3379 30.0339 23.2281 29.9356 23.0972L27.2222 19.7056V28.4444C27.2222 28.7686 27.0935 29.0795 26.8642 29.3087C26.635 29.5379 26.3242 29.6667 26 29.6667C25.6758 29.6667 25.365 29.5379 25.1358 29.3087C24.9065 29.0795 24.7778 28.7686 24.7778 28.4444V19.7056L22.0644 23.0984C21.9661 23.2293 21.8425 23.3391 21.7009 23.4213C21.5593 23.5035 21.4027 23.5565 21.2402 23.5769C21.0778 23.5974 20.9129 23.5851 20.7553 23.5406C20.5978 23.4962 20.4507 23.4205 20.323 23.3181C20.1952 23.2158 20.0893 23.0888 20.0116 22.9447C19.9339 22.8006 19.8859 22.6424 19.8705 22.4794C19.855 22.3164 19.8725 22.152 19.9219 21.9959C19.9712 21.8398 20.0515 21.6952 20.1578 21.5707L25.0467 15.4596C25.161 15.3164 25.306 15.2008 25.471 15.1212C25.636 15.0417 25.8168 15.0003 26 15ZM22.3333 28.4444V27.2222H17.4444C16.7961 27.2222 16.1744 27.4798 15.716 27.9382C15.2575 28.3966 15 29.0184 15 29.6667V34.5556C15 35.2039 15.2575 35.8256 15.716 36.284C16.1744 36.7425 16.7961 37 17.4444 37H34.5556C35.2039 37 35.8256 36.7425 36.284 36.284C36.7425 35.8256 37 35.2039 37 34.5556V29.6667C37 29.0184 36.7425 28.3966 36.284 27.9382C35.8256 27.4798 35.2039 27.2222 34.5556 27.2222H29.6667V28.4444C29.6667 29.4169 29.2804 30.3495 28.5927 31.0372C27.9051 31.7248 26.9725 32.1111 26 32.1111C25.0275 32.1111 24.0949 31.7248 23.4073 31.0372C22.7196 30.3495 22.3333 29.4169 22.3333 28.4444ZM32.1111 30.8889C31.787 30.8889 31.4761 31.0177 31.2469 31.2469C31.0177 31.4761 30.8889 31.787 30.8889 32.1111C30.8889 32.4353 31.0177 32.7461 31.2469 32.9754C31.4761 33.2046 31.787 33.3333 32.1111 33.3333H32.1233C32.4475 33.3333 32.7584 33.2046 32.9876 32.9754C33.2168 32.7461 33.3456 32.4353 33.3456 32.1111C33.3456 31.787 33.2168 31.4761 32.9876 31.2469C32.7584 31.0177 32.4475 30.8889 32.1233 30.8889H32.1111Z" fill="white"/>
</svg>
