<svg width="52" height="52" viewBox="0 0 52 52" fill="none" xmlns="http://www.w3.org/2000/svg">
<g clip-path="url(#clip0_530_2202)">
<rect x="1" y="1" width="50" height="50" rx="25" fill="#363A4D"/>
<g clip-path="url(#clip1_530_2202)">
<rect x="1" y="1" width="50" height="50" rx="25" fill="#363A4D"/>
<g clip-path="url(#clip2_530_2202)">
<rect x="-2" y="-4" width="55" height="55" rx="27.5" fill="#292C3A"/>
<g clip-path="url(#clip3_530_2202)">
<path d="M18.2667 38.916C18.2346 39.023 18.2025 39.1192 18.1704 39.2048L18.3094 39.1727C18.2883 39.0884 18.2739 39.0026 18.2667 38.916ZM18.2667 38.916C18.2346 39.023 18.2025 39.1192 18.1704 39.2048L18.3094 39.1727C18.2883 39.0884 18.2739 39.0026 18.2667 38.916ZM18.2667 38.916C18.2346 39.023 18.2025 39.1192 18.1704 39.2048L18.3094 39.1727C18.2883 39.0884 18.2739 39.0026 18.2667 38.916ZM18.2667 38.916C18.2346 39.023 18.2025 39.1192 18.1704 39.2048L18.3094 39.1727C18.2883 39.0884 18.2739 39.0026 18.2667 38.916ZM18.2667 38.916C18.2346 39.023 18.2025 39.1192 18.1704 39.2048L18.3094 39.1727C18.2883 39.0884 18.2739 39.0026 18.2667 38.916ZM18.2667 38.916C18.2346 39.023 18.2025 39.1192 18.1704 39.2048L18.3094 39.1727C18.2883 39.0884 18.2739 39.0026 18.2667 38.916ZM18.2667 38.916C18.2346 39.023 18.2025 39.1192 18.1704 39.2048L18.3094 39.1727C18.2883 39.0884 18.2739 39.0026 18.2667 38.916ZM17.0582 39.0657C16.9406 39.2796 16.8443 39.44 16.7588 39.5791C16.8871 39.547 17.0048 39.5042 17.1224 39.4721C17.101 39.3438 17.0796 39.2048 17.0582 39.0657ZM18.2667 38.916C18.2346 39.023 18.2025 39.1192 18.1704 39.2048L18.3094 39.1727C18.2883 39.0884 18.2739 39.0026 18.2667 38.916ZM18.2667 38.916C18.2346 39.023 18.2025 39.1192 18.1704 39.2048L18.3094 39.1727C18.2883 39.0884 18.2739 39.0026 18.2667 38.916ZM18.2667 38.916C18.2346 39.023 18.2025 39.1192 18.1704 39.2048L18.3094 39.1727C18.2883 39.0884 18.2739 39.0026 18.2667 38.916ZM18.2667 38.916C18.2346 39.023 18.2025 39.1192 18.1704 39.2048L18.3094 39.1727C18.2883 39.0884 18.2739 39.0026 18.2667 38.916ZM18.2667 38.916C18.2346 39.023 18.2025 39.1192 18.1704 39.2048L18.3094 39.1727C18.2883 39.0884 18.2739 39.0026 18.2667 38.916ZM18.2667 38.916C18.2346 39.023 18.2025 39.1192 18.1704 39.2048L18.3094 39.1727C18.2883 39.0884 18.2739 39.0026 18.2667 38.916Z" fill="#363A4D"/>
<path d="M41.9653 45.7168C37.8723 48.6848 33.0459 50.4778 28.0078 50.9019C22.9697 51.326 17.9115 50.365 13.3799 48.123C16.0855 49.4384 20.1386 50.85 25.0579 50.85C30.3943 50.85 34.9607 49.2779 37.8588 47.9519C39.2831 47.3136 40.656 46.5663 41.9653 45.7168Z" fill="white"/>
<path d="M53.2476 23.5588C53.2542 27.6726 52.3314 31.7348 50.5481 35.4421C48.7649 39.1493 46.1672 42.4058 42.9491 44.9685C42.9487 44.9487 42.9411 44.9296 42.9277 44.915C42.3395 44.2199 39.0457 40.9796 37.7518 40.4983C37.3454 40.3486 36.5968 40.1241 35.6557 39.8781C35.6985 39.5893 35.7413 39.1616 35.7733 38.5199C36.4364 40.1989 36.5861 40.1561 36.6716 40.1241C36.8107 40.0813 36.939 39.7177 37.0246 39.0546C37.5058 39.8567 37.6662 39.7925 37.7304 39.7711C37.7492 39.7629 37.7652 39.7495 37.7766 39.7324C37.788 39.7154 37.7942 39.6954 37.7945 39.6749C37.8052 39.3755 37.8159 39.0332 37.8266 38.6696C37.9015 35.8892 38.0405 31.2265 37.6341 26.9596C37.57 26.3179 37.5058 25.7083 37.4202 25.1309C38.0512 21.4414 37.7731 16.1371 34.9606 12.715C33.0142 10.3515 30.1268 9.1538 26.3839 9.1538C22.6195 9.1538 19.6893 10.3622 17.6575 12.7363C14.631 16.2761 14.246 21.8478 14.8449 25.5265C14.8453 25.5464 14.8529 25.5654 14.8663 25.58C14.3743 29.2588 14.0856 33.9108 13.861 39.6535C13.8605 39.6785 13.8688 39.7029 13.8844 39.7225C13.9001 39.742 13.9221 39.7555 13.9466 39.7605C14.0107 39.7711 14.1391 39.8032 14.877 38.8301C14.7593 39.9102 14.9411 39.9423 15.016 39.9529C15.155 39.9743 15.3689 39.7818 15.647 39.3648C15.713 39.5292 15.7879 39.6898 15.8715 39.846C15.1657 40.092 14.4385 40.37 13.7006 40.6908C11.8078 41.5143 10.1181 42.9152 8.99519 43.8456C8.64228 44.1344 8.34285 44.391 8.11827 44.5514C8.09378 44.5736 8.07851 44.6041 8.07549 44.637C8.07271 44.6555 8.07649 44.6744 8.08619 44.6905C4.96566 42.1203 2.45409 38.8899 0.732442 35.2321C-0.989203 31.5743 -1.87805 27.5801 -1.87006 23.5374C-1.85937 8.34105 10.4817 -4 25.6994 -4C40.9172 -4 53.2476 8.34105 53.2476 23.5588Z" fill="#363A4D"/>
<path d="M37.3136 24.4139C36.7254 20.7459 35.6881 18.3397 34.2337 17.2489C34.2337 15.8372 33.7204 13.8374 32.2767 12.3723C31.0041 11.089 29.2609 10.4474 27.0793 10.4474C25.1392 10.4374 23.2428 11.0235 21.6467 12.1264C20.4489 12.9712 19.5827 14.0834 19.4758 14.8962C17.091 16.126 15.7649 19.3128 14.9628 24.8845C14.5244 21.2699 15.0056 16.1901 17.8182 12.8964C19.8073 10.565 22.684 9.38867 26.3842 9.38867C30.063 9.38867 32.8969 10.565 34.8005 12.875C37.3992 16.0083 37.7948 20.8207 37.3136 24.4139Z" fill="#4377A5"/>
<path d="M37.613 38.6593C37.6023 38.9587 37.5916 39.2261 37.5916 39.4827C37.3903 39.2278 37.2114 38.9558 37.0569 38.67C37.0458 38.6495 37.0283 38.6331 37.0071 38.6235C36.9858 38.6138 36.962 38.6114 36.9393 38.6165C36.9165 38.6211 36.8958 38.633 36.8804 38.6503C36.865 38.6677 36.8556 38.6896 36.8537 38.7128C36.8003 39.1726 36.704 39.6966 36.6292 39.8677C36.4687 39.6432 36.0837 38.7555 35.7843 37.9321C35.7767 37.9084 35.7602 37.8885 35.7383 37.8765C35.7164 37.8646 35.6908 37.8615 35.6667 37.8679C35.6422 37.8729 35.6202 37.8864 35.6045 37.9059C35.5889 37.9254 35.5806 37.9499 35.5811 37.9749C35.5727 38.5899 35.5298 39.204 35.4528 39.8143C35.1641 39.7394 34.8646 39.6645 34.5438 39.5897C34.5015 39.546 34.4622 39.4996 34.4262 39.4507C34.4138 39.435 34.3969 39.4235 34.3777 39.4178C34.3586 39.412 34.3382 39.4123 34.3192 39.4186C34.2999 39.423 34.2819 39.4321 34.267 39.4452C34.2521 39.4583 34.2406 39.4749 34.2337 39.4934C34.2344 39.4992 34.2338 39.5051 34.2319 39.5107C34.2301 39.5162 34.227 39.5213 34.223 39.5255C32.4905 39.1298 30.4586 38.7662 28.7476 38.7021C28.5444 37.5899 28.523 36.9268 28.6513 35.9751C32.6082 34.3709 34.7149 28.9383 34.8218 25.6231V25.3558C34.8218 22.2866 33.7952 19.8804 33.2177 18.9928C33.9556 16.3192 32.298 14.2232 31.1965 13.3997C31.1853 13.3913 31.1725 13.3852 31.1589 13.3817C31.1453 13.3782 31.1311 13.3774 31.1172 13.3794C31.1033 13.3814 31.09 13.3861 31.0779 13.3932C31.0658 13.4004 31.0552 13.4099 31.0468 13.4211C31.0384 13.4323 31.0322 13.4451 31.0288 13.4587C31.0253 13.4723 31.0245 13.4865 31.0265 13.5004C31.0285 13.5143 31.0332 13.5277 31.0403 13.5398C31.0475 13.5518 31.057 13.5624 31.0682 13.5708C32.1269 14.3622 33.7203 16.3727 33.0145 18.9393C31.004 21.3669 27.4429 21.57 25.657 21.3027C25.4217 21.2706 25.2613 21.2599 25.1543 21.2492H25.0795C25.0795 21.2385 25.0902 21.2278 25.0902 21.2171C25.165 21.0246 25.3254 20.5969 25.3254 19.6558C25.3254 19.3457 25.304 18.9821 25.2613 18.5436C24.9832 15.8059 21.8498 15.1963 20.235 15.2498C20.2073 15.2518 20.1813 15.2637 20.1616 15.2833C20.142 15.303 20.1301 15.329 20.1281 15.3567C20.1281 17.549 19.4757 18.7147 18.7913 19.9338C18.0427 21.2492 17.2834 22.6074 17.2834 25.3558V25.6231C17.3369 28.2218 18.2245 30.8526 19.7324 32.8738C20.6521 34.1036 21.7429 35.034 22.9513 35.6329C23.0797 36.7771 23.069 37.4616 22.9086 38.6914H22.6733C21.2753 38.6949 19.8813 38.8418 18.5133 39.1298C18.4705 38.9053 18.4277 38.67 18.3956 38.4454C18.3922 38.4211 18.3809 38.3986 18.3636 38.3812C18.3462 38.3639 18.3237 38.3526 18.2994 38.3492C18.2758 38.3481 18.2525 38.3548 18.2332 38.3684C18.2138 38.3819 18.1995 38.4015 18.1924 38.424C18.1069 38.7021 17.9999 39.0015 17.9037 39.2689C17.7112 39.3116 17.5187 39.3651 17.3262 39.4186C17.2834 39.2047 17.2514 38.9587 17.2193 38.7128C17.2165 38.6899 17.2068 38.6685 17.1915 38.6513C17.1762 38.6341 17.1561 38.622 17.1337 38.6165C17.111 38.6114 17.0872 38.6138 17.0659 38.6235C17.0447 38.6331 17.0272 38.6495 17.0161 38.67C16.8236 39.0336 16.599 39.4186 16.4279 39.6752C16.3103 39.7073 16.2033 39.7501 16.0857 39.7822C15.9622 39.5637 15.8584 39.3346 15.7756 39.0978C15.7701 39.0793 15.7588 39.0631 15.7434 39.0516C15.728 39.04 15.7093 39.0337 15.69 39.0336C15.6689 39.0308 15.6474 39.0345 15.6284 39.044C15.6093 39.0535 15.5935 39.0685 15.5831 39.0871C15.4386 39.3242 15.2663 39.5432 15.0697 39.7394C15.027 39.5683 15.0591 38.9694 15.1339 38.4668C15.1382 38.4428 15.1342 38.4181 15.1225 38.3967C15.1109 38.3753 15.0922 38.3585 15.0697 38.3492C15.0476 38.341 15.0235 38.3397 15.0006 38.3455C14.9778 38.3512 14.9571 38.3636 14.9414 38.3812C14.6739 38.7544 14.3846 39.1114 14.0752 39.4507C14.3319 33.3229 14.642 28.9276 15.0804 25.6124C15.0804 25.5803 15.0911 25.5376 15.0911 25.5055C15.0911 25.4734 15.1018 25.4306 15.1018 25.3986C15.2622 24.2115 15.444 23.1742 15.6365 22.2331C16.4814 18.2121 17.7005 15.9984 19.6148 15.0359C19.63 15.0272 19.6429 15.0148 19.6522 14.9998C19.6615 14.9849 19.667 14.9679 19.6682 14.9504C19.7966 13.4639 22.7695 10.6406 27.0579 10.6406C29.186 10.6406 30.8757 11.2716 32.1055 12.5121C33.5278 13.9451 34.0198 15.9235 33.9984 17.2924C34.0014 17.3253 34.0167 17.3558 34.0412 17.3779C35.7629 18.6292 36.6933 21.6556 37.1746 25.1419C37.1852 25.2488 37.2066 25.3665 37.2173 25.4841C37.228 25.5269 37.228 25.5697 37.2387 25.6124C37.8483 30.2644 37.6986 35.6008 37.613 38.6593Z" fill="#1EB0B4"/>
<path d="M42.6817 44.9572C41.7941 45.5988 34.5756 50.6465 25.0471 50.6465C19.7535 50.6465 15.4758 48.9996 12.813 47.62C10.3212 46.326 8.7492 45.0107 8.35352 44.6684C8.5674 44.508 8.83475 44.2835 9.13419 44.0375C9.69028 43.5776 10.3854 43.0002 11.1768 42.4334C11.9918 41.8384 12.8662 41.3295 13.7861 40.9148C14.5454 40.5833 15.2833 40.2945 15.9998 40.0593C16.0319 40.0486 16.0747 40.0379 16.1068 40.0272C16.1943 39.9938 16.2835 39.9653 16.3741 39.9416C16.4332 39.9189 16.494 39.901 16.5559 39.8882C16.7591 39.824 16.9623 39.7705 17.1548 39.7064L17.2617 39.6743C17.2938 39.6636 17.3259 39.6529 17.3687 39.6422C17.5184 39.5994 17.6681 39.5673 17.8071 39.5246L17.9355 39.4925L18.0638 39.4604L18.3312 39.3962C18.3656 39.384 18.4016 39.3768 18.4381 39.3748C18.4702 39.3641 18.513 39.3641 18.545 39.3534C19.9783 39.0436 21.442 38.8966 22.9082 38.915C23.0366 39.0968 23.2932 39.8133 23.6141 40.7865C23.6248 40.8185 23.6355 40.8613 23.6461 40.8934C23.6568 40.9255 23.6675 40.9683 23.6782 41.0003C24.3199 42.9681 25.1861 45.8341 25.7101 47.6307C25.7172 47.6533 25.7315 47.6728 25.7508 47.6864C25.7702 47.6999 25.7935 47.7067 25.8171 47.7056C25.8403 47.7052 25.8629 47.6979 25.882 47.6845C25.901 47.6712 25.9157 47.6524 25.924 47.6307C26.3304 46.187 27.2073 43.214 27.881 41.1287C27.8917 41.0966 27.9024 41.0538 27.9131 41.0217C27.9238 40.9897 27.9345 40.9469 27.9452 40.9148C28.2874 39.8775 28.5761 39.0968 28.7152 38.9043C30.4048 38.9792 32.4153 39.3321 34.1371 39.717C34.1715 39.7293 34.2076 39.7365 34.244 39.7384C34.2785 39.7507 34.3145 39.7579 34.351 39.7598C34.369 39.7623 34.3869 39.7659 34.4045 39.7705C34.4686 39.7812 34.5328 39.8026 34.597 39.8133C34.6611 39.824 34.736 39.8454 34.8001 39.8668C35.0033 39.9202 35.1958 39.963 35.3883 40.0165C35.4204 40.0272 35.4525 40.0379 35.4953 40.0486L35.5915 40.0807C36.5112 40.3266 37.2491 40.5512 37.6555 40.7009C38.8425 41.1287 41.8583 44.0161 42.6817 44.9572Z" fill="#FFD14A"/>
<path d="M28.5547 38.8085C28.5333 38.8406 28.5226 38.8727 28.5012 38.9048C28.3301 39.2363 28.0521 39.9849 27.7419 40.9153C27.7312 40.9474 27.7206 40.9901 27.7099 41.0222C27.6992 41.0543 27.6885 41.0971 27.6778 41.1292C26.9827 43.268 26.1271 46.1982 25.8384 47.2141C25.5389 46.1768 24.6406 43.1503 23.9348 41.0115C23.9241 40.9794 23.9134 40.9367 23.9027 40.9046C23.892 40.8725 23.8814 40.8297 23.8707 40.7976C23.5819 39.9207 23.336 39.2256 23.1755 38.9155C23.1624 38.881 23.1444 38.8486 23.1221 38.8192V38.8085C23.1221 38.7764 23.1328 38.7337 23.1328 38.7016C23.2779 37.7241 23.2958 36.732 23.1862 35.75C24.1727 36.2021 25.2452 36.4356 26.3303 36.4344C27.0484 36.4365 27.7613 36.3134 28.4371 36.0708C28.3194 36.9691 28.3515 37.6322 28.544 38.7016C28.544 38.723 28.5547 38.7657 28.5547 38.8085Z" fill="#FEC2A9"/>
<path d="M33.0891 19.1856C30.9931 21.5811 27.4319 21.7843 25.6246 21.517C25.4 21.4849 25.2396 21.4742 25.1434 21.4635C25.0044 21.4528 24.9188 21.4528 24.876 21.3779C24.8333 21.3031 24.8546 21.2389 24.8974 21.1427C24.9937 20.8967 25.2289 20.2551 25.0578 18.5654C24.8012 16.0416 21.9244 15.432 20.3524 15.4641C20.331 17.6457 19.6787 18.8113 18.9836 20.0412C18.2564 21.3352 17.4971 22.6719 17.4971 25.3562V25.6235C17.5826 29.6338 19.7321 33.8045 23.1115 35.4621C23.1864 35.4942 23.2612 35.537 23.3361 35.5691C23.4109 35.6012 23.5072 35.6439 23.582 35.676C24.4477 36.0295 25.374 36.2111 26.309 36.2107C27.0405 36.2137 27.7659 36.0795 28.4479 35.815C28.4907 35.8043 28.5227 35.783 28.5655 35.7723C28.6083 35.7616 28.6404 35.7402 28.6831 35.7295C32.4689 34.1147 34.4794 28.8531 34.5863 25.6235V25.3562C34.6077 22.426 33.6559 20.1053 33.0891 19.1856ZM20.9192 22.2335C20.8979 22.2547 20.8691 22.2667 20.839 22.2667C20.8089 22.2667 20.7801 22.2547 20.7588 22.2335C20.7375 22.2122 20.7256 22.1833 20.7256 22.1533C20.7256 22.1232 20.7375 22.0943 20.7588 22.0731C21.1117 21.7202 21.5929 21.5383 22.0421 21.4421C22.4182 21.3641 22.8033 21.3389 23.1864 21.3672C23.2018 21.3686 23.2168 21.3731 23.2306 21.3803C23.2443 21.3875 23.2565 21.3973 23.2664 21.4093C23.2763 21.4212 23.2838 21.4349 23.2884 21.4497C23.293 21.4646 23.2947 21.4801 23.2933 21.4956C23.2919 21.511 23.2875 21.526 23.2802 21.5398C23.273 21.5535 23.2632 21.5657 23.2513 21.5756C23.2394 21.5856 23.2256 21.593 23.2108 21.5977C23.196 21.6023 23.1804 21.6039 23.165 21.6025C22.8072 21.5751 22.4474 21.5967 22.0956 21.6667C21.6575 21.7399 21.2494 21.9365 20.9192 22.2335ZM23.3789 25.4096C23.3564 25.447 23.3314 25.4827 23.304 25.5166C23.2701 25.5576 23.2305 25.5936 23.1864 25.6235C23.1238 25.6687 23.0495 25.6947 22.9725 25.6984C22.888 25.6999 22.8053 25.6736 22.7372 25.6235C22.6931 25.5936 22.6535 25.5576 22.6196 25.5166C22.5887 25.4855 22.5634 25.4493 22.5447 25.4096C22.4145 25.1775 22.3446 24.9165 22.3415 24.6503C22.3308 24.0622 22.5875 23.5809 22.919 23.5809C23.2505 23.5809 23.5393 24.0408 23.55 24.629C23.5668 24.9 23.5076 25.1705 23.3789 25.4096ZM26.7047 27.388C26.3732 26.9175 26.1914 26.1796 26.1059 25.6235C26.1059 25.5914 26.0952 25.5487 26.0952 25.5166C26.0952 25.4845 26.0845 25.4417 26.0845 25.4096C26.0738 25.3027 26.0631 25.2064 26.0631 25.1316C26.0629 25.105 26.0727 25.0793 26.0905 25.0595C26.1083 25.0397 26.1329 25.0273 26.1593 25.0246C26.1872 25.024 26.2144 25.0333 26.236 25.051C26.2576 25.0686 26.2721 25.0934 26.277 25.1209C26.2787 25.2215 26.2894 25.3217 26.309 25.4203C26.309 25.4524 26.3197 25.4952 26.3197 25.5273C26.3197 25.5594 26.3304 25.6021 26.3304 25.6342C26.416 26.1582 26.5871 26.8426 26.8865 27.2704C26.961 27.3596 27.0126 27.4657 27.0369 27.5794C27.0611 27.693 27.0572 27.8109 27.0256 27.9228C26.8865 28.3826 26.309 28.6179 26.1914 28.6607C26.1807 28.6607 26.17 28.6713 26.1593 28.6713C26.1376 28.6702 26.1167 28.6624 26.0995 28.649C26.0823 28.6356 26.0696 28.6173 26.0631 28.5965C26.058 28.5832 26.0556 28.5689 26.0561 28.5547C26.0566 28.5404 26.0599 28.5264 26.0659 28.5134C26.0718 28.5005 26.0804 28.4889 26.0909 28.4793C26.1014 28.4696 26.1138 28.4622 26.1272 28.4575C26.416 28.3505 26.7475 28.1259 26.8224 27.8586C26.8389 27.7763 26.8369 27.6915 26.8165 27.6101C26.7962 27.5287 26.758 27.4529 26.7047 27.388ZM28.4372 30.2862C28.2772 30.7156 28.0377 31.111 27.7314 31.4518C27.3892 31.8261 26.94 32.1256 26.3946 32.0935C25.8741 32.0499 25.3804 31.8442 24.983 31.5053C24.598 31.1845 24.3306 30.7888 24.2558 30.4145C24.2523 30.396 24.2546 30.3769 24.2622 30.3597C24.2699 30.3426 24.2825 30.3281 24.2985 30.3182C24.3124 30.3078 24.3293 30.3022 24.3467 30.3022C24.364 30.3022 24.3809 30.3078 24.3948 30.3182C24.7798 30.5535 25.5177 30.7246 26.2984 30.7246C27.079 30.7246 27.849 30.5642 28.2875 30.1685C28.3011 30.1542 28.3193 30.1453 28.339 30.1433C28.3586 30.1414 28.3783 30.1465 28.3944 30.1578C28.4128 30.1731 28.4265 30.1932 28.4341 30.2159C28.4416 30.2386 28.4427 30.2629 28.4372 30.2862ZM29.9878 24.8428C29.963 25.0429 29.8975 25.2358 29.7953 25.4096C29.774 25.4417 29.7526 25.4845 29.7312 25.5166C29.7053 25.5543 29.6767 25.59 29.6456 25.6235C29.5953 25.6817 29.5329 25.7282 29.4627 25.7596C29.3924 25.791 29.3162 25.8066 29.2392 25.8053C29.1831 25.7951 29.1296 25.7737 29.0818 25.7425C29.0341 25.7113 28.9931 25.6708 28.9612 25.6235C28.9375 25.5893 28.916 25.5536 28.897 25.5166C28.8782 25.4829 28.8638 25.447 28.8543 25.4096C28.7753 25.1683 28.7569 24.9112 28.8008 24.661C28.8863 24.0836 29.2285 23.6558 29.5494 23.6986C29.8702 23.7413 30.0734 24.2654 29.9878 24.8428ZM31.6026 22.18C31.585 22.2047 31.5586 22.2217 31.5288 22.2277C31.499 22.2336 31.4681 22.2281 31.4422 22.2121C31.1459 22.0067 30.8219 21.8446 30.4798 21.7308C30.0626 21.5767 29.6104 21.5433 29.1751 21.6346C29.1603 21.6394 29.1447 21.641 29.1292 21.6392C29.1138 21.6374 29.099 21.6322 29.0857 21.624C29.0725 21.6159 29.0612 21.605 29.0526 21.592C29.044 21.5791 29.0384 21.5644 29.0361 21.549C29.0324 21.5343 29.0317 21.519 29.0341 21.5039C29.0364 21.4889 29.0417 21.4745 29.0497 21.4616C29.0576 21.4487 29.0681 21.4374 29.0805 21.4286C29.0928 21.4197 29.1068 21.4134 29.1216 21.41C29.6028 21.2817 30.1162 21.3672 30.5546 21.5063C30.9219 21.6219 31.2684 21.7952 31.5813 22.0196C31.6029 22.0397 31.6168 22.0667 31.6207 22.096C31.6246 22.1252 31.6182 22.1549 31.6026 22.18Z" fill="#FEC2A9"/>
<path d="M29.9877 24.8425C29.9628 25.0426 29.8973 25.2355 29.7952 25.4093C29.7738 25.4414 29.7524 25.4842 29.731 25.5163C29.7051 25.554 29.6765 25.5897 29.6455 25.6232C29.5952 25.6814 29.5327 25.7279 29.4625 25.7593C29.3923 25.7907 29.316 25.8063 29.2391 25.805C29.1829 25.7948 29.1294 25.7734 29.0817 25.7422C29.0339 25.711 28.9929 25.6705 28.961 25.6232C28.9373 25.589 28.9159 25.5533 28.8969 25.5163C28.8781 25.4826 28.8637 25.4467 28.8541 25.4093C28.7751 25.168 28.7567 24.9109 28.8006 24.6607C28.8862 24.0832 29.2284 23.6555 29.5492 23.6983C29.87 23.741 30.0732 24.2651 29.9877 24.8425Z" fill="black"/>
<path d="M23.5603 24.6281C23.5752 24.9003 23.5122 25.1712 23.3785 25.4088C23.3561 25.4461 23.3311 25.4819 23.3036 25.5157C23.2697 25.5568 23.2301 25.5928 23.186 25.6227C23.1235 25.6678 23.0491 25.6938 22.9721 25.6975C22.8876 25.6991 22.8049 25.6728 22.7368 25.6227C22.6927 25.5928 22.6531 25.5568 22.6192 25.5157C22.5883 25.4846 22.563 25.4484 22.5443 25.4088C22.4141 25.1767 22.3442 24.9156 22.3411 24.6495C22.3304 24.0613 22.5871 23.5801 22.9186 23.5801C23.2501 23.5801 23.5389 24.0399 23.5603 24.6281Z" fill="black"/>
<path fill-rule="evenodd" clip-rule="evenodd" d="M23.2933 21.4951C23.2884 21.5254 23.2727 21.5529 23.2492 21.5726C23.2256 21.5922 23.1957 21.6027 23.165 21.602C22.8073 21.5746 22.4475 21.5962 22.0956 21.6662C21.6582 21.7416 21.2508 21.9379 20.9192 22.233C20.8979 22.2542 20.8691 22.2662 20.839 22.2662C20.8089 22.2662 20.7801 22.2542 20.7588 22.233C20.7375 22.2117 20.7256 22.1829 20.7256 22.1528C20.7256 22.1227 20.7375 22.0938 20.7588 22.0726C21.1117 21.7197 21.593 21.5379 22.0421 21.4416C22.4182 21.3636 22.8033 21.3384 23.1864 21.3667C23.2167 21.3716 23.2442 21.3873 23.2639 21.4109C23.2835 21.4345 23.294 21.4644 23.2933 21.4951Z" fill="black"/>
<path fill-rule="evenodd" clip-rule="evenodd" d="M31.6022 22.1787C31.5845 22.2034 31.5581 22.2205 31.5283 22.2264C31.4985 22.2324 31.4676 22.2268 31.4418 22.2108C31.1455 22.0054 30.8214 21.8434 30.4793 21.7296C30.0621 21.5754 29.6099 21.5421 29.1746 21.6333C29.1598 21.6382 29.1442 21.6397 29.1288 21.6379C29.1133 21.6361 29.0985 21.6309 29.0853 21.6228C29.072 21.6146 29.0607 21.6037 29.0521 21.5907C29.0436 21.5778 29.0379 21.5631 29.0356 21.5478C29.0319 21.533 29.0313 21.5177 29.0336 21.5027C29.0359 21.4877 29.0412 21.4733 29.0492 21.4603C29.0572 21.4474 29.0676 21.4361 29.08 21.4273C29.0923 21.4184 29.1063 21.4121 29.1211 21.4087C29.6024 21.2804 30.1157 21.366 30.5541 21.505C30.9214 21.6207 31.2679 21.7939 31.5808 22.0183C31.6024 22.0384 31.6164 22.0654 31.6203 22.0947C31.6242 22.1239 31.6178 22.1536 31.6022 22.1787Z" fill="black"/>
<path d="M27.0145 27.9118C26.8754 28.3717 26.2979 28.6069 26.1803 28.6497C26.1696 28.6497 26.1589 28.6604 26.1482 28.6604C26.1265 28.6592 26.1056 28.6514 26.0884 28.638C26.0712 28.6247 26.0585 28.6064 26.052 28.5856C26.0469 28.5722 26.0445 28.558 26.045 28.5438C26.0455 28.5295 26.0488 28.5155 26.0548 28.5025C26.0607 28.4896 26.0693 28.4779 26.0798 28.4683C26.0903 28.4587 26.1027 28.4513 26.1162 28.4465C26.4049 28.3396 26.7364 28.115 26.8113 27.8477C26.8316 27.7663 26.8325 27.6814 26.8139 27.5996C26.7953 27.5179 26.7578 27.4417 26.7043 27.3771C26.3728 26.9066 26.191 26.1687 26.1055 25.6126C26.1055 25.5805 26.0948 25.5377 26.0948 25.5056C26.0948 25.4736 26.0841 25.4308 26.0841 25.3987C26.0734 25.2918 26.0627 25.1955 26.0627 25.1206C26.0625 25.094 26.0723 25.0683 26.0901 25.0486C26.1079 25.0288 26.1325 25.0164 26.1589 25.0137C26.1868 25.013 26.214 25.0224 26.2356 25.04C26.2572 25.0577 26.2717 25.0825 26.2766 25.11C26.2783 25.2105 26.289 25.3107 26.3086 25.4094C26.3086 25.4415 26.3193 25.4843 26.3193 25.5163C26.3193 25.5484 26.33 25.5912 26.33 25.6233C26.4156 26.1473 26.5867 26.8317 26.8861 27.2595C26.9569 27.3507 27.0054 27.4572 27.0277 27.5704C27.05 27.6837 27.0454 27.8006 27.0145 27.9118Z" fill="black"/>
<path fill-rule="evenodd" clip-rule="evenodd" d="M28.394 30.1793C28.3779 30.1678 28.3582 30.1625 28.3385 30.1645C28.3188 30.1664 28.3005 30.1755 28.2871 30.19C27.8486 30.575 27.0786 30.7461 26.298 30.7461C25.5173 30.7461 24.7794 30.575 24.3944 30.3397C24.3805 30.3293 24.3636 30.3237 24.3463 30.3237C24.3289 30.3237 24.312 30.3293 24.2982 30.3397C24.2833 30.3507 24.2716 30.3654 24.2641 30.3822C24.2566 30.3991 24.2536 30.4176 24.2554 30.436C24.3195 30.8103 24.5976 31.2167 24.9826 31.5268C25.3789 31.8675 25.8732 32.0735 26.3942 32.115C26.9396 32.147 27.3888 31.8476 27.731 31.4733C28.0314 31.1281 28.2702 30.7338 28.4368 30.3076C28.4475 30.2435 28.4368 30.2007 28.394 30.1793ZM26.4049 31.9225C25.9241 31.8798 25.4683 31.6893 25.1002 31.3771C24.835 31.1674 24.6257 30.8956 24.4907 30.5857C24.9398 30.7889 25.6135 30.9172 26.298 30.9172C26.961 30.9172 27.6454 30.7996 28.1374 30.5108C27.9959 30.8068 27.8122 31.0805 27.592 31.3236C27.2711 31.6872 26.8648 31.9439 26.4049 31.9225Z" fill="black"/>
<path fill-rule="evenodd" clip-rule="evenodd" d="M28.1379 30.5215C27.9964 30.8174 27.8127 31.0912 27.5925 31.3342C27.2716 31.6871 26.8653 31.9438 26.3947 31.9224C25.9139 31.8797 25.4582 31.6892 25.09 31.377C24.8249 31.1674 24.6155 30.8956 24.4805 30.5856C24.9296 30.7888 25.6034 30.9172 26.2878 30.9172C26.9722 30.9172 27.6459 30.8102 28.1379 30.5215Z" fill="#AE5646"/>
<path d="M42.9273 44.9155C42.3392 44.2204 39.0454 40.9801 37.7514 40.4988C37.345 40.3491 36.5964 40.1245 35.6553 39.8786C35.6981 39.5898 35.7409 39.1621 35.773 38.5204C36.436 40.1994 36.5857 40.1566 36.6713 40.1245C36.8103 40.0818 36.9386 39.7182 37.0242 39.0551C37.5054 39.8572 37.6658 39.793 37.73 39.7716C37.7488 39.7634 37.7648 39.75 37.7762 39.7329C37.7876 39.7159 37.7938 39.6959 37.7942 39.6754C37.8048 39.376 37.8155 39.0337 37.8262 38.6701C37.9011 35.8897 38.0401 31.227 37.6337 26.9601C37.5696 26.3184 37.5054 25.7088 37.4199 25.1314C38.0508 21.4419 37.7728 16.1376 34.9602 12.7154C33.0139 10.352 30.1264 9.1543 26.3835 9.1543C22.6192 9.1543 19.689 10.3627 17.6571 12.7368C14.6306 16.2766 14.2456 21.8483 14.8445 25.527C14.8449 25.5469 14.8525 25.5659 14.8659 25.5805C14.374 29.2593 14.0852 33.9112 13.8606 39.654C13.8601 39.679 13.8684 39.7034 13.8841 39.723C13.8997 39.7425 13.9217 39.7559 13.9462 39.7609C14.0104 39.7716 14.1387 39.8037 14.8766 38.8306C14.759 39.9107 14.9408 39.9427 15.0156 39.9534C15.1546 39.9748 15.3685 39.7823 15.6466 39.3653C15.7126 39.5297 15.7876 39.6903 15.8711 39.8465C15.1653 40.0925 14.4381 40.3705 13.7002 40.6913C11.8074 41.5148 10.1177 42.9157 8.99481 43.8461C8.6419 44.1349 8.34247 44.3915 8.11789 44.5519C8.0934 44.5741 8.07813 44.6046 8.07511 44.6375C8.07232 44.656 8.07611 44.6749 8.08581 44.6909C8.08581 44.7016 8.0965 44.7123 8.1072 44.723C8.11789 44.7337 9.79687 46.2737 12.7057 47.7923C12.9196 47.8992 13.1334 48.0168 13.3687 48.1238C16.0743 49.4392 20.1274 50.8508 25.0467 50.8508C30.3831 50.8508 34.9495 49.2787 37.8476 47.9527C39.2727 47.305 40.6488 46.5544 41.9649 45.7069C42.2964 45.4609 42.6279 45.215 42.9487 44.9583C42.9461 44.9422 42.9386 44.9273 42.9273 44.9155ZM17.8175 12.8759C19.8066 10.5445 22.6833 9.36818 26.3835 9.36818C30.0623 9.36818 32.8962 10.5445 34.7998 12.8545C37.3985 16.0092 37.7942 20.8216 37.3129 24.4148C36.7247 20.7468 35.6874 18.3406 34.233 17.2498C34.233 15.8381 33.7197 13.8383 32.276 12.3732C31.0034 11.0899 29.2602 10.4483 27.0786 10.4483C25.1385 10.4383 23.2421 11.0244 21.646 12.1273C20.4482 12.9721 19.582 14.0843 19.4751 14.8971C17.0903 16.1269 15.7642 19.3137 14.9621 24.8854C14.5237 21.2494 15.0156 16.1804 17.8175 12.8759ZM15.7749 39.1193C15.7694 39.1008 15.7581 39.0847 15.7427 39.0731C15.7273 39.0615 15.7086 39.0552 15.6893 39.0551C15.6682 39.0524 15.6468 39.056 15.6277 39.0655C15.6087 39.0751 15.5929 39.0901 15.5824 39.1086C15.4379 39.3458 15.2656 39.5648 15.0691 39.7609C15.0263 39.5898 15.0584 38.991 15.1333 38.4883C15.1376 38.4644 15.1335 38.4396 15.1219 38.4182C15.1102 38.3968 15.0916 38.3801 15.0691 38.3707C15.0469 38.3626 15.0229 38.3613 15 38.367C14.9771 38.3727 14.9565 38.3852 14.9408 38.4028C14.6732 38.7759 14.384 39.133 14.0745 39.4722C14.3312 33.3445 14.6413 28.9492 15.0798 25.634C15.0798 25.6019 15.0905 25.5591 15.0905 25.527C15.0905 25.495 15.1012 25.4522 15.1012 25.4201C15.2616 24.233 15.4434 23.1957 15.6359 22.2546C16.4807 18.2336 17.6998 16.0199 19.6141 15.0575C19.6294 15.0487 19.6422 15.0363 19.6516 15.0214C19.6609 15.0065 19.6664 14.9895 19.6676 14.9719C19.7959 13.4854 22.7689 10.6622 27.0572 10.6622C29.1854 10.6622 30.875 11.2931 32.1049 12.5336C33.5272 13.9667 34.0191 15.9451 33.9977 17.3139C34.0007 17.3468 34.016 17.3773 34.0405 17.3995C35.7623 18.6507 36.6927 21.6771 37.1739 25.1634C37.1846 25.2704 37.206 25.388 37.2167 25.5056C37.2274 25.5484 37.2274 25.5912 37.2381 25.634C37.8262 30.2752 37.6765 35.6116 37.591 38.6701C37.5803 38.9696 37.5696 39.2369 37.5696 39.4936C37.3682 39.2386 37.1893 38.9667 37.0349 38.6808C37.0238 38.6603 37.0063 38.644 36.985 38.6343C36.9638 38.6247 36.94 38.6222 36.9172 38.6274C36.8945 38.6319 36.8738 38.6438 36.8583 38.6612C36.8429 38.6785 36.8335 38.7005 36.8317 38.7236C36.7782 39.1835 36.682 39.7075 36.6071 39.8786C36.4467 39.654 36.0617 38.7664 35.7623 37.9429C35.7546 37.9192 35.7381 37.8993 35.7162 37.8874C35.6944 37.8754 35.6687 37.8724 35.6446 37.8788C35.6201 37.8838 35.5981 37.8972 35.5825 37.9168C35.5669 37.9363 35.5586 37.9607 35.5591 37.9857C35.5506 38.6008 35.5078 39.2149 35.4307 39.8251C35.142 39.7503 34.8426 39.6754 34.5217 39.6005C34.4795 39.5569 34.4402 39.5104 34.4041 39.4615C34.3917 39.4458 34.3748 39.4343 34.3557 39.4286C34.3366 39.4229 34.3161 39.4232 34.2972 39.4294C34.2778 39.4338 34.2599 39.443 34.2449 39.4561C34.23 39.4691 34.2186 39.4857 34.2116 39.5043C34.2123 39.5101 34.2117 39.516 34.2099 39.5215C34.208 39.5271 34.205 39.5321 34.2009 39.5364C32.4685 39.1407 30.4366 38.7771 28.7255 38.7129C28.5223 37.6007 28.5009 36.9377 28.6293 35.9859C32.6075 34.3711 34.7142 28.9385 34.8212 25.6233V25.3559C34.8212 22.2867 33.7945 19.8805 33.2171 18.9929C33.955 16.3194 32.2974 14.2233 31.1959 13.3999C31.1846 13.3914 31.1718 13.3853 31.1582 13.3818C31.1446 13.3783 31.1305 13.3776 31.1166 13.3796C31.1027 13.3815 31.0893 13.3863 31.0772 13.3934C31.0651 13.4006 31.0546 13.41 31.0461 13.4213C31.0377 13.4325 31.0316 13.4453 31.0281 13.4589C31.0246 13.4725 31.0238 13.4866 31.0258 13.5006C31.0278 13.5145 31.0325 13.5278 31.0397 13.5399C31.0468 13.552 31.0563 13.5626 31.0675 13.571C32.1263 14.3623 33.7197 16.3728 33.0139 18.9394C31.0034 21.367 27.4422 21.5702 25.6563 21.3028C25.421 21.2708 25.2606 21.2601 25.1537 21.2494H25.0788C25.0788 21.2387 25.0895 21.228 25.0895 21.2173C25.1644 21.0248 25.3248 20.597 25.3248 19.6559C25.3248 19.3458 25.3034 18.9822 25.2606 18.5438C24.9826 15.8061 21.8492 15.1965 20.2344 15.25C20.2067 15.2519 20.1806 15.2639 20.161 15.2835C20.1413 15.3031 20.1294 15.3292 20.1274 15.3569C20.1274 17.5492 19.4751 18.7149 18.7906 19.934C18.0421 21.2494 17.2828 22.6075 17.2828 25.3559V25.6233C17.3362 28.222 18.2239 30.8527 19.7317 32.8739C20.6514 34.1037 21.7422 35.0341 22.9507 35.633C23.079 36.7773 23.0683 37.4617 22.9079 38.6915H22.6726C21.2746 38.6951 19.8806 38.842 18.5126 39.13C18.4698 38.9054 18.427 38.6701 18.395 38.4456C18.3915 38.4213 18.3803 38.3987 18.3629 38.3814C18.3455 38.364 18.323 38.3528 18.2987 38.3493C18.2751 38.3482 18.2518 38.355 18.2325 38.3685C18.2132 38.3821 18.1988 38.4016 18.1918 38.4242C18.1062 38.7022 17.9993 39.0017 17.903 39.269C17.7105 39.3118 17.518 39.3653 17.3256 39.4187C17.2828 39.2049 17.2507 38.9589 17.2186 38.7129C17.2158 38.6901 17.2061 38.6687 17.1908 38.6515C17.1755 38.6343 17.1554 38.6221 17.1331 38.6167C17.1103 38.6115 17.0865 38.614 17.0653 38.6236C17.044 38.6333 17.0265 38.6496 17.0154 38.6701C16.8229 39.0337 16.5983 39.4187 16.4272 39.6754C16.3096 39.7075 16.2027 39.7503 16.085 39.7823C15.9634 39.5703 15.8597 39.3485 15.7749 39.1193ZM23.1859 35.7399C24.1724 36.1921 25.2449 36.4255 26.33 36.4244C27.0481 36.4264 27.761 36.3034 28.4368 36.0608C28.3191 36.9591 28.3512 37.6221 28.5437 38.6915C28.5544 38.7236 28.5544 38.7664 28.5651 38.7985V38.8092C28.5437 38.8412 28.533 38.8733 28.5116 38.9054C28.3405 39.2369 28.0625 39.9855 27.7523 40.9159C27.7417 40.948 27.731 40.9908 27.7203 41.0229C27.7096 41.0549 27.6989 41.0977 27.6882 41.1298C26.9931 43.2686 26.1375 46.1988 25.8488 47.2148C25.5494 46.1774 24.651 43.151 23.9452 41.0122C23.9345 40.9801 23.9238 40.9373 23.9131 40.9052C23.9025 40.8731 23.8918 40.8304 23.8811 40.7983C23.5923 39.9214 23.3464 39.2262 23.1859 38.9161C23.1728 38.8816 23.1548 38.8492 23.1325 38.8199V38.8092C23.1325 38.7771 23.1432 38.7343 23.1432 38.7022C23.2822 37.5045 23.2929 36.8094 23.1859 35.7399ZM28.4689 35.8148C27.7866 36.0783 27.0613 36.2125 26.33 36.2105C25.3949 36.2109 24.4687 36.0293 23.603 35.6758C23.5175 35.6437 23.4319 35.6009 23.357 35.5688C23.2822 35.5368 23.2073 35.494 23.1325 35.4619C19.7424 33.8043 17.6036 29.6336 17.518 25.6233V25.3559C17.518 22.6717 18.2666 21.3349 19.0045 20.0409C19.6997 18.8111 20.352 17.6454 20.3734 15.4638C21.9454 15.4318 24.8221 16.0413 25.0788 18.5651C25.2499 20.2548 25.0146 20.8965 24.9184 21.1424C24.8863 21.2387 24.8542 21.3135 24.897 21.3777C24.9398 21.4419 25.0253 21.4526 25.1644 21.4633C25.3257 21.4713 25.4864 21.4892 25.6456 21.5167C27.4422 21.7841 31.0141 21.5809 33.1101 19.1854C33.6769 20.1158 34.6287 22.4257 34.6287 25.3666V25.634C34.5217 28.8529 32.5112 34.1251 28.7255 35.7399C28.6827 35.7506 28.6507 35.772 28.6079 35.7827C28.561 35.791 28.5146 35.8017 28.4689 35.8148ZM18.3094 39.1728C18.2559 39.1835 18.2132 39.1942 18.1704 39.2049C18.2025 39.1193 18.2346 39.0124 18.2666 38.9161C18.2739 39.0027 18.2882 39.0885 18.3094 39.1728ZM17.1224 39.4722C17.0047 39.5043 16.8764 39.5471 16.7588 39.5791C16.8443 39.4401 16.9406 39.269 17.0582 39.0658C17.0796 39.2049 17.101 39.3439 17.1224 39.4722ZM25.0574 50.6476C19.7638 50.6476 15.4862 49.0007 12.8233 47.6211C10.3316 46.3272 8.75954 45.0118 8.36385 44.6696C8.57774 44.5092 8.84509 44.2846 9.14453 44.0386C9.70062 43.5788 10.3957 43.0013 11.1871 42.4345C12.0021 41.8395 12.8766 41.3306 13.7965 40.9159C14.5558 40.5844 15.2937 40.2957 16.0102 40.0604C16.0423 40.0497 16.085 40.039 16.1171 40.0283C16.2046 39.995 16.2939 39.9664 16.3845 39.9427C16.4435 39.92 16.5043 39.9022 16.5663 39.8893C16.7695 39.8251 16.9726 39.7716 17.1651 39.7075L17.2721 39.6754C17.3042 39.6647 17.3362 39.654 17.379 39.6433C17.5287 39.6005 17.6785 39.5685 17.8175 39.5257L17.9458 39.4936L18.0741 39.4615L18.3415 39.3973C18.3759 39.3851 18.4119 39.3779 18.4484 39.376C18.4805 39.3653 18.5233 39.3653 18.5554 39.3546C19.9887 39.0448 21.4523 38.8977 22.9186 38.9161C23.0469 39.0979 23.3036 39.8144 23.6244 40.7876C23.6351 40.8197 23.6458 40.8624 23.6565 40.8945C23.6672 40.9266 23.6779 40.9694 23.6886 41.0015C24.3302 42.9692 25.1964 45.8352 25.7205 47.6318C25.7275 47.6544 25.7418 47.6739 25.7612 47.6875C25.7805 47.701 25.8038 47.7078 25.8274 47.7067C25.8507 47.7063 25.8733 47.699 25.8923 47.6856C25.9114 47.6723 25.926 47.6536 25.9343 47.6318C26.3407 46.1881 27.2176 43.2152 27.8914 41.1298C27.9021 41.0977 27.9128 41.0549 27.9235 41.0229C27.9341 40.9908 27.9448 40.948 27.9555 40.9159C28.2977 39.8786 28.5865 39.0979 28.7255 38.9054C30.4152 38.9803 32.4257 39.3332 34.1474 39.7182C34.1819 39.7304 34.2179 39.7376 34.2544 39.7396C34.2888 39.7518 34.3248 39.759 34.3613 39.7609C34.3793 39.7635 34.3972 39.767 34.4148 39.7716C34.479 39.7823 34.5431 39.8037 34.6073 39.8144C34.6715 39.8251 34.7463 39.8465 34.8105 39.8679C35.0137 39.9214 35.2062 39.9641 35.3987 40.0176C35.4307 40.0283 35.4628 40.039 35.5056 40.0497L35.6019 40.0818C36.5215 40.3277 37.2594 40.5523 37.6658 40.702C38.8422 41.1405 41.8579 44.0279 42.6814 44.969C41.8045 45.6106 34.5859 50.6476 25.0574 50.6476Z" fill="black"/>
</g>
</g>
<rect x="-2.4" y="-4.4" width="55.8" height="55.8" rx="27.9" stroke="#D4D4D4" stroke-width="0.8"/>
</g>
</g>
<rect x="0.5" y="0.5" width="51" height="51" rx="25.5" stroke="#6A7294"/>
<defs>
<clipPath id="clip0_530_2202">
<rect x="1" y="1" width="50" height="50" rx="25" fill="white"/>
</clipPath>
<clipPath id="clip1_530_2202">
<rect x="1" y="1" width="50" height="50" rx="25" fill="white"/>
</clipPath>
<clipPath id="clip2_530_2202">
<rect x="-2" y="-4" width="55" height="55" rx="27.5" fill="white"/>
</clipPath>
<clipPath id="clip3_530_2202">
<rect width="55.1176" height="55" fill="white" transform="translate(-1.87012 -4)"/>
</clipPath>
</defs>
</svg>
