<svg width="52" height="52" viewBox="0 0 52 52" fill="none" xmlns="http://www.w3.org/2000/svg">
<g clip-path="url(#clip0_530_2234)">
<rect x="1" y="1" width="50" height="50" rx="25" fill="#363A4D"/>
<g clip-path="url(#clip1_530_2234)">
<rect x="1" y="1" width="50" height="50" rx="25" fill="#363A4D"/>
<g clip-path="url(#clip2_530_2234)">
<rect x="-2" y="-4" width="55" height="55" rx="27.5" fill="#292C3A"/>
<g clip-path="url(#clip3_530_2234)">
<path d="M41.0667 46.7703C41.122 46.8356 41.1663 46.9117 41.2215 46.9769C41.1664 46.9107 41.1147 46.8417 41.0667 46.7703ZM36.4328 44.3786C36.4218 44.3786 36.4107 44.3677 36.3997 44.3677C36.3886 44.3677 36.4107 44.3786 36.4328 44.3786L36.5656 44.4112C36.5199 44.4068 36.4752 44.3958 36.4328 44.3786ZM16.349 44.2264C16.3601 44.2264 16.3711 44.2155 16.3822 44.2155C16.3778 44.2196 16.3726 44.2227 16.3669 44.2246C16.3611 44.2265 16.355 44.2271 16.349 44.2264ZM28.3816 39.7907V39.856C28.3816 39.8233 28.3927 39.7799 28.3927 39.7472C28.385 39.7605 28.3812 39.7755 28.3816 39.7907ZM25.4951 -2C9.75764 -2 -3.00487 10.5459 -3.00487 26.0163C-3.00905 30.5727 -1.88079 35.0612 0.281805 39.0913C2.4444 43.1214 5.57582 46.5711 9.40374 49.1404C9.41144 49.1271 9.41526 49.1121 9.4148 49.0969C9.42586 49.0534 9.43692 49.0208 9.44798 48.9773C9.48116 48.8794 9.51434 48.8033 9.53646 48.7272C9.54751 48.6838 9.56963 48.6294 9.58069 48.5859C9.59175 48.5424 9.60281 48.5098 9.61387 48.4772C9.62493 48.4446 9.64705 48.4011 9.65811 48.3576C9.65811 48.3467 9.66917 48.325 9.66917 48.3141C9.66917 48.3032 9.69129 48.2598 9.70235 48.238C9.71341 48.2163 9.73552 48.1728 9.74658 48.1402C9.75764 48.1293 9.75764 48.1076 9.7687 48.0967C9.77976 48.0858 9.77976 48.0641 9.79082 48.0532C9.80188 48.0206 9.824 47.988 9.83506 47.9554C9.8436 47.9359 9.85476 47.9176 9.86824 47.901C9.89103 47.8671 9.9096 47.8306 9.92353 47.7923C9.94565 47.7597 9.96777 47.7162 9.98989 47.6836C10.012 47.6509 10.0452 47.5966 10.0673 47.5531C10.1226 47.4661 10.1779 47.3792 10.2443 47.2922L10.3438 47.1617C10.3659 47.1291 10.3991 47.0965 10.4212 47.0639C10.4655 47.0203 10.4655 47.0203 10.5098 46.9768C10.5318 46.9443 10.565 46.9117 10.5871 46.8791C10.6403 46.8123 10.6995 46.7505 10.764 46.6942L10.8968 46.5638L10.9852 46.4768C11.0196 46.4415 11.0565 46.4088 11.0958 46.379L11.1622 46.3137C11.2161 46.273 11.2678 46.2294 11.317 46.1833C11.3474 46.1546 11.3808 46.1291 11.4165 46.1072C11.4544 46.0747 11.4951 46.0456 11.5382 46.0202C11.5603 45.9985 11.5824 45.9876 11.6046 45.9658C11.8636 45.7805 12.1331 45.6099 12.4119 45.4549C12.4893 45.4114 12.5778 45.3679 12.6552 45.3244C12.6663 45.3135 12.6884 45.3135 12.6994 45.3027C12.7024 45.3027 12.7052 45.3015 12.7073 45.2995C12.7093 45.2974 12.7105 45.2947 12.7105 45.2918L12.9096 45.1939C13.1639 45.0744 13.4294 44.9548 13.6948 44.8461C13.7833 44.8134 13.8607 44.7808 13.9491 44.7482C13.9934 44.7373 14.0266 44.7156 14.0708 44.7047C14.2146 44.6504 14.3583 44.6069 14.5021 44.5525C14.5132 44.5525 14.5353 44.5416 14.5464 44.5416C14.452 44.2542 14.4218 43.9501 14.4579 43.6502C14.6016 42.7043 14.9334 41.9868 15.42 41.4432C15.9004 40.9121 16.5145 40.5147 17.2006 40.2908C18.5388 39.8125 20.1535 39.7907 21.5912 39.7799C21.569 39.4211 21.5469 39.0841 21.5248 38.8231C20.5949 38.5044 19.7244 38.0379 18.948 37.4424C17.3333 36.1922 16.2606 34.4745 15.608 32.5611C15.3308 31.7408 15.1164 30.9014 14.9666 30.0497C14.4942 30.0311 14.0405 29.8633 13.6727 29.5713C13.186 29.18 12.81 28.5059 12.81 27.4296C12.81 26.3533 13.1529 25.6575 13.6063 25.2335C13.9149 24.9365 14.3085 24.7392 14.7344 24.6682C14.7974 23.6944 14.9193 22.7251 15.0993 21.7655C14.9892 21.7824 14.8766 21.7633 14.7786 21.7111C14.6713 21.655 14.5887 21.5622 14.5464 21.4502C14.4792 21.2732 14.4602 21.0822 14.4911 20.8958C14.3926 20.8119 14.3199 20.7027 14.2809 20.5805C14.2477 20.4668 14.2477 20.3462 14.2809 20.2326C14.3342 20.0735 14.4343 19.9335 14.5685 19.8303C14.4719 19.662 14.4405 19.4651 14.48 19.2759C14.5099 19.1671 14.5586 19.0641 14.6238 18.9715C14.5423 18.9105 14.4768 18.8314 14.4326 18.7407C14.3884 18.65 14.3667 18.5502 14.3694 18.4496C14.3738 18.2716 14.4192 18.0969 14.5021 17.9387C14.4358 17.3298 14.5795 16.9928 14.8339 16.8406C14.9788 16.7621 15.1467 16.7353 15.3094 16.7645C15.2873 16.6863 15.2873 16.6036 15.3094 16.5253C15.3325 16.4304 15.3823 16.3437 15.4532 16.2753C15.3798 16.165 15.3378 16.0373 15.3316 15.9057C15.328 15.7771 15.3756 15.6523 15.4643 15.5578C15.5991 15.4206 15.7723 15.326 15.962 15.286C15.9892 15.1082 16.0614 14.9399 16.1721 14.7967C16.2198 14.7401 16.2787 14.6935 16.3452 14.6599C16.4117 14.6262 16.4845 14.6062 16.5592 14.601C16.7427 14.5975 16.9233 14.6466 17.0789 14.7424C17.0568 14.2532 17.2006 13.9379 17.4439 13.7639C17.6411 13.6212 17.8868 13.5589 18.1296 13.59C18.0854 13.1008 18.2512 12.7855 18.5056 12.6007C18.7361 12.4457 19.0119 12.3693 19.2908 12.3832C19.3713 12.2431 19.4805 12.1209 19.6115 12.0245C19.6691 11.9858 19.7345 11.96 19.8033 11.9487C19.8721 11.9374 19.9425 11.941 20.0097 11.9592C20.1295 11.9845 20.2402 12.0408 20.3304 12.1223C20.3323 12.0781 20.3398 12.0343 20.3525 11.9918C20.3903 11.8722 20.4683 11.7687 20.5737 11.6983C20.7237 11.6111 20.898 11.5731 21.0714 11.5896C21.0951 11.4798 21.1486 11.3784 21.2262 11.2961C21.2644 11.2569 21.3111 11.2268 21.3628 11.208C21.4145 11.1892 21.4699 11.1821 21.5248 11.1873C21.6247 11.2005 21.7197 11.2379 21.8013 11.2961C21.8234 11.3178 21.8455 11.3287 21.8677 11.3504C21.9134 11.2225 21.9892 11.1071 22.0888 11.0134C22.1977 10.9048 22.3433 10.8391 22.498 10.8286C22.7307 10.8177 22.9615 10.8745 23.1616 10.9917C23.3903 10.7939 23.6767 10.6721 23.98 10.6438C24.0805 10.6378 24.1811 10.6553 24.2734 10.695C24.3657 10.7347 24.4471 10.7954 24.5108 10.8721C24.5429 10.91 24.5725 10.9499 24.5993 10.9917C24.651 10.8551 24.7343 10.7323 24.8426 10.6329C24.9047 10.5742 24.9807 10.5315 25.0637 10.5088C25.1467 10.486 25.2341 10.4838 25.3182 10.5024C25.4736 10.5416 25.6175 10.6161 25.7384 10.7199C25.8139 10.7832 25.8842 10.8522 25.9486 10.9264C26.0094 10.8167 26.0967 10.7233 26.2029 10.6546C26.3309 10.5744 26.4845 10.5434 26.6342 10.5677C26.869 10.6136 27.0846 10.7271 27.2536 10.8938C27.3677 10.8272 27.497 10.7898 27.6296 10.7851C27.6884 10.783 27.7471 10.7925 27.8022 10.8131C27.8573 10.8336 27.9076 10.8648 27.9503 10.9047C28.0211 10.9775 28.0707 11.0676 28.0941 11.1656V11.1765C28.1936 11.0751 28.3094 10.9906 28.4369 10.9264C28.5107 10.8958 28.5903 10.8809 28.6704 10.8828C28.7504 10.8846 28.8292 10.9032 28.9014 10.9373C29.0298 11.0057 29.1369 11.1072 29.2111 11.2308C29.256 11.3083 29.2966 11.3882 29.3327 11.47C29.4595 11.4051 29.5991 11.368 29.7419 11.3613C29.883 11.3559 30.021 11.4024 30.129 11.4917C30.2758 11.6131 30.3802 11.7766 30.4276 11.9592C30.6486 11.8874 30.8847 11.8724 31.1133 11.9157C31.3072 11.9502 31.4808 12.055 31.5999 12.2093C31.7668 12.4398 31.8452 12.721 31.8211 13.0029C31.8889 13.0022 31.9563 13.0133 32.0202 13.0355C32.1101 13.0653 32.1852 13.1274 32.2303 13.2095C32.2692 13.2689 32.2955 13.3355 32.3077 13.4052C32.4085 13.3307 32.5204 13.2721 32.6395 13.2312C32.7127 13.2126 32.7892 13.2098 32.8636 13.2229C32.938 13.2361 33.0087 13.2649 33.0708 13.3073C33.2699 13.4269 33.3915 13.6661 33.4579 13.8618C33.5524 13.8477 33.649 13.8629 33.7344 13.9053C33.8332 13.948 33.9121 14.0256 33.9555 14.1227C34.0228 14.2577 34.0532 14.4075 34.044 14.5576C34.1498 14.5757 34.2491 14.6202 34.3323 14.6868C34.4156 14.7534 34.4801 14.8399 34.5196 14.9381C34.5595 15.0423 34.5672 15.1557 34.5417 15.2642C34.9177 15.2425 35.161 15.3186 35.2937 15.4817C35.3418 15.5446 35.3747 15.6173 35.39 15.6945C35.4053 15.7717 35.4027 15.8514 35.3822 15.9274C35.6808 16.0144 35.8356 16.1666 35.8799 16.3623C35.9036 16.506 35.8721 16.6533 35.7914 16.7754C35.8504 16.8148 35.8996 16.8668 35.9352 16.9276C35.9785 17.0076 35.9903 17.1005 35.9683 17.1885C35.9423 17.2791 35.8928 17.3615 35.8246 17.4277C35.8771 17.4724 35.9187 17.5281 35.9462 17.5908C35.9845 17.6989 35.9959 17.8144 35.9794 17.9278C35.9507 18.105 35.8868 18.2749 35.7914 18.4279C35.869 18.4867 35.9314 18.5625 35.9737 18.6494C36.016 18.7363 36.0369 18.8317 36.0347 18.928C36.033 19.0817 35.9991 19.2334 35.9352 19.3737C36.1156 19.5321 36.2413 19.7418 36.2948 19.9737C36.3483 20.2055 36.327 20.448 36.2338 20.6674C36.2788 20.8709 36.29 21.0802 36.267 21.2871C36.251 21.4017 36.2052 21.5102 36.1342 21.6024C36.0877 21.6577 36.0264 21.6991 35.9573 21.722C36.148 22.7143 36.2846 23.7159 36.3665 24.7226C36.7859 24.7856 37.1778 24.9669 37.4945 25.2444C37.959 25.6575 38.3019 26.3425 38.2466 27.4188C38.1913 28.4951 37.8153 29.1582 37.3397 29.5605C37.0127 29.8467 36.6028 30.0254 36.1674 30.0714C36.0287 30.9116 35.8254 31.7403 35.5592 32.5502C34.9177 34.4636 33.8671 36.1813 32.2635 37.4316C31.2039 38.2407 29.9771 38.8121 28.6692 39.1058C28.647 39.2906 28.636 39.4863 28.6139 39.6929C29.8746 39.5515 31.6773 39.6711 33.2367 40.3017C34.8403 40.954 36.2006 42.1499 36.4107 44.172C36.4992 44.1938 36.5987 44.2264 36.6872 44.2481C36.7757 44.2699 36.8752 44.3025 36.9637 44.3242C37.0427 44.3447 37.1203 44.3701 37.1959 44.4003C37.2844 44.4329 37.3729 44.4547 37.4614 44.4873C37.5498 44.5199 37.6162 44.5416 37.6936 44.5634C37.771 44.5851 37.8595 44.6177 37.948 44.6504C37.9812 44.6612 38.0254 44.683 38.0586 44.6939C38.0917 44.7047 38.147 44.7265 38.1913 44.7373C38.2355 44.7482 38.3019 44.7808 38.3682 44.8026C38.4033 44.8124 38.4368 44.8271 38.4678 44.8461C38.689 44.933 38.8991 45.0309 39.0982 45.1287C39.1535 45.1613 39.2087 45.1831 39.264 45.2157L39.5626 45.3788C39.5936 45.3944 39.6232 45.4126 39.6511 45.4331C39.7617 45.4984 39.8723 45.5636 39.9718 45.6288C40.0253 45.6625 40.077 45.6987 40.1267 45.7375C40.1599 45.7593 40.182 45.781 40.2151 45.8028C40.2815 45.8571 40.3589 45.9115 40.4253 45.9658C40.4474 45.9767 40.4585 45.9985 40.4806 46.0093C40.5138 46.0419 40.558 46.0746 40.5912 46.1072L40.6907 46.205L40.7571 46.2702L40.8124 46.3246C40.8345 46.3572 40.8676 46.379 40.8898 46.4116C40.8898 46.4224 40.9008 46.4224 40.9008 46.4333C40.9238 46.4646 40.9497 46.4937 40.9782 46.5203C40.9893 46.5312 41.0004 46.5529 41.0114 46.5638C41.0225 46.5746 41.0446 46.6073 41.0667 46.629C41.0888 46.6507 41.111 46.6834 41.1331 46.716C41.1578 46.743 41.18 46.7721 41.1994 46.803L41.2658 46.9008C41.2768 46.9117 41.2768 46.9225 41.2879 46.9334C41.2879 46.9363 41.2891 46.9391 41.2911 46.9411C41.2932 46.9431 41.296 46.9443 41.299 46.9443C41.3235 46.979 41.3457 47.0154 41.3653 47.053C41.3874 47.0856 41.3985 47.1074 41.4206 47.14C41.4404 47.1811 41.4625 47.221 41.487 47.2596C41.5202 47.3139 41.5423 47.3574 41.5755 47.4118L41.6418 47.5422C41.646 47.5465 41.6491 47.5517 41.6511 47.5573C41.653 47.563 41.6536 47.5689 41.6529 47.5748C41.676 47.6163 41.6945 47.66 41.7082 47.7053C41.7082 47.7162 41.7192 47.7162 41.7192 47.727C41.7413 47.7705 41.7524 47.814 41.7745 47.8575C41.7966 47.901 41.8188 47.9771 41.8519 48.0423C41.8716 48.084 41.8864 48.1278 41.8962 48.1728C41.9183 48.2271 41.9294 48.2815 41.9515 48.3359C41.9736 48.3902 41.9846 48.4337 42.0068 48.4881C42.0289 48.5424 42.0399 48.5859 42.051 48.6403C42.0621 48.6946 42.0842 48.749 42.1063 48.8033C45.7872 46.212 48.786 42.7947 50.8538 38.8353C52.9215 34.8759 53.9984 30.4887 53.9951 26.0381C53.9951 10.535 41.2326 -2 25.4951 -2ZM14.6459 44.6939C14.668 44.6939 14.6791 44.683 14.7012 44.6721C14.684 44.6822 14.6654 44.6896 14.6459 44.6939ZM14.668 44.4547C14.6569 44.4547 14.6569 44.4547 14.6459 44.4655C14.6569 44.4655 14.668 44.4655 14.668 44.4547L14.7675 44.4221C14.7349 44.4346 14.7017 44.4454 14.668 44.4547ZM41.0667 46.7703C41.122 46.8356 41.1663 46.9117 41.2215 46.9769C41.1664 46.9107 41.1147 46.8417 41.0667 46.7703ZM41.0667 46.7703C41.122 46.8356 41.1663 46.9117 41.2215 46.9769C41.1664 46.9107 41.1147 46.8417 41.0667 46.7703Z" fill="#363A4D"/>
<path d="M38.0357 27.3761C37.9804 28.398 37.6265 29.0068 37.2063 29.3656C36.9275 29.609 36.5807 29.7644 36.2109 29.8113C36.4453 28.1876 36.5046 26.5441 36.3879 24.9082C36.7473 24.971 37.081 25.1332 37.3501 25.3757C37.7592 25.7453 38.08 26.365 38.0357 27.3761Z" fill="#82443A"/>
<path d="M14.953 29.7884C14.545 29.764 14.1548 29.6159 13.836 29.3644C13.4047 29.0165 13.0508 28.4077 13.0508 27.3858C13.0508 26.3638 13.3826 25.7224 13.7807 25.3419C14.0456 25.0934 14.3745 24.9205 14.7318 24.8418C14.6191 26.4936 14.6933 28.1527 14.953 29.7884Z" fill="#82443A"/>
<path d="M33.4247 43.5311C32.2966 43.3463 31.246 43.2158 30.4165 43.118L30.14 43.0854C29.764 43.0419 29.4322 42.9984 29.1889 42.9658C29.0341 42.944 28.9124 42.9223 28.8129 42.9005C28.7768 42.8901 28.7398 42.8828 28.7023 42.8788C28.6691 42.8679 28.6691 42.8679 28.6581 42.8679C28.6491 42.8582 28.6417 42.8472 28.636 42.8353C28.6249 42.8136 28.6138 42.781 28.5917 42.7375C28.5628 42.6197 28.5443 42.4996 28.5364 42.3787C28.5053 42.0063 28.498 41.6323 28.5143 41.2589C28.5254 40.9654 28.5364 40.6501 28.5585 40.3457C29.7861 40.3566 31.4893 40.5305 32.6505 41.0197C33.2477 41.2698 33.668 41.5959 33.8228 41.9982C33.9887 42.3787 33.9113 42.8788 33.4247 43.5311Z" fill="#7A62B6"/>
<path d="M21.6578 42.161C21.6514 42.4181 21.6143 42.6735 21.5472 42.922C21.5472 42.9329 21.5251 42.9655 21.4366 43.009C21.3231 43.0607 21.2046 43.1008 21.0827 43.1286C20.7731 43.2047 20.3528 43.2808 19.8441 43.3678C19.7003 43.3895 19.5455 43.4113 19.3906 43.4439C19.1805 43.4765 18.9483 43.5091 18.716 43.5526C18.152 43.0199 17.964 42.585 17.9861 42.2262C18.0082 41.8675 18.2626 41.5631 18.6607 41.3021C19.4349 40.7912 20.6956 40.4868 21.6467 40.3672C21.6578 40.5846 21.6689 40.8021 21.6689 41.0195C21.6799 41.4217 21.6799 41.824 21.6578 42.161Z" fill="#7A62B6"/>
<path d="M33.2701 43.726C32.2107 45.0551 31.0095 46.2688 29.6869 47.3462C29.0989 47.8342 28.4741 48.2775 27.8179 48.6726C27.287 48.977 26.8115 49.1836 26.4354 49.2597C26.2585 48.7596 25.8714 48.3247 25.3737 47.9224C24.7538 47.4552 24.0995 47.0336 23.4162 46.6613C23.2503 46.5635 23.0844 46.4765 22.9186 46.3787C21.6135 45.6503 20.1758 44.8349 18.9482 43.7369C19.1252 43.7042 19.2911 43.6825 19.4459 43.6608C19.6007 43.639 19.7556 43.6173 19.8993 43.5846C20.4081 43.4977 20.8394 43.4216 21.1601 43.3455C21.2969 43.3103 21.4302 43.263 21.5583 43.2041C21.6077 43.1868 21.653 43.1594 21.691 43.1238C21.7291 43.0883 21.7592 43.0453 21.7794 42.9976C21.8539 42.728 21.8948 42.4506 21.9011 42.1713C21.9232 41.8234 21.9232 41.4212 21.9122 41.0081C21.9122 40.7906 21.9011 40.5623 21.89 40.334V40.2253C21.8918 40.1887 21.8881 40.1521 21.879 40.1166C21.8569 39.6491 21.8237 39.2034 21.7905 38.8555C23.0354 39.2395 24.3345 39.4267 25.6392 39.4099C26.5868 39.4164 27.5324 39.3216 28.4593 39.1273C28.4372 39.323 28.4151 39.5295 28.404 39.7469C28.404 39.7578 28.3929 39.7796 28.3929 39.7904V39.8557C28.3819 39.9426 28.3819 40.0296 28.3708 40.1166C28.3726 40.1532 28.3689 40.1898 28.3598 40.2253C28.3506 40.2608 28.3469 40.2974 28.3487 40.334C28.3266 40.6384 28.3155 40.9537 28.3045 41.2364C28.2883 41.617 28.2957 41.9982 28.3266 42.3779C28.3343 42.5139 28.3565 42.6487 28.3929 42.7801C28.4026 42.8301 28.4214 42.878 28.4482 42.9215C28.469 42.9671 28.5038 43.0051 28.5478 43.0302C28.5787 43.0492 28.6122 43.0638 28.6473 43.0737C28.6909 43.0871 28.7352 43.098 28.78 43.1063C28.8796 43.128 29.0123 43.1498 29.1671 43.1715C29.4215 43.2041 29.7532 43.2476 30.1293 43.2911L30.4058 43.3237C31.191 43.4216 32.1974 43.552 33.2701 43.726Z" fill="#82443A"/>
<path d="M41.907 48.8578C41.8959 48.8578 41.8959 48.8687 41.8848 48.8687C41.8295 48.9013 41.7521 48.9556 41.6526 49.0209C41.4425 49.1622 41.1328 49.347 40.7347 49.5862C39.6311 50.2247 38.49 50.7983 37.3173 51.3039C34.4087 52.5541 30.361 53.7935 25.7713 53.7935C25.0967 53.7935 24.4553 53.7826 23.8359 53.75C23.7696 53.75 23.7032 53.7392 23.6369 53.7392L23.0286 53.7065C22.9401 53.6957 22.8406 53.6957 22.7521 53.6848L22.3982 53.6522C22.2434 53.6413 22.0996 53.6304 21.9448 53.6087C21.8674 53.5978 21.79 53.5978 21.7125 53.587C21.6351 53.5761 21.5798 53.5761 21.5135 53.5652C21.4471 53.5543 21.3808 53.5543 21.3144 53.5435L21.049 53.5109C20.9273 53.5 20.7946 53.4782 20.673 53.4674C20.3965 53.4348 20.1311 53.3913 19.8767 53.3478L19.6887 53.3152C19.6002 53.3043 19.5117 53.2826 19.4233 53.2717C19.1468 53.2173 18.8814 53.1738 18.6159 53.1086L18.45 53.076C18.3173 53.0434 18.1957 53.0216 18.063 52.989C18.0077 52.9781 17.9413 52.9564 17.886 52.9455C17.7754 52.9238 17.6759 52.8912 17.5653 52.8694C17.4547 52.8477 17.3662 52.8151 17.2667 52.7933C17.2003 52.7716 17.1229 52.7607 17.0566 52.739C16.9703 52.7186 16.8854 52.6932 16.8022 52.6629C16.7137 52.6302 16.6363 52.6194 16.5589 52.5868C16.4372 52.5541 16.3156 52.5107 16.205 52.478C16.1497 52.4563 16.0833 52.4454 16.028 52.4237C15.9707 52.4007 15.9115 52.3825 15.8511 52.3693C15.84 52.3693 15.829 52.3585 15.8179 52.3585C15.1101 52.1084 14.4244 51.8366 13.7498 51.5322C13.7387 51.5322 13.7277 51.5213 13.7166 51.5213C13.6392 51.4887 13.5729 51.4561 13.4954 51.4235L13.2964 51.3256L13.0309 51.1952C12.9425 51.1517 12.854 51.1082 12.7766 51.0647C12.6992 51.0212 12.6328 50.9886 12.5554 50.956C12.4559 50.9017 12.3674 50.8582 12.2678 50.8038C12.2015 50.7712 12.1462 50.7386 12.0798 50.706C11.8808 50.5972 11.6817 50.4777 11.4937 50.3689L11.3278 50.2711C10.8633 49.9993 10.4209 49.7275 10.0007 49.4666C9.86796 49.3796 9.73525 49.3035 9.60254 49.2165C9.65784 49.0535 9.70207 48.9121 9.74631 48.7926V48.7817C9.75603 48.7367 9.77087 48.6929 9.79055 48.6512C9.79055 48.6403 9.80161 48.6186 9.80161 48.6077C9.81267 48.5751 9.82373 48.5316 9.83479 48.499C9.84585 48.4664 9.8569 48.4229 9.86796 48.3903C9.87902 48.3577 9.90114 48.3033 9.92326 48.2598L9.92356 48.2594C9.97882 48.14 9.97882 48.14 10.0341 48.0205C10.067 47.9446 10.1113 47.8685 10.1555 47.7815C10.1666 47.7489 10.1887 47.7271 10.1997 47.6945C10.2105 47.6704 10.2255 47.6483 10.244 47.6293C10.2525 47.6098 10.2637 47.5915 10.2772 47.5749C10.2854 47.5525 10.301 47.5334 10.3214 47.5206C10.3546 47.4771 10.3878 47.4227 10.4209 47.3792C10.4541 47.3357 10.4873 47.2814 10.5205 47.2379L10.6532 47.0748C10.6974 47.0205 10.7417 46.977 10.7748 46.9335C10.8854 46.8139 10.996 46.6943 11.1177 46.5856C11.1619 46.553 11.1951 46.5095 11.2393 46.4769C11.2845 46.4339 11.3325 46.3939 11.3831 46.3573L11.5822 46.1942C11.6375 46.1507 11.6928 46.1181 11.7481 46.0746C11.7812 46.0529 11.8034 46.0311 11.8365 46.0094C11.9029 45.9659 11.9803 45.9116 12.0467 45.8681C12.082 45.8439 12.119 45.8222 12.1573 45.8028C12.2347 45.7594 12.301 45.7159 12.3784 45.6724C12.4227 45.6506 12.4669 45.618 12.5112 45.5963C12.5554 45.5745 12.5775 45.5637 12.6107 45.5419H12.6217C12.6501 45.5252 12.6797 45.5107 12.7102 45.4984L12.7213 45.4876L12.7213 45.4908C12.8435 45.4363 12.8435 45.4363 12.9656 45.3817L12.9646 45.3788C13.0042 45.3587 13.0448 45.3405 13.0862 45.3245L13.219 45.2593L13.3517 45.194L13.7498 45.0309C13.794 45.0092 13.8383 44.9983 13.8825 44.9766H13.8936L14.0595 44.9114C14.2475 44.8461 14.4355 44.77 14.6346 44.7157C14.8889 45.3354 15.4198 45.9768 16.1386 46.5639C17.2888 47.5097 18.9477 48.3686 20.8831 48.9448C22.4203 49.4014 23.5263 49.7927 24.2894 50.1298C25.0525 50.4668 25.4727 50.7495 25.6497 50.9669C25.661 50.982 25.6762 50.9939 25.6936 51.0015C25.7111 51.0091 25.7302 51.0122 25.7492 51.0104C27.574 50.8147 30.3389 50.3689 32.595 49.3579C34.8068 48.3686 36.5653 46.8139 36.4326 44.4004L36.5653 44.433C36.8196 44.4982 37.074 44.5743 37.3173 44.6613C37.4611 44.7048 37.6049 44.7483 37.7376 44.8026C37.8039 44.8244 37.8703 44.8461 37.9256 44.8679C37.9908 44.8866 38.0539 44.9121 38.1136 44.944L38.2795 45.0092C38.3127 45.0201 38.3348 45.031 38.368 45.0418C38.4011 45.0527 38.4454 45.0744 38.4896 45.0962C38.5339 45.1179 38.567 45.1288 38.6113 45.1505C38.6908 45.1823 38.7683 45.2186 38.8435 45.2593C38.8767 45.2701 38.8988 45.2919 38.932 45.3027C38.9652 45.3136 38.9873 45.3354 39.0205 45.3462C39.0315 45.3462 39.0426 45.3571 39.0536 45.3571C39.12 45.3897 39.1753 45.4223 39.2416 45.4549C39.308 45.4876 39.3522 45.5093 39.3965 45.5419C39.4075 45.5419 39.4075 45.5419 39.4075 45.5528C39.4407 45.5745 39.4739 45.5854 39.5071 45.6071C39.5403 45.6289 39.5624 45.6398 39.5956 45.6615C39.6385 45.6829 39.6793 45.7084 39.7172 45.7376C39.7283 45.7376 39.7283 45.7485 39.7393 45.7485C39.7787 45.7701 39.8157 45.7956 39.8499 45.8246L39.9494 45.8898C39.9826 45.9116 40.0047 45.9333 40.0379 45.955C40.0769 45.9813 40.1139 46.0104 40.1485 46.042C40.1843 46.0639 40.2176 46.0894 40.2481 46.1181C40.2799 46.1407 40.3095 46.1662 40.3365 46.1942C40.3697 46.216 40.3918 46.2486 40.425 46.2703L40.4248 46.2698C40.5022 46.3459 40.5022 46.3459 40.5797 46.422L40.5798 46.4225C40.6083 46.4451 40.6343 46.4706 40.6572 46.4986L40.6571 46.4986C40.7124 46.5639 40.7124 46.5639 40.7678 46.6292C40.7789 46.6508 40.801 46.6617 40.8121 46.6834C40.8231 46.7052 40.8563 46.7378 40.8784 46.7704L40.8895 46.7813C41.3208 47.227 41.6526 47.9989 41.907 48.8578Z" fill="#7A62B6"/>
<path d="M36.1989 44.3236L36.1878 44.2366V44.204C36.1878 44.1605 36.1768 44.1279 36.1768 44.0953C35.9445 42.2253 34.6837 41.1055 33.1465 40.4859C31.6092 39.8662 29.8176 39.7575 28.59 39.8988C28.579 39.9749 28.579 40.051 28.5679 40.1271C28.5697 40.1637 28.566 40.2003 28.5569 40.2358C28.8776 40.2358 29.2425 40.2576 29.6186 40.2793H29.6296C30.0281 40.269 30.4268 40.2799 30.824 40.3119C31.4807 40.4042 32.1233 40.5759 32.7373 40.8229C33.3456 41.0838 33.8432 41.4317 34.0312 41.9209C34.2192 42.3884 34.1197 42.932 33.6552 43.5734L33.5889 43.6713C33.5889 43.6821 33.5778 43.6821 33.5667 43.693C33.5447 43.7156 33.5261 43.7413 33.5114 43.7691C32.4222 45.1438 31.1877 46.4011 29.8287 47.5198C29.2316 48.0143 28.5955 48.4615 27.9265 48.857C27.3403 49.1941 26.7984 49.4224 26.3671 49.4876C26.354 49.4905 26.3405 49.4908 26.3273 49.4885C26.3141 49.4863 26.3015 49.4815 26.2902 49.4744C26.2789 49.4673 26.2691 49.4581 26.2614 49.4473C26.2538 49.4365 26.2483 49.4244 26.2454 49.4115C26.1017 48.9332 25.7367 48.5092 25.2169 48.096C24.6071 47.6372 23.964 47.223 23.2926 46.8567C23.1267 46.7588 22.9608 46.6718 22.7949 46.574C21.4457 45.8239 19.9305 44.965 18.6477 43.7908C18.6145 43.7691 18.5924 43.7365 18.5592 43.7147L18.5371 43.7039L18.4375 43.606C17.9288 43.0951 17.7187 42.6384 17.7518 42.2253C17.785 41.7796 18.0947 41.4208 18.5149 41.1382C18.9794 40.8338 19.5877 40.6054 20.2181 40.4315C20.4835 40.3663 20.7489 40.301 21.0033 40.2576C21.2134 40.2141 21.4125 40.1815 21.6005 40.1597V39.964C20.1517 39.964 18.5702 39.9966 17.2763 40.4641C16.6127 40.7033 16.0266 41.0403 15.5842 41.5513C15.1418 42.0623 14.8101 42.7363 14.6773 43.6495C14.6436 43.9128 14.67 44.1803 14.7548 44.4323L14.7879 44.5301L14.8322 44.628C15.0755 45.2042 15.5621 45.8021 16.2588 46.3783C17.3758 47.3024 19.0126 48.1504 20.9259 48.7157C22.4631 49.1723 23.5801 49.5637 24.3543 49.9116C25.0842 50.2269 25.5266 50.5095 25.7588 50.7705C27.5726 50.5748 30.2821 50.129 32.4829 49.1397C34.7059 48.1504 36.3648 46.6392 36.1989 44.3236ZM16.3805 44.2148C16.3745 44.2141 16.3684 44.2147 16.3627 44.2166C16.3569 44.2185 16.3517 44.2216 16.3473 44.2257C16.3533 44.2264 16.3594 44.2258 16.3651 44.2239C16.3709 44.2221 16.3761 44.219 16.3805 44.2148Z" fill="#9E8FC4"/>
<path fill-rule="evenodd" clip-rule="evenodd" d="M36.1678 24.9718C36.1678 24.9065 36.1567 24.8413 36.1567 24.7761C36.1585 24.7395 36.1548 24.7029 36.1456 24.6674C36.0736 23.6747 35.9406 22.6872 35.7475 21.7103C35.6404 21.697 35.5378 21.6597 35.4477 21.6013C35.3575 21.5428 35.2823 21.4648 35.2277 21.3733C35.1473 21.2415 35.0876 21.0986 35.0508 20.9493C34.9657 20.9599 34.8795 20.9406 34.8074 20.8949C34.7016 20.8305 34.614 20.7407 34.5531 20.634C34.4594 20.4701 34.3888 20.2946 34.343 20.1121C34.1174 20.1863 33.8713 20.1707 33.6573 20.0687C33.467 19.9851 33.2944 19.8671 33.1485 19.7208C33.0202 19.7508 32.8867 19.7537 32.7571 19.7294C32.6275 19.705 32.5046 19.6539 32.3965 19.5794C32.2476 19.487 32.1134 19.3734 31.9984 19.2424C31.9287 19.3281 31.8415 19.3985 31.7424 19.449C31.6434 19.4996 31.5347 19.5292 31.4233 19.5359C31.2116 19.5632 30.9965 19.5446 30.7929 19.4816C30.7679 19.5185 30.7336 19.5485 30.6934 19.5686C30.6309 19.6079 30.5573 19.6269 30.4832 19.6229C30.3299 19.6108 30.1819 19.5623 30.0519 19.4816C29.787 19.3265 29.5451 19.1363 29.3331 18.9163C29.2139 19.0162 29.074 19.0894 28.9231 19.1307C28.7722 19.1721 28.6139 19.1805 28.4594 19.1554C28.2202 19.1216 27.9927 19.0321 27.7958 18.8945C27.5037 19.0033 27.1811 19.0033 26.8889 18.8945C26.6669 18.8173 26.458 18.7073 26.2696 18.5684C26.1836 18.6669 26.0731 18.7418 25.9489 18.7858C25.8144 18.8339 25.6691 18.8452 25.5286 18.8184C25.3585 18.7847 25.1969 18.7182 25.0531 18.6227C25.0304 18.734 24.9811 18.8383 24.9093 18.9271C24.8132 19.0494 24.676 19.1342 24.5222 19.1663C24.2715 19.2262 24.0099 19.2262 23.7591 19.1663C23.5711 19.3946 23.2615 19.4381 22.9739 19.4055C22.7219 19.3708 22.4762 19.3013 22.244 19.1989C22.1801 19.2868 22.0918 19.3548 21.9896 19.3946C21.8234 19.4597 21.6482 19.5 21.4698 19.5142C21.1308 19.5402 20.79 19.5329 20.4524 19.4925C20.4009 19.5942 20.3148 19.675 20.2091 19.7208C20.0734 19.7812 19.9267 19.8145 19.7778 19.8186C19.5096 19.825 19.2417 19.7958 18.9815 19.7316C18.7904 19.9734 18.5143 20.1363 18.2073 20.1882C18.0457 20.209 17.8814 20.1865 17.7318 20.123C17.6803 20.2629 17.5951 20.3885 17.4833 20.4889C17.3716 20.5892 17.2367 20.6614 17.0903 20.6992C16.8426 20.7695 16.5827 20.788 16.3272 20.7536C16.2232 20.9348 16.0969 21.1027 15.9512 21.2537C15.7768 21.4405 15.5612 21.5855 15.3208 21.6777C15.1363 22.6479 15.0107 23.6281 14.9448 24.613C14.9466 24.6496 14.9429 24.6862 14.9338 24.7217C14.9246 24.812 14.9209 24.9028 14.9227 24.9935C14.8373 26.4193 14.8891 27.8499 15.0775 29.2661L15.1439 29.6901C15.1549 29.7879 15.1771 29.8858 15.1881 29.9836C15.3303 30.8216 15.5411 31.6469 15.8185 32.4515C16.471 34.3323 17.5106 36.0174 19.0921 37.235C19.8979 37.8529 20.8074 38.3275 21.7795 38.6375C21.9012 38.681 22.0118 38.7136 22.1334 38.7462C22.2551 38.7788 22.3988 38.8223 22.5426 38.8549C24.4869 39.2996 26.5069 39.3181 28.4594 38.9093C28.495 38.8968 28.5322 38.8895 28.57 38.8875C28.6058 38.8761 28.643 38.8688 28.6806 38.8658C29.9285 38.5743 31.0979 38.0218 32.109 37.2459C33.6794 36.0283 34.6969 34.3432 35.3383 32.4624C35.5996 31.674 35.7992 30.8671 35.9355 30.0488C35.9466 29.9945 35.9466 29.951 35.9576 29.8966C35.9687 29.8097 35.9908 29.7227 36.0019 29.6249C36.2267 28.0842 36.2823 26.5242 36.1678 24.9718ZM19.457 23.7759C19.4306 23.8018 19.3948 23.8164 19.3575 23.8164C19.3202 23.8164 19.2844 23.8018 19.258 23.7759C19.2316 23.7499 19.2167 23.7147 19.2167 23.678C19.2167 23.6413 19.2316 23.6062 19.258 23.5802C19.6782 23.1671 20.2644 22.9496 20.7952 22.8409C21.2458 22.7479 21.7076 22.7187 22.1666 22.754C22.1853 22.7554 22.2035 22.7606 22.2202 22.7691C22.2368 22.7777 22.2515 22.7894 22.2634 22.8037C22.2753 22.818 22.2841 22.8345 22.2894 22.8522C22.2946 22.8699 22.2962 22.8885 22.294 22.9068C22.2917 22.9252 22.2857 22.9428 22.2764 22.9588C22.267 22.9748 22.2544 22.9888 22.2395 22.9999C22.2245 23.011 22.2073 23.019 22.1891 23.0235C22.1709 23.0279 22.1519 23.0287 22.1334 23.0257C21.7043 22.9915 21.2724 23.0171 20.8505 23.1018C20.3418 23.2106 19.822 23.4063 19.457 23.7759ZM22.7859 26.5808C22.6974 27.2005 22.3325 27.668 21.9675 27.6136C21.6026 27.5592 21.3814 27.0157 21.4809 26.396C21.5804 25.7763 21.9343 25.3088 22.2993 25.3632C22.6643 25.4175 22.8744 25.9611 22.7859 26.5808ZM25.971 27.8419C25.9945 27.8343 26.0201 27.8356 26.0427 27.8457C26.0652 27.8558 26.0831 27.8738 26.0927 27.8963C26.2254 28.255 26.3802 28.6247 26.535 28.9399C26.6474 29.1984 26.7963 29.44 26.9774 29.6575C27.265 29.951 27.453 30.2554 27.3866 30.5924C27.3203 30.9295 27.0106 31.2665 26.4134 31.647C26.4025 31.6534 26.3904 31.6577 26.3779 31.6595C26.3653 31.6613 26.3525 31.6607 26.3402 31.6577C26.3153 31.6516 26.2939 31.636 26.2807 31.6144C26.2675 31.5927 26.2636 31.5669 26.2698 31.5424C26.276 31.5179 26.2919 31.4969 26.3139 31.4839C26.9 31.1034 27.1544 30.799 27.1986 30.5489C27.2428 30.2989 27.1212 30.0597 26.8447 29.7771C26.652 29.5456 26.492 29.2896 26.3691 29.016C26.2143 28.6899 26.0595 28.3094 25.9157 27.9506C25.8936 27.918 25.9268 27.8636 25.971 27.8419ZM28.7248 33.0494C28.4763 33.5369 28.1389 33.9754 27.7295 34.3432C27.265 34.7454 26.6788 35.0498 26.0263 34.9411C25.4044 34.8278 24.8351 34.5232 24.4006 34.0714C23.9803 33.6474 23.7038 33.1364 23.6596 32.6798C23.6594 32.6587 23.6643 32.6378 23.674 32.6189C23.6836 32.6 23.6976 32.5836 23.7149 32.5711C23.7335 32.5593 23.7556 32.554 23.7776 32.556C23.7997 32.558 23.8204 32.5671 23.8366 32.582C24.2679 32.9081 25.1416 33.2016 26.0816 33.2995C27.0217 33.3973 27.9728 33.2995 28.5589 32.8972C28.5784 32.8839 28.6015 32.8768 28.6253 32.8768C28.649 32.8768 28.6721 32.8839 28.6916 32.8972C28.7121 32.9164 28.7262 32.9411 28.7321 32.9683C28.738 32.9954 28.7355 33.0237 28.7248 33.0494ZM29.5432 27.6897C29.1782 27.7332 28.8243 27.2548 28.758 26.6351C28.6916 26.0155 28.9128 25.4719 29.2778 25.4284C29.6427 25.3849 29.9966 25.8633 30.063 26.4829C30.1293 27.1026 29.9081 27.6462 29.5432 27.6897ZM32.2417 23.7107C32.2309 23.7258 32.2171 23.7386 32.2012 23.7485C32.1853 23.7583 32.1676 23.7649 32.1491 23.768C32.1306 23.771 32.1116 23.7704 32.0933 23.7661C32.075 23.7619 32.0578 23.7541 32.0426 23.7433C31.6869 23.5048 31.3 23.3146 30.8924 23.178C30.3948 23.0149 29.8418 22.9388 29.3331 23.0692C29.3156 23.075 29.2971 23.077 29.2788 23.075C29.2606 23.073 29.2429 23.0672 29.2272 23.0579C29.2114 23.0486 29.1979 23.0361 29.1875 23.0211C29.1772 23.0062 29.1702 22.9892 29.1672 22.9714C29.1618 22.9535 29.1601 22.9348 29.1623 22.9163C29.1644 22.8978 29.1703 22.88 29.1795 22.8637C29.1888 22.8475 29.2013 22.8333 29.2163 22.8219C29.2313 22.8105 29.2484 22.8022 29.2667 22.7974C29.8418 22.6452 30.4611 22.7431 30.9809 22.917C31.4169 23.0582 31.8302 23.2595 32.2085 23.515C32.2239 23.5256 32.2369 23.5391 32.2469 23.5547C32.257 23.5703 32.2637 23.5878 32.2668 23.606C32.2699 23.6242 32.2692 23.6428 32.2649 23.6608C32.2606 23.6788 32.2527 23.6957 32.2417 23.7107Z" fill="#82443A"/>
<path d="M29.5538 27.7016C29.1888 27.745 28.8349 27.2667 28.7686 26.647C28.7022 26.0273 28.9234 25.4837 29.2883 25.4402C29.6533 25.3968 30.0072 25.8751 30.0736 26.4948C30.1399 27.1145 29.9077 27.6581 29.5538 27.7016Z" fill="black"/>
<path d="M22.7879 26.593C22.6994 27.2127 22.3344 27.6802 21.9695 27.6258C21.6045 27.5715 21.3833 27.0279 21.4829 26.4082C21.5824 25.7885 21.9363 25.321 22.3013 25.3754C22.6662 25.4298 22.8763 25.9733 22.7879 26.593Z" fill="black"/>
<path fill-rule="evenodd" clip-rule="evenodd" d="M27.3861 30.615C27.3197 30.952 27.0101 31.289 26.4129 31.6695C26.402 31.676 26.3899 31.6802 26.3773 31.682C26.3648 31.6839 26.352 31.6833 26.3396 31.6802C26.3147 31.6741 26.2934 31.6585 26.2802 31.6369C26.267 31.6153 26.263 31.5894 26.2693 31.5649C26.2755 31.5405 26.2913 31.5194 26.3133 31.5065C26.8995 31.1259 27.1538 30.8215 27.1981 30.5715C27.2423 30.3214 27.1207 30.0823 26.8442 29.7996C26.6515 29.5682 26.4915 29.3122 26.3686 29.0386C26.2138 28.7124 26.059 28.3319 25.9152 27.9732C25.9108 27.9617 25.9088 27.9496 25.9092 27.9374C25.9097 27.9252 25.9125 27.9132 25.9176 27.9021C25.9228 27.891 25.9301 27.881 25.9392 27.8727C25.9482 27.8643 25.9589 27.8579 25.9705 27.8536C25.9821 27.8493 25.9945 27.8473 26.0069 27.8477C26.0193 27.8481 26.0315 27.8509 26.0428 27.856C26.0541 27.861 26.0642 27.8682 26.0727 27.8771C26.0812 27.886 26.0878 27.8965 26.0921 27.9079C26.2249 28.2667 26.3797 28.6363 26.5345 28.9516C26.6469 29.2101 26.7958 29.4516 26.9769 29.6691C27.2644 29.9627 27.4524 30.2671 27.3861 30.615Z" fill="black"/>
<path fill-rule="evenodd" clip-rule="evenodd" d="M22.2994 22.9069C22.2974 22.9249 22.2919 22.9423 22.283 22.9581C22.2741 22.9739 22.2621 22.9878 22.2477 22.9989C22.2332 23.0101 22.2167 23.0183 22.1989 23.023C22.1812 23.0277 22.1627 23.0289 22.1445 23.0265C21.7154 22.9922 21.2835 23.0179 20.8616 23.1026C20.3529 23.2113 19.8331 23.407 19.4571 23.7767C19.4307 23.8026 19.3949 23.8172 19.3576 23.8172C19.3202 23.8172 19.2844 23.8026 19.258 23.7767C19.2316 23.7507 19.2168 23.7155 19.2168 23.6788C19.2168 23.6421 19.2316 23.6069 19.258 23.581C19.6783 23.1678 20.2644 22.9504 20.7953 22.8417C21.2459 22.7487 21.7076 22.7194 22.1666 22.7547C22.203 22.7616 22.236 22.7804 22.2601 22.808C22.2842 22.8357 22.298 22.8705 22.2994 22.9069Z" fill="black"/>
<path fill-rule="evenodd" clip-rule="evenodd" d="M32.2395 23.723C32.2287 23.7381 32.2149 23.7509 32.1991 23.7608C32.1832 23.7706 32.1654 23.7773 32.1469 23.7803C32.1284 23.7833 32.1094 23.7827 32.0911 23.7785C32.0729 23.7742 32.0556 23.7665 32.0404 23.7556C31.6847 23.5171 31.2978 23.3269 30.8902 23.1903C30.3926 23.0272 29.8396 22.9511 29.3309 23.0816C29.3134 23.0873 29.2949 23.0893 29.2767 23.0873C29.2584 23.0854 29.2407 23.0795 29.225 23.0702C29.2092 23.0609 29.1957 23.0484 29.1853 23.0334C29.175 23.0185 29.168 23.0015 29.165 22.9837C29.1596 22.9659 29.1579 22.9471 29.1601 22.9287C29.1622 22.9102 29.1681 22.8923 29.1774 22.8761C29.1866 22.8598 29.1991 22.8456 29.2141 22.8342C29.2291 22.8228 29.2462 22.8145 29.2645 22.8098C29.8396 22.6576 30.4589 22.7554 30.9787 22.9294C31.4147 23.0705 31.828 23.2718 32.2063 23.5273C32.2217 23.5379 32.2348 23.5514 32.2448 23.567C32.2548 23.5827 32.2615 23.6001 32.2646 23.6183C32.2677 23.6365 32.2671 23.6552 32.2627 23.6731C32.2584 23.6911 32.2505 23.708 32.2395 23.723Z" fill="black"/>
<path fill-rule="evenodd" clip-rule="evenodd" d="M28.7029 32.9306C28.6849 32.9149 28.6623 32.9053 28.6384 32.9033C28.6144 32.9014 28.5905 32.9071 28.5702 32.9197C27.984 33.322 27.0329 33.4198 26.0929 33.322C25.1528 33.2242 24.2791 32.9306 23.8478 32.6045C23.8316 32.5896 23.8109 32.5805 23.7889 32.5785C23.7668 32.5766 23.7448 32.5819 23.7261 32.5936C23.707 32.6042 23.6915 32.6203 23.6816 32.6396C23.6717 32.659 23.668 32.6808 23.6708 32.7023C23.704 33.1589 23.9916 33.6699 24.4118 34.0939C24.8463 34.5457 25.4156 34.8503 26.0376 34.9636C26.6901 35.0723 27.2762 34.7679 27.7407 34.3657C28.1502 33.9979 28.4875 33.5594 28.736 33.0719C28.7425 33.0475 28.7429 33.0219 28.7371 32.9973C28.7313 32.9727 28.7196 32.9498 28.7029 32.9306ZM27.5859 34.1917C27.1546 34.5722 26.6237 34.8332 26.0707 34.7462C25.498 34.634 24.9735 34.3534 24.5667 33.9417C24.2727 33.6627 24.0557 33.3148 23.9363 32.9306C24.445 33.2242 25.2523 33.4633 26.0707 33.5503C26.867 33.6373 27.7075 33.5829 28.3379 33.3003C28.1299 33.6298 27.8768 33.9298 27.5859 34.1917Z" fill="black"/>
<path fill-rule="evenodd" clip-rule="evenodd" d="M28.3372 33.3002C28.1295 33.6333 27.8765 33.9369 27.5851 34.2025C27.1538 34.583 26.623 34.844 26.07 34.757C25.4973 34.6448 24.9728 34.3642 24.5659 33.9525C24.2719 33.6735 24.055 33.3256 23.9355 32.9414C24.4443 33.2349 25.2516 33.4741 26.07 33.5611C26.8552 33.6263 27.7068 33.5828 28.3372 33.3002Z" fill="#AE5646"/>
<path d="M42.1413 48.8901C42.1302 48.8574 42.1192 48.814 42.1081 48.7813C42.0947 48.7255 42.0762 48.6709 42.0528 48.6183C42.0417 48.5639 42.0196 48.5095 42.0086 48.4661C41.9975 48.4226 41.9754 48.3682 41.9533 48.3139C41.9311 48.2595 41.9201 48.2051 41.898 48.1508C41.8759 48.0964 41.8648 48.0638 41.8537 48.0203C41.8327 47.9569 41.8068 47.8951 41.7763 47.8355C41.7542 47.792 41.7431 47.7485 41.721 47.705C41.7199 47.6968 41.716 47.6892 41.71 47.6833C41.6878 47.6398 41.6768 47.5963 41.6547 47.5528C41.6547 47.542 41.6436 47.5311 41.6436 47.5202L41.5772 47.3898C41.5544 47.3356 41.5247 47.2844 41.4888 47.2376C41.469 47.1965 41.4468 47.1566 41.4224 47.118C41.4065 47.0875 41.388 47.0584 41.3671 47.031C41.345 46.9984 41.3229 46.9549 41.3008 46.9223C41.3008 46.9194 41.2996 46.9166 41.2975 46.9146C41.2955 46.9126 41.2926 46.9114 41.2897 46.9114C41.2786 46.9005 41.2786 46.8897 41.2676 46.8788L41.2012 46.781C41.1791 46.7483 41.157 46.7266 41.1349 46.694C41.1128 46.6614 41.0906 46.6396 41.0685 46.607C41.0464 46.5744 41.0353 46.5635 41.0132 46.5418C40.9911 46.52 40.9911 46.5092 40.98 46.4983C40.957 46.467 40.9311 46.4379 40.9026 46.4113C40.9026 46.4004 40.8916 46.4004 40.8916 46.3896C40.869 46.358 40.843 46.3288 40.8142 46.3026C40.792 46.2809 40.781 46.2591 40.7589 46.2482L40.6925 46.183L40.593 46.0852C40.5586 46.0499 40.5217 46.0172 40.4824 45.9873C40.4603 45.9764 40.4492 45.9547 40.4271 45.9438C40.3607 45.8895 40.2944 45.8351 40.2169 45.7808C40.1838 45.759 40.1616 45.7373 40.1285 45.7155C40.075 45.6819 40.0234 45.6456 39.9736 45.6068C39.863 45.5416 39.7635 45.4655 39.6529 45.4002C39.6219 45.3846 39.5923 45.3664 39.5644 45.3459L39.2658 45.1828C39.2105 45.1502 39.1552 45.1285 39.1 45.0958C38.9009 44.998 38.6797 44.9002 38.4696 44.8132C38.4345 44.8033 38.401 44.7887 38.37 44.7697C38.3147 44.7479 38.2594 44.7262 38.1931 44.7045C38.1506 44.6851 38.1061 44.6705 38.0604 44.661C38.0272 44.6501 37.983 44.6284 37.9498 44.6175C37.8668 44.5837 37.7818 44.5546 37.6954 44.5305C37.618 44.5088 37.5406 44.4762 37.4632 44.4544C37.3857 44.4327 37.2862 44.4001 37.1977 44.3674C37.1187 44.347 37.0412 44.3216 36.9655 44.2913C36.8748 44.2609 36.7825 44.2355 36.689 44.2152C36.6005 44.1935 36.501 44.1609 36.4125 44.1391C36.2024 42.117 34.8421 40.9211 33.2385 40.2688C31.6791 39.6383 29.8764 39.5187 28.6157 39.66C28.6378 39.4534 28.6488 39.2469 28.671 39.0729C29.9789 38.7792 31.2057 38.2078 32.2653 37.3987C33.8799 36.1485 34.9195 34.4199 35.561 32.5173C35.8299 31.7081 36.0333 30.8793 36.1692 30.0386C36.6046 29.9925 37.0144 29.8138 37.3415 29.5276C37.806 29.1253 38.1931 28.4513 38.2484 27.3859C38.3037 26.3205 37.9608 25.6355 37.4963 25.2115C37.1796 24.934 36.7877 24.7527 36.3683 24.6897C36.2981 23.6819 36.1614 22.6796 35.9591 21.6891C36.0282 21.6662 36.0895 21.6248 36.136 21.5695C36.207 21.4774 36.2528 21.3688 36.2687 21.2543C36.2973 21.0475 36.286 20.8373 36.2356 20.6346C36.3288 20.4152 36.3501 20.1727 36.2966 19.9408C36.2431 19.7089 36.1174 19.4992 35.937 19.3408C36.0009 19.2005 36.0348 19.0488 36.0365 18.8951C36.0397 18.7987 36.0193 18.7029 35.977 18.6158C35.9346 18.5288 35.8716 18.4531 35.7932 18.395C35.8804 18.2382 35.9437 18.0697 35.9812 17.8949C35.9977 17.7816 35.9863 17.666 35.948 17.5579C35.9244 17.4931 35.8821 17.4364 35.8264 17.3948C35.897 17.3305 35.9469 17.2474 35.9701 17.1556C35.9921 17.0676 35.9803 16.9747 35.937 16.8947C35.9014 16.834 35.8522 16.7819 35.7932 16.7425C35.8685 16.6182 35.8996 16.4729 35.8817 16.3294C35.8485 16.1337 35.6826 15.9815 35.384 15.8945C35.4045 15.8185 35.4071 15.7389 35.3918 15.6617C35.3765 15.5845 35.3436 15.5117 35.2955 15.4488C35.1628 15.2857 34.9195 15.1987 34.5435 15.2313C34.5579 15.1223 34.5504 15.0114 34.5214 14.9052C34.4819 14.8071 34.4174 14.7205 34.3341 14.6539C34.2509 14.5873 34.1516 14.5428 34.0458 14.5247C34.053 14.3748 34.0226 14.2255 33.9573 14.0898C33.9074 13.9972 33.8304 13.9214 33.7362 13.8724C33.6492 13.8352 33.5541 13.8202 33.4597 13.8289C33.3946 13.608 33.2589 13.4136 33.0726 13.2744C33.0094 13.2344 32.9387 13.207 32.8647 13.194C32.7906 13.1809 32.7147 13.1824 32.6413 13.1983C32.5166 13.2254 32.4018 13.2856 32.3095 13.3723C32.2934 13.3037 32.2674 13.2378 32.2321 13.1766C32.1842 13.0968 32.1101 13.0355 32.022 13.0027C31.9583 12.9795 31.8907 12.9684 31.8229 12.97C31.847 12.6881 31.7686 12.4069 31.6017 12.1764C31.4826 12.0221 31.309 11.9173 31.1151 11.8829C30.8859 11.8508 30.6525 11.8656 30.4294 11.9264C30.3864 11.7419 30.2812 11.5771 30.1308 11.4589C30.0202 11.3741 29.8839 11.3282 29.7437 11.3284C29.6005 11.3325 29.4603 11.3698 29.3345 11.4371C29.3029 11.3533 29.2622 11.2731 29.2129 11.198C29.1387 11.0743 29.0316 10.9728 28.9032 10.9044C28.8311 10.8701 28.7523 10.8513 28.6722 10.8495C28.592 10.8476 28.5124 10.8626 28.4387 10.8935C28.3072 10.9512 28.1901 11.0365 28.0959 11.1436V11.1327C28.0725 11.0347 28.0229 10.9446 27.9521 10.8718C27.9094 10.8319 27.8591 10.8007 27.804 10.7802C27.7489 10.7597 27.6902 10.7502 27.6314 10.7522C27.4988 10.757 27.3695 10.7943 27.2554 10.8609C27.0864 10.6942 26.8708 10.5807 26.636 10.5348C26.4863 10.5105 26.3327 10.5415 26.2047 10.6218C26.0985 10.6904 26.0112 10.7838 25.9504 10.8935C25.884 10.8283 25.8176 10.7522 25.7402 10.687C25.625 10.5753 25.4788 10.4997 25.32 10.4696C25.2359 10.4509 25.1485 10.4531 25.0655 10.4759C24.9825 10.4986 24.9065 10.5413 24.8444 10.6C24.7374 10.7005 24.6543 10.823 24.6011 10.9588C24.5753 10.9164 24.5457 10.8764 24.5126 10.8392C24.4475 10.7641 24.3659 10.7046 24.2739 10.6651C24.182 10.6255 24.0821 10.607 23.9818 10.6109C23.6767 10.632 23.388 10.7547 23.1634 10.9588C22.9653 10.8369 22.733 10.7798 22.4998 10.7957C22.3464 10.811 22.2024 10.876 22.0906 10.9805C21.9934 11.0761 21.918 11.191 21.8694 11.3175C21.8473 11.2958 21.8252 11.2849 21.8031 11.2632C21.7215 11.205 21.6265 11.1677 21.5266 11.1545C21.4717 11.1483 21.416 11.1549 21.3641 11.1738C21.3123 11.1927 21.2656 11.2233 21.228 11.2632C21.1504 11.3455 21.0969 11.4469 21.0732 11.5567C20.8998 11.5402 20.7255 11.5782 20.5755 11.6654C20.4701 11.7358 20.3921 11.8393 20.3543 11.959C20.3416 12.0014 20.3341 12.0452 20.3322 12.0894C20.2392 12.012 20.1295 11.9562 20.0115 11.9264C19.8751 11.8997 19.7335 11.9229 19.6133 11.9916C19.477 12.0823 19.3666 12.2058 19.2926 12.3504C19.0137 12.3364 18.7379 12.4128 18.5074 12.5678C18.253 12.7526 18.0761 13.0679 18.1314 13.5571C17.8889 13.5314 17.6452 13.5932 17.4457 13.7311C17.2024 13.905 17.0586 14.2203 17.0807 14.7095C16.9251 14.6137 16.7445 14.5646 16.561 14.5682C16.4861 14.5723 16.4129 14.5918 16.3462 14.6255C16.2795 14.6592 16.2208 14.7064 16.1739 14.7639C16.0612 14.9059 15.9888 15.0747 15.9637 15.2531C15.7715 15.2861 15.5962 15.3819 15.4661 15.5249C15.3802 15.6211 15.333 15.7448 15.3334 15.8728C15.3412 16.0042 15.3831 16.1314 15.455 16.2424C15.3897 16.3149 15.3407 16.4001 15.3112 16.4925C15.2891 16.5707 15.2891 16.6534 15.3112 16.7316C15.1485 16.7033 14.9808 16.7301 14.8357 16.8077C14.5813 16.9599 14.4376 17.3078 14.5039 17.9058C14.4196 18.0635 14.3741 18.2386 14.3712 18.4167C14.371 18.5169 14.3938 18.6158 14.4379 18.7062C14.4819 18.7965 14.546 18.8759 14.6256 18.9386C14.5604 19.0313 14.5117 19.1342 14.4818 19.243C14.4423 19.4323 14.4737 19.6292 14.5703 19.7974C14.4418 19.9058 14.3429 20.0441 14.2827 20.1997C14.244 20.3125 14.244 20.4348 14.2827 20.5476C14.3217 20.6698 14.3944 20.779 14.4928 20.8629C14.462 21.0493 14.481 21.2404 14.5481 21.4173C14.5931 21.5278 14.675 21.6198 14.7804 21.6783C14.8801 21.7252 14.9911 21.744 15.1011 21.7326C14.9204 22.6921 14.7985 23.6614 14.7362 24.6353C14.3103 24.7064 13.9167 24.9036 13.6081 25.2007C13.1657 25.6247 12.8118 26.3205 12.8118 27.3968C12.8118 28.473 13.1878 29.1471 13.6745 29.5385C14.0396 29.8351 14.4949 30.0034 14.9684 30.0168C15.109 30.8704 15.3236 31.7106 15.6098 32.5282C16.2734 34.4416 17.3351 36.1593 18.9498 37.4096C19.7262 38.0051 20.5967 38.4715 21.5266 38.7903C21.5487 39.0512 21.5708 39.3882 21.593 39.747C20.1552 39.747 18.5406 39.7796 17.2024 40.2579C16.5167 40.508 15.8974 40.8668 15.4218 41.4103C14.9463 41.9539 14.6034 42.6715 14.4597 43.6173C14.418 43.9172 14.4483 44.2225 14.5481 44.5088C14.5371 44.5088 14.515 44.5196 14.5039 44.5196C14.3601 44.5631 14.2164 44.6175 14.0726 44.6718C14.0284 44.6827 13.9952 44.7045 13.9509 44.7153C13.8625 44.7479 13.7851 44.7806 13.6966 44.8132C13.4312 44.9219 13.1657 45.0306 12.9114 45.1611L12.7123 45.2589C12.7094 45.2589 12.7065 45.2601 12.7045 45.2621C12.7024 45.2641 12.7012 45.2669 12.7012 45.2698C12.6902 45.2807 12.6681 45.2807 12.657 45.2915C12.5685 45.335 12.4911 45.3785 12.4137 45.422C12.134 45.5757 11.8644 45.7463 11.6064 45.933C11.5842 45.9547 11.5621 45.9656 11.54 45.9873C11.4958 46.0199 11.4515 46.0525 11.4183 46.0743C11.3852 46.096 11.352 46.1287 11.3188 46.1504C11.2649 46.1912 11.2132 46.2347 11.164 46.2809L11.0976 46.3461C11.0644 46.3787 11.0202 46.4113 10.987 46.4439C10.9548 46.4701 10.9252 46.4992 10.8986 46.5309L10.7658 46.6614C10.7105 46.7157 10.6552 46.7809 10.5889 46.8462C10.5597 46.8761 10.5338 46.9089 10.5115 46.944C10.5004 46.9658 10.4783 46.9766 10.4672 46.9875C10.4562 46.9984 10.4341 47.0201 10.423 47.031C10.4009 47.0636 10.3677 47.0962 10.3456 47.1288L10.2461 47.2593C10.1797 47.3463 10.1244 47.4333 10.0691 47.5202C10.0392 47.5612 10.0133 47.6049 9.99169 47.6507C9.96957 47.6833 9.94745 47.7268 9.92533 47.7594C9.90254 47.7933 9.88397 47.8298 9.87003 47.8681C9.85897 47.8899 9.84791 47.9007 9.83686 47.9225C9.81756 47.9529 9.80267 47.9858 9.79262 48.0203C9.78156 48.0312 9.78156 48.0529 9.7705 48.0638C9.75944 48.0747 9.75944 48.0964 9.74838 48.1073C9.73732 48.1399 9.7152 48.1725 9.70414 48.2051C9.69308 48.2378 9.68202 48.2595 9.67096 48.2812C9.65991 48.303 9.65991 48.303 9.65991 48.3247C9.64885 48.3682 9.62673 48.4008 9.61567 48.4443C9.60461 48.4878 9.59355 48.5204 9.58249 48.553C9.57143 48.5856 9.54931 48.64 9.53825 48.6944C9.51613 48.7705 9.48296 48.8574 9.44978 48.9444C9.43872 48.977 9.42766 49.0205 9.4166 49.064C9.4166 49.0749 9.40554 49.0966 9.40554 49.1075L9.37236 49.2053C9.36602 49.2273 9.36688 49.2507 9.37482 49.2722C9.38276 49.2936 9.39738 49.3121 9.4166 49.3249C9.57143 49.4228 9.72626 49.5206 9.89215 49.6185C11.352 50.5208 13.022 51.5536 15.3112 52.3907C15.3887 52.4233 15.4661 52.4451 15.5545 52.4777L16.0522 52.6408C16.3066 52.7278 16.5831 52.8039 16.8596 52.8908C17.0033 52.9343 17.1582 52.9778 17.313 53.0104L17.4125 53.043C17.501 53.0648 17.6005 53.0974 17.7001 53.1191C17.877 53.1626 18.065 53.2061 18.253 53.2496C18.3194 53.2605 18.3857 53.2822 18.441 53.2931C18.6512 53.3366 18.8724 53.3801 19.0935 53.4235C19.1403 53.4369 19.1886 53.4442 19.2373 53.4453C19.3147 53.4562 19.3811 53.4779 19.4585 53.4888C19.558 53.5105 19.6686 53.5214 19.7792 53.5431C19.8677 53.554 19.9672 53.5757 20.0557 53.5866C20.1442 53.5975 20.2437 53.6192 20.3322 53.6301C20.3764 53.641 20.4207 53.641 20.476 53.6518C20.5755 53.6627 20.675 53.6845 20.7746 53.6953C20.8741 53.7062 21.0068 53.728 21.1174 53.7388C21.1617 53.7497 21.2169 53.7497 21.2612 53.7606L21.5155 53.7932C21.5819 53.8041 21.6483 53.8041 21.7146 53.8149C21.781 53.8258 21.8473 53.8258 21.9247 53.8367C22.2233 53.8693 22.533 53.891 22.8427 53.9128C22.898 53.9128 22.9643 53.9236 23.0196 53.9236C23.1081 53.9345 23.2076 53.9345 23.2961 53.9454C23.3917 53.9544 23.4877 53.9581 23.5837 53.9563C23.7053 53.9671 23.827 53.9671 23.9486 53.978C24.0924 53.978 24.2251 53.9889 24.3689 53.9889C24.4573 53.9889 24.5458 53.9997 24.6343 53.9997H25.7623C30.3962 53.9997 34.4771 52.7386 37.3968 51.4884C38.579 50.9835 39.7277 50.4062 40.8363 49.7598C41.0353 49.6402 41.2123 49.5315 41.3671 49.4336C41.4003 49.4119 41.4445 49.3902 41.4777 49.3684L41.6768 49.2379C41.71 49.2162 41.7321 49.2053 41.7653 49.1836C41.8036 49.1643 41.8405 49.1425 41.8759 49.1184C41.9311 49.0857 41.9754 49.0531 42.0086 49.0314C42.0298 49.0156 42.052 49.0011 42.0749 48.9879C42.086 48.9879 42.086 48.977 42.097 48.977C42.1413 48.977 42.1523 48.9335 42.1413 48.8901ZM41.2233 46.9875C41.1681 46.9114 41.1238 46.8462 41.0685 46.781C41.1238 46.8462 41.1681 46.9223 41.2233 46.9875ZM36.3904 24.9289C36.7498 24.9917 37.0835 25.1538 37.3526 25.3964C37.7618 25.766 38.0825 26.3748 38.0272 27.3968C37.9719 28.4187 37.618 29.0275 37.1977 29.3863C36.919 29.6297 36.5722 29.785 36.2024 29.832C36.451 28.2096 36.5141 26.565 36.3904 24.9289ZM13.8403 29.3754C13.409 29.0275 13.0551 28.4187 13.0551 27.3968C13.0551 26.3748 13.3869 25.7334 13.7851 25.3529C14.05 25.1044 14.3788 24.9315 14.7362 24.8528C14.6348 26.5011 14.7089 28.1553 14.9573 29.7885C14.5482 29.7789 14.1545 29.6333 13.8403 29.3754ZM19.1046 37.2465C17.5231 36.0289 16.4835 34.3438 15.831 32.463C15.5575 31.6573 15.3467 30.8322 15.2007 29.9951C15.1896 29.8972 15.1675 29.7994 15.1564 29.7015L15.0901 29.2776C14.9074 27.8609 14.8555 26.4308 14.9352 25.005C14.9352 24.918 14.9463 24.8202 14.9463 24.7332C14.9445 24.6966 14.9482 24.66 14.9573 24.6245C15.0287 23.6401 15.1542 22.6602 15.3334 21.6891C15.5752 21.5998 15.7914 21.4543 15.9637 21.2651C16.1095 21.1142 16.2358 20.9463 16.3398 20.765C16.595 20.8049 16.8561 20.7863 17.1029 20.7107C17.2482 20.6707 17.382 20.5978 17.4934 20.4977C17.6048 20.3976 17.6908 20.2732 17.7443 20.1345C17.894 20.1979 18.0583 20.2205 18.2199 20.1997C18.5268 20.1477 18.8029 19.9849 18.994 19.7431C19.2532 19.8126 19.5219 19.8419 19.7903 19.8301C19.9394 19.8272 20.0863 19.7939 20.2216 19.7322C20.3227 19.6798 20.407 19.6008 20.4649 19.5039C20.8025 19.5444 21.1433 19.5517 21.4824 19.5257C21.6607 19.5115 21.8359 19.4712 22.0022 19.4061C22.1043 19.3662 22.1926 19.2983 22.2565 19.2104C22.4887 19.3127 22.7344 19.3823 22.9864 19.4169C23.2629 19.4496 23.5837 19.4169 23.7717 19.1778C24.0217 19.2431 24.2847 19.2431 24.5348 19.1778C24.6847 19.1368 24.8193 19.0537 24.9218 18.9386C24.9894 18.8473 25.0382 18.7439 25.0656 18.6342C25.2084 18.7316 25.3704 18.7982 25.5412 18.8299C25.6817 18.8566 25.8269 18.8454 25.9614 18.7973C26.0842 18.7505 26.1941 18.676 26.2821 18.5798C26.4731 18.7148 26.6814 18.8244 26.9015 18.906C27.1936 19.0147 27.5162 19.0147 27.8083 18.906C28.0042 19.0454 28.2322 19.1351 28.4719 19.1669C28.6265 19.1913 28.7846 19.1825 28.9354 19.1412C29.0862 19.1 29.2261 19.0271 29.3456 18.9277C29.5657 19.1389 29.8065 19.3283 30.0644 19.493C30.1952 19.5722 30.3428 19.6206 30.4958 19.6344C30.5697 19.637 30.6428 19.6181 30.7059 19.58C30.7417 19.5541 30.7751 19.525 30.8054 19.493C31.011 19.5454 31.2241 19.5637 31.4358 19.5474C31.5469 19.5394 31.6552 19.5093 31.7541 19.4588C31.8529 19.4083 31.9403 19.3386 32.0109 19.2539C32.1256 19.3853 32.2598 19.4989 32.409 19.5909C32.5183 19.663 32.6412 19.7127 32.7704 19.7369C32.8996 19.7612 33.0325 19.7596 33.1611 19.7322C33.3069 19.8786 33.4795 19.9966 33.6698 20.0801C33.8838 20.1821 34.1299 20.1977 34.3555 20.1236C34.3994 20.3067 34.4701 20.4825 34.5656 20.6454C34.6264 20.7523 34.714 20.8421 34.82 20.9064C34.8925 20.951 34.9783 20.9702 35.0633 20.9607C35.1002 21.11 35.1598 21.253 35.2402 21.3847C35.296 21.4753 35.3716 21.5525 35.4615 21.6108C35.5514 21.6691 35.6534 21.707 35.76 21.7217C35.9524 22.6988 36.0853 23.6862 36.1582 24.6788C36.1563 24.7154 36.1601 24.752 36.1692 24.7875C36.1692 24.8528 36.1803 24.918 36.1803 24.9832C36.2879 26.5318 36.236 28.0871 36.0254 29.6254C36.0144 29.7124 36.0033 29.7994 35.9812 29.8972C35.9701 29.9516 35.9701 29.9951 35.9591 30.0494C35.8228 30.8677 35.6232 31.6746 35.3619 32.463C34.7315 34.3438 33.703 36.0289 32.1325 37.2465C31.1201 38.0203 29.9513 38.5726 28.7041 38.8664L28.704 38.8666C28.5935 38.8883 28.5935 38.8883 28.4831 38.91L28.483 38.9099C26.5305 39.3187 24.5105 39.3002 22.5662 38.8555C22.4224 38.8229 22.2897 38.7903 22.157 38.7468C22.0371 38.7171 21.9189 38.6808 21.8031 38.6381C20.8263 38.3363 19.9124 37.865 19.1046 37.2465ZM32.6634 41.0298C33.2606 41.2799 33.6809 41.606 33.8357 42.0083C33.9905 42.4105 33.9131 42.8998 33.4265 43.5412C32.2984 43.3564 31.2478 43.2259 30.4183 43.1281L30.1419 43.0955C29.7658 43.052 29.4341 43.0085 29.1908 42.9759C29.0359 42.9541 28.9143 42.9324 28.8147 42.9106C28.7786 42.9002 28.7416 42.8929 28.7041 42.8889C28.671 42.878 28.671 42.878 28.6599 42.878C28.651 42.8683 28.6435 42.8573 28.6378 42.8454C28.6267 42.8237 28.6157 42.791 28.5935 42.7476C28.5647 42.6298 28.5462 42.5097 28.5383 42.3888C28.5072 42.0163 28.4998 41.6424 28.5161 41.269C28.5272 40.9755 28.5382 40.6602 28.5604 40.3558C29.799 40.3558 31.5022 40.5406 32.6634 41.0298ZM19.4364 43.6608C19.5912 43.639 19.7461 43.6064 19.8898 43.5847C20.3986 43.4977 20.8299 43.4216 21.1506 43.3455C21.2874 43.3103 21.4206 43.263 21.5487 43.2042C21.5982 43.1868 21.6434 43.1594 21.6815 43.1239C21.7196 43.0883 21.7497 43.0453 21.7699 42.9976C21.8444 42.7281 21.8853 42.4506 21.8916 42.1714C21.9137 41.8235 21.9137 41.4212 21.9026 41.0081C21.9026 40.7907 21.8916 40.5624 21.8805 40.334V40.2253C21.8823 40.1888 21.8786 40.1521 21.8694 40.1166C21.8473 39.6491 21.8142 39.2034 21.781 38.8555C23.0259 39.2395 24.325 39.4267 25.6296 39.41C26.5773 39.4164 27.5229 39.3216 28.4498 39.1273C28.4277 39.323 28.4055 39.5295 28.3945 39.747C28.3963 39.7836 28.3926 39.8202 28.3834 39.8557C28.3724 39.9427 28.3724 40.0296 28.3613 40.1166C28.3631 40.1532 28.3594 40.1898 28.3502 40.2253C28.3411 40.2608 28.3374 40.2975 28.3392 40.334C28.3171 40.6385 28.306 40.9537 28.2949 41.2364C28.2788 41.617 28.2862 41.9982 28.3171 42.3779C28.3248 42.5139 28.347 42.6487 28.3834 42.7802C28.3931 42.8302 28.4118 42.878 28.4387 42.9215C28.4595 42.9671 28.4943 43.0051 28.5383 43.0302C28.5692 43.0492 28.6027 43.0638 28.6378 43.0737C28.6813 43.0872 28.7256 43.0981 28.7705 43.1063C28.87 43.1281 29.0027 43.1498 29.1576 43.1716C29.4119 43.2042 29.7437 43.2477 30.1197 43.2911L30.3962 43.3238C31.2036 43.4216 32.1989 43.5412 33.2717 43.7151C32.2123 45.0443 31.011 46.258 29.6884 47.3354C29.1004 47.8233 28.4756 48.2667 27.8194 48.6618C27.3942 48.9302 26.9273 49.1286 26.437 49.2488C26.26 48.7487 25.8729 48.3139 25.3753 47.9116C24.7553 47.4443 24.101 47.0228 23.4178 46.6505C23.2519 46.5526 23.086 46.4657 22.9201 46.3678C21.6151 45.6394 20.1774 44.8241 18.9498 43.726C19.1132 43.7142 19.2757 43.6925 19.4364 43.6608ZM18.7286 43.5629C18.1535 43.0302 17.9655 42.5954 17.9987 42.2366C18.0318 41.8778 18.2752 41.5734 18.6733 41.3125C19.4474 40.8015 20.7082 40.4971 21.6593 40.3775C21.6704 40.595 21.6814 40.8124 21.6814 41.0298C21.6925 41.443 21.6925 41.8343 21.6704 42.1714C21.664 42.4284 21.6269 42.6838 21.5598 42.9324C21.5598 42.9432 21.5377 42.9759 21.4492 43.0194C21.3357 43.0711 21.2171 43.1111 21.0953 43.1389C20.7856 43.215 20.3654 43.2911 19.8566 43.3781C19.7129 43.3999 19.558 43.4216 19.4032 43.4542C19.1931 43.4868 18.9608 43.5194 18.7286 43.5629ZM14.703 43.6499C14.8357 42.7476 15.1564 42.0626 15.6098 41.5517C16.0668 41.0493 16.6504 40.6742 17.3019 40.4645C18.5959 40.0079 20.1774 39.9753 21.6261 39.9644V40.1601C21.4381 40.1818 21.228 40.2145 21.0289 40.2579C20.7641 40.3015 20.502 40.3596 20.2437 40.4319C19.6244 40.595 19.0051 40.8233 18.5406 41.1277C18.1203 41.4103 17.8107 41.7691 17.7775 42.2148C17.7443 42.628 17.9544 43.0955 18.4632 43.5955L18.5627 43.6934L18.5848 43.7151C18.618 43.7369 18.6401 43.7695 18.6733 43.7912C19.9562 44.9654 21.4713 45.8242 22.8206 46.5744C22.9864 46.6722 23.1523 46.7592 23.3182 46.8571C24.0592 47.281 24.7338 47.6833 25.2426 48.0964C25.7513 48.5095 26.1162 48.9444 26.2711 49.4119C26.274 49.4248 26.2794 49.4369 26.2871 49.4477C26.2948 49.4585 26.3045 49.4677 26.3158 49.4748C26.3271 49.4819 26.3397 49.4867 26.3529 49.4889C26.3661 49.4912 26.3797 49.4909 26.3927 49.488C26.824 49.4336 27.366 49.2053 27.9521 48.8574C28.6169 48.4555 29.2525 48.0087 29.8543 47.5202C31.216 46.4043 32.4508 45.1467 33.5371 43.7695C33.5591 43.7469 33.5778 43.7212 33.5924 43.6934L33.6145 43.6716L33.6809 43.5738C34.1343 42.9324 34.2449 42.3888 34.0569 41.9213C33.8578 41.4321 33.3712 41.0842 32.7629 40.8233C32.149 40.5762 31.5064 40.4046 30.8497 40.3123C30.4405 40.2797 30.0313 40.2797 29.6552 40.2797H29.6442C29.2682 40.2471 28.9032 40.2362 28.5825 40.2362C28.5807 40.1996 28.5844 40.163 28.5935 40.1275C28.5954 40.051 28.6028 39.9747 28.6157 39.8992C29.8433 39.7578 31.6349 39.8666 33.1721 40.4862C34.7094 41.1059 35.9701 42.2257 36.2024 44.0956C36.2024 44.1283 36.2135 44.1717 36.2135 44.2044V44.237L36.2245 44.324C36.3904 46.6396 34.7315 48.1508 32.5307 49.1401C30.3299 50.1294 27.6203 50.5752 25.8066 50.7709C25.5743 50.5099 25.132 50.2381 24.402 49.912C23.2843 49.447 22.1395 49.0476 20.9736 48.7161C19.0604 48.1399 17.4346 47.3028 16.3066 46.3787C15.6098 45.8025 15.1122 45.2046 14.8799 44.6284L14.8357 44.5305L14.8025 44.4327C14.7004 44.1848 14.6661 43.9149 14.703 43.6499ZM14.6809 44.4762C14.6698 44.4762 14.6698 44.487 14.6587 44.487C14.6477 44.487 14.6698 44.4762 14.6809 44.4762ZM14.6034 44.6066C14.6145 44.6066 14.6366 44.5957 14.6477 44.5957C14.6366 44.5957 14.6256 44.6066 14.6034 44.6066ZM14.1058 51.8254C14.2717 51.9015 14.4265 51.9667 14.6034 52.032C14.4376 51.9667 14.2717 51.8906 14.1058 51.8254ZM41.8869 48.8901C41.8065 48.9401 41.729 48.9946 41.6547 49.0531C41.4445 49.1945 41.1349 49.3793 40.7367 49.6185C39.6332 50.257 38.4921 50.8306 37.3194 51.3362C34.4108 52.5864 30.363 53.8258 25.7734 53.8258C25.0988 53.8258 24.4573 53.8149 23.838 53.7823C23.7717 53.7823 23.7053 53.7714 23.6389 53.7714L23.0307 53.7388C22.9422 53.728 22.8427 53.728 22.7542 53.7171L22.4003 53.6845C22.2455 53.6736 22.1017 53.6627 21.9469 53.641C21.8695 53.6301 21.792 53.6301 21.7146 53.6192C21.6372 53.6084 21.5819 53.6084 21.5155 53.5975C21.4492 53.5866 21.3828 53.5866 21.3165 53.5757L21.0511 53.5431C20.9294 53.5323 20.7967 53.5105 20.675 53.4996C20.3986 53.467 20.1331 53.4235 19.8788 53.3801L19.6908 53.3474C19.6023 53.3366 19.5138 53.3148 19.4253 53.304C19.1488 53.2496 18.8834 53.2061 18.618 53.1409L18.4521 53.1083C18.3194 53.0756 18.1977 53.0539 18.065 53.0213C18.0097 53.0104 17.9434 52.9887 17.8881 52.9778C17.7775 52.9561 17.6779 52.9234 17.5674 52.9017C17.4568 52.88 17.3683 52.8473 17.2688 52.8256C17.2002 52.8024 17.1299 52.7843 17.0586 52.7712C16.9724 52.7509 16.8874 52.7255 16.8043 52.6951C16.7216 52.6747 16.6404 52.6493 16.561 52.619C16.4393 52.5864 16.3176 52.5429 16.2071 52.5103C16.1518 52.4886 16.0854 52.4777 16.0301 52.456C15.9748 52.4342 15.9084 52.4234 15.8532 52.4016C15.8421 52.4016 15.831 52.3907 15.82 52.3907C15.6651 52.3364 15.5214 52.2929 15.3776 52.2385C15.1785 52.1624 14.9905 52.0972 14.8025 52.0211C14.7362 51.9994 14.6809 51.9667 14.6145 51.945C14.3933 51.858 14.1832 51.7602 13.9731 51.6732C13.8956 51.6406 13.8293 51.608 13.7519 51.5754C13.7408 51.5754 13.7298 51.5645 13.7187 51.5645C13.6413 51.5319 13.5749 51.4993 13.4975 51.4666L13.2984 51.3688L13.033 51.2383C12.9445 51.1949 12.8561 51.1514 12.7786 51.1079C12.7012 51.0644 12.6349 51.0318 12.5575 50.9992C12.4579 50.9448 12.3695 50.9013 12.2699 50.847C12.2049 50.8148 12.1421 50.7785 12.0819 50.7382C11.8828 50.6295 11.6838 50.5208 11.4958 50.4012L11.3299 50.3034C10.8654 50.0316 10.423 49.7598 10.0027 49.4989C9.87003 49.4119 9.73732 49.3358 9.60461 49.2488C9.65991 49.0857 9.70414 48.9444 9.74838 48.8248V48.814C9.7581 48.769 9.77294 48.7252 9.79262 48.6835C9.79262 48.6726 9.80368 48.6509 9.80368 48.64C9.81474 48.6074 9.8258 48.5639 9.83686 48.5313C9.84791 48.4987 9.85897 48.4552 9.87003 48.4226C9.8837 48.3773 9.90224 48.3335 9.92533 48.2921C9.94166 48.2513 9.96012 48.2114 9.98063 48.1725C9.99696 48.1318 10.0154 48.0918 10.0359 48.0529C10.0691 47.9768 10.1133 47.9007 10.1576 47.8138C10.1686 47.7811 10.1908 47.7594 10.2018 47.7268C10.2126 47.7027 10.2276 47.6806 10.2461 47.6616C10.2546 47.6421 10.2658 47.6238 10.2792 47.6072C10.2875 47.5848 10.3031 47.5657 10.3235 47.5528C10.354 47.504 10.3873 47.4568 10.423 47.4115C10.4562 47.368 10.4894 47.3137 10.5225 47.2702L10.6552 47.1071C10.6995 47.0636 10.7327 47.0093 10.7769 46.9658C10.8875 46.8462 10.9981 46.7375 11.1197 46.6287C11.1575 46.5896 11.1982 46.5532 11.2414 46.52C11.2865 46.477 11.3346 46.4371 11.3852 46.4004L11.5842 46.2374C11.6395 46.1939 11.6948 46.1613 11.7501 46.1178C11.7833 46.096 11.8054 46.0743 11.8386 46.0525C11.905 46.0091 11.9824 45.9547 12.0487 45.9112C12.0841 45.8871 12.121 45.8653 12.1593 45.846C12.2367 45.8025 12.3031 45.759 12.3805 45.7155C12.4247 45.6938 12.469 45.6612 12.5132 45.6394C12.5575 45.6177 12.5796 45.6068 12.6128 45.5851H12.6238C12.6521 45.5684 12.6817 45.5539 12.7123 45.5416L12.7234 45.5307L12.7234 45.5329C12.8455 45.4784 12.8455 45.4784 12.9676 45.4238L12.9667 45.422C13.0039 45.3974 13.045 45.3791 13.0883 45.3676L13.221 45.3024L13.3537 45.2372L13.7519 45.0741C13.7961 45.0524 13.8403 45.0415 13.8846 45.0197H13.8956L14.0615 44.9545C14.249 44.8779 14.4411 44.8126 14.6366 44.7588C14.6587 44.7588 14.6698 44.7479 14.6919 44.7479C14.6698 44.7588 14.6587 44.7588 14.6366 44.7697C14.891 45.3894 15.4218 46.0308 16.1407 46.6179C17.2909 47.5637 18.9498 48.4226 20.8852 48.9988C22.4224 49.4554 23.5284 49.8468 24.2915 50.1838C25.0545 50.5208 25.4748 50.8035 25.6518 51.0209C25.6631 51.036 25.6783 51.0479 25.6957 51.0555C25.7131 51.0631 25.7323 51.0662 25.7513 51.0644C27.5761 50.8687 30.3409 50.423 32.597 49.4119C34.8089 48.4226 36.5674 46.8679 36.4346 44.4544L36.5674 44.487C36.8217 44.5523 37.0761 44.6284 37.3194 44.7153C37.4632 44.7588 37.6069 44.8023 37.7396 44.8567C37.806 44.8784 37.8724 44.9002 37.9277 44.9219C37.9929 44.9406 38.0559 44.9661 38.1157 44.998L38.2816 45.0632C38.3147 45.0741 38.3369 45.085 38.37 45.0958C38.4032 45.1067 38.4474 45.1285 38.4917 45.1502C38.5359 45.1719 38.5691 45.1828 38.6133 45.2046C38.6928 45.2363 38.7704 45.2726 38.8456 45.3133C38.8788 45.3241 38.9009 45.3459 38.9341 45.3568C38.9672 45.3676 38.9894 45.3894 39.0225 45.4002C39.0336 45.4002 39.0447 45.4111 39.0557 45.4111C39.1221 45.4437 39.1774 45.4763 39.2437 45.509C39.3101 45.5416 39.3543 45.5633 39.3986 45.5959C39.4096 45.5959 39.4096 45.5959 39.4096 45.6068C39.4428 45.6286 39.476 45.6394 39.5091 45.6612C39.541 45.6753 39.5708 45.6936 39.5976 45.7155C39.6406 45.737 39.6813 45.7625 39.7193 45.7916C39.7303 45.7916 39.7303 45.8025 39.7414 45.8025C39.7808 45.8242 39.8178 45.8496 39.852 45.8786L39.9515 45.9438C39.9784 45.9658 40.0082 45.9841 40.04 45.9982C40.079 46.0245 40.1159 46.0536 40.1506 46.0852C40.1864 46.1071 40.2197 46.1326 40.2501 46.1613C40.2845 46.1806 40.3145 46.2065 40.3386 46.2374C40.3718 46.2591 40.3939 46.2917 40.4271 46.3135C40.5045 46.3896 40.5045 46.3896 40.5819 46.4657C40.6104 46.4882 40.6364 46.5138 40.6593 46.5418L40.6594 46.5419C40.7147 46.6071 40.7147 46.6071 40.77 46.6723C40.781 46.694 40.8031 46.7048 40.8142 46.7266C40.8252 46.7483 40.8584 46.7809 40.8805 46.8136L40.8916 46.8244C41.3229 47.3137 41.6547 48.0856 41.898 48.9444C41.898 48.8792 41.898 48.8792 41.8869 48.8901Z" fill="black"/>
</g>
<g clip-path="url(#clip4_530_2234)">
<path d="M12.9002 29.1975C12.9037 29.2133 12.9039 29.2296 12.9009 29.2456C12.898 29.2615 12.8918 29.2767 12.8828 29.2901C12.8738 29.3036 12.8622 29.3151 12.8486 29.324C12.8351 29.3329 12.8199 29.339 12.8039 29.3418H12.7799C12.7517 29.3424 12.7243 29.3331 12.7023 29.3155C12.6803 29.2979 12.6652 29.2732 12.6596 29.2456C11.601 24.506 12.2025 19.9708 12.6596 18.2266C12.6701 18.1979 12.6903 18.1739 12.7166 18.1585C12.7429 18.1431 12.7738 18.1374 12.8039 18.1424C12.8339 18.1508 12.8595 18.1706 12.8752 18.1975C12.8909 18.2245 12.8955 18.2564 12.8881 18.2867C12.443 20.0069 11.8536 24.506 12.9002 29.1975Z" fill="#BD8540"/>
<path d="M33.4105 27.7422C33.4124 27.7708 33.4083 27.7995 33.3985 27.8264C33.3976 27.8619 33.4105 27.8964 33.4346 27.9226C33.4325 27.8618 33.4244 27.8014 33.4105 27.7422Z" fill="#363A4D"/>
<path d="M11.1319 39.1331C11.1319 39.1932 11.1199 39.2654 11.1199 39.3256C11.1333 39.3036 11.1415 39.279 11.144 39.2534C11.1454 39.2129 11.1413 39.1725 11.1319 39.1331ZM11.1319 39.1331C11.1319 39.1932 11.1199 39.2654 11.1199 39.3256C11.1333 39.3036 11.1415 39.279 11.144 39.2534C11.1454 39.2129 11.1413 39.1725 11.1319 39.1331ZM25.9884 -7C8.8704 -7 -5.01164 6.88203 -5.01164 24C-5.02989 31.8318 -2.05654 39.3749 3.30074 45.0877C3.27794 45.0136 3.26579 44.9366 3.26466 44.8591C3.26423 44.8433 3.26724 44.8276 3.27347 44.8131C3.2797 44.7985 3.289 44.7855 3.30074 44.7749C3.5293 44.5464 8.7501 39.3857 10.8914 39.1692V39.1572C10.2899 32.4567 9.47187 19.3205 10.6508 16.6259C11.3966 14.9177 12.4913 12.7404 14.416 10.9961C16.6535 8.96314 19.5766 7.9286 23.1013 7.9286C27.071 7.9286 30.319 9.21575 32.773 11.766C35.1669 14.2561 36.7427 17.889 37.4765 22.5805L37.5487 22.6888C37.5607 22.6888 37.5607 22.7008 37.5728 22.7128C39.281 25.4796 39.6178 28.2584 39.5697 29.4854C41.6508 31.4342 45.6205 36.1738 46.1017 40.5526C46.3062 40.8052 46.5468 41.0939 46.8114 41.3946C47.7617 42.5014 48.8324 43.7645 48.9767 44.7148C54.1454 39.0509 57.0039 31.6557 56.9884 23.988C56.9763 6.88203 43.1063 -7 25.9884 -7ZM11.1319 39.1331C11.1319 39.1932 11.1199 39.2654 11.1199 39.3256C11.1333 39.3036 11.1415 39.279 11.144 39.2534C11.1454 39.2129 11.1413 39.1725 11.1319 39.1331ZM11.1319 39.1331C11.1319 39.1932 11.1199 39.2654 11.1199 39.3256C11.1333 39.3036 11.1415 39.279 11.144 39.2534C11.1454 39.2129 11.1413 39.1725 11.1319 39.1331ZM11.1319 39.1331C11.1319 39.1932 11.1199 39.2654 11.1199 39.3256C11.1333 39.3036 11.1415 39.279 11.144 39.2534C11.1454 39.2129 11.1413 39.1725 11.1319 39.1331Z" fill="#363A4D"/>
<path d="M48.965 44.7276C48.8206 43.7773 47.75 42.5142 46.7997 41.4075C46.5471 41.1067 46.2944 40.818 46.0899 40.5654C45.6088 36.1987 41.639 31.447 39.5579 29.4983C39.6181 28.2712 39.2692 25.4804 37.561 22.7257C37.549 22.7136 37.549 22.7016 37.537 22.7016L37.4648 22.5933C36.731 17.9018 35.1551 14.2569 32.7613 11.7788C30.3193 9.24059 27.0593 7.94141 23.0896 7.94141C19.5649 7.94141 16.6418 8.97594 14.4043 11.0089C12.4795 12.7532 11.3849 14.9305 10.639 16.6387C9.46015 19.3333 10.2782 32.4816 10.8796 39.17V39.182C8.73838 39.3985 3.51758 44.5592 3.28902 44.7877C3.26716 44.8105 3.25434 44.8404 3.25293 44.8719C3.25315 44.9495 3.26532 45.0266 3.28902 45.1005C3.62584 46.2674 6.12798 48.0357 8.10081 49.2747C11.3877 51.5826 15.0942 53.2253 19.0116 54.1106C20.8882 54.6279 22.861 55.0008 24.6775 55.0008H24.9301C25.9045 54.9767 26.8548 54.9166 27.7811 54.8324C34.7101 54.4348 41.3054 51.7239 46.511 47.1335L46.523 47.1215C47.3724 46.4499 48.1762 45.7225 48.9289 44.9441C48.953 44.9179 48.9659 44.8834 48.965 44.8479C48.9771 44.8087 48.9771 44.7668 48.965 44.7276ZM39.3053 29.5343V29.6426C39.1128 33.1191 37.4768 37.4618 36.1295 40.3729C38.1866 34.0454 38.1024 27.0081 37.6693 23.4234C38.4031 24.8428 39.3414 27.2487 39.3053 29.5343ZM24.9541 54.8684C23.7957 54.8806 22.639 54.7758 21.5017 54.5557C22.7301 54.7271 23.967 54.8315 25.2068 54.8684H24.9541ZM42.4931 49.6477C38.764 51.8972 32.7011 54.6038 24.9541 54.7481C18.8071 54.8684 10.7353 50.5258 10.6511 50.4897C9.31579 49.7559 6.52495 48.0718 4.85285 46.6282C4.59007 46.4027 4.34102 46.1617 4.10702 45.9065C3.75817 45.5215 3.54164 45.1847 3.50555 44.896C3.99876 44.4148 8.91882 39.6271 10.8796 39.3985C10.8556 41.4315 11.854 45.5215 15.944 49.0702C15.9554 49.0803 15.9688 49.0877 15.9834 49.0919C15.998 49.096 16.0133 49.0969 16.0282 49.0943C16.0638 49.0952 16.0983 49.0823 16.1245 49.0582C16.145 49.0342 16.1552 49.003 16.153 48.9715C16.1507 48.94 16.1362 48.9107 16.1125 48.8898C12.0345 45.3652 11.0841 41.2992 11.1322 39.3384C11.1299 39.274 11.1339 39.2095 11.1443 39.1459C11.1443 39.0858 11.1563 39.0376 11.1563 38.9895C11.1572 38.954 11.1443 38.9195 11.1202 38.8933C10.5187 32.1447 9.73683 19.3454 10.8796 16.7229C12.6239 12.7412 15.5832 8.182 23.1136 8.182C30.8967 8.182 35.7927 13.1863 37.2483 22.6535C37.2483 22.6655 37.2603 22.6896 37.2603 22.7016C37.295 22.752 37.3272 22.8042 37.3565 22.858C37.8979 26.527 38.1264 35.2844 35.1191 42.43C35.1068 42.4587 35.1062 42.4911 35.1174 42.5203C35.1287 42.5495 35.1508 42.5732 35.1792 42.5863C35.1933 42.5959 35.2104 42.6002 35.2273 42.5984C35.249 42.5985 35.2704 42.593 35.2893 42.5825C35.3083 42.5719 35.3242 42.5567 35.3356 42.5382C36.6709 40.0722 39.2452 34.286 39.5459 29.8231C41.639 31.832 45.4163 36.4272 45.8614 40.6255C45.8618 40.6478 45.8704 40.6692 45.8854 40.6857C46.102 40.9503 46.3546 41.2511 46.6192 41.5638C47.5215 42.6224 48.6402 43.9216 48.7485 44.8118C48.4357 45.1246 46.2463 47.3861 42.4931 49.6477ZM48.5921 45.1246C48.6883 45.0283 48.7725 44.9321 48.8567 44.8359V44.8479C48.8567 44.8479 48.7725 44.9441 48.5921 45.1246Z" fill="#BD8540"/>
<path d="M33.4105 27.7422C33.4124 27.7708 33.4083 27.7995 33.3985 27.8264C33.3976 27.8619 33.4105 27.8964 33.4346 27.9226C33.4325 27.8618 33.4244 27.8014 33.4105 27.7422Z" fill="#FAC46E"/>
<path d="M48.8566 44.8348C48.7724 44.931 48.6762 45.0273 48.592 45.1235C48.6891 45.0358 48.7777 44.9392 48.8566 44.8348ZM11.1321 39.1328C11.1321 39.193 11.1201 39.2651 11.1201 39.3253C11.1335 39.3033 11.1417 39.2787 11.1442 39.2531C11.1456 39.2127 11.1415 39.1722 11.1321 39.1328Z" fill="#FAC46E"/>
<path d="M48.8566 44.8348C48.7724 44.931 48.6762 45.0273 48.592 45.1235C48.6891 45.0358 48.7777 44.9392 48.8566 44.8348ZM11.1321 39.1328C11.1321 39.193 11.1201 39.2651 11.1201 39.3253C11.1335 39.3033 11.1417 39.2787 11.1442 39.2531C11.1456 39.2127 11.1415 39.1722 11.1321 39.1328ZM11.1321 39.1328C11.1321 39.193 11.1201 39.2651 11.1201 39.3253C11.1335 39.3033 11.1417 39.2787 11.1442 39.2531C11.1456 39.2127 11.1415 39.1722 11.1321 39.1328Z" fill="#BD8540"/>
<path d="M46.6186 41.5518C46.3539 41.239 46.0893 40.9383 45.8848 40.6736C45.8727 40.6495 45.8607 40.6375 45.8607 40.6135C45.4156 36.4031 41.6504 31.8199 39.5452 29.811C39.2445 34.2739 36.6702 40.0601 35.3349 42.5261C35.3235 42.5446 35.3076 42.5599 35.2887 42.5704C35.2697 42.5809 35.2483 42.5864 35.2267 42.5863C35.2097 42.5881 35.1926 42.5838 35.1785 42.5743C35.1501 42.5611 35.128 42.5375 35.1168 42.5083C35.1055 42.4791 35.1061 42.4467 35.1184 42.4179C38.1258 35.2724 37.8972 26.5269 37.3559 22.8459C37.3265 22.7922 37.2944 22.74 37.2596 22.6895C37.2476 22.6775 37.2476 22.6655 37.2476 22.6414C35.792 13.1742 30.896 8.16992 23.113 8.16992C15.5825 8.16992 12.6232 12.7411 10.879 16.7109C9.73616 19.3333 10.5181 32.1327 11.1196 38.8812C11.1436 38.9074 11.1565 38.9419 11.1556 38.9774C11.1556 39.0256 11.1436 39.0857 11.1436 39.1338C11.1436 39.1819 11.1556 39.218 11.1556 39.2541C11.1556 39.2902 11.1556 39.3143 11.1316 39.3263C11.0835 41.2871 12.0338 45.341 16.1118 48.8777C16.1355 48.8986 16.1501 48.9279 16.1523 48.9595C16.1546 48.991 16.1443 49.0221 16.1238 49.0461C16.0976 49.0702 16.0631 49.0831 16.0276 49.0822C15.9982 49.0799 15.9696 49.0717 15.9434 49.0582C11.8533 45.5095 10.8549 41.4315 10.879 39.3864C8.91815 39.615 3.98606 44.4027 3.50488 44.8839C3.54097 45.1606 3.7575 45.5095 4.10636 45.8944C4.34035 46.1497 4.5894 46.3907 4.85219 46.6162C6.52428 48.0597 9.3031 49.7438 10.6504 50.4776C10.7346 50.5258 18.7944 54.8564 24.9535 54.7361C32.7125 54.5797 38.7753 51.8731 42.4925 49.6356C46.2457 47.374 48.435 45.1125 48.7358 44.7997C48.6395 43.9216 47.5208 42.6104 46.6186 41.5518ZM12.8037 29.3418H12.7796C12.7515 29.3424 12.724 29.3331 12.702 29.3155C12.6801 29.2979 12.6649 29.2732 12.6593 29.2456C11.6007 24.506 12.2022 19.9709 12.6593 18.2266C12.6698 18.1979 12.69 18.1739 12.7163 18.1585C12.7427 18.1431 12.7736 18.1374 12.8037 18.1424C12.8337 18.1508 12.8592 18.1706 12.8749 18.1975C12.8906 18.2245 12.8953 18.2564 12.8879 18.2867C12.4308 20.0069 11.8413 24.4939 12.8879 29.1854C12.8934 29.2012 12.8956 29.218 12.8943 29.2346C12.8929 29.2513 12.8882 29.2675 12.8803 29.2822C12.8723 29.2969 12.8614 29.3098 12.8482 29.3201C12.8351 29.3303 12.8199 29.3377 12.8037 29.3418ZM28.9473 37.6542C25.4587 39.4225 23.931 41.4074 23.6904 42.5743C23.6904 42.6062 23.6777 42.6368 23.6551 42.6593C23.6326 42.6819 23.602 42.6946 23.5701 42.6946C23.5382 42.6946 23.5076 42.6819 23.485 42.6593C23.4625 42.6368 23.4498 42.6062 23.4498 42.5743C23.0408 40.7939 20.7071 39.6992 18.8425 38.8331C18.241 38.5564 17.6756 38.2918 17.2305 38.0271C17.2169 38.0186 17.2052 38.0074 17.196 37.9942C17.1868 37.9811 17.1804 37.9662 17.177 37.9505C17.1736 37.9348 17.1734 37.9186 17.1764 37.9028C17.1794 37.8871 17.1856 37.8721 17.1944 37.8587C17.212 37.8317 17.2387 37.812 17.2697 37.8032C17.3006 37.7943 17.3337 37.797 17.3629 37.8106C17.7959 38.0632 18.3613 38.3279 18.9507 38.6045C19.1432 38.7008 19.3477 38.785 19.5522 38.8932C18.4335 38.2076 17.423 37.57 17.0501 36.9084C17.0982 36.9324 17.1463 36.9445 17.1944 36.9685C17.014 36.8001 16.8456 36.6317 16.6772 36.4513C13.5615 33.071 12.4548 27.7299 12.7435 24.1932C13.5134 14.7019 19.3718 12.1397 22.3551 12.1156C27.9368 12.1156 32.496 21.7392 33.4463 27.2367C33.7109 22.9301 32.1712 18.0341 31.281 15.9771C31.2741 15.9496 31.2772 15.9206 31.2896 15.8952C31.302 15.8698 31.323 15.8495 31.3488 15.8381C31.3747 15.8266 31.4038 15.8246 31.431 15.8324C31.4582 15.8402 31.4817 15.8574 31.4975 15.8808C32.4358 18.0582 34.0959 23.3752 33.6388 27.8502C33.6377 27.8734 33.6289 27.8956 33.6136 27.9131C33.5982 27.9306 33.5774 27.9423 33.5546 27.9464C33.6007 28.3176 33.6248 28.6911 33.6267 29.0651C33.6267 31.038 32.4478 33.6243 30.6194 35.6573C29.8381 36.5276 28.9392 37.2848 27.9488 37.9068C27.9729 37.9068 27.9849 37.8948 28.009 37.8948C28.2736 37.7504 28.5503 37.5941 28.839 37.4497C28.852 37.4411 28.8668 37.4354 28.8823 37.4332C28.8978 37.431 28.9136 37.4322 28.9286 37.4368C28.9435 37.4414 28.9573 37.4493 28.9688 37.4598C28.9804 37.4704 28.9894 37.4833 28.9954 37.4978C29.0032 37.5111 29.0082 37.5258 29.01 37.5411C29.0118 37.5564 29.0104 37.5719 29.0059 37.5866C29.0013 37.6014 28.9938 37.615 28.9837 37.6266C28.9736 37.6382 28.9612 37.6476 28.9473 37.6542ZM34.4327 44.6794C33.735 45.9546 31.7381 48.9499 29.248 51.1513C29.2374 51.163 29.2244 51.1723 29.2098 51.1786C29.1953 51.1848 29.1796 51.1878 29.1638 51.1874C29.1286 51.1863 29.0948 51.1736 29.0675 51.1513C29.047 51.1273 29.0368 51.0961 29.0391 51.0646C29.0413 51.0331 29.0559 51.0037 29.0796 50.9829C31.5456 48.8055 33.5185 45.8463 34.2162 44.5832C34.2237 44.5686 34.2341 44.5557 34.2468 44.5453C34.2595 44.535 34.2742 44.5273 34.29 44.5228C34.3058 44.5183 34.3223 44.517 34.3386 44.5191C34.3548 44.5213 34.3705 44.5267 34.3846 44.5351C34.4447 44.5471 34.4568 44.6193 34.4327 44.6794Z" fill="#FAC46E"/>
<path d="M33.4105 27.7422C33.4124 27.7708 33.4083 27.7995 33.3985 27.8264C33.3976 27.8619 33.4105 27.8964 33.4346 27.9226C33.4325 27.8618 33.4244 27.8014 33.4105 27.7422Z" fill="#BD8540"/>
<path d="M33.6397 27.849C33.6387 27.8722 33.6298 27.8944 33.6145 27.9119C33.5992 27.9294 33.5783 27.9411 33.5555 27.9452C33.5314 27.7166 33.4953 27.4761 33.4472 27.2234C33.7118 22.9169 32.1721 18.0209 31.2819 15.9638C31.275 15.9364 31.2781 15.9074 31.2905 15.882C31.3029 15.8565 31.3239 15.8363 31.3498 15.8248C31.3756 15.8133 31.4047 15.8113 31.4319 15.8191C31.4591 15.827 31.4826 15.8441 31.4984 15.8676C32.4487 18.057 34.1088 23.362 33.6397 27.849Z" fill="#BD8540"/>
<path d="M39.3174 29.5689V29.6411C39.1249 33.1176 37.4889 37.4603 36.1416 40.3714C38.1986 34.0439 38.1144 27.0067 37.6814 23.4219C38.4152 24.8414 39.3535 27.2473 39.3174 29.5329C39.3054 29.5449 39.3174 29.5569 39.3174 29.5689Z" fill="#F9B95E"/>
<path d="M28.0096 37.8826C25.3511 39.3863 24.0038 40.9742 23.5708 42.129C22.9934 40.6494 21.201 39.675 19.5529 38.8931C18.4342 38.2074 17.4237 37.5698 17.0508 36.9082C17.0989 36.9323 17.147 36.9443 17.1951 36.9684C18.8672 38.5562 20.828 39.3622 23.0415 39.3622C24.7376 39.3622 26.4097 38.857 27.9615 37.9066C27.9748 37.894 27.9916 37.8856 28.0096 37.8826Z" fill="#F2AD56"/>
<path d="M28.9477 37.654C25.4592 39.4224 23.9314 41.4072 23.6909 42.5741C23.6909 42.606 23.6782 42.6366 23.6556 42.6592C23.6331 42.6817 23.6025 42.6944 23.5706 42.6944C23.5387 42.6944 23.5081 42.6817 23.4855 42.6592C23.4629 42.6366 23.4503 42.606 23.4503 42.5741C23.0413 40.7937 20.7075 39.6991 18.843 38.8329C18.2415 38.5563 17.6761 38.2916 17.231 38.027C17.2174 38.0184 17.2057 38.0072 17.1965 37.9941C17.1873 37.9809 17.1808 37.9661 17.1775 37.9504C17.1741 37.9347 17.1739 37.9185 17.1769 37.9027C17.1799 37.8869 17.186 37.8719 17.1949 37.8585C17.2125 37.8316 17.2392 37.8119 17.2701 37.803C17.3011 37.7942 17.3342 37.7968 17.3633 37.8104C17.7964 38.063 18.3618 38.3277 18.9512 38.6044C19.1437 38.7006 19.3482 38.7848 19.5527 38.8931C21.2007 39.675 23.0052 40.6494 23.5706 42.129C24.0036 40.9742 25.3509 39.3863 28.0094 37.8826C28.2741 37.7382 28.5508 37.5819 28.8395 37.4375C28.8525 37.4289 28.8673 37.4232 28.8828 37.421C28.8983 37.4188 28.9141 37.42 28.929 37.4246C28.944 37.4292 28.9577 37.4371 28.9693 37.4476C28.9809 37.4582 28.9899 37.4711 28.9959 37.4856C29.0043 37.4997 29.0097 37.5154 29.0118 37.5317C29.0139 37.5479 29.0127 37.5645 29.0082 37.5802C29.0037 37.596 28.996 37.6107 28.9856 37.6234C28.9752 37.6361 28.9623 37.6465 28.9477 37.654Z" fill="#BD8540"/>
<path d="M34.433 44.6789C33.7353 45.954 31.7384 48.9493 29.2483 51.1507C29.2377 51.1625 29.2247 51.1718 29.2102 51.178C29.1956 51.1842 29.1799 51.1873 29.1641 51.1868C29.1289 51.1857 29.0951 51.173 29.0679 51.1507C29.0474 51.1267 29.0371 51.0956 29.0394 51.0641C29.0416 51.0326 29.0562 51.0032 29.0799 50.9823C31.5459 48.805 33.5188 45.8457 34.2165 44.5826C34.224 44.5681 34.2345 44.5552 34.2471 44.5448C34.2598 44.5344 34.2745 44.5267 34.2903 44.5222C34.3061 44.5177 34.3226 44.5165 34.3389 44.5186C34.3551 44.5207 34.3708 44.5261 34.3849 44.5345C34.445 44.5465 34.4571 44.6187 34.433 44.6789Z" fill="#BD8540"/>
<path d="M33.4105 27.7422C33.4124 27.7708 33.4083 27.7995 33.3985 27.8264C33.3976 27.8619 33.4105 27.8964 33.4346 27.9226C33.4325 27.8618 33.4244 27.8014 33.4105 27.7422Z" fill="#FFC1A8"/>
<path d="M33.4105 27.7422C33.4124 27.7708 33.4083 27.7995 33.3985 27.8264C33.3976 27.8619 33.4105 27.8964 33.4346 27.9226C33.4325 27.8618 33.4244 27.8014 33.4105 27.7422Z" fill="#AA5D2B"/>
<path d="M30.6436 19.8266C29.6211 19.2492 27.6482 17.9259 26.8423 16.7109C26.4453 17.5289 25.0499 19.3093 22.644 19.8988C22.892 19.542 23.0451 19.128 23.0891 18.6958C22.5959 19.177 21.3087 20.1754 20.19 20.2957C19.0712 20.416 18.4938 20.5724 18.3374 20.6446C18.4697 20.3799 18.9509 19.7544 19.7809 19.3935C19.0832 19.3093 17.363 19.5258 16.0879 21.0416L15.1857 22.1362C15.1496 21.5829 15.2819 20.2717 16.0879 19.3935C15.437 19.6619 14.8462 20.0577 14.3505 20.5576C13.8547 21.0575 13.4638 21.6515 13.2008 22.3047C13.1046 22.9061 13.0204 23.5317 12.9602 24.1933C12.9362 24.5421 12.9121 24.9151 12.9121 25.3C12.9121 28.7164 14.0669 33.2755 16.8337 36.2589C17.1454 36.5971 17.479 36.9145 17.8322 37.2092C19.279 38.4384 21.1184 39.1084 23.0169 39.0978C24.384 39.0899 25.7306 38.7646 26.9505 38.1475C30.8601 36.2107 33.3622 31.7478 33.3622 29.0412C33.3983 26.7195 32.2796 23.0505 30.6436 19.8266ZM17.363 23.7241C16.9634 23.8886 16.5904 24.1116 16.2563 24.3858C16.2282 24.4073 16.1932 24.418 16.1578 24.4158C16.1224 24.4136 16.0891 24.3986 16.0638 24.3737C16.0518 24.3604 16.0425 24.3448 16.0366 24.3278C16.0307 24.3109 16.0282 24.2929 16.0293 24.275C16.0304 24.257 16.0351 24.2395 16.0431 24.2234C16.0511 24.2073 16.0622 24.193 16.0759 24.1813C16.4318 23.8911 16.8291 23.6559 17.2548 23.4835C17.7889 23.2399 18.3823 23.1564 18.9629 23.243C18.9979 23.2497 19.0287 23.2698 19.049 23.2991C19.0692 23.3283 19.0772 23.3643 19.0712 23.3993C19.0631 23.436 19.0409 23.4679 19.0093 23.4882C18.9778 23.5085 18.9395 23.5155 18.9028 23.5076C18.3976 23.4114 17.8442 23.5317 17.363 23.7241ZM19.0231 27.7059C18.6381 27.7901 18.1931 27.3089 18.0367 26.6232C17.8803 25.9376 18.0728 25.312 18.4697 25.2278C18.8667 25.1436 19.2998 25.6248 19.4562 26.3105C19.6125 26.9962 19.4201 27.6217 19.0231 27.7059ZM21.9823 29.2457C22.4395 28.4878 22.5357 27.2007 22.5357 26.6232C22.5357 26.5913 22.5484 26.5607 22.5709 26.5382C22.5935 26.5156 22.6241 26.5029 22.656 26.5029C22.6721 26.5019 22.6882 26.5043 22.7033 26.5099C22.7183 26.5156 22.732 26.5244 22.7434 26.5358C22.7548 26.5472 22.7636 26.5609 22.7693 26.576C22.775 26.5911 22.7774 26.6072 22.7763 26.6232C22.7883 27.2247 22.6801 28.572 22.1868 29.378C22.128 29.4607 22.0897 29.5561 22.0751 29.6565C22.0605 29.7569 22.0699 29.8594 22.1026 29.9554C22.2229 30.2682 22.644 30.5088 22.9928 30.617C23.0215 30.6275 23.0455 30.6477 23.0609 30.6741C23.0763 30.7004 23.082 30.7313 23.077 30.7614C23.0691 30.7867 23.053 30.8087 23.0312 30.824C23.0095 30.8392 22.9833 30.8468 22.9567 30.8456H22.9206C22.7763 30.8095 22.0786 30.5689 21.8741 30.0396C21.8274 29.9083 21.8128 29.7676 21.8316 29.6295C21.8505 29.4913 21.9022 29.3597 21.9823 29.2457ZM24.6168 34.1657C24.1735 34.607 23.5998 34.8938 22.9808 34.9837C22.3312 35.0679 21.7658 34.7431 21.3207 34.3221C20.9262 33.9405 20.6077 33.4874 20.3824 32.9868C20.3704 32.9643 20.3674 32.9381 20.3742 32.9135C20.3809 32.8889 20.3967 32.8678 20.4185 32.8545C20.4361 32.837 20.4599 32.8272 20.4847 32.8272C20.5095 32.8272 20.5333 32.837 20.5508 32.8545C21.1162 33.2755 22.0545 33.4079 22.9808 33.3357C23.9071 33.2635 24.7852 32.9989 25.2183 32.6861C25.2362 32.6754 25.2563 32.6687 25.2771 32.6666C25.2979 32.6646 25.3189 32.6671 25.3386 32.6741C25.3571 32.6854 25.3723 32.7014 25.3828 32.7203C25.3934 32.7393 25.3988 32.7606 25.3987 32.7823C25.3386 33.2395 25.0378 33.7567 24.6168 34.1657ZM26.5054 27.0322C26.1085 27.0563 25.7476 26.5029 25.7235 25.7932C25.6995 25.0835 25.9882 24.506 26.3851 24.494C26.7821 24.482 27.143 25.0233 27.1671 25.7331C27.2031 26.4187 26.9024 27.0082 26.5054 27.0322ZM28.755 23.2189C28.7432 23.2325 28.7289 23.2436 28.7128 23.2516C28.6967 23.2596 28.6792 23.2643 28.6612 23.2655C28.6433 23.2666 28.6253 23.2641 28.6084 23.2582C28.5914 23.2522 28.5758 23.243 28.5625 23.2309C28.1655 22.8941 27.6362 22.7257 27.1069 22.6535C26.6795 22.5951 26.246 22.5992 25.8198 22.6655C25.7843 22.6692 25.7487 22.6593 25.7203 22.6378C25.6918 22.6163 25.6726 22.5848 25.6665 22.5497C25.6604 22.5145 25.6679 22.4784 25.6874 22.4485C25.7069 22.4187 25.737 22.3974 25.7716 22.3889C26.2256 22.3167 26.6878 22.3126 27.143 22.3768C27.6843 22.449 28.2858 22.6294 28.7429 23.0144C28.7579 23.0265 28.7703 23.0416 28.7791 23.0588C28.7879 23.0759 28.7931 23.0947 28.7942 23.114C28.7953 23.1332 28.7924 23.1525 28.7857 23.1706C28.7789 23.1887 28.7684 23.2051 28.755 23.2189Z" fill="#FFC1A8"/>
<path d="M30.6439 19.8261C29.6214 19.2487 27.6486 17.9254 26.8426 16.7105C26.4456 17.5285 25.0502 19.3088 22.6443 19.8983C22.8923 19.5415 23.0455 19.1276 23.0894 18.6953C22.5962 19.1765 21.309 20.1749 20.1903 20.2952C19.0716 20.4155 18.4941 20.5719 18.3378 20.6441C18.4701 20.3794 18.9513 19.7539 19.7813 19.393C19.0836 19.3088 17.3634 19.5254 16.0882 21.0411L15.186 22.1358C15.1499 21.5824 15.2823 20.2712 16.0882 19.393C15.4373 19.6614 14.8466 20.0572 14.3508 20.5571C13.855 21.0571 13.4641 21.651 13.2012 22.3042C14.5244 14.5331 19.649 12.3678 22.3436 12.3438C25.9163 12.3438 28.7433 16.4338 30.1146 18.8758C30.3071 19.2006 30.4755 19.5133 30.6439 19.8261Z" fill="#2D140F"/>
<path d="M33.5554 27.9464C33.5313 27.7178 33.4952 27.4772 33.4471 27.2246C32.5088 21.7271 27.9376 12.1035 22.3559 12.1035C19.3726 12.1276 13.5142 14.6899 12.7443 24.1811C12.4556 27.7058 13.5623 33.0469 16.678 36.4392C16.8464 36.6196 17.0148 36.788 17.1952 36.9564C18.8673 38.5443 20.8282 39.3503 23.0416 39.3503C24.7377 39.3503 26.4098 38.8451 27.9616 37.8947C28.9525 37.2733 29.8514 36.5161 30.6322 35.6452C32.4607 33.6122 33.6396 31.0259 33.6396 29.0531C33.6323 28.6829 33.6042 28.3134 33.5554 27.9464ZM26.9752 38.1714C25.7553 38.7885 24.4087 39.1139 23.0416 39.1218C21.1435 39.1304 19.3047 38.4606 17.8569 37.2331C17.5064 36.9354 17.1731 36.6181 16.8584 36.2828C14.1037 33.2874 12.9368 28.7403 12.9368 25.3239C12.934 24.9544 12.9501 24.5851 12.9849 24.2172C13.0451 23.5556 13.1173 22.918 13.2255 22.3286C14.5488 14.5575 19.6733 12.3922 22.3679 12.3682C25.9407 12.3682 28.7676 16.4582 30.139 18.9002L30.6442 19.8385C32.2923 23.0624 33.399 26.7314 33.399 29.0771C33.399 31.7717 30.8848 36.2226 26.9752 38.1714ZM33.411 27.8261C33.4091 27.7975 33.4132 27.7688 33.423 27.7419C33.4351 27.802 33.4351 27.8621 33.4471 27.9223C33.4308 27.913 33.4183 27.8982 33.4117 27.8807C33.4051 27.8631 33.4049 27.8438 33.411 27.8261Z" fill="#AA5D2B"/>
<path d="M19.0232 27.7044C18.6382 27.7886 18.1931 27.3075 18.0367 26.6218C17.8804 25.9361 18.0728 25.3106 18.4698 25.2264C18.8668 25.1422 19.2998 25.6233 19.4562 26.309C19.6126 26.9947 19.4201 27.6202 19.0232 27.7044Z" fill="black"/>
<path d="M26.506 27.0306C26.109 27.0547 25.7481 26.5013 25.7241 25.7916C25.7 25.0818 25.9887 24.5044 26.3857 24.4924C26.7827 24.4804 27.1435 25.0217 27.1676 25.7314C27.2037 26.4171 26.9029 27.0065 26.506 27.0306Z" fill="black"/>
<path fill-rule="evenodd" clip-rule="evenodd" d="M28.7556 23.2175C28.7438 23.2311 28.7295 23.2422 28.7134 23.2502C28.6973 23.2582 28.6798 23.2629 28.6619 23.264C28.6439 23.2652 28.6259 23.2627 28.609 23.2567C28.592 23.2508 28.5764 23.2416 28.5631 23.2295C28.1661 22.8927 27.6368 22.7243 27.1075 22.6521C26.6801 22.5937 26.2466 22.5978 25.8204 22.6641C25.7849 22.6678 25.7493 22.6579 25.7209 22.6364C25.6925 22.6149 25.6732 22.5834 25.6671 22.5482C25.661 22.5131 25.6685 22.477 25.688 22.4471C25.7075 22.4173 25.7376 22.3959 25.7722 22.3874C26.2262 22.3152 26.6884 22.3112 27.1436 22.3754C27.6849 22.4476 28.2864 22.628 28.7435 23.013C28.7585 23.0251 28.7709 23.0402 28.7797 23.0573C28.7885 23.0745 28.7937 23.0933 28.7948 23.1126C28.796 23.1318 28.793 23.1511 28.7863 23.1692C28.7795 23.1872 28.7691 23.2037 28.7556 23.2175Z" fill="black"/>
<path fill-rule="evenodd" clip-rule="evenodd" d="M19.0715 23.3865C19.0634 23.4232 19.0412 23.4551 19.0096 23.4754C18.978 23.4957 18.9397 23.5027 18.9031 23.4948C18.3858 23.3986 17.8445 23.5189 17.3633 23.7234C16.9636 23.8878 16.5906 24.1108 16.2566 24.385C16.2284 24.4066 16.1935 24.4172 16.1581 24.415C16.1227 24.4128 16.0893 24.3979 16.0641 24.373C16.052 24.3596 16.0428 24.344 16.0368 24.3271C16.0309 24.3101 16.0284 24.2921 16.0296 24.2742C16.0307 24.2563 16.0354 24.2387 16.0434 24.2226C16.0514 24.2065 16.0625 24.1922 16.0761 24.1805C16.432 23.8903 16.8294 23.6551 17.255 23.4828C17.7892 23.2392 18.3825 23.1556 18.9632 23.2422C18.9802 23.2435 18.9967 23.2485 19.0117 23.2567C19.0266 23.265 19.0397 23.2763 19.0499 23.2899C19.0602 23.3036 19.0674 23.3193 19.0711 23.3359C19.0748 23.3526 19.0749 23.3698 19.0715 23.3865Z" fill="black"/>
<path d="M23.0776 30.7489C23.0697 30.7743 23.0536 30.7963 23.0318 30.8115C23.01 30.8267 22.9839 30.8343 22.9573 30.8331H22.9212C22.7769 30.797 22.0792 30.5564 21.8747 30.0272C21.8279 29.8958 21.8134 29.7552 21.8322 29.617C21.8511 29.4789 21.9027 29.3473 21.9829 29.2332C22.44 28.4753 22.5363 27.1882 22.5363 26.6108C22.5363 26.5789 22.549 26.5483 22.5715 26.5257C22.5941 26.5032 22.6247 26.4905 22.6566 26.4905C22.6727 26.4894 22.6888 26.4918 22.7038 26.4975C22.7189 26.5031 22.7326 26.512 22.744 26.5234C22.7554 26.5347 22.7642 26.5484 22.7699 26.5635C22.7756 26.5786 22.7779 26.5947 22.7769 26.6108C22.7889 27.2123 22.6806 28.5596 22.1874 29.3655C22.1286 29.4482 22.0903 29.5437 22.0757 29.6441C22.061 29.7445 22.0705 29.8469 22.1032 29.9429C22.2235 30.2557 22.6445 30.4963 22.9934 30.6046C23.009 30.6075 23.0237 30.6138 23.0367 30.6229C23.0496 30.632 23.0604 30.6439 23.0684 30.6575C23.0764 30.6712 23.0814 30.6865 23.0829 30.7022C23.0845 30.718 23.0827 30.7339 23.0776 30.7489Z" fill="black"/>
<path fill-rule="evenodd" clip-rule="evenodd" d="M25.3387 32.6862C25.3197 32.6764 25.2982 32.6722 25.2768 32.6744C25.2554 32.6765 25.2352 32.6848 25.2184 32.6983C24.7854 33.0231 23.9072 33.2877 22.981 33.3479C22.0547 33.408 21.1164 33.2877 20.551 32.8667C20.532 32.852 20.5088 32.8441 20.4848 32.8441C20.4609 32.8441 20.4376 32.852 20.4187 32.8667C20.4015 32.8836 20.3891 32.9047 20.3827 32.928C20.3764 32.9512 20.3763 32.9757 20.3826 32.999C20.6121 33.4971 20.93 33.9495 21.3209 34.3343C21.766 34.7553 22.3314 35.0681 22.981 34.9959C23.5975 34.8982 24.1689 34.6125 24.617 34.1779C25.038 33.7689 25.3387 33.2637 25.3869 32.8065C25.3904 32.784 25.3879 32.7609 25.3794 32.7397C25.3709 32.7186 25.3569 32.7001 25.3387 32.6862ZM21.4773 34.1779C21.1973 33.902 20.9546 33.5906 20.7555 33.2516C21.369 33.5524 22.199 33.6245 22.993 33.5644C23.811 33.5042 24.6049 33.2877 25.1222 33.011C24.9879 33.3906 24.7652 33.7329 24.4726 34.0095C24.0638 34.4143 23.5375 34.6796 22.9689 34.7673C22.4035 34.8395 21.8983 34.5749 21.4773 34.1779Z" fill="black"/>
<path fill-rule="evenodd" clip-rule="evenodd" d="M25.1223 33.0098C24.9879 33.3894 24.7653 33.7316 24.4727 34.0082C24.0639 34.4131 23.5376 34.6783 22.969 34.7661C22.4156 34.8382 21.9104 34.5616 21.4893 34.1646C21.2094 33.8887 20.9667 33.5772 20.7676 33.2383C21.3811 33.5391 22.2111 33.6112 23.0051 33.5511C23.799 33.4909 24.605 33.2985 25.1223 33.0098Z" fill="#AE5646"/>
</g>
</g>
<rect x="-2.4" y="-4.4" width="55.8" height="55.8" rx="27.9" stroke="#D4D4D4" stroke-width="0.8"/>
</g>
</g>
<rect x="0.5" y="0.5" width="51" height="51" rx="25.5" stroke="#6A7294"/>
<defs>
<clipPath id="clip0_530_2234">
<rect x="1" y="1" width="50" height="50" rx="25" fill="white"/>
</clipPath>
<clipPath id="clip1_530_2234">
<rect x="1" y="1" width="50" height="50" rx="25" fill="white"/>
</clipPath>
<clipPath id="clip2_530_2234">
<rect x="-2" y="-4" width="55" height="55" rx="27.5" fill="white"/>
</clipPath>
<clipPath id="clip3_530_2234">
<rect width="57" height="56" fill="white" transform="translate(-3 -2)"/>
</clipPath>
<clipPath id="clip4_530_2234">
<rect width="62" height="62" fill="white" transform="translate(-5.01074 -7)"/>
</clipPath>
</defs>
</svg>
