<svg width="52" height="52" viewBox="0 0 52 52" fill="none" xmlns="http://www.w3.org/2000/svg">
<g clip-path="url(#clip0_530_2169)">
<rect x="1" y="1" width="50" height="50" rx="25" fill="#363A4D"/>
<g clip-path="url(#clip1_530_2169)">
<rect x="1" y="1" width="50" height="50" rx="25" fill="#363A4D"/>
<g clip-path="url(#clip2_530_2169)">
<rect x="-2" y="-4" width="55" height="55" rx="27.5" fill="#292C3A"/>
<g clip-path="url(#clip3_530_2169)">
<path d="M40.809 46.7703C40.8633 46.8356 40.9068 46.9117 40.9612 46.9769C40.907 46.9107 40.8562 46.8417 40.809 46.7703ZM36.2538 44.3786C36.2429 44.3786 36.232 44.3677 36.2211 44.3677C36.2103 44.3677 36.232 44.3786 36.2538 44.3786L36.3842 44.4112C36.3394 44.4068 36.2954 44.3958 36.2538 44.3786ZM16.5108 44.2264C16.5217 44.2264 16.5325 44.2155 16.5434 44.2155C16.5391 44.2196 16.534 44.2227 16.5283 44.2246C16.5227 44.2265 16.5167 44.2271 16.5108 44.2264ZM28.3392 39.7907V39.856C28.3392 39.8233 28.35 39.7799 28.35 39.7472C28.3425 39.7605 28.3387 39.7755 28.3392 39.7907ZM25.5017 -2C10.0313 -2 -2.51464 10.5459 -2.51464 26.0163C-2.51875 30.5727 -1.40963 35.0612 0.716259 39.0913C2.84215 43.1214 5.92043 46.5711 9.68338 49.1404C9.69094 49.1271 9.69471 49.1121 9.69425 49.0969C9.70512 49.0534 9.716 49.0208 9.72687 48.9773C9.75948 48.8794 9.7921 48.8033 9.81384 48.7272C9.82471 48.6838 9.84646 48.6294 9.85733 48.5859C9.8682 48.5424 9.87907 48.5098 9.88994 48.4772C9.90082 48.4446 9.92256 48.4011 9.93343 48.3576C9.93343 48.3467 9.9443 48.325 9.9443 48.3141C9.9443 48.3032 9.96605 48.2598 9.97692 48.238C9.98779 48.2163 10.0095 48.1728 10.0204 48.1402C10.0313 48.1293 10.0313 48.1076 10.0421 48.0967C10.053 48.0858 10.053 48.0641 10.0639 48.0532C10.0748 48.0206 10.0965 47.988 10.1074 47.9554C10.1158 47.9359 10.1267 47.9176 10.14 47.901C10.1624 47.8671 10.1806 47.8306 10.1944 47.7923C10.2161 47.7597 10.2378 47.7162 10.2596 47.6836C10.2813 47.6509 10.3139 47.5966 10.3357 47.5531C10.39 47.4661 10.4444 47.3792 10.5096 47.2922L10.6075 47.1617C10.6292 47.1291 10.6618 47.0965 10.6836 47.0639C10.7271 47.0203 10.7271 47.0203 10.7706 46.9768C10.7923 46.9443 10.8249 46.9117 10.8467 46.8791C10.8989 46.8123 10.9571 46.7505 11.0206 46.6942L11.1511 46.5638L11.238 46.4768C11.2718 46.4415 11.3081 46.4088 11.3467 46.379L11.412 46.3137C11.465 46.273 11.5158 46.2294 11.5642 46.1833C11.5941 46.1546 11.6269 46.1291 11.662 46.1072C11.6992 46.0747 11.7392 46.0456 11.7816 46.0202C11.8034 45.9985 11.8251 45.9876 11.8468 45.9658C12.1014 45.7805 12.3664 45.6099 12.6405 45.4549C12.7166 45.4114 12.8036 45.3679 12.8797 45.3244C12.8905 45.3135 12.9123 45.3135 12.9231 45.3027C12.926 45.3027 12.9288 45.3015 12.9308 45.2995C12.9329 45.2974 12.934 45.2947 12.934 45.2918L13.1297 45.1939C13.3798 45.0744 13.6407 44.9548 13.9016 44.8461C13.9886 44.8134 14.0647 44.7808 14.1516 44.7482C14.1951 44.7373 14.2277 44.7156 14.2712 44.7047C14.4126 44.6504 14.5539 44.6069 14.6952 44.5525C14.7061 44.5525 14.7278 44.5416 14.7387 44.5416C14.646 44.2542 14.6163 43.9501 14.6517 43.6502C14.7931 42.7043 15.1192 41.9868 15.5976 41.4432C16.0698 40.9121 16.6734 40.5147 17.3479 40.2908C18.6634 39.8125 20.2506 39.7907 21.664 39.7799C21.6422 39.4211 21.6205 39.0841 21.5987 38.8231C20.6846 38.5044 19.8289 38.0379 19.0656 37.4424C17.4784 36.1922 16.4238 34.4745 15.7824 32.5611C15.5098 31.7408 15.2991 30.9014 15.1518 30.0497C14.6875 30.0311 14.2414 29.8633 13.8798 29.5713C13.4015 29.18 13.0319 28.5059 13.0319 27.4296C13.0319 26.3533 13.3689 25.6575 13.8146 25.2335C14.118 24.9365 14.5049 24.7392 14.9235 24.6682C14.9855 23.6944 15.1053 22.7251 15.2823 21.7655C15.1741 21.7824 15.0633 21.7633 14.967 21.7111C14.8616 21.655 14.7803 21.5622 14.7387 21.4502C14.6727 21.2732 14.654 21.0822 14.6844 20.8958C14.5876 20.8119 14.5161 20.7027 14.4778 20.5805C14.4451 20.4668 14.4451 20.3462 14.4778 20.2326C14.5302 20.0735 14.6285 19.9335 14.7605 19.8303C14.6656 19.662 14.6347 19.4651 14.6735 19.2759C14.7029 19.1671 14.7507 19.0641 14.8148 18.9715C14.7348 18.9105 14.6704 18.8314 14.6269 18.7407C14.5834 18.65 14.5621 18.5502 14.5648 18.4496C14.5691 18.2716 14.6137 18.0969 14.6952 17.9387C14.63 17.3298 14.7713 16.9928 15.0214 16.8406C15.1638 16.7621 15.3289 16.7353 15.4889 16.7645C15.4671 16.6863 15.4671 16.6036 15.4889 16.5253C15.5115 16.4304 15.5605 16.3437 15.6302 16.2753C15.558 16.165 15.5167 16.0373 15.5106 15.9057C15.5071 15.7771 15.5539 15.6523 15.6411 15.5578C15.7736 15.4206 15.9439 15.326 16.1303 15.286C16.1571 15.1082 16.2281 14.9399 16.3368 14.7967C16.3837 14.7401 16.4416 14.6935 16.507 14.6599C16.5724 14.6262 16.644 14.6062 16.7174 14.601C16.8978 14.5975 17.0754 14.6466 17.2283 14.7424C17.2066 14.2532 17.3479 13.9379 17.5871 13.7639C17.781 13.6212 18.0224 13.5589 18.2611 13.59C18.2176 13.1008 18.3807 12.7855 18.6308 12.6007C18.8573 12.4457 19.1285 12.3693 19.4027 12.3832C19.4818 12.2431 19.5891 12.1209 19.7179 12.0245C19.7745 11.9858 19.8388 11.96 19.9064 11.9487C19.974 11.9374 20.0433 11.941 20.1093 11.9592C20.2271 11.9845 20.3359 12.0408 20.4246 12.1223C20.4265 12.0781 20.4338 12.0343 20.4463 11.9918C20.4835 11.8722 20.5602 11.7687 20.6638 11.6983C20.8112 11.6111 20.9825 11.5731 21.153 11.5896C21.1764 11.4798 21.229 11.3784 21.3052 11.2961C21.3427 11.2569 21.3886 11.2268 21.4395 11.208C21.4903 11.1892 21.5448 11.1821 21.5987 11.1873C21.6969 11.2005 21.7903 11.2379 21.8705 11.2961C21.8923 11.3178 21.914 11.3287 21.9358 11.3504C21.9807 11.2225 22.0552 11.1071 22.1532 11.0134C22.2602 10.9048 22.4033 10.8391 22.5554 10.8286C22.7842 10.8177 23.011 10.8745 23.2077 10.9917C23.4326 10.7939 23.7141 10.6721 24.0122 10.6438C24.1111 10.6378 24.21 10.6553 24.3007 10.695C24.3914 10.7347 24.4714 10.7954 24.5341 10.8721C24.5656 10.91 24.5947 10.9499 24.6211 10.9917C24.6718 10.8551 24.7537 10.7323 24.8602 10.6329C24.9213 10.5742 24.996 10.5315 25.0775 10.5088C25.1591 10.486 25.2451 10.4838 25.3277 10.5024C25.4805 10.5416 25.622 10.6161 25.7408 10.7199C25.815 10.7832 25.8841 10.8522 25.9474 10.9264C26.0072 10.8167 26.0931 10.7233 26.1975 10.6546C26.3232 10.5744 26.4742 10.5434 26.6214 10.5677C26.8522 10.6136 27.0642 10.7271 27.2303 10.8938C27.3424 10.8272 27.4695 10.7898 27.5999 10.7851C27.6578 10.783 27.7155 10.7925 27.7696 10.8131C27.8237 10.8336 27.8732 10.8648 27.9152 10.9047C27.9848 10.9775 28.0336 11.0676 28.0565 11.1656V11.1765C28.1543 11.0751 28.2682 10.9906 28.3935 10.9264C28.4661 10.8958 28.5443 10.8809 28.623 10.8828C28.7017 10.8846 28.7792 10.9032 28.8501 10.9373C28.9764 11.0057 29.0816 11.1072 29.1545 11.2308C29.1987 11.3083 29.2387 11.3882 29.2741 11.47C29.3988 11.4051 29.536 11.368 29.6764 11.3613C29.815 11.3559 29.9507 11.4024 30.0569 11.4917C30.2012 11.6131 30.3038 11.7766 30.3504 11.9592C30.5677 11.8874 30.7998 11.8724 31.0245 11.9157C31.2151 11.9502 31.3858 12.055 31.5028 12.2093C31.6669 12.4398 31.7439 12.721 31.7203 13.0029C31.7869 13.0022 31.8531 13.0133 31.916 13.0355C32.0043 13.0653 32.0781 13.1274 32.1225 13.2095C32.1608 13.2689 32.1867 13.3355 32.1986 13.4052C32.2977 13.3307 32.4077 13.2721 32.5248 13.2312C32.5968 13.2126 32.6719 13.2098 32.7451 13.2229C32.8183 13.2361 32.8877 13.2649 32.9488 13.3073C33.1445 13.4269 33.264 13.6661 33.3293 13.8618C33.4222 13.8477 33.5172 13.8629 33.6011 13.9053C33.6982 13.948 33.7758 14.0256 33.8185 14.1227C33.8846 14.2577 33.9145 14.4075 33.9055 14.5576C34.0094 14.5757 34.107 14.6202 34.1889 14.6868C34.2707 14.7534 34.3341 14.8399 34.373 14.9381C34.4122 15.0423 34.4197 15.1557 34.3947 15.2642C34.7643 15.2425 35.0035 15.3186 35.134 15.4817C35.1812 15.5446 35.2135 15.6173 35.2286 15.6945C35.2437 15.7717 35.2411 15.8514 35.2209 15.9274C35.5145 16.0144 35.6667 16.1666 35.7102 16.3623C35.7335 16.506 35.7025 16.6533 35.6232 16.7754C35.6812 16.8148 35.7295 16.8668 35.7645 16.9276C35.8071 17.0076 35.8187 17.1005 35.7971 17.1885C35.7715 17.2791 35.7228 17.3615 35.6558 17.4277C35.7074 17.4724 35.7483 17.5281 35.7754 17.5908C35.813 17.6989 35.8242 17.8144 35.808 17.9278C35.7798 18.105 35.717 18.2749 35.6232 18.4279C35.6995 18.4867 35.7609 18.5625 35.8024 18.6494C35.844 18.7363 35.8645 18.8317 35.8624 18.928C35.8607 19.0817 35.8274 19.2334 35.7645 19.3737C35.9419 19.5321 36.0654 19.7418 36.118 19.9737C36.1706 20.2055 36.1497 20.448 36.0581 20.6674C36.1023 20.8709 36.1133 21.0802 36.0907 21.2871C36.075 21.4017 36.03 21.5102 35.9602 21.6024C35.9145 21.6577 35.8542 21.6991 35.7863 21.722C35.9738 22.7143 36.1081 23.7159 36.1885 24.7226C36.6009 24.7856 36.9861 24.9669 37.2974 25.2444C37.754 25.6575 38.0911 26.3425 38.0367 27.4188C37.9823 28.4951 37.6127 29.1582 37.1452 29.5605C36.8237 29.8467 36.4208 30.0254 35.9928 30.0714C35.8565 30.9116 35.6566 31.7403 35.3949 32.5502C34.7643 34.4636 33.7315 36.1813 32.1551 37.4316C31.1136 38.2407 29.9076 38.8121 28.6218 39.1058C28.6001 39.2906 28.5892 39.4863 28.5675 39.6929C29.8068 39.5515 31.5789 39.6711 33.1118 40.3017C34.6882 40.954 36.0254 42.1499 36.232 44.172C36.319 44.1938 36.4168 44.2264 36.5038 44.2481C36.5908 44.2699 36.6886 44.3025 36.7756 44.3242C36.8532 44.3447 36.9295 44.3701 37.0039 44.4003C37.0909 44.4329 37.1778 44.4547 37.2648 44.4873C37.3518 44.5199 37.417 44.5416 37.4931 44.5634C37.5692 44.5851 37.6562 44.6177 37.7432 44.6504C37.7758 44.6612 37.8193 44.683 37.8519 44.6939C37.8845 44.7047 37.9389 44.7265 37.9823 44.7373C38.0258 44.7482 38.0911 44.7808 38.1563 44.8026C38.1908 44.8124 38.2237 44.8271 38.2541 44.8461C38.4716 44.933 38.6781 45.0309 38.8738 45.1287C38.9282 45.1613 38.9825 45.1831 39.0369 45.2157L39.3304 45.3788C39.3609 45.3944 39.39 45.4126 39.4174 45.4331C39.5261 45.4984 39.6348 45.5636 39.7327 45.6288C39.7852 45.6625 39.836 45.6987 39.8849 45.7375C39.9175 45.7593 39.9392 45.781 39.9719 45.8028C40.0371 45.8571 40.1132 45.9115 40.1784 45.9658C40.2002 45.9767 40.211 45.9985 40.2328 46.0093C40.2654 46.0419 40.3089 46.0746 40.3415 46.1072L40.4393 46.205L40.5046 46.2702L40.5589 46.3246C40.5807 46.3572 40.6133 46.379 40.635 46.4116C40.635 46.4224 40.6459 46.4224 40.6459 46.4333C40.6685 46.4646 40.694 46.4937 40.722 46.5203C40.7329 46.5312 40.7438 46.5529 40.7546 46.5638C40.7655 46.5746 40.7872 46.6073 40.809 46.629C40.8307 46.6507 40.8525 46.6834 40.8742 46.716C40.8985 46.743 40.9204 46.7721 40.9394 46.803L41.0047 46.9008C41.0155 46.9117 41.0155 46.9225 41.0264 46.9334C41.0264 46.9363 41.0276 46.9391 41.0296 46.9411C41.0316 46.9431 41.0344 46.9443 41.0373 46.9443C41.0614 46.979 41.0832 47.0154 41.1025 47.053C41.1243 47.0856 41.1351 47.1074 41.1569 47.14C41.1763 47.1811 41.1981 47.221 41.2221 47.2596C41.2547 47.3139 41.2765 47.3574 41.3091 47.4118L41.3743 47.5422C41.3784 47.5465 41.3815 47.5517 41.3834 47.5573C41.3853 47.563 41.3859 47.5689 41.3852 47.5748C41.4079 47.6163 41.4261 47.66 41.4395 47.7053C41.4395 47.7162 41.4504 47.7162 41.4504 47.727C41.4722 47.7705 41.483 47.814 41.5048 47.8575C41.5265 47.901 41.5483 47.9771 41.5809 48.0423C41.6002 48.084 41.6148 48.1278 41.6244 48.1728C41.6461 48.2271 41.657 48.2815 41.6787 48.3359C41.7005 48.3902 41.7113 48.4337 41.7331 48.4881C41.7548 48.5424 41.7657 48.5859 41.7766 48.6403C41.7874 48.6946 41.8092 48.749 41.8309 48.8033C45.4493 46.212 48.3973 42.7947 50.4299 38.8353C52.4626 34.8759 53.5212 30.4887 53.518 26.0381C53.518 10.535 40.9721 -2 25.5017 -2ZM14.8366 44.6939C14.8583 44.6939 14.8692 44.683 14.8909 44.6721C14.8741 44.6822 14.8557 44.6896 14.8366 44.6939ZM14.8583 44.4547C14.8474 44.4547 14.8474 44.4547 14.8366 44.4655C14.8474 44.4655 14.8583 44.4655 14.8583 44.4547L14.9561 44.4221C14.9241 44.4346 14.8914 44.4454 14.8583 44.4547ZM40.809 46.7703C40.8633 46.8356 40.9068 46.9117 40.9612 46.9769C40.907 46.9107 40.8562 46.8417 40.809 46.7703ZM40.809 46.7703C40.8633 46.8356 40.9068 46.9117 40.9612 46.9769C40.907 46.9107 40.8562 46.8417 40.809 46.7703Z" fill="#363A4D"/>
<path d="M37.83 27.3741C37.7756 28.3961 37.4277 29.0049 37.0146 29.3636C36.7406 29.6071 36.3996 29.7624 36.0361 29.8094C36.2666 28.1857 36.3249 26.5422 36.2101 24.9062C36.5634 24.9691 36.8915 25.1312 37.1559 25.3737C37.5582 25.7434 37.8734 26.3631 37.83 27.3741Z" fill="#82443A"/>
<path d="M15.1404 29.7884C14.7394 29.764 14.3558 29.6159 14.0424 29.3644C13.6184 29.0165 13.2705 28.4077 13.2705 27.3858C13.2705 26.3638 13.5967 25.7224 13.988 25.3419C14.2485 25.0934 14.5717 24.9205 14.923 24.8418C14.8122 26.4936 14.8851 28.1527 15.1404 29.7884Z" fill="#82443A"/>
<path d="M33.2963 43.5311C32.1874 43.3463 31.1545 43.2158 30.3392 43.118L30.0674 43.0854C29.6977 43.0419 29.3716 42.9984 29.1324 42.9658C28.9802 42.944 28.8606 42.9223 28.7628 42.9005C28.7273 42.8901 28.6909 42.8828 28.6541 42.8788C28.6214 42.8679 28.6214 42.8679 28.6106 42.8679C28.6018 42.8582 28.5945 42.8472 28.5888 42.8353C28.578 42.8136 28.5671 42.781 28.5453 42.7375C28.5169 42.6197 28.4988 42.4996 28.491 42.3787C28.4604 42.0063 28.4532 41.6323 28.4692 41.2589C28.4801 40.9654 28.491 40.6501 28.5127 40.3457C29.7195 40.3566 31.3937 40.5305 32.5352 41.0197C33.1223 41.2698 33.5354 41.5959 33.6876 41.9982C33.8507 42.3787 33.7746 42.8788 33.2963 43.5311Z" fill="#7A62B6"/>
<path d="M21.7293 42.1591C21.723 42.4161 21.6865 42.6715 21.6205 42.9201C21.6205 42.9309 21.5988 42.9636 21.5118 43.0071C21.4003 43.0588 21.2837 43.0988 21.1639 43.1266C20.8595 43.2027 20.4464 43.2788 19.9463 43.3658C19.805 43.3876 19.6528 43.4093 19.5006 43.4419C19.294 43.4745 19.0657 43.5071 18.8374 43.5506C18.2829 43.0179 18.0981 42.5831 18.1199 42.2243C18.1416 41.8655 18.3916 41.5611 18.783 41.3002C19.544 40.7892 20.7834 40.4848 21.7184 40.3652C21.7293 40.5827 21.7401 40.8001 21.7401 41.0175C21.751 41.4198 21.751 41.822 21.7293 42.1591Z" fill="#7A62B6"/>
<path d="M33.1442 43.726C32.1028 45.0551 30.922 46.2688 29.6218 47.3462C29.0438 47.8342 28.4296 48.2775 27.7845 48.6726C27.2627 48.977 26.7952 49.1836 26.4256 49.2597C26.2516 48.7596 25.8711 48.3247 25.3819 47.9224C24.7725 47.4552 24.1293 47.0336 23.4576 46.6613C23.2945 46.5635 23.1314 46.4765 22.9684 46.3787C21.6855 45.6503 20.2722 44.8349 19.0654 43.7369C19.2394 43.7042 19.4025 43.6825 19.5547 43.6608C19.7069 43.639 19.8591 43.6173 20.0004 43.5846C20.5005 43.4977 20.9245 43.4216 21.2398 43.3455C21.3742 43.3103 21.5052 43.263 21.6311 43.2041C21.6798 43.1868 21.7242 43.1594 21.7617 43.1238C21.7991 43.0883 21.8287 43.0453 21.8486 42.9976C21.9218 42.728 21.962 42.4506 21.9682 42.1713C21.9899 41.8234 21.9899 41.4212 21.979 41.0081C21.979 40.7906 21.9682 40.5623 21.9573 40.334V40.2253C21.9591 40.1887 21.9554 40.1521 21.9464 40.1166C21.9247 39.6491 21.8921 39.2034 21.8594 38.8555C23.0832 39.2395 24.3603 39.4267 25.6428 39.4099C26.5744 39.4164 27.5039 39.3216 28.4151 39.1273C28.3933 39.323 28.3716 39.5295 28.3607 39.7469C28.3607 39.7578 28.3498 39.7796 28.3498 39.7904V39.8557C28.339 39.9426 28.339 40.0296 28.3281 40.1166C28.3299 40.1532 28.3262 40.1898 28.3172 40.2253C28.3082 40.2608 28.3046 40.2974 28.3064 40.334C28.2846 40.6384 28.2737 40.9537 28.2629 41.2364C28.247 41.617 28.2542 41.9982 28.2846 42.3779C28.2922 42.5139 28.3141 42.6487 28.3498 42.7801C28.3594 42.8301 28.3778 42.878 28.4042 42.9215C28.4246 42.9671 28.4588 43.0051 28.502 43.0302C28.5325 43.0492 28.5654 43.0638 28.5999 43.0737C28.6427 43.0871 28.6863 43.098 28.7303 43.1063C28.8282 43.128 28.9587 43.1498 29.1109 43.1715C29.3609 43.2041 29.6871 43.2476 30.0567 43.2911L30.3285 43.3237C31.1004 43.4216 32.0897 43.552 33.1442 43.726Z" fill="#82443A"/>
<path d="M41.6351 48.8578C41.6242 48.8578 41.6242 48.8686 41.6133 48.8686C41.559 48.9013 41.4829 48.9556 41.385 49.0209C41.1785 49.1622 40.8741 49.347 40.4827 49.5862C39.3979 50.2247 38.2761 50.7983 37.1233 51.3039C34.2641 52.5541 30.285 53.7935 25.7733 53.7935C25.1101 53.7935 24.4796 53.7826 23.8708 53.75C23.8055 53.75 23.7403 53.7392 23.6751 53.7392L23.0771 53.7065C22.9901 53.6957 22.8923 53.6957 22.8053 53.6848L22.4574 53.6522C22.3052 53.6413 22.1639 53.6304 22.0117 53.6087C21.9356 53.5978 21.8595 53.5978 21.7834 53.587C21.7073 53.5761 21.6529 53.5761 21.5877 53.5652C21.5225 53.5543 21.4572 53.5543 21.392 53.5435L21.1311 53.5109C21.0115 53.5 20.881 53.4782 20.7615 53.4674C20.4897 53.4348 20.2287 53.3913 19.9787 53.3478L19.7939 53.3152C19.7069 53.3043 19.6199 53.2825 19.533 53.2717C19.2612 53.2173 19.0002 53.1738 18.7393 53.1086L18.5762 53.076C18.4458 53.0434 18.3262 53.0216 18.1957 52.989C18.1414 52.9781 18.0761 52.9564 18.0218 52.9455C17.9131 52.9238 17.8152 52.8912 17.7065 52.8694C17.5978 52.8477 17.5108 52.8151 17.413 52.7933C17.3477 52.7716 17.2716 52.7607 17.2064 52.739C17.1216 52.7186 17.0381 52.6932 16.9564 52.6629C16.8694 52.6302 16.7933 52.6194 16.7172 52.5868C16.5976 52.5541 16.478 52.5107 16.3693 52.478C16.3149 52.4563 16.2497 52.4454 16.1954 52.4237C16.139 52.4007 16.0808 52.3825 16.0214 52.3693C16.0105 52.3693 15.9997 52.3585 15.9888 52.3585C15.293 52.1084 14.619 51.8366 13.9558 51.5322C13.9449 51.5322 13.934 51.5213 13.9232 51.5213C13.8471 51.4887 13.7818 51.4561 13.7057 51.4235L13.51 51.3256L13.2491 51.1952C13.1622 51.1517 13.0752 51.1082 12.9991 51.0647C12.923 51.0212 12.8577 50.9886 12.7816 50.956C12.6838 50.9017 12.5968 50.8582 12.499 50.8038C12.4338 50.7712 12.3794 50.7386 12.3142 50.706C12.1185 50.5972 11.9228 50.4777 11.738 50.3689L11.5749 50.2711C11.1183 49.9993 10.6834 49.7275 10.2703 49.4666C10.1398 49.3796 10.0094 49.3035 9.87891 49.2165C9.93326 49.0535 9.97675 48.9121 10.0202 48.7926V48.7817C10.0298 48.7367 10.0444 48.6929 10.0637 48.6512C10.0637 48.6403 10.0746 48.6186 10.0746 48.6077C10.0855 48.5751 10.0963 48.5316 10.1072 48.499C10.1181 48.4664 10.129 48.4229 10.1398 48.3903C10.1507 48.3577 10.1724 48.3033 10.1942 48.2598L10.1945 48.2594C10.2488 48.14 10.2488 48.14 10.3031 48.0205C10.3355 47.9446 10.379 47.8685 10.4225 47.7815C10.4334 47.7489 10.4551 47.7271 10.466 47.6945C10.4766 47.6704 10.4913 47.6483 10.5095 47.6293C10.5179 47.6098 10.5288 47.5915 10.5421 47.5749C10.5502 47.5525 10.5655 47.5334 10.5856 47.5206C10.6182 47.4771 10.6508 47.4227 10.6834 47.3792C10.716 47.3357 10.7486 47.2814 10.7813 47.2379L10.9117 47.0748C10.9552 47.0205 10.9987 46.977 11.0313 46.9335C11.14 46.8139 11.2487 46.6943 11.3683 46.5856C11.4118 46.553 11.4444 46.5095 11.4879 46.4769C11.5323 46.4339 11.5795 46.3939 11.6292 46.3573L11.8249 46.1942C11.8793 46.1507 11.9337 46.1181 11.988 46.0746C12.0206 46.0529 12.0424 46.0311 12.075 46.0094C12.1402 45.9659 12.2163 45.9116 12.2815 45.8681C12.3163 45.8439 12.3526 45.8222 12.3903 45.8028C12.4664 45.7594 12.5316 45.7159 12.6077 45.6724C12.6512 45.6506 12.6947 45.618 12.7382 45.5963C12.7816 45.5745 12.8034 45.5637 12.836 45.5419H12.8469C12.8747 45.5252 12.9038 45.5107 12.9338 45.4984L12.9447 45.4876L12.9448 45.4908C13.0648 45.4363 13.0648 45.4363 13.1849 45.3817L13.1839 45.3788C13.2228 45.3587 13.2627 45.3405 13.3035 45.3245L13.4339 45.2593L13.5644 45.194L13.9558 45.0309C13.9993 45.0092 14.0428 44.9983 14.0862 44.9766H14.0971L14.2602 44.9114C14.445 44.8461 14.6298 44.77 14.8255 44.7157C15.0756 45.3354 15.5974 45.9768 16.3041 46.5639C17.4347 47.5097 19.0655 48.3686 20.968 48.9448C22.4792 49.4014 23.5663 49.7927 24.3165 50.1298C25.0666 50.4668 25.4798 50.7495 25.6537 50.9669C25.6649 50.982 25.6798 50.9939 25.6969 51.0015C25.7141 51.0091 25.7329 51.0122 25.7516 51.0104C27.5454 50.8147 30.2633 50.3689 32.4811 49.3579C34.6555 48.3686 36.3841 46.8139 36.2536 44.4004L36.384 44.433C36.6341 44.4982 36.8841 44.5743 37.1233 44.6613C37.2647 44.7048 37.406 44.7483 37.5364 44.8026C37.6017 44.8244 37.6669 44.8461 37.7213 44.8679C37.7854 44.8866 37.8474 44.9121 37.9061 44.944L38.0692 45.0092C38.1018 45.0201 38.1235 45.031 38.1561 45.0418C38.1887 45.0527 38.2322 45.0744 38.2757 45.0962C38.3192 45.1179 38.3518 45.1288 38.3953 45.1505C38.4735 45.1823 38.5497 45.2186 38.6236 45.2593C38.6562 45.2701 38.678 45.2919 38.7106 45.3027C38.7432 45.3136 38.7649 45.3354 38.7976 45.3462C38.8084 45.3462 38.8193 45.3571 38.8302 45.3571C38.8954 45.3897 38.9498 45.4223 39.015 45.4549C39.0802 45.4876 39.1237 45.5093 39.1672 45.5419C39.1781 45.5419 39.1781 45.5419 39.1781 45.5528C39.2107 45.5745 39.2433 45.5854 39.2759 45.6071C39.3085 45.6289 39.3303 45.6398 39.3629 45.6615C39.4051 45.6829 39.4452 45.7084 39.4825 45.7376C39.4933 45.7376 39.4933 45.7485 39.5042 45.7485C39.5429 45.7701 39.5793 45.7956 39.6129 45.8246L39.7108 45.8898C39.7434 45.9116 39.7651 45.9333 39.7978 45.955C39.8361 45.9813 39.8724 46.0104 39.9065 46.042C39.9416 46.0639 39.9744 46.0894 40.0043 46.1181C40.0356 46.1407 40.0647 46.1662 40.0913 46.1942C40.1239 46.216 40.1457 46.2486 40.1783 46.2703L40.1781 46.2698C40.2542 46.3459 40.2542 46.3459 40.3303 46.422L40.3305 46.4225C40.3585 46.4451 40.384 46.4706 40.4066 46.4986L40.4064 46.4986C40.4608 46.5639 40.4608 46.5639 40.5152 46.6292C40.5262 46.6508 40.5479 46.6617 40.5588 46.6834C40.5696 46.7052 40.6023 46.7378 40.624 46.7704L40.6349 46.7813C41.0589 47.227 41.385 47.9989 41.6351 48.8578Z" fill="#7A62B6"/>
<path d="M36.0258 44.3236L36.0149 44.2366V44.204C36.0149 44.1605 36.004 44.1279 36.004 44.0953C35.7757 42.2253 34.5363 41.1055 33.0252 40.4859C31.514 39.8662 29.7528 39.7575 28.5461 39.8988C28.5352 39.9749 28.5352 40.051 28.5243 40.1271C28.5261 40.1637 28.5224 40.2003 28.5134 40.2358C28.8287 40.2358 29.1875 40.2576 29.5571 40.2793H29.568C29.9597 40.269 30.3516 40.2799 30.7421 40.3119C31.3877 40.4042 32.0194 40.5759 32.6229 40.8229C33.2209 41.0838 33.7101 41.4317 33.8949 41.9209C34.0797 42.3884 33.9819 42.932 33.5253 43.5734L33.46 43.6713C33.46 43.6821 33.4492 43.6821 33.4383 43.693C33.4166 43.7156 33.3983 43.7413 33.3839 43.7691C32.3132 45.1438 31.0997 46.4011 29.7637 47.5198C29.1767 48.0143 28.5514 48.4615 27.8938 48.857C27.3176 49.1941 26.7848 49.4224 26.3608 49.4876C26.348 49.4905 26.3347 49.4908 26.3217 49.4885C26.3087 49.4863 26.2964 49.4815 26.2852 49.4744C26.2741 49.4673 26.2645 49.4581 26.257 49.4473C26.2494 49.4365 26.2441 49.4244 26.2413 49.4115C26.0999 48.9332 25.7412 48.5092 25.2302 48.096C24.6308 47.6372 23.9985 47.223 23.3385 46.8567C23.1754 46.7588 23.0124 46.6718 22.8493 46.574C21.5229 45.8239 20.0335 44.965 18.7724 43.7909C18.7398 43.7691 18.7181 43.7365 18.6854 43.7147L18.6637 43.7039L18.5659 43.606C18.0658 43.0951 17.8592 42.6384 17.8918 42.2253C17.9244 41.7796 18.2288 41.4208 18.642 41.1382C19.0986 40.8338 19.6965 40.6054 20.3162 40.4315C20.5771 40.3663 20.838 40.301 21.0881 40.2576C21.2946 40.2141 21.4903 40.1815 21.6752 40.1597V39.964C20.251 39.964 18.6963 39.9966 17.4243 40.4641C16.772 40.7033 16.1958 41.0403 15.761 41.5513C15.3261 42.0623 14.9999 42.7363 14.8695 43.6495C14.8363 43.9128 14.8623 44.1803 14.9456 44.4323L14.9782 44.5301L15.0217 44.628C15.2609 45.2042 15.7392 45.8021 16.4241 46.3783C17.5222 47.3024 19.1312 48.1504 21.012 48.7157C22.5231 49.1723 23.6212 49.5637 24.3822 49.9116C25.0997 50.2269 25.5346 50.5095 25.7629 50.7705C27.5459 50.5748 30.2094 50.129 32.3729 49.1397C34.5581 48.1504 36.1888 46.6392 36.0258 44.3236ZM16.5437 44.2148C16.5378 44.2141 16.5318 44.2147 16.5262 44.2166C16.5206 44.2185 16.5154 44.2216 16.5111 44.2257C16.517 44.2264 16.523 44.2258 16.5286 44.2239C16.5343 44.2221 16.5394 44.219 16.5437 44.2148Z" fill="#9E8FC4"/>
<path fill-rule="evenodd" clip-rule="evenodd" d="M35.9921 24.9718C35.9921 24.9065 35.9812 24.8413 35.9812 24.7761C35.983 24.7395 35.9793 24.7029 35.9703 24.6674C35.8995 23.6747 35.7688 22.6872 35.5789 21.7103C35.4736 21.697 35.3728 21.6597 35.2842 21.6013C35.1956 21.5428 35.1216 21.4648 35.068 21.3733C34.9889 21.2415 34.9303 21.0986 34.894 20.9493C34.8104 20.9599 34.7257 20.9406 34.6548 20.8949C34.5507 20.8305 34.4647 20.7407 34.4048 20.634C34.3127 20.4701 34.2433 20.2946 34.1982 20.1121C33.9765 20.1863 33.7346 20.1707 33.5242 20.0687C33.3371 19.9851 33.1675 19.8671 33.0241 19.7208C32.8979 19.7508 32.7667 19.7537 32.6393 19.7294C32.5119 19.705 32.391 19.6539 32.2848 19.5794C32.1384 19.487 32.0065 19.3734 31.8934 19.2424C31.8249 19.3281 31.7392 19.3985 31.6418 19.449C31.5445 19.4996 31.4376 19.5292 31.3281 19.5359C31.1201 19.5632 30.9086 19.5446 30.7084 19.4816C30.6839 19.5185 30.6502 19.5485 30.6106 19.5686C30.5491 19.6079 30.4769 19.6269 30.404 19.6229C30.2533 19.6108 30.1078 19.5623 29.98 19.4816C29.7196 19.3265 29.4818 19.1363 29.2734 18.9163C29.1562 19.0162 29.0187 19.0894 28.8704 19.1307C28.722 19.1721 28.5664 19.1805 28.4145 19.1554C28.1794 19.1216 27.9558 19.0321 27.7622 18.8945C27.475 19.0033 27.1579 19.0033 26.8707 18.8945C26.6524 18.8173 26.4471 18.7073 26.2619 18.5684C26.1774 18.6669 26.0687 18.7418 25.9466 18.7858C25.8144 18.8339 25.6716 18.8452 25.5335 18.8184C25.3663 18.7847 25.2074 18.7182 25.066 18.6227C25.0437 18.734 24.9953 18.8383 24.9247 18.9271C24.8302 19.0494 24.6953 19.1342 24.5442 19.1663C24.2977 19.2262 24.0405 19.2262 23.794 19.1663C23.6092 19.3946 23.3048 19.4381 23.0221 19.4055C22.7744 19.3708 22.5329 19.3013 22.3046 19.1989C22.2418 19.2868 22.155 19.3548 22.0546 19.3946C21.8912 19.4597 21.7189 19.5 21.5436 19.5142C21.2103 19.5402 20.8753 19.5329 20.5434 19.4925C20.4928 19.5942 20.4082 19.675 20.3042 19.7208C20.1708 19.7812 20.0267 19.8145 19.8802 19.8186C19.6166 19.825 19.3533 19.7958 19.0975 19.7316C18.9096 19.9734 18.6382 20.1363 18.3365 20.1882C18.1776 20.209 18.0161 20.1865 17.869 20.123C17.8184 20.2629 17.7346 20.3885 17.6247 20.4889C17.5149 20.5892 17.3823 20.6614 17.2384 20.6992C16.9949 20.7695 16.7394 20.788 16.4883 20.7536C16.386 20.9348 16.2619 21.1027 16.1186 21.2537C15.9472 21.4405 15.7352 21.5855 15.4989 21.6777C15.3175 22.6479 15.1941 23.6281 15.1293 24.613C15.1311 24.6496 15.1274 24.6862 15.1184 24.7217C15.1094 24.812 15.1058 24.9028 15.1076 24.9935C15.0236 26.4193 15.0746 27.8499 15.2598 29.2661L15.325 29.6901C15.3359 29.7879 15.3576 29.8858 15.3685 29.9836C15.5082 30.8216 15.7155 31.6469 15.9882 32.4515C16.6296 34.3323 17.6515 36.0174 19.2062 37.235C19.9983 37.8529 20.8924 38.3275 21.848 38.6375C21.9676 38.681 22.0763 38.7136 22.1959 38.7462C22.3155 38.7788 22.4568 38.8223 22.5982 38.8549C24.5095 39.2996 26.4952 39.3181 28.4145 38.9093C28.4495 38.8968 28.4861 38.8895 28.5232 38.8875C28.5585 38.8761 28.595 38.8688 28.6319 38.8658C29.8587 38.5743 31.0082 38.0218 32.0022 37.2459C33.5459 36.0283 34.5461 34.3432 35.1767 32.4624C35.4335 31.674 35.6298 30.8671 35.7638 30.0488C35.7746 29.9945 35.7746 29.951 35.7855 29.8966C35.7964 29.8097 35.8181 29.7227 35.829 29.6249C36.05 28.0842 36.1047 26.5242 35.9921 24.9718ZM19.565 23.7759C19.539 23.8018 19.5038 23.8164 19.4671 23.8164C19.4304 23.8164 19.3952 23.8018 19.3693 23.7759C19.3433 23.7499 19.3287 23.7147 19.3287 23.678C19.3287 23.6413 19.3433 23.6062 19.3693 23.5802C19.7824 23.1671 20.3586 22.9496 20.8804 22.8409C21.3234 22.7479 21.7773 22.7187 22.2285 22.754C22.2469 22.7554 22.2648 22.7606 22.2812 22.7691C22.2975 22.7777 22.312 22.7894 22.3237 22.8037C22.3354 22.818 22.3441 22.8345 22.3492 22.8522C22.3544 22.8699 22.3559 22.8885 22.3537 22.9068C22.3515 22.9252 22.3456 22.9428 22.3364 22.9588C22.3272 22.9748 22.3149 22.9888 22.3001 22.9999C22.2854 23.011 22.2686 23.019 22.2507 23.0235C22.2327 23.0279 22.2141 23.0287 22.1959 23.0257C21.774 22.9915 21.3495 23.0171 20.9348 23.1018C20.4347 23.2106 19.9237 23.4063 19.565 23.7759ZM22.8373 26.5808C22.7504 27.2005 22.3916 27.668 22.0328 27.6136C21.6741 27.5592 21.4566 27.0157 21.5545 26.396C21.6523 25.7763 22.0002 25.3088 22.359 25.3632C22.7177 25.4175 22.9243 25.9611 22.8373 26.5808ZM25.9684 27.8419C25.9915 27.8343 26.0166 27.8356 26.0388 27.8457C26.061 27.8558 26.0785 27.8738 26.088 27.8963C26.2184 28.255 26.3706 28.6247 26.5228 28.9399C26.6333 29.1984 26.7797 29.44 26.9577 29.6575C27.2404 29.951 27.4252 30.2554 27.3599 30.5924C27.2947 30.9295 26.9903 31.2665 26.4032 31.647C26.3925 31.6534 26.3807 31.6577 26.3683 31.6595C26.356 31.6613 26.3434 31.6607 26.3313 31.6577C26.3068 31.6516 26.2858 31.636 26.2728 31.6144C26.2598 31.5927 26.256 31.5669 26.2621 31.5424C26.2682 31.5179 26.2838 31.4969 26.3054 31.4839C26.8816 31.1034 27.1316 30.799 27.1751 30.5489C27.2186 30.2989 27.099 30.0597 26.8272 29.7771C26.6378 29.5456 26.4805 29.2896 26.3598 29.016C26.2076 28.6899 26.0553 28.3094 25.914 27.9506C25.8923 27.918 25.9249 27.8636 25.9684 27.8419ZM28.6754 33.0494C28.4311 33.5369 28.0995 33.9754 27.697 34.3432C27.2404 34.7454 26.6642 35.0498 26.0227 34.9411C25.4113 34.8278 24.8517 34.5232 24.4246 34.0714C24.0115 33.6474 23.7397 33.1364 23.6962 32.6798C23.696 32.6587 23.7009 32.6378 23.7103 32.6189C23.7198 32.6 23.7335 32.5836 23.7506 32.5711C23.7689 32.5593 23.7906 32.554 23.8122 32.556C23.8339 32.558 23.8542 32.5671 23.8701 32.582C24.2941 32.9081 25.153 33.2016 26.0771 33.2995C27.0012 33.3973 27.9361 33.2995 28.5123 32.8972C28.5315 32.8839 28.5542 32.8768 28.5776 32.8768C28.6009 32.8768 28.6237 32.8839 28.6428 32.8972C28.6629 32.9164 28.6768 32.9411 28.6826 32.9683C28.6884 32.9954 28.6859 33.0237 28.6754 33.0494ZM29.4799 27.6897C29.1212 27.7332 28.7733 27.2548 28.708 26.6351C28.6428 26.0155 28.8602 25.4719 29.219 25.4284C29.5778 25.3849 29.9257 25.8633 29.9909 26.4829C30.0561 27.1026 29.8387 27.6462 29.4799 27.6897ZM32.1326 23.7107C32.122 23.7258 32.1085 23.7386 32.0929 23.7485C32.0772 23.7583 32.0598 23.7649 32.0416 23.768C32.0234 23.771 32.0048 23.7704 31.9868 23.7661C31.9688 23.7619 31.9519 23.7541 31.9369 23.7433C31.5872 23.5048 31.2069 23.3146 30.8063 23.178C30.317 23.0149 29.7735 22.9388 29.2734 23.0692C29.2562 23.075 29.238 23.077 29.2201 23.075C29.2021 23.073 29.1848 23.0672 29.1693 23.0579C29.1538 23.0486 29.1405 23.0361 29.1303 23.0211C29.1201 23.0062 29.1133 22.9892 29.1103 22.9714C29.105 22.9535 29.1034 22.9348 29.1055 22.9163C29.1076 22.8978 29.1133 22.88 29.1225 22.8637C29.1316 22.8475 29.1439 22.8333 29.1586 22.8219C29.1733 22.8105 29.1901 22.8022 29.2081 22.7974C29.7735 22.6452 30.3823 22.7431 30.8932 22.917C31.3218 23.0582 31.7281 23.2595 32.1 23.515C32.1151 23.5256 32.128 23.5391 32.1378 23.5547C32.1476 23.5703 32.1543 23.5878 32.1573 23.606C32.1603 23.6242 32.1597 23.6428 32.1555 23.6608C32.1512 23.6788 32.1435 23.6957 32.1326 23.7107Z" fill="#82443A"/>
<path d="M29.4914 27.7016C29.1326 27.745 28.7848 27.2667 28.7195 26.647C28.6543 26.0273 28.8717 25.4837 29.2305 25.4402C29.5893 25.3968 29.9372 25.8751 30.0024 26.4948C30.0676 27.1145 29.8393 27.6581 29.4914 27.7016Z" fill="black"/>
<path d="M22.8386 26.5911C22.7516 27.2108 22.3928 27.6782 22.0341 27.6239C21.6753 27.5695 21.4579 27.0259 21.5557 26.4062C21.6535 25.7866 22.0014 25.3191 22.3602 25.3734C22.719 25.4278 22.9255 25.9714 22.8386 26.5911Z" fill="black"/>
<path fill-rule="evenodd" clip-rule="evenodd" d="M27.36 30.615C27.2948 30.952 26.9904 31.289 26.4033 31.6695C26.3926 31.676 26.3808 31.6802 26.3684 31.682C26.3561 31.6839 26.3435 31.6833 26.3314 31.6802C26.3069 31.6741 26.2859 31.6585 26.2729 31.6369C26.2599 31.6153 26.2561 31.5894 26.2622 31.5649C26.2683 31.5405 26.2839 31.5194 26.3055 31.5065C26.8817 31.1259 27.1317 30.8215 27.1752 30.5715C27.2187 30.3214 27.0991 30.0823 26.8273 29.7996C26.6379 29.5682 26.4806 29.3122 26.3599 29.0386C26.2077 28.7124 26.0554 28.3319 25.9141 27.9732C25.9098 27.9617 25.9078 27.9496 25.9083 27.9374C25.9087 27.9252 25.9115 27.9132 25.9165 27.9021C25.9216 27.891 25.9288 27.881 25.9377 27.8727C25.9466 27.8643 25.9571 27.8579 25.9685 27.8536C25.9799 27.8493 25.992 27.8473 26.0042 27.8477C26.0164 27.8481 26.0284 27.8509 26.0395 27.856C26.0506 27.861 26.0606 27.8682 26.069 27.8771C26.0773 27.886 26.0838 27.8965 26.0881 27.9079C26.2185 28.2667 26.3707 28.6363 26.5229 28.9516C26.6334 29.2101 26.7798 29.4516 26.9578 29.6691C27.2405 29.9627 27.4253 30.2671 27.36 30.615Z" fill="black"/>
<path fill-rule="evenodd" clip-rule="evenodd" d="M22.3593 22.9069C22.3575 22.9249 22.352 22.9423 22.3433 22.9581C22.3346 22.9739 22.3227 22.9878 22.3085 22.9989C22.2944 23.0101 22.2781 23.0183 22.2606 23.023C22.2432 23.0277 22.225 23.0289 22.2071 23.0265C21.7853 22.9922 21.3607 23.0179 20.946 23.1026C20.4459 23.2113 19.935 23.407 19.5653 23.7767C19.5394 23.8026 19.5042 23.8172 19.4675 23.8172C19.4308 23.8172 19.3956 23.8026 19.3696 23.7767C19.3437 23.7507 19.3291 23.7155 19.3291 23.6788C19.3291 23.6421 19.3437 23.6069 19.3696 23.581C19.7828 23.1678 20.359 22.9504 20.8808 22.8417C21.3237 22.7487 21.7777 22.7194 22.2289 22.7547C22.2646 22.7616 22.297 22.7804 22.3207 22.808C22.3444 22.8357 22.358 22.8705 22.3593 22.9069Z" fill="black"/>
<path fill-rule="evenodd" clip-rule="evenodd" d="M32.1325 23.721C32.1219 23.7361 32.1084 23.749 32.0928 23.7588C32.0771 23.7687 32.0597 23.7753 32.0415 23.7783C32.0233 23.7814 32.0047 23.7807 31.9867 23.7765C31.9687 23.7723 31.9518 23.7645 31.9368 23.7536C31.5871 23.5152 31.2068 23.325 30.8062 23.1883C30.317 23.0252 29.7734 22.9491 29.2733 23.0796C29.2561 23.0854 29.238 23.0873 29.22 23.0854C29.202 23.0834 29.1847 23.0776 29.1692 23.0683C29.1537 23.059 29.1404 23.0464 29.1302 23.0315C29.12 23.0166 29.1132 22.9996 29.1102 22.9818C29.1049 22.9639 29.1033 22.9452 29.1054 22.9267C29.1075 22.9082 29.1132 22.8903 29.1224 22.8741C29.1315 22.8579 29.1438 22.8437 29.1585 22.8323C29.1732 22.8209 29.1901 22.8126 29.208 22.8078C29.7734 22.6556 30.3822 22.7535 30.8931 22.9274C31.3217 23.0685 31.728 23.2698 32.0999 23.5253C32.115 23.536 32.1279 23.5495 32.1377 23.5651C32.1475 23.5807 32.1542 23.5981 32.1572 23.6164C32.1602 23.6346 32.1596 23.6532 32.1554 23.6712C32.1511 23.6891 32.1434 23.7061 32.1325 23.721Z" fill="black"/>
<path fill-rule="evenodd" clip-rule="evenodd" d="M28.6546 32.9306C28.6369 32.9149 28.6147 32.9053 28.5911 32.9033C28.5676 32.9014 28.5441 32.9071 28.5241 32.9197C27.9479 33.322 27.0129 33.4198 26.0888 33.322C25.1647 33.2242 24.3059 32.9306 23.8819 32.6045C23.866 32.5896 23.8456 32.5805 23.824 32.5785C23.8023 32.5766 23.7806 32.5819 23.7623 32.5936C23.7434 32.6042 23.7282 32.6203 23.7185 32.6396C23.7088 32.659 23.7051 32.6808 23.7079 32.7023C23.7406 33.1589 24.0232 33.6699 24.4363 34.0939C24.8635 34.5457 25.4231 34.8503 26.0345 34.9636C26.6759 35.0723 27.2521 34.7679 27.7087 34.3657C28.1113 33.9979 28.4429 33.5594 28.6872 33.0719C28.6935 33.0475 28.6939 33.0219 28.6882 32.9973C28.6825 32.9727 28.671 32.9498 28.6546 32.9306ZM27.5565 34.1917C27.1325 34.5722 26.6107 34.8332 26.0671 34.7462C25.5041 34.634 24.9885 34.3534 24.5885 33.9417C24.2995 33.6627 24.0863 33.3148 23.9689 32.9306C24.469 33.2242 25.2626 33.4633 26.0671 33.5503C26.8499 33.6373 27.6761 33.5829 28.2958 33.3003C28.0913 33.6298 27.8426 33.9298 27.5565 34.1917Z" fill="black"/>
<path fill-rule="evenodd" clip-rule="evenodd" d="M28.2957 33.3002C28.0916 33.6333 27.8428 33.9369 27.5564 34.2025C27.1324 34.583 26.6106 34.844 26.067 34.757C25.504 34.6448 24.9884 34.3642 24.5884 33.9525C24.2994 33.6735 24.0862 33.3256 23.9688 32.9414C24.4688 33.2349 25.2625 33.4741 26.067 33.5611C26.8389 33.6263 27.676 33.5828 28.2957 33.3002Z" fill="#AE5646"/>
<path d="M41.8624 48.8901C41.8515 48.8574 41.8407 48.814 41.8298 48.7813C41.8166 48.7255 41.7984 48.6709 41.7754 48.6183C41.7646 48.5639 41.7428 48.5095 41.732 48.4661C41.7211 48.4226 41.6993 48.3682 41.6776 48.3139C41.6558 48.2595 41.645 48.2051 41.6232 48.1508C41.6015 48.0964 41.5906 48.0638 41.5798 48.0203C41.5591 47.9569 41.5336 47.8951 41.5036 47.8355C41.4819 47.792 41.471 47.7485 41.4493 47.705C41.4481 47.6968 41.4443 47.6892 41.4384 47.6833C41.4167 47.6398 41.4058 47.5963 41.3841 47.5528C41.3841 47.542 41.3732 47.5311 41.3732 47.5202L41.308 47.3898C41.2855 47.3356 41.2563 47.2844 41.221 47.2376C41.2015 47.1965 41.1798 47.1565 41.1558 47.118C41.1401 47.0875 41.1219 47.0584 41.1014 47.031C41.0797 46.9984 41.0579 46.9549 41.0362 46.9223C41.0362 46.9194 41.035 46.9166 41.033 46.9146C41.0309 46.9126 41.0282 46.9114 41.0253 46.9114C41.0144 46.9005 41.0144 46.8897 41.0035 46.8788L40.9383 46.7809C40.9166 46.7483 40.8948 46.7266 40.8731 46.694C40.8513 46.6614 40.8296 46.6396 40.8079 46.607C40.7861 46.5744 40.7752 46.5635 40.7535 46.5418C40.7318 46.52 40.7318 46.5092 40.7209 46.4983C40.6983 46.467 40.6728 46.4379 40.6448 46.4113C40.6448 46.4004 40.6339 46.4004 40.6339 46.3896C40.6117 46.358 40.5862 46.3288 40.5578 46.3026C40.5361 46.2808 40.5252 46.2591 40.5035 46.2482L40.4382 46.183L40.3404 46.0852C40.3066 46.0499 40.2703 46.0172 40.2317 45.9873C40.2099 45.9764 40.199 45.9547 40.1773 45.9438C40.1121 45.8895 40.0468 45.8351 39.9707 45.7808C39.9381 45.759 39.9164 45.7373 39.8838 45.7155C39.8312 45.6819 39.7804 45.6456 39.7316 45.6068C39.6228 45.5416 39.525 45.4655 39.4163 45.4002C39.3858 45.3846 39.3567 45.3664 39.3293 45.3459L39.0358 45.1828C38.9814 45.1502 38.9271 45.1285 38.8727 45.0958C38.677 44.998 38.4596 44.9002 38.253 44.8132C38.2185 44.8033 38.1856 44.7887 38.1552 44.7697C38.1008 44.7479 38.0465 44.7262 37.9812 44.7045C37.9395 44.6851 37.8957 44.6705 37.8508 44.661C37.8181 44.6501 37.7747 44.6284 37.742 44.6175C37.6605 44.5837 37.577 44.5546 37.492 44.5305C37.4159 44.5088 37.3398 44.4762 37.2637 44.4544C37.1876 44.4327 37.0897 44.4001 37.0028 44.3674C36.9251 44.347 36.8489 44.3216 36.7745 44.2913C36.6854 44.2609 36.5946 44.2355 36.5027 44.2152C36.4157 44.1935 36.3179 44.1609 36.2309 44.1391C36.0243 42.117 34.6871 40.9211 33.1107 40.2688C31.5778 39.6383 29.8057 39.5187 28.5664 39.66C28.5881 39.4534 28.599 39.2469 28.6207 39.0729C29.9065 38.7792 31.1124 38.2078 32.154 37.3987C33.7413 36.1484 34.7632 34.4199 35.3938 32.5173C35.6581 31.7081 35.8581 30.8793 35.9917 30.0386C36.4197 29.9925 36.8226 29.8138 37.1441 29.5276C37.6007 29.1253 37.9812 28.4513 38.0356 27.3859C38.0899 26.3205 37.7529 25.6355 37.2963 25.2115C36.9849 24.934 36.5997 24.7527 36.1874 24.6897C36.1184 23.6819 35.984 22.6796 35.7851 21.6891C35.8531 21.6662 35.9133 21.6248 35.9591 21.5695C36.0289 21.4774 36.0738 21.3688 36.0896 21.2543C36.1176 21.0475 36.1066 20.8373 36.0569 20.6346C36.1486 20.4152 36.1695 20.1727 36.1169 19.9408C36.0643 19.7089 35.9407 19.4992 35.7634 19.3408C35.8262 19.2005 35.8595 19.0488 35.8612 18.8951C35.8644 18.7987 35.8444 18.7029 35.8027 18.6158C35.7611 18.5288 35.6991 18.4531 35.6221 18.395C35.7078 18.2382 35.7701 18.0697 35.8069 17.8949C35.8231 17.7816 35.8119 17.666 35.7743 17.5579C35.751 17.4931 35.7095 17.4364 35.6547 17.3948C35.7241 17.3305 35.7732 17.2474 35.796 17.1556C35.8176 17.0676 35.806 16.9747 35.7634 16.8947C35.7284 16.834 35.6801 16.7819 35.6221 16.7425C35.6961 16.6182 35.7266 16.4729 35.709 16.3294C35.6764 16.1337 35.5134 15.9815 35.2198 15.8945C35.2399 15.8185 35.2425 15.7389 35.2275 15.6617C35.2124 15.5845 35.1801 15.5117 35.1328 15.4488C35.0024 15.2857 34.7632 15.1987 34.3936 15.2313C34.4077 15.1223 34.4003 15.0114 34.3718 14.9052C34.333 14.8071 34.2696 14.7205 34.1878 14.6539C34.1059 14.5873 34.0083 14.5428 33.9043 14.5247C33.9114 14.3748 33.8815 14.2255 33.8174 14.0898C33.7683 13.9972 33.6926 13.9214 33.5999 13.8724C33.5145 13.8352 33.421 13.8202 33.3281 13.8289C33.2642 13.608 33.1308 13.4136 32.9476 13.2744C32.8855 13.2344 32.816 13.207 32.7432 13.194C32.6705 13.1809 32.5958 13.1824 32.5236 13.1983C32.4011 13.2254 32.2883 13.2856 32.1975 13.3723C32.1817 13.3037 32.1561 13.2378 32.1214 13.1766C32.0743 13.0968 32.0014 13.0355 31.9148 13.0027C31.8523 12.9795 31.7858 12.9684 31.7191 12.97C31.7428 12.6881 31.6658 12.4069 31.5017 12.1764C31.3847 12.0221 31.2139 11.9173 31.0233 11.8829C30.7981 11.8508 30.5686 11.8656 30.3493 11.9264C30.307 11.7419 30.2036 11.5771 30.0558 11.4589C29.9471 11.3741 29.8131 11.3282 29.6753 11.3284C29.5345 11.3325 29.3967 11.3698 29.273 11.4371C29.242 11.3533 29.2019 11.2731 29.1534 11.198C29.0805 11.0743 28.9753 10.9728 28.849 10.9044C28.7781 10.8701 28.7007 10.8513 28.6219 10.8495C28.5431 10.8476 28.4649 10.8626 28.3924 10.8935C28.2631 10.9512 28.148 11.0365 28.0554 11.1436V11.1327C28.0324 11.0347 27.9836 10.9446 27.914 10.8718C27.8721 10.8319 27.8226 10.8007 27.7685 10.7802C27.7143 10.7597 27.6566 10.7502 27.5988 10.7522C27.4684 10.757 27.3413 10.7943 27.2291 10.8609C27.063 10.6942 26.8511 10.5807 26.6203 10.5348C26.4731 10.5105 26.3221 10.5415 26.1963 10.6218C26.0919 10.6904 26.006 10.7838 25.9463 10.8935C25.881 10.8283 25.8158 10.7522 25.7397 10.687C25.6265 10.5753 25.4827 10.4997 25.3266 10.4696C25.244 10.4509 25.158 10.4531 25.0764 10.4759C24.9948 10.4986 24.9202 10.5413 24.8591 10.6C24.7539 10.7005 24.6722 10.823 24.6199 10.9588C24.5946 10.9164 24.5655 10.8764 24.533 10.8392C24.4689 10.7641 24.3887 10.7046 24.2983 10.6651C24.2079 10.6255 24.1097 10.607 24.0111 10.6109C23.7112 10.632 23.4274 10.7547 23.2066 10.9588C23.0119 10.8369 22.7835 10.7798 22.5543 10.7957C22.4034 10.811 22.2619 10.876 22.1521 10.9805C22.0565 11.0761 21.9823 11.191 21.9346 11.3175C21.9129 11.2958 21.8911 11.2849 21.8694 11.2632C21.7892 11.205 21.6958 11.1677 21.5976 11.1545C21.5436 11.1483 21.4889 11.1549 21.4379 11.1738C21.3869 11.1927 21.3411 11.2233 21.3041 11.2632C21.2278 11.3455 21.1752 11.4469 21.1519 11.5567C20.9814 11.5402 20.8101 11.5782 20.6626 11.6654C20.559 11.7358 20.4824 11.8393 20.4452 11.959C20.4327 12.0014 20.4254 12.0452 20.4235 12.0894C20.332 12.012 20.2242 11.9562 20.1082 11.9264C19.9741 11.8997 19.835 11.9229 19.7168 11.9916C19.5828 12.0823 19.4742 12.2058 19.4015 12.3504C19.1274 12.3364 18.8562 12.4128 18.6296 12.5678C18.3796 12.7526 18.2056 13.0679 18.26 13.5571C18.0217 13.5314 17.7821 13.5932 17.586 13.7311C17.3468 13.905 17.2055 14.2203 17.2272 14.7095C17.0742 14.6137 16.8967 14.5646 16.7162 14.5682C16.6426 14.5723 16.5707 14.5918 16.5051 14.6255C16.4396 14.6592 16.3818 14.7064 16.3357 14.7639C16.225 14.9059 16.1537 15.0747 16.1292 15.2531C15.9402 15.2861 15.7678 15.3819 15.6399 15.5249C15.5555 15.6211 15.5091 15.7448 15.5095 15.8728C15.5172 16.0042 15.5584 16.1314 15.6291 16.2424C15.5648 16.3149 15.5167 16.4001 15.4877 16.4925C15.4659 16.5707 15.4659 16.6534 15.4877 16.7316C15.3278 16.7033 15.1629 16.7301 15.0202 16.8077C14.7702 16.9599 14.6289 17.3078 14.6941 17.9058C14.6112 18.0635 14.5665 18.2386 14.5636 18.4167C14.5635 18.5169 14.5859 18.6158 14.6292 18.7062C14.6725 18.7965 14.7355 18.8759 14.8137 18.9386C14.7496 19.0313 14.7018 19.1342 14.6723 19.243C14.6335 19.4323 14.6644 19.6292 14.7593 19.7974C14.633 19.9058 14.5358 20.0441 14.4767 20.1997C14.4385 20.3125 14.4385 20.4348 14.4767 20.5476C14.5149 20.6698 14.5865 20.779 14.6832 20.8629C14.6529 21.0493 14.6716 21.2404 14.7376 21.4173C14.7817 21.5278 14.8623 21.6198 14.9659 21.6782C15.0639 21.7252 15.1731 21.744 15.2812 21.7326C15.1035 22.6921 14.9837 23.6614 14.9224 24.6353C14.5038 24.7064 14.1169 24.9036 13.8135 25.2007C13.3786 25.6247 13.0307 26.3205 13.0307 27.3967C13.0307 28.473 13.4004 29.1471 13.8787 29.5385C14.2377 29.835 14.6853 30.0034 15.1507 30.0168C15.2889 30.8704 15.4998 31.7106 15.7813 32.5282C16.4336 34.4416 17.4772 36.1593 19.0645 37.4096C19.8278 38.0051 20.6835 38.4715 21.5976 38.7903C21.6194 39.0512 21.6411 39.3882 21.6628 39.747C20.2495 39.747 18.6623 39.7796 17.3468 40.2579C16.6727 40.508 16.0639 40.8668 15.5964 41.4103C15.129 41.9539 14.7919 42.6715 14.6506 43.6173C14.6097 43.9172 14.6395 44.2225 14.7376 44.5088C14.7267 44.5088 14.705 44.5196 14.6941 44.5196C14.5528 44.5631 14.4114 44.6175 14.2701 44.6718C14.2266 44.6827 14.194 44.7045 14.1505 44.7153C14.0635 44.7479 13.9874 44.7806 13.9005 44.8132C13.6395 44.9219 13.3786 45.0306 13.1286 45.1611L12.9329 45.2589C12.93 45.2589 12.9272 45.2601 12.9252 45.2621C12.9232 45.2641 12.922 45.2669 12.922 45.2698C12.9111 45.2807 12.8894 45.2807 12.8785 45.2915C12.7915 45.335 12.7154 45.3785 12.6393 45.422C12.3644 45.5757 12.0994 45.7463 11.8457 45.933C11.824 45.9547 11.8022 45.9656 11.7805 45.9873C11.737 46.0199 11.6935 46.0525 11.6609 46.0743C11.6283 46.096 11.5957 46.1286 11.563 46.1504C11.51 46.1912 11.4592 46.2347 11.4108 46.2808L11.3456 46.3461C11.313 46.3787 11.2695 46.4113 11.2369 46.4439C11.2052 46.4701 11.1761 46.4992 11.1499 46.5309L11.0195 46.6614C10.9651 46.7157 10.9107 46.7809 10.8455 46.8462C10.8168 46.8761 10.7913 46.9089 10.7694 46.944C10.7585 46.9658 10.7368 46.9766 10.7259 46.9875C10.7151 46.9984 10.6933 47.0201 10.6824 47.031C10.6607 47.0636 10.6281 47.0962 10.6063 47.1288L10.5085 47.2593C10.4433 47.3463 10.3889 47.4332 10.3345 47.5202C10.3052 47.5612 10.2797 47.6049 10.2584 47.6507C10.2367 47.6833 10.215 47.7268 10.1932 47.7594C10.1708 47.7933 10.1526 47.8298 10.1389 47.8681C10.128 47.8899 10.1171 47.9007 10.1062 47.9225C10.0873 47.9529 10.0726 47.9858 10.0628 48.0203C10.0519 48.0312 10.0519 48.0529 10.041 48.0638C10.0301 48.0747 10.0301 48.0964 10.0193 48.1073C10.0084 48.1399 9.98666 48.1725 9.97578 48.2051C9.96491 48.2378 9.95404 48.2595 9.94317 48.2812C9.9323 48.303 9.9323 48.303 9.9323 48.3247C9.92143 48.3682 9.89968 48.4008 9.88881 48.4443C9.87794 48.4878 9.86707 48.5204 9.8562 48.553C9.84532 48.5856 9.82358 48.64 9.81271 48.6944C9.79097 48.7705 9.75835 48.8574 9.72574 48.9444C9.71486 48.977 9.70399 49.0205 9.69312 49.064C9.69312 49.0749 9.68225 49.0966 9.68225 49.1075L9.64963 49.2053C9.6434 49.2273 9.64425 49.2507 9.65205 49.2722C9.65986 49.2936 9.67423 49.3121 9.69312 49.3249C9.84532 49.4228 9.99753 49.5206 10.1606 49.6185C11.5957 50.5208 13.2373 51.5536 15.4877 52.3907C15.5638 52.4233 15.6399 52.4451 15.7269 52.4777L16.2161 52.6408C16.4662 52.7278 16.738 52.8039 17.0098 52.8908C17.1511 52.9343 17.3033 52.9778 17.4555 53.0104L17.5533 53.043C17.6403 53.0648 17.7382 53.0974 17.836 53.1191C18.01 53.1626 18.1948 53.2061 18.3796 53.2496C18.4448 53.2605 18.51 53.2822 18.5644 53.2931C18.771 53.3366 18.9884 53.3801 19.2058 53.4235C19.2518 53.4369 19.2993 53.4442 19.3472 53.4453C19.4233 53.4562 19.4885 53.4779 19.5646 53.4888C19.6624 53.5105 19.7712 53.5214 19.8799 53.5431C19.9669 53.554 20.0647 53.5757 20.1517 53.5866C20.2386 53.5975 20.3365 53.6192 20.4235 53.6301C20.467 53.641 20.5104 53.641 20.5648 53.6518C20.6626 53.6627 20.7605 53.6845 20.8583 53.6953C20.9562 53.7062 21.0866 53.728 21.1954 53.7388C21.2388 53.7497 21.2932 53.7497 21.3367 53.7606L21.5867 53.7932C21.652 53.8041 21.7172 53.8041 21.7824 53.8149C21.8477 53.8258 21.9129 53.8258 21.989 53.8367C22.2825 53.8693 22.5869 53.891 22.8913 53.9128C22.9457 53.9128 23.0109 53.9236 23.0653 53.9236C23.1523 53.9345 23.2501 53.9345 23.3371 53.9454C23.431 53.9544 23.5254 53.9581 23.6197 53.9563C23.7393 53.9671 23.8589 53.9671 23.9785 53.978C24.1198 53.978 24.2503 53.9889 24.3916 53.9889C24.4786 53.9889 24.5656 53.9997 24.6525 53.9997H25.7615C30.3167 53.9997 34.3283 52.7386 37.1985 51.4884C38.3606 50.9835 39.4898 50.4062 40.5796 49.7598C40.7752 49.6402 40.9492 49.5315 41.1014 49.4336C41.134 49.4119 41.1775 49.3901 41.2101 49.3684L41.4058 49.2379C41.4384 49.2162 41.4602 49.2053 41.4928 49.1836C41.5304 49.1643 41.5667 49.1425 41.6015 49.1184C41.6558 49.0857 41.6993 49.0531 41.732 49.0314C41.7528 49.0156 41.7746 49.0011 41.7972 48.9879C41.8081 48.9879 41.8081 48.977 41.8189 48.977C41.8624 48.977 41.8733 48.9335 41.8624 48.8901ZM40.9601 46.9875C40.9057 46.9114 40.8622 46.8462 40.8079 46.7809C40.8622 46.8462 40.9057 46.9223 40.9601 46.9875ZM36.2091 24.9289C36.5624 24.9917 36.8905 25.1538 37.155 25.3964C37.5572 25.766 37.8725 26.3748 37.8181 27.3967C37.7638 28.4187 37.4159 29.0275 37.0028 29.3863C36.7288 29.6297 36.3878 29.785 36.0243 29.832C36.2687 28.2096 36.3307 26.565 36.2091 24.9289ZM14.0418 29.3754C13.6178 29.0275 13.2699 28.4187 13.2699 27.3967C13.2699 26.3748 13.5961 25.7334 13.9874 25.3529C14.2479 25.1044 14.5711 24.9315 14.9224 24.8528C14.8227 26.5011 14.8956 28.1553 15.1398 29.7885C14.7376 29.7789 14.3506 29.6333 14.0418 29.3754ZM19.2167 37.2465C17.6621 36.0289 16.6401 34.3438 15.9987 32.463C15.7298 31.6573 15.5226 30.8322 15.379 29.9951C15.3681 29.8972 15.3464 29.7994 15.3355 29.7015L15.2703 29.2776C15.0907 27.8609 15.0397 26.4308 15.1181 25.005C15.1181 24.918 15.129 24.8202 15.129 24.7332C15.1272 24.6966 15.1308 24.66 15.1398 24.6245C15.21 23.6401 15.3334 22.6602 15.5095 21.6891C15.7472 21.5998 15.9598 21.4543 16.1292 21.2651C16.2724 21.1142 16.3965 20.9463 16.4988 20.765C16.7497 20.8049 17.0064 20.7863 17.2489 20.7107C17.3918 20.6707 17.5233 20.5978 17.6329 20.4977C17.7424 20.3976 17.8269 20.2732 17.8795 20.1345C18.0266 20.1979 18.1881 20.2205 18.347 20.1997C18.6487 20.1477 18.9202 19.9849 19.108 19.7431C19.3628 19.8126 19.6269 19.8419 19.8908 19.8301C20.0373 19.8272 20.1817 19.7939 20.3147 19.7322C20.4141 19.6798 20.497 19.6008 20.5539 19.5039C20.8858 19.5444 21.2208 19.5517 21.5541 19.5257C21.7295 19.5115 21.9017 19.4712 22.0651 19.4061C22.1655 19.3662 22.2523 19.2983 22.3151 19.2104C22.5434 19.3127 22.7849 19.3823 23.0327 19.4169C23.3045 19.4496 23.6197 19.4169 23.8046 19.1778C24.0503 19.2431 24.3089 19.2431 24.5547 19.1778C24.7021 19.1368 24.8344 19.0537 24.9352 18.9386C25.0016 18.8473 25.0496 18.7439 25.0765 18.6342C25.2169 18.7316 25.3762 18.7982 25.544 18.8299C25.6821 18.8566 25.8249 18.8454 25.9571 18.7973C26.0778 18.7505 26.1858 18.676 26.2724 18.5798C26.4602 18.7148 26.6649 18.8244 26.8812 18.906C27.1685 19.0147 27.4855 19.0147 27.7727 18.906C27.9653 19.0454 28.1894 19.1351 28.425 19.1669C28.577 19.1913 28.7324 19.1825 28.8806 19.1412C29.0289 19.1 29.1664 19.0271 29.2839 18.9277C29.5003 19.1389 29.737 19.3283 29.9905 19.493C30.1191 19.5722 30.2642 19.6206 30.4145 19.6344C30.4872 19.637 30.5591 19.6181 30.6211 19.58C30.6563 19.5541 30.6891 19.525 30.7189 19.493C30.9211 19.5454 31.1305 19.5637 31.3386 19.5474C31.4478 19.5394 31.5543 19.5093 31.6515 19.4588C31.7487 19.4083 31.8346 19.3386 31.904 19.2539C32.0167 19.3853 32.1486 19.4989 32.2953 19.5909C32.4027 19.663 32.5235 19.7126 32.6506 19.7369C32.7776 19.7612 32.9082 19.7596 33.0346 19.7322C33.178 19.8786 33.3476 19.9966 33.5347 20.0801C33.7451 20.1821 33.987 20.1977 34.2087 20.1236C34.2519 20.3067 34.3215 20.4825 34.4153 20.6454C34.4751 20.7523 34.5612 20.8421 34.6654 20.9064C34.7366 20.951 34.821 20.9702 34.9045 20.9607C34.9408 21.11 34.9994 21.253 35.0785 21.3847C35.1333 21.4753 35.2076 21.5525 35.296 21.6108C35.3844 21.6691 35.4846 21.707 35.5895 21.7217C35.7786 22.6988 35.9093 23.6862 35.9808 24.6788C35.9791 24.7154 35.9827 24.752 35.9917 24.7875C35.9917 24.8528 36.0026 24.918 36.0026 24.9832C36.1084 26.5318 36.0574 28.0871 35.8504 29.6254C35.8395 29.7124 35.8286 29.7994 35.8069 29.8972C35.796 29.9516 35.796 29.9951 35.7851 30.0494C35.6512 30.8677 35.4549 31.6746 35.1981 32.463C34.5784 34.3438 33.5673 36.0289 32.0235 37.2465C31.0283 38.0203 29.8793 38.5726 28.6533 38.8664L28.6532 38.8666C28.5446 38.8883 28.5446 38.8883 28.436 38.91L28.4359 38.9099C26.5166 39.3187 24.5309 39.3002 22.6195 38.8555C22.4782 38.8229 22.3478 38.7903 22.2173 38.7468C22.0994 38.7171 21.9832 38.6808 21.8694 38.6381C20.9092 38.3363 20.0108 37.865 19.2167 37.2465ZM32.5454 41.0298C33.1325 41.2799 33.5456 41.606 33.6978 42.0083C33.85 42.4105 33.7739 42.8998 33.2955 43.5412C32.1866 43.3564 31.1538 43.2259 30.3384 43.1281L30.0666 43.0954C29.697 43.052 29.3709 43.0085 29.1317 42.9759C28.9795 42.9541 28.8599 42.9324 28.762 42.9106C28.7265 42.9002 28.6901 42.8929 28.6533 42.8889C28.6207 42.878 28.6207 42.878 28.6098 42.878C28.601 42.8683 28.5937 42.8573 28.5881 42.8454C28.5772 42.8237 28.5664 42.791 28.5446 42.7476C28.5162 42.6298 28.498 42.5097 28.4902 42.3888C28.4597 42.0163 28.4524 41.6424 28.4685 41.269C28.4794 40.9755 28.4902 40.6602 28.512 40.3558C29.7296 40.3558 31.4039 40.5406 32.5454 41.0298ZM19.5429 43.6608C19.6951 43.639 19.8473 43.6064 19.9886 43.5847C20.4887 43.4977 20.9127 43.4216 21.228 43.3455C21.3624 43.3103 21.4934 43.263 21.6193 43.2042C21.668 43.1868 21.7124 43.1594 21.7499 43.1239C21.7873 43.0883 21.8169 43.0453 21.8368 42.9976C21.91 42.7281 21.9502 42.4506 21.9564 42.1714C21.9781 41.8235 21.9781 41.4212 21.9672 41.0081C21.9672 40.7907 21.9564 40.5623 21.9455 40.334V40.2253C21.9473 40.1887 21.9436 40.1521 21.9346 40.1166C21.9129 39.6491 21.8803 39.2034 21.8477 38.8555C23.0714 39.2395 24.3485 39.4267 25.631 39.41C26.5626 39.4164 27.4921 39.3216 28.4033 39.1273C28.3815 39.323 28.3598 39.5295 28.3489 39.747C28.3507 39.7836 28.347 39.8202 28.338 39.8557C28.3272 39.9427 28.3272 40.0296 28.3163 40.1166C28.3181 40.1532 28.3144 40.1898 28.3054 40.2253C28.2964 40.2608 28.2928 40.2975 28.2946 40.334C28.2728 40.6385 28.2619 40.9537 28.2511 41.2364C28.2352 41.617 28.2424 41.9982 28.2728 42.3779C28.2804 42.5139 28.3023 42.6487 28.338 42.7802C28.3476 42.8301 28.366 42.878 28.3924 42.9215C28.4128 42.9671 28.447 43.0051 28.4902 43.0302C28.5207 43.0492 28.5536 43.0638 28.5881 43.0737C28.6309 43.0872 28.6745 43.0981 28.7186 43.1063C28.8164 43.1281 28.9469 43.1498 29.0991 43.1716C29.3491 43.2042 29.6753 43.2477 30.0449 43.2911L30.3167 43.3238C31.1103 43.4216 32.0888 43.5412 33.1433 43.7151C32.1019 45.0443 30.921 46.258 29.6209 47.3354C29.0429 47.8233 28.4287 48.2667 27.7836 48.6617C27.3657 48.9302 26.9066 49.1286 26.4246 49.2488C26.2507 48.7487 25.8702 48.3139 25.381 47.9116C24.7715 47.4443 24.1283 47.0228 23.4567 46.6505C23.2936 46.5526 23.1305 46.4657 22.9674 46.3678C21.6846 45.6394 20.2713 44.824 19.0645 43.726C19.2252 43.7142 19.3849 43.6924 19.5429 43.6608ZM18.8471 43.5629C18.2817 43.0302 18.0969 42.5954 18.1295 42.2366C18.1622 41.8778 18.4013 41.5734 18.7927 41.3125C19.5537 40.8015 20.7931 40.4971 21.7281 40.3775C21.7389 40.595 21.7498 40.8124 21.7498 41.0298C21.7607 41.443 21.7607 41.8343 21.7389 42.1714C21.7326 42.4284 21.6962 42.6838 21.6302 42.9324C21.6302 42.9432 21.6085 42.9759 21.5215 43.0193C21.41 43.0711 21.2934 43.1111 21.1736 43.1389C20.8692 43.215 20.4561 43.2911 19.956 43.3781C19.8147 43.3999 19.6624 43.4216 19.5102 43.4542C19.3037 43.4868 19.0754 43.5194 18.8471 43.5629ZM14.8898 43.6499C15.0202 42.7476 15.3355 42.0626 15.7813 41.5517C16.2304 41.0493 16.8042 40.6742 17.4446 40.4645C18.7166 40.0079 20.2713 39.9753 21.6955 39.9644V40.1601C21.5106 40.1818 21.3041 40.2145 21.1084 40.2579C20.848 40.3015 20.5904 40.3596 20.3365 40.4319C19.7277 40.595 19.1189 40.8233 18.6623 41.1277C18.2491 41.4103 17.9447 41.7691 17.9121 42.2148C17.8795 42.628 18.0861 43.0954 18.5862 43.5955L18.684 43.6934L18.7057 43.7151C18.7384 43.7369 18.7601 43.7695 18.7927 43.7912C20.0538 44.9654 21.5432 45.8242 22.8696 46.5744C23.0327 46.6722 23.1957 46.7592 23.3588 46.857C24.0872 47.281 24.7504 47.6833 25.2505 48.0964C25.7506 48.5095 26.1094 48.9444 26.2616 49.4119C26.2644 49.4248 26.2697 49.4369 26.2773 49.4477C26.2848 49.4585 26.2944 49.4677 26.3055 49.4748C26.3167 49.4819 26.3291 49.4867 26.342 49.4889C26.355 49.4912 26.3683 49.4909 26.3811 49.488C26.8051 49.4336 27.3379 49.2053 27.914 48.8574C28.5676 48.4555 29.1924 48.0087 29.784 47.5202C31.1225 46.4043 32.3364 45.1467 33.4042 43.7695C33.4259 43.7469 33.4442 43.7212 33.4586 43.6934L33.4803 43.6716L33.5456 43.5738C33.9913 42.9324 34.1 42.3888 33.9152 41.9213C33.7195 41.4321 33.2412 41.0842 32.6432 40.8233C32.0397 40.5762 31.408 40.4046 30.7624 40.3123C30.3602 40.2797 29.9579 40.2797 29.5883 40.2797H29.5774C29.2078 40.2471 28.849 40.2362 28.5337 40.2362C28.532 40.1996 28.5356 40.163 28.5446 40.1275C28.5465 40.051 28.5537 39.9747 28.5664 39.8992C29.7731 39.7578 31.5343 39.8666 33.0455 40.4862C34.5566 41.1059 35.796 42.2257 36.0243 44.0956C36.0243 44.1283 36.0352 44.1717 36.0352 44.2044V44.237L36.0461 44.3239C36.2091 46.6396 34.5784 48.1508 32.4149 49.1401C30.2515 50.1294 27.5879 50.5752 25.8049 50.7709C25.5766 50.5099 25.1418 50.2381 24.4242 49.912C23.3255 49.447 22.2001 49.0476 21.054 48.7161C19.1732 48.1399 17.5751 47.3028 16.4662 46.3787C15.7813 45.8025 15.292 45.2046 15.0637 44.6284L15.0202 44.5305L14.9876 44.4327C14.8872 44.1848 14.8535 43.9149 14.8898 43.6499ZM14.868 44.4762C14.8572 44.4762 14.8572 44.487 14.8463 44.487C14.8354 44.487 14.8572 44.4762 14.868 44.4762ZM14.7919 44.6066C14.8028 44.6066 14.8246 44.5957 14.8354 44.5957C14.8246 44.5957 14.8137 44.6066 14.7919 44.6066ZM14.3027 51.8254C14.4658 51.9015 14.618 51.9667 14.7919 52.032C14.6289 51.9667 14.4658 51.8906 14.3027 51.8254ZM41.6124 48.8901C41.5333 48.9401 41.4571 48.9946 41.3841 49.0531C41.1775 49.1945 40.8731 49.3793 40.4817 49.6185C39.3969 50.257 38.2751 50.8306 37.1224 51.3362C34.2631 52.5864 30.2841 53.8258 25.7723 53.8258C25.1092 53.8258 24.4786 53.8149 23.8698 53.7823C23.8046 53.7823 23.7393 53.7714 23.6741 53.7714L23.0762 53.7388C22.9892 53.728 22.8913 53.7279 22.8044 53.7171L22.4565 53.6845C22.3043 53.6736 22.1629 53.6627 22.0107 53.641C21.9346 53.6301 21.8585 53.6301 21.7824 53.6192C21.7063 53.6084 21.652 53.6084 21.5867 53.5975C21.5215 53.5866 21.4563 53.5866 21.391 53.5757L21.1301 53.5431C21.0105 53.5323 20.8801 53.5105 20.7605 53.4996C20.4887 53.467 20.2278 53.4235 19.9777 53.3801L19.7929 53.3474C19.7059 53.3366 19.619 53.3148 19.532 53.304C19.2602 53.2496 18.9993 53.2061 18.7384 53.1409L18.5753 53.1083C18.4448 53.0756 18.3252 53.0539 18.1948 53.0213C18.1404 53.0104 18.0752 52.9887 18.0208 52.9778C17.9121 52.9561 17.8143 52.9234 17.7055 52.9017C17.5968 52.88 17.5099 52.8473 17.412 52.8256C17.3446 52.8024 17.2755 52.7842 17.2054 52.7712C17.1207 52.7509 17.0372 52.7255 16.9554 52.6951C16.8742 52.6747 16.7943 52.6493 16.7162 52.619C16.5966 52.5864 16.477 52.5429 16.3683 52.5103C16.314 52.4886 16.2487 52.4777 16.1944 52.456C16.14 52.4342 16.0748 52.4233 16.0204 52.4016C16.0096 52.4016 15.9987 52.3907 15.9878 52.3907C15.8356 52.3364 15.6943 52.2929 15.553 52.2385C15.3573 52.1624 15.1724 52.0972 14.9876 52.0211C14.9224 51.9994 14.868 51.9667 14.8028 51.945C14.5854 51.858 14.3788 51.7602 14.1723 51.6732C14.0961 51.6406 14.0309 51.608 13.9548 51.5754C13.9439 51.5754 13.9331 51.5645 13.9222 51.5645C13.8461 51.5319 13.7809 51.4993 13.7048 51.4666L13.5091 51.3688L13.2482 51.2383C13.1612 51.1949 13.0742 51.1514 12.9981 51.1079C12.922 51.0644 12.8568 51.0318 12.7807 50.9992C12.6828 50.9448 12.5959 50.9013 12.498 50.847C12.4341 50.8148 12.3724 50.7785 12.3132 50.7382C12.1175 50.6295 11.9218 50.5208 11.737 50.4012L11.5739 50.3034C11.1173 50.0316 10.6824 49.7598 10.2693 49.4989C10.1389 49.4119 10.0084 49.3358 9.87794 49.2488C9.9323 49.0857 9.97578 48.9444 10.0193 48.8248V48.8139C10.0288 48.769 10.0434 48.7252 10.0628 48.6835C10.0628 48.6726 10.0736 48.6509 10.0736 48.64C10.0845 48.6074 10.0954 48.5639 10.1062 48.5313C10.1171 48.4987 10.128 48.4552 10.1389 48.4226C10.1523 48.3773 10.1705 48.3335 10.1932 48.2921C10.2093 48.2513 10.2274 48.2114 10.2476 48.1725C10.2636 48.1318 10.2818 48.0918 10.3019 48.0529C10.3346 47.9768 10.378 47.9007 10.4215 47.8138C10.4324 47.7811 10.4541 47.7594 10.465 47.7268C10.4756 47.7027 10.4903 47.6806 10.5085 47.6616C10.5169 47.6421 10.5279 47.6238 10.5411 47.6072C10.5493 47.5848 10.5645 47.5657 10.5846 47.5528C10.6146 47.504 10.6473 47.4568 10.6824 47.4115C10.7151 47.368 10.7477 47.3137 10.7803 47.2702L10.9107 47.1071C10.9542 47.0636 10.9869 47.0093 11.0303 46.9658C11.1391 46.8462 11.2478 46.7375 11.3674 46.6287C11.4045 46.5896 11.4444 46.5532 11.4869 46.52C11.5313 46.477 11.5785 46.4371 11.6283 46.4004L11.824 46.2374C11.8783 46.1939 11.9327 46.1613 11.987 46.1178C12.0197 46.096 12.0414 46.0743 12.074 46.0525C12.1392 46.0091 12.2154 45.9547 12.2806 45.9112C12.3153 45.8871 12.3517 45.8653 12.3893 45.846C12.4654 45.8025 12.5306 45.759 12.6067 45.7155C12.6502 45.6938 12.6937 45.6612 12.7372 45.6394C12.7807 45.6177 12.8024 45.6068 12.835 45.5851H12.8459C12.8738 45.5684 12.9028 45.5538 12.9329 45.5416L12.9438 45.5307L12.9438 45.5329C13.0639 45.4784 13.0639 45.4784 13.1839 45.4238L13.1829 45.422C13.2195 45.3974 13.2599 45.3791 13.3025 45.3676L13.433 45.3024L13.5634 45.2372L13.9548 45.0741C13.9983 45.0524 14.0418 45.0415 14.0853 45.0197H14.0961L14.2592 44.9545C14.4436 44.8779 14.6323 44.8126 14.8246 44.7588C14.8463 44.7588 14.8572 44.7479 14.8789 44.7479C14.8572 44.7588 14.8463 44.7588 14.8246 44.7697C15.0746 45.3894 15.5964 46.0308 16.3031 46.6179C17.4338 47.5637 19.0645 48.4226 20.967 48.9988C22.4782 49.4554 23.5654 49.8468 24.3155 50.1838C25.0657 50.5208 25.4788 50.8035 25.6527 51.0209C25.6639 51.036 25.6788 51.0479 25.6959 51.0555C25.7131 51.0631 25.7319 51.0662 25.7506 51.0644C27.5444 50.8687 30.2623 50.423 32.4802 49.4119C34.6545 48.4226 36.3831 46.8679 36.2526 44.4544L36.3831 44.487C36.6331 44.5523 36.8832 44.6284 37.1224 44.7153C37.2637 44.7588 37.405 44.8023 37.5355 44.8567C37.6007 44.8784 37.6659 44.9002 37.7203 44.9219C37.7844 44.9406 37.8464 44.9661 37.9051 44.998L38.0682 45.0632C38.1008 45.0741 38.1226 45.085 38.1552 45.0958C38.1878 45.1067 38.2313 45.1285 38.2748 45.1502C38.3182 45.1719 38.3509 45.1828 38.3943 45.2046C38.4725 45.2363 38.5487 45.2726 38.6227 45.3133C38.6553 45.3241 38.677 45.3459 38.7096 45.3568C38.7422 45.3676 38.764 45.3894 38.7966 45.4002C38.8075 45.4002 38.8183 45.4111 38.8292 45.4111C38.8944 45.4437 38.9488 45.4763 39.014 45.509C39.0793 45.5416 39.1227 45.5633 39.1662 45.5959C39.1771 45.5959 39.1771 45.5959 39.1771 45.6068C39.2097 45.6285 39.2423 45.6394 39.275 45.6612C39.3063 45.6753 39.3355 45.6936 39.3619 45.7155C39.4042 45.737 39.4442 45.7624 39.4815 45.7916C39.4924 45.7916 39.4924 45.8025 39.5033 45.8025C39.542 45.8241 39.5784 45.8496 39.612 45.8786L39.7098 45.9438C39.7362 45.9658 39.7655 45.9841 39.7968 45.9982C39.8351 46.0245 39.8714 46.0535 39.9055 46.0852C39.9407 46.1071 39.9735 46.1326 40.0034 46.1613C40.0371 46.1806 40.0667 46.2065 40.0903 46.2374C40.1229 46.2591 40.1447 46.2917 40.1773 46.3135C40.2534 46.3896 40.2534 46.3896 40.3295 46.4657C40.3575 46.4882 40.383 46.5138 40.4056 46.5418L40.4057 46.5419C40.4601 46.6071 40.4601 46.6071 40.5144 46.6723C40.5252 46.694 40.5469 46.7048 40.5578 46.7266C40.5687 46.7483 40.6013 46.7809 40.623 46.8136L40.6339 46.8244C41.0579 47.3137 41.3841 48.0855 41.6232 48.9444C41.6232 48.8792 41.6232 48.8792 41.6124 48.8901Z" fill="black"/>
</g>
</g>
<rect x="-2.4" y="-4.4" width="55.8" height="55.8" rx="27.9" stroke="#D4D4D4" stroke-width="0.8"/>
</g>
</g>
<rect x="0.5" y="0.5" width="51" height="51" rx="25.5" stroke="#6A7294"/>
<defs>
<clipPath id="clip0_530_2169">
<rect x="1" y="1" width="50" height="50" rx="25" fill="white"/>
</clipPath>
<clipPath id="clip1_530_2169">
<rect x="1" y="1" width="50" height="50" rx="25" fill="white"/>
</clipPath>
<clipPath id="clip2_530_2169">
<rect x="-2" y="-4" width="55" height="55" rx="27.5" fill="white"/>
</clipPath>
<clipPath id="clip3_530_2169">
<rect width="56.0326" height="56" fill="white" transform="translate(-2.5166 -2)"/>
</clipPath>
</defs>
</svg>
