<svg width="52" height="52" viewBox="0 0 52 52" fill="none" xmlns="http://www.w3.org/2000/svg">
<g clip-path="url(#clip0_530_2138)">
<rect x="1" y="1" width="50" height="50" rx="25" fill="#363A4D"/>
<g clip-path="url(#clip1_530_2138)">
<rect x="1" y="1" width="50" height="50" rx="25" fill="#363A4D"/>
<g clip-path="url(#clip2_530_2138)">
<rect x="-2" y="-4" width="55" height="55" rx="27.5" fill="#292C3A"/>
<g clip-path="url(#clip3_530_2138)">
<path d="M53 23.532C53.0016 28.2495 51.7904 32.8882 49.4826 37.0027C47.1747 41.1171 43.8478 44.5691 39.8214 47.0272C40.0811 46.8528 40.3307 46.6639 40.5689 46.4612C40.5844 46.4511 40.596 46.4362 40.6018 46.4187C40.6076 46.4013 40.6073 46.3823 40.601 46.365C40.5998 46.3475 40.5943 46.3305 40.585 46.3156C40.5757 46.3007 40.5628 46.2884 40.5476 46.2796C39.7786 45.8951 38.0272 45.3291 35.5388 45.1049H35.5068C34.7165 45.0194 33.3709 44.9874 33.2748 44.9874C33.2521 44.9896 33.2302 44.9969 33.2107 45.0087C32.4082 45.0073 31.6062 45.0465 30.8078 45.1262C30.6476 45.1049 28.8641 44.8058 28.768 43.7485C28.7359 43.3961 28.7146 42.7553 28.7146 42.0505C29.3553 42.2534 30.2524 41.9864 30.733 41.7728C30.8402 41.7212 30.9406 41.6567 31.032 41.5806C31.2563 41.4097 31.3951 41.3029 32.5379 41.7728C33.9689 42.3495 34.1184 42.2641 34.8233 41.3777C34.8874 41.2922 34.9621 41.2068 35.0369 41.1107C35.7097 40.299 36.6922 40.7689 37.2155 41.0252C37.3042 41.0731 37.3971 41.1124 37.4932 41.1427C37.9097 41.2602 39.3515 40.0748 39.7893 39.1136C39.8107 39.0922 39.8748 39.0602 39.9388 39.0175C40.3874 38.7398 41.3058 38.1524 41.3058 37.5971C41.3058 37.0097 41.434 36.7961 41.9252 36.5291C42.0566 36.4602 42.1922 36.3996 42.3311 36.3476C42.7476 36.1767 43.2282 35.9738 43.5699 35.3223C43.7835 34.9165 43.7515 34.7563 43.6874 34.5427C43.634 34.3718 43.5699 34.1903 43.8155 33.6136C44.1039 32.9194 44.2427 32.866 44.2854 32.8553C44.3922 32.8126 44.4029 32.7485 44.4029 32.6097C44.4029 32.2786 44.4029 31.6485 44.7447 30.3029C44.8162 29.9555 44.962 29.6277 45.1718 29.3417C45.3748 29.0534 45.3854 28.9359 45.0757 28.4233C44.5631 27.5903 44.3602 25.1233 44.4136 24.5573C44.4456 24.1942 44.2 23.9058 43.965 23.6388C43.8088 23.4789 43.679 23.295 43.5806 23.0942C43.4311 22.7738 43.4738 22.6777 43.6126 22.3786C43.6969 22.1952 43.7683 22.006 43.8262 21.8126C44.0291 21.1718 43.5913 20.9049 42.9825 20.5417C42.7583 20.4029 42.5019 20.2427 42.235 20.0505C41.968 19.8582 41.8291 19.6874 41.8078 19.5485C41.7864 19.3777 41.9466 19.1748 42.1602 18.8971C42.3564 18.6652 42.5349 18.4189 42.6942 18.1602C42.9184 17.7864 42.9718 17.4767 42.8544 17.2097C42.6194 16.7078 41.8184 16.4835 40.6864 16.3019C40.3019 16.2379 40.1951 16.1524 40.1631 16.099C40.1204 16.0029 40.2485 15.8107 40.3767 15.6078C40.601 15.266 40.8893 14.8282 40.7718 14.3049C40.7374 14.1022 40.6569 13.9102 40.5365 13.7436C40.4162 13.5769 40.2592 13.4401 40.0777 13.3437C39.8641 13.2155 39.7466 13.1515 39.8107 12.8417C39.9282 12.2116 39.2233 11.5922 38.6039 11.0476C38.4056 10.8801 38.2166 10.7018 38.0379 10.5136C37.6214 10.0544 36.8097 10.3107 36.0942 10.5243C35.7417 10.6311 35.4107 10.7379 35.1971 10.7165C34.9087 10.6951 34.866 10.4709 34.8447 9.90485C34.841 9.63226 34.8124 9.36058 34.7592 9.0932C34.567 8.31359 32.2922 8.38835 31.7369 8.42039C31.4592 7.28835 29.4621 7.16019 28.5971 7.16019C28.5178 7.16039 28.44 7.13818 28.3728 7.09612C28.2106 7.01467 28.0309 6.97433 27.8495 6.97864C27.4836 6.9922 27.121 7.05323 26.7709 7.16019C26.0874 7.33107 25.9272 7.48058 25.799 7.58738C25.7029 7.67281 25.6388 7.72621 25.3291 7.77961C25.0249 7.82558 24.7159 7.82917 24.4107 7.79029C24.1348 7.74884 23.8545 7.74524 23.5777 7.77961C23.3 7.82233 23.0544 8.02524 22.8194 8.22815C22.4136 8.5699 22.2 8.69806 21.9757 8.44175C21.8487 8.3035 21.69 8.19821 21.5133 8.13495C21.3365 8.07169 21.147 8.05237 20.9612 8.07864C20.4592 8.14272 20.0107 8.49514 19.7223 9.05048C19.4019 9.6699 19.0816 9.68058 18.5049 9.71262C18.1196 9.71956 17.7363 9.76972 17.3621 9.86213C16.7748 10.0117 16.3903 10.3534 16.0485 10.6524C15.6107 11.0476 15.2903 11.3252 14.7136 11.0796C13.934 10.7379 12.9087 10.9621 12.2786 11.3146C11.8835 11.5282 11.6485 11.7845 11.6058 12.0408C11.5204 12.5854 11.1786 12.6816 10.4951 12.6816C10.1214 12.6816 9.98252 13.0981 9.84369 13.5146C9.6835 13.9951 9.51262 14.4971 9 14.4757C8.87769 14.4661 8.75473 14.4821 8.63891 14.5225C8.52309 14.563 8.41693 14.627 8.32718 14.7107C7.86796 15.1592 7.86796 16.0883 7.86796 16.5903V16.665C7.86796 16.8466 7.69709 16.9214 7.39806 17.0602C7.01359 17.2204 6.53301 17.434 6.41553 18.0534C6.34078 18.4592 6.42621 18.865 6.51165 19.2282C6.63981 19.8155 6.7466 20.2748 6.18058 20.6058C5.40097 21.0544 5.31553 21.6311 5.21942 22.3039C5.18356 22.5741 5.13005 22.8416 5.05922 23.1049C4.90971 23.6388 5.04854 24.0233 5.14466 24.301C5.25146 24.6 5.29417 24.7282 5.09126 24.8883C4.84563 25.0806 4.79223 25.5078 4.78155 25.8282C4.76019 26.565 5.00583 27.6223 5.37961 27.9534C5.67864 28.2204 5.66796 28.3379 5.62524 28.9786C5.60388 29.2777 5.58252 29.6835 5.58252 30.2495C5.58252 31.5738 6.73592 32.065 7.4301 32.3534C7.61165 32.4282 7.8466 32.535 7.86796 32.5777C7.86796 32.6311 7.85728 32.6951 7.85728 32.7592C7.82524 33.0476 7.78252 33.4 8.22039 34.5534C8.48738 35.2583 8.66893 35.365 8.83981 35.4078H8.86117C8.8932 35.4612 8.8932 35.8029 8.8932 35.9097C8.8932 36.6252 9.13883 36.732 9.48058 36.8068C9.66214 36.8495 9.84369 36.8922 9.97184 37.1272C10.1748 37.4796 10.1427 37.5437 10.0786 37.6718C9.99548 37.8296 9.95499 38.0063 9.96116 38.1845C9.95993 38.2479 9.97161 38.3109 9.99547 38.3696C10.0193 38.4283 10.0549 38.4816 10.1 38.5262C10.4311 38.8466 11.2641 38.8466 11.9369 38.8359H12.2039C12.3961 38.8359 12.535 38.8786 12.6204 38.9748C12.7913 39.1563 12.7592 39.5515 12.7379 39.968V39.9893C12.7245 40.0933 12.7381 40.1991 12.7774 40.2963C12.8167 40.3935 12.8803 40.4791 12.9621 40.5447C13.2825 40.7903 13.9233 40.7903 14.7243 40.534C14.8884 40.4727 15.0646 40.4505 15.2388 40.469C15.413 40.4876 15.5806 40.5464 15.7282 40.6408C16.0137 40.8317 16.213 41.1269 16.2835 41.4631C16.283 41.5156 16.2954 41.5674 16.3196 41.6139C16.3438 41.6605 16.3791 41.7004 16.4223 41.7301C16.5825 41.8476 16.8495 41.7942 17.3408 41.6981C17.565 41.6553 17.832 41.6019 18.1631 41.5485C18.8573 41.4417 18.8786 41.5058 18.932 41.6553C18.9937 41.8531 19.127 42.0207 19.3058 42.1252C19.7437 42.3922 20.0534 42.1786 20.3738 41.933C20.5848 41.7592 20.8279 41.6286 21.0893 41.5485C21.8155 41.367 22.5097 41.7408 22.7233 42.0825C22.742 42.1096 22.7634 42.1347 22.7874 42.1573V43.7165C22.7019 44.1116 22.0398 44.9447 21.2388 45.1049C20.9718 45.1582 20.2456 45.1262 19.3165 45.0835C18.8466 45.0621 18.3233 45.0408 17.7786 45.0194C17.7686 45.003 17.7544 44.9895 17.7376 44.9801C17.7207 44.9708 17.7018 44.9659 17.6825 44.966H15.4825C15.4658 44.9652 15.4492 44.9687 15.4342 44.9762C15.4192 44.9836 15.4064 44.9949 15.3971 45.0087C13.2612 45.0621 11.1039 45.3184 9.90777 46.1728C2.72039 41.2068 -2 32.9087 -2 23.5107C-2 8.31359 10.3243 -4 25.5214 -4C40.6757 -3.97864 53 8.33495 53 23.532Z" fill="#363A4D"/>
<path d="M45.001 29.2138C44.7788 29.5241 44.6225 29.8767 44.5417 30.2497C44.2 31.6167 44.2 32.2575 44.2 32.5992V32.6526C44.1039 32.6953 43.933 32.7914 43.6233 33.5283C43.3563 34.1798 43.4311 34.4148 43.4845 34.607C43.5272 34.7565 43.5699 34.8633 43.3777 35.2157C43.068 35.8031 42.6621 35.9633 42.235 36.1448C42.0922 36.2001 41.9531 36.2643 41.8184 36.3371C41.2524 36.6468 41.0816 36.9351 41.0816 37.5973C41.0816 38.0351 40.1524 38.6118 39.8107 38.8361C39.6398 38.9429 39.5864 38.9749 39.5864 39.0283C39.1272 40.0109 37.7709 41.0148 37.5359 40.94C37.4506 40.913 37.3683 40.8772 37.2903 40.8332C36.7563 40.5769 35.6243 40.0322 34.8553 40.972C34.7806 41.0681 34.7058 41.1536 34.6417 41.239C33.9903 42.0507 33.9369 42.1148 32.6019 41.5701C31.4058 41.0895 31.1922 41.1856 30.8825 41.4099C30.8018 41.4704 30.716 41.524 30.6262 41.5701C30.2524 41.741 29.2913 42.0507 28.6932 41.8157C28.6932 40.8118 28.7039 39.7225 28.7252 39.1031C30.1777 38.3448 31.2883 37.1167 32.0466 36.0167C33.6165 33.7526 34.3641 31.1041 34.1078 30.4206C34.0116 30.1643 33.9049 29.908 33.7981 29.673C33.4563 28.8614 33.1786 28.2313 33.5417 27.8681C33.9049 27.505 33.5204 27.0565 33.2107 26.6934C32.9971 26.4478 32.7728 26.1914 32.8369 26.0419C32.8689 25.9565 32.9223 25.839 32.9864 25.7109C33.2214 25.241 33.5311 24.5895 33.3815 24.1623C33.3543 24.0865 33.3118 24.0171 33.2567 23.9583C33.2016 23.8996 33.135 23.8527 33.0612 23.8206C32.6767 23.639 32.4097 23.7672 32.1748 23.8633C31.9078 23.9808 31.6835 24.0769 31.2883 23.8206C30.9547 23.6059 30.6678 23.3262 30.4447 22.9982C30.2789 22.7552 30.0731 22.5422 29.8359 22.3681C29.5155 22.1546 29.067 22.1759 28.5971 22.208C28.1485 22.2293 27.6893 22.2614 27.3582 22.0798C27.0272 21.8982 26.9845 21.6313 26.9311 21.3536C26.8777 21.0759 26.8349 20.7662 26.4825 20.574C26.2048 20.4245 25.8631 20.3924 25.532 20.3604C25.0728 20.3177 24.6456 20.2643 24.4961 19.9439C24.1971 19.2924 23.1398 18.705 23.0971 18.6837C23.0825 18.6769 23.0666 18.6735 23.0505 18.6737C23.0345 18.674 23.0187 18.6778 23.0043 18.685C22.9899 18.6922 22.9774 18.7025 22.9675 18.7152C22.9577 18.728 22.9509 18.7427 22.9476 18.7584C22.8835 19.1429 22.5204 20.0186 21.634 20.574C21.6143 20.5866 21.5993 20.6054 21.5913 20.6274C21.367 21.2041 20.6728 22.3147 19.6476 22.3575H19.6262C19.0068 22.5177 17.8641 23.0516 17.9922 23.9274C18.0668 24.4354 18.2372 24.9246 18.4942 25.3691C18.2699 25.3905 17.9709 25.5293 17.6718 25.9351C17.5635 26.0848 17.4457 26.2275 17.3194 26.3623C16.8388 26.939 16.3476 27.5264 16.6359 28.3594C16.732 28.6371 16.8495 28.8934 16.9563 29.1497C17.2553 29.8225 17.4155 30.239 17.1699 30.3672C17.1058 30.3992 16.9349 30.4847 17.1699 31.4779C17.6078 33.3148 19.3272 37.4584 22.7126 39.1245V41.8478C22.5414 41.6772 22.3382 41.5421 22.1146 41.4505C21.8909 41.3588 21.6514 41.3124 21.4097 41.3138C21.2622 41.3157 21.1154 41.3336 20.9718 41.3672C20.6829 41.4509 20.414 41.5926 20.1815 41.7837C19.8398 42.0293 19.6582 42.1468 19.3485 41.9652C19.2115 41.8882 19.1085 41.7624 19.0602 41.6128C18.9641 41.3245 18.8146 41.2497 18.0563 41.3672C17.7252 41.4206 17.4476 41.474 17.234 41.5167C16.8495 41.5914 16.5718 41.6448 16.4864 41.5808C16.4698 41.566 16.4565 41.5479 16.4473 41.5277C16.4381 41.5075 16.4332 41.4855 16.433 41.4633C16.401 41.1643 16.166 40.7371 15.7815 40.4808C15.607 40.37 15.4093 40.3008 15.2038 40.2786C14.9982 40.2564 14.7903 40.2817 14.5961 40.3526C13.8699 40.5876 13.2932 40.5982 13.0369 40.3953C12.9814 40.352 12.939 40.2941 12.9145 40.2281C12.89 40.1621 12.8843 40.0906 12.8981 40.0215V40.0002C12.9301 39.541 12.9621 39.1031 12.7272 38.8468C12.599 38.708 12.4175 38.6439 12.1612 38.6439H11.8942C11.3281 38.6546 10.4738 38.6652 10.2068 38.3982C10.1819 38.3752 10.1623 38.347 10.1494 38.3157C10.1365 38.2843 10.1306 38.2506 10.132 38.2167C10.1262 38.0718 10.1594 37.9279 10.2281 37.8002C10.3243 37.6186 10.367 37.4905 10.1107 37.0526C10.0452 36.9358 9.95303 36.8362 9.84165 36.762C9.73026 36.6877 9.60286 36.6409 9.4699 36.6254C9.22426 36.572 9.05339 36.5293 9.05339 35.9419C9.05339 35.408 9.03203 35.2798 8.8398 35.2264C8.76504 35.205 8.61553 35.1623 8.35922 34.5002C7.94271 33.3895 7.97475 33.0691 8.00679 32.8021C8.01974 32.7352 8.02688 32.6673 8.02815 32.5992C8.02815 32.4283 7.81455 32.3322 7.46213 32.1827C6.77863 31.8944 5.75339 31.4458 5.75339 30.2711C5.75339 29.705 5.77475 29.3099 5.79611 29.0109C5.83883 28.3487 5.84951 28.1458 5.47572 27.8147C5.18737 27.5584 4.93106 26.5973 4.95242 25.8497C4.9631 25.4546 5.04854 25.1769 5.18737 25.0701C5.51844 24.8031 5.41164 24.5254 5.30485 24.2371C5.20873 23.9701 5.08057 23.639 5.21941 23.1691C5.29546 22.8999 5.34904 22.6249 5.3796 22.3468C5.47572 21.706 5.55048 21.2041 6.23397 20.8089C6.93883 20.4031 6.79999 19.7944 6.67184 19.207C6.59708 18.8546 6.51164 18.4808 6.57572 18.1177C6.67184 17.605 7.07766 17.4342 7.43009 17.274C7.7398 17.1351 8.02815 17.0177 8.02815 16.6866V16.6225C8.02815 16.1847 8.02815 15.2769 8.42329 14.8924C8.49098 14.8275 8.57169 14.7778 8.66007 14.7465C8.74845 14.7152 8.84248 14.703 8.93591 14.7109C9.60873 14.7429 9.82232 14.1128 9.9932 13.6002C10.132 13.173 10.2388 12.9167 10.4417 12.9167C11.0505 12.9167 11.6485 12.8526 11.766 12.0944C11.798 11.9235 12.001 11.7099 12.3214 11.5283C12.9087 11.208 13.8699 10.9944 14.5747 11.3041C15.2796 11.6138 15.6961 11.24 16.134 10.8448C16.4544 10.5565 16.8175 10.2361 17.3514 10.0973C17.7118 10.0086 18.0805 9.95845 18.4514 9.94776C19.0388 9.91572 19.466 9.89436 19.8505 9.16815C20.1068 8.67688 20.5019 8.36718 20.9291 8.31378C21.0819 8.2908 21.2379 8.30609 21.3833 8.35828C21.5287 8.41047 21.6589 8.49793 21.7621 8.61281C22.1573 9.03999 22.5524 8.70892 22.9048 8.40989C23.1184 8.22834 23.3427 8.04679 23.5563 8.01475C23.8153 7.98066 24.0779 7.98425 24.3359 8.02543C24.6583 8.07506 24.9866 8.07145 25.3078 8.01475C25.6709 7.95067 25.767 7.86523 25.8845 7.76912C26.0019 7.673 26.1408 7.54485 26.7709 7.38465C27.8068 7.11766 28.0524 7.22446 28.234 7.30989C28.3291 7.36093 28.4357 7.38667 28.5437 7.38465C29.1951 7.38465 31.3204 7.47009 31.4913 8.55941C31.4965 8.58584 31.5114 8.60933 31.5332 8.62517C31.555 8.64102 31.582 8.64805 31.6087 8.64485C32.933 8.55941 34.3961 8.69824 34.5029 9.14679C34.5571 9.39958 34.5857 9.65719 34.5883 9.91572C34.6097 10.4177 34.6204 10.8876 35.133 10.9303C35.3786 10.9516 35.7097 10.8448 36.1048 10.7274C36.7563 10.5245 37.4932 10.3002 37.8243 10.6526C38.0104 10.8443 38.2065 11.0261 38.4116 11.1973C38.9883 11.7099 39.6398 12.2759 39.5437 12.7885C39.4582 13.2371 39.6932 13.3759 39.9068 13.5147C40.1204 13.6536 40.3981 13.8138 40.5049 14.3371C40.601 14.7749 40.3447 15.1701 40.1417 15.4798C39.9709 15.7361 39.8214 15.9711 39.9068 16.174C39.9815 16.3342 40.1951 16.441 40.5903 16.505C41.5194 16.6546 42.3951 16.8575 42.5981 17.2953C42.6835 17.4876 42.6408 17.7332 42.4592 18.0429C42.3033 18.2918 42.1321 18.5308 41.9466 18.7584C41.6903 19.0681 41.5087 19.3031 41.5515 19.5701C41.5728 19.773 41.733 19.9759 42.0641 20.2215C42.3417 20.4245 42.5981 20.5847 42.833 20.7235C43.4524 21.0973 43.7301 21.2895 43.5806 21.7487C43.5213 21.9347 43.45 22.1167 43.367 22.2934C43.2282 22.6031 43.1534 22.774 43.3349 23.1798C43.4489 23.3954 43.5888 23.5962 43.7515 23.7779C43.9757 24.0342 44.168 24.2584 44.1466 24.5361C44.1039 25.0381 44.2748 27.6012 44.8408 28.5303C45.1718 28.9788 45.1505 29.0109 45.001 29.2138Z" fill="#2D140F"/>
<path d="M33.1144 45.2216C31.6299 49.4934 28.0095 50.4653 25.0085 50.4653C24.211 50.4614 23.4149 50.3971 22.627 50.2731C19.8503 49.8459 18.2911 46.909 17.7998 45.2536C18.3231 45.275 18.825 45.2964 19.2736 45.307C20.2561 45.3498 20.961 45.3818 21.2493 45.3284C22.1678 45.1575 22.8833 44.2177 22.9687 43.7692V39.2197C23.8717 39.6261 24.8514 39.8337 25.8416 39.8284C26.7742 39.8308 27.695 39.6189 28.5328 39.209C28.5115 39.8177 28.5008 40.7789 28.5008 41.6867V41.943C28.5008 42.6905 28.5221 43.374 28.5542 43.7478C28.6503 44.8158 30.1988 45.243 30.7969 45.3284H30.8183C31.6192 45.2643 32.3882 45.2323 33.1144 45.2216Z" fill="#C06E3D"/>
<path d="M40.3017 46.4079C39.8211 46.7817 38.0376 48.1167 35.1435 49.238C35.0046 48.2769 35.5173 46.3439 35.827 45.3613C37.9736 45.5749 39.5221 46.0448 40.3017 46.4079Z" fill="#C06E3D"/>
<path d="M15.3329 45.2441C15.3152 46.4279 15.1023 47.6006 14.7028 48.715C13.683 48.3154 12.6849 47.8627 11.7125 47.3587C10.8261 46.8995 10.2281 46.5364 9.98242 46.3762C10.0046 46.3549 10.0298 46.3369 10.0572 46.3228C11.2213 45.5432 13.2824 45.2975 15.3329 45.2441Z" fill="#C06E3D"/>
<path d="M34.9304 49.3012C34.9304 49.3119 34.9411 49.3119 34.9304 49.3012C34.5993 49.4614 33.51 49.91 31.6411 50.2838C30.0178 50.6148 27.8071 50.9032 24.9984 50.9032H24.8061C24.0988 50.8903 23.3928 50.8368 22.6916 50.743H22.6595C19.21 50.2944 15.611 49.0663 14.8848 48.7779C15.2936 47.6398 15.5101 46.4415 15.5255 45.2323C16.2197 45.2216 16.9032 45.2323 17.5547 45.243C18.0353 46.9304 19.6479 50.0274 22.5741 50.476C25.7673 50.9672 31.3848 50.9352 33.3285 45.2109C34.0653 45.2109 34.7488 45.243 35.3896 45.2964H35.4003C35.4644 45.3071 35.5285 45.3071 35.5925 45.3177C35.2828 46.3643 34.7809 48.3294 34.9304 49.3012Z" fill="#F7C501"/>
<path d="M33.9258 30.5056C33.8297 30.2493 33.7229 30.0037 33.6268 29.7687C33.2637 28.925 32.954 28.1881 33.4239 27.7289C33.6375 27.5153 33.4239 27.2376 33.0821 26.8425C32.8151 26.5328 32.5588 26.2444 32.6763 25.9668C32.719 25.8706 32.7724 25.7532 32.8365 25.625C33.0394 25.2085 33.3491 24.5891 33.2209 24.2367C33.2057 24.1879 33.1795 24.1433 33.1443 24.1063C33.1091 24.0693 33.0659 24.0408 33.018 24.0231C32.7297 23.8842 32.5268 23.9697 32.3025 24.0765C32.0248 24.2046 31.7044 24.3435 31.2132 24.0231C30.859 23.7935 30.5541 23.4958 30.3161 23.1473C30.1679 22.9227 29.9797 22.7272 29.7608 22.5706C29.5044 22.3998 29.0879 22.4211 28.6501 22.4425C28.1802 22.4639 27.6889 22.4959 27.2938 22.2823C26.8666 22.058 26.8132 21.7163 26.7598 21.4066C26.7171 21.1396 26.6743 20.9153 26.418 20.7765C26.1831 20.6483 25.852 20.6163 25.5423 20.5842C25.051 20.5308 24.5277 20.4774 24.3355 20.0503C24.154 19.6551 23.5666 19.2066 23.1501 18.9609C22.9329 19.7018 22.4549 20.3391 21.8044 20.7551C21.5481 21.3852 20.8006 22.5386 19.7006 22.5813C19.1452 22.7308 18.1307 23.1901 18.2375 23.9163C18.3067 24.4755 18.5161 25.0081 18.8462 25.4648C18.8618 25.4846 18.8703 25.5091 18.8703 25.5342C18.8703 25.5594 18.8618 25.5839 18.8462 25.6037C18.8385 25.6142 18.8288 25.6231 18.8176 25.6298C18.8065 25.6366 18.7941 25.6411 18.7812 25.6431C18.7683 25.6451 18.7551 25.6445 18.7425 25.6414C18.7298 25.6383 18.7179 25.6327 18.7074 25.625C18.6112 25.5716 18.2695 25.5396 17.8743 26.0842C17.7676 26.2338 17.6394 26.3833 17.5219 26.5328C17.0627 27.0881 16.6248 27.6007 16.8705 28.3163C16.9643 28.5778 17.0712 28.8344 17.1909 29.0852C17.4899 29.758 17.7462 30.3454 17.319 30.5697C17.2122 30.8153 17.618 32.7376 18.7821 34.7881C19.519 36.0804 20.886 38.0027 22.9899 38.9959C23.0646 39.0279 23.1287 39.06 23.2035 39.092L23.4277 39.1881C24.1963 39.4902 25.0156 39.6424 25.8413 39.6367C26.7797 39.6373 27.7051 39.4178 28.5433 38.9959C28.5753 38.9745 28.618 38.9639 28.6501 38.9425C28.6834 38.9205 28.7193 38.9026 28.7569 38.8891C30.1239 38.1415 31.1705 36.9774 31.8967 35.9202C33.4986 33.5813 34.1394 31.0503 33.9258 30.5056ZM20.5443 25.7318C20.523 25.7531 20.4942 25.765 20.4642 25.765C20.4341 25.765 20.4053 25.7531 20.3841 25.7318C20.3628 25.7106 20.3509 25.6818 20.3509 25.6517C20.3509 25.6217 20.3628 25.5929 20.3841 25.5716C20.7365 25.2192 21.2171 25.0376 21.6656 24.9415C22.0412 24.8636 22.4258 24.8384 22.8083 24.8668C22.8238 24.8682 22.8388 24.8726 22.8525 24.8798C22.8662 24.887 22.8783 24.8968 22.8883 24.9087C22.8982 24.9206 22.9057 24.9344 22.9103 24.9491C22.9149 24.9639 22.9165 24.9795 22.9151 24.9949C22.9137 25.0103 22.9093 25.0253 22.9021 25.0391C22.8949 25.0528 22.8851 25.0649 22.8732 25.0749C22.8613 25.0848 22.8475 25.0922 22.8327 25.0969C22.8179 25.1015 22.8024 25.1031 22.787 25.1017C22.4297 25.0741 22.0704 25.0957 21.719 25.1658C21.2918 25.2512 20.854 25.4221 20.5443 25.7318ZM22.6054 29.1813C22.2743 29.192 21.986 28.7221 21.9753 28.1347C21.9646 27.5473 22.2209 27.0668 22.552 27.0668C22.8831 27.0668 23.1714 27.526 23.1821 28.1134C23.1928 28.7007 22.9365 29.1706 22.6054 29.1813ZM26.3219 30.8687C25.8734 30.2279 25.6918 29.1172 25.6705 28.6153C25.6703 28.5887 25.6801 28.5631 25.6979 28.5433C25.7156 28.5236 25.7401 28.5112 25.7666 28.5085C25.7944 28.5078 25.8216 28.5172 25.8431 28.5348C25.8647 28.5524 25.8792 28.5772 25.8841 28.6046C25.9161 29.0852 26.0763 30.1532 26.5035 30.7405C26.5779 30.8296 26.6294 30.9356 26.6536 31.0491C26.6778 31.1626 26.6739 31.2803 26.6423 31.392C26.5035 31.8512 25.9268 32.0862 25.82 32.1289C25.8093 32.1289 25.7986 32.1396 25.7879 32.1396C25.767 32.1413 25.7462 32.1359 25.7287 32.1243C25.7113 32.1127 25.6983 32.0955 25.6918 32.0755C25.6867 32.0622 25.6844 32.048 25.6848 32.0338C25.6853 32.0195 25.6886 32.0055 25.6946 31.9926C25.7006 31.9796 25.7091 31.968 25.7196 31.9584C25.7301 31.9488 25.7425 31.9414 25.7559 31.9367C26.0442 31.8299 26.3753 31.5949 26.4501 31.3386C26.4619 31.2557 26.4566 31.1712 26.4346 31.0904C26.4125 31.0096 26.3742 30.9341 26.3219 30.8687ZM28.052 33.7629C27.8922 34.1917 27.6531 34.5866 27.3472 34.927C27.0054 35.3007 26.5569 35.5998 26.0122 35.5784C25.4924 35.5349 24.9994 35.3295 24.6025 34.991C24.2287 34.6813 23.951 34.2755 23.8763 33.9017C23.8729 33.8833 23.8751 33.8642 23.8827 33.847C23.8904 33.8299 23.903 33.8154 23.919 33.8056C23.9329 33.7952 23.9497 33.7896 23.9671 33.7896C23.9844 33.7896 24.0013 33.7952 24.0151 33.8056C24.3996 34.0405 25.1365 34.2114 25.9161 34.2114C26.6957 34.2114 27.4646 34.0512 27.9025 33.6561C27.9161 33.6418 27.9343 33.6329 27.9539 33.6309C27.9735 33.629 27.9932 33.6341 28.0093 33.6454C28.0268 33.659 28.04 33.6772 28.0476 33.698C28.0551 33.7188 28.0567 33.7413 28.052 33.7629ZM29.6112 28.327C29.5258 28.9037 29.1947 29.3308 28.8637 29.2881C28.5326 29.2454 28.3404 28.7328 28.4258 28.1561C28.5112 27.5794 28.8423 27.1522 29.1734 27.1949C29.5044 27.2376 29.6967 27.7503 29.6112 28.327ZM31.2132 25.6784C31.1955 25.7031 31.1691 25.7201 31.1394 25.726C31.1097 25.732 31.0788 25.7264 31.053 25.7105C30.7558 25.5075 30.4325 25.3458 30.0918 25.2299C29.6788 25.0763 29.2308 25.043 28.7996 25.1338C28.7703 25.1397 28.7398 25.134 28.7146 25.1179C28.6894 25.1018 28.6715 25.0765 28.6646 25.0474C28.6576 25.0183 28.6623 24.9877 28.6775 24.962C28.6927 24.9362 28.7174 24.9174 28.7462 24.9095C29.2268 24.7813 29.7394 24.8668 30.1773 25.0056C30.544 25.1211 30.89 25.2941 31.2025 25.5182C31.2247 25.5383 31.2383 25.5663 31.2403 25.5962C31.2423 25.6261 31.2326 25.6556 31.2132 25.6784Z" fill="#C06E3D"/>
<path d="M29.6119 28.3264C29.5265 28.9031 29.1954 29.3303 28.8644 29.2876C28.5333 29.2448 28.3411 28.7322 28.4265 28.1555C28.5119 27.5788 28.843 27.1516 29.1741 27.1943C29.5051 27.2371 29.6974 27.7497 29.6119 28.3264Z" fill="black"/>
<path d="M23.1827 28.113C23.1934 28.7004 22.9371 29.181 22.606 29.181C22.2749 29.181 21.9866 28.7217 21.9759 28.1344C21.9652 27.547 22.2215 27.0664 22.5526 27.0664C22.8837 27.0664 23.172 27.5256 23.1827 28.113Z" fill="black"/>
<path fill-rule="evenodd" clip-rule="evenodd" d="M22.9158 24.9851C22.9109 25.0154 22.8953 25.0429 22.8717 25.0625C22.8482 25.0821 22.8183 25.0926 22.7877 25.0919C22.4304 25.0643 22.0711 25.0859 21.7197 25.156C21.283 25.2313 20.876 25.4274 20.5449 25.722C20.5237 25.7433 20.4949 25.7552 20.4648 25.7552C20.4348 25.7552 20.406 25.7433 20.3847 25.722C20.3635 25.7008 20.3516 25.672 20.3516 25.6419C20.3516 25.6119 20.3635 25.5831 20.3847 25.5618C20.7372 25.2094 21.2178 25.0278 21.6663 24.9317C22.0419 24.8538 22.4265 24.8286 22.809 24.857C22.825 24.8566 22.8409 24.8599 22.8555 24.8666C22.8701 24.8732 22.883 24.8831 22.8932 24.8954C22.9035 24.9077 22.9108 24.9221 22.9147 24.9377C22.9186 24.9532 22.919 24.9694 22.9158 24.9851Z" fill="#2D140F"/>
<path fill-rule="evenodd" clip-rule="evenodd" d="M31.2139 25.6795C31.1962 25.7042 31.1698 25.7212 31.1401 25.7272C31.1103 25.7331 31.0794 25.7275 31.0537 25.7116C30.7565 25.5086 30.4331 25.347 30.0925 25.231C29.6795 25.0774 29.2314 25.0441 28.8003 25.1349C28.771 25.1408 28.7405 25.1351 28.7153 25.119C28.6901 25.1029 28.6722 25.0776 28.6652 25.0485C28.6583 25.0194 28.663 24.9888 28.6782 24.9631C28.6934 24.9373 28.718 24.9185 28.7469 24.9106C29.2274 24.7825 29.7401 24.8679 30.1779 25.0067C30.5447 25.1222 30.8907 25.2953 31.2032 25.5193C31.2254 25.5394 31.239 25.5674 31.241 25.5973C31.243 25.6272 31.2332 25.6567 31.2139 25.6795Z" fill="#2D140F"/>
<path d="M26.6323 31.3913C26.4935 31.8506 25.9168 32.0855 25.81 32.1282C25.7993 32.1282 25.7887 32.1389 25.778 32.1389C25.7571 32.1407 25.7362 32.1353 25.7187 32.1236C25.7013 32.112 25.6883 32.0948 25.6819 32.0748C25.6768 32.0615 25.6744 32.0473 25.6749 32.0331C25.6753 32.0189 25.6787 32.0049 25.6846 31.9919C25.6906 31.979 25.6991 31.9674 25.7096 31.9578C25.7202 31.9482 25.7325 31.9408 25.7459 31.936C26.0343 31.8292 26.3654 31.5943 26.4401 31.3379C26.4604 31.2567 26.4613 31.1719 26.4427 31.0903C26.4242 31.0086 26.3867 30.9325 26.3333 30.868C25.8848 30.2273 25.7032 29.1166 25.6819 28.6146C25.6817 28.5881 25.6915 28.5624 25.7093 28.5427C25.727 28.5229 25.7515 28.5105 25.778 28.5078C25.8058 28.5072 25.833 28.5165 25.8545 28.5341C25.8761 28.5518 25.8906 28.5765 25.8955 28.604C25.9275 29.0845 26.0877 30.1525 26.5149 30.7399C26.5815 30.833 26.6265 30.9397 26.6468 31.0524C26.6672 31.1651 26.6622 31.2808 26.6323 31.3913Z" fill="black"/>
<path fill-rule="evenodd" clip-rule="evenodd" d="M27.7531 33.998C27.6118 34.2936 27.4284 34.567 27.2084 34.8097C26.888 35.1621 26.4822 35.4184 26.0123 35.3971C25.5322 35.3545 25.077 35.1642 24.7094 34.8524C24.4444 34.6458 24.2382 34.3733 24.1113 34.0621C24.5599 34.265 25.2327 34.3932 25.9162 34.3932C26.5783 34.4039 27.2618 34.2864 27.7531 33.998Z" fill="#AE5646"/>
<path d="M45.0865 28.4235C44.5739 27.5905 44.3709 25.1235 44.4243 24.5575C44.4564 24.1944 44.2108 23.906 43.9758 23.639C43.8195 23.479 43.6897 23.2952 43.5913 23.0944C43.4418 22.774 43.4845 22.6779 43.6234 22.3788C43.7077 22.1954 43.779 22.0062 43.837 21.8128C44.0399 21.172 43.602 20.905 42.9933 20.5419C42.769 20.4031 42.5127 20.2429 42.2457 20.0507C41.9787 19.8584 41.8399 19.6876 41.8185 19.5487C41.7972 19.3779 41.9574 19.1749 42.1709 18.8973C42.3672 18.6654 42.5457 18.4191 42.7049 18.1604C42.9292 17.7866 42.9826 17.4769 42.8651 17.2099C42.6302 16.708 41.8292 16.4837 40.6972 16.3021C40.3127 16.2381 40.2059 16.1526 40.1739 16.0992C40.1311 16.0031 40.2593 15.8109 40.3875 15.608C40.6117 15.2662 40.9001 14.8283 40.7826 14.305C40.7481 14.1024 40.6676 13.9104 40.5473 13.7437C40.4269 13.5771 40.27 13.4403 40.0884 13.3439C39.8748 13.2157 39.7574 13.1516 39.8214 12.8419C39.9389 12.2118 39.2341 11.5924 38.6146 11.0478C38.4163 10.8803 38.2274 10.702 38.0486 10.5138C37.6321 10.0546 36.8205 10.3109 36.1049 10.5245C35.7525 10.6313 35.4214 10.7381 35.2078 10.7167C34.9195 10.6953 34.8768 10.4711 34.8554 9.90504C34.8518 9.63245 34.8232 9.36077 34.77 9.09339C34.5777 8.31378 32.303 8.38854 31.7476 8.42058C31.47 7.28854 29.4729 7.16038 28.6078 7.16038C28.5285 7.16058 28.4508 7.13837 28.3836 7.0963C28.2214 7.01486 28.0417 6.97452 27.8603 6.97883C27.4944 6.99239 27.1318 7.05341 26.7816 7.16038C26.0981 7.33125 25.9379 7.48077 25.8098 7.58757C25.7137 7.673 25.6496 7.7264 25.3399 7.7798C25.0357 7.82577 24.7266 7.82936 24.4214 7.79048C24.1455 7.74902 23.8653 7.74543 23.5884 7.7798C23.3108 7.82252 23.0651 8.02543 22.8302 8.22834C22.4243 8.57009 22.2108 8.69824 21.9865 8.44193C21.8595 8.30369 21.7008 8.1984 21.524 8.13514C21.3473 8.07188 21.1578 8.05256 20.9719 8.07883C20.47 8.1429 20.0214 8.49533 19.7331 9.05067C19.4127 9.67009 19.0923 9.68077 18.5156 9.71281C18.1303 9.71975 17.747 9.7699 17.3729 9.86232C16.7855 10.0118 16.401 10.3536 16.0593 10.6526C15.6214 11.0478 15.301 11.3254 14.7243 11.0798C13.9447 10.738 12.9195 10.9623 12.2894 11.3147C11.8942 11.5283 11.6593 11.7847 11.6166 12.041C11.5311 12.5856 11.1894 12.6817 10.5059 12.6817C10.1321 12.6817 9.99328 13.0982 9.85444 13.5147C9.69425 13.9953 9.52337 14.4973 9.01075 14.4759C8.88845 14.4663 8.76548 14.4823 8.64966 14.5227C8.53384 14.5631 8.42769 14.6272 8.33794 14.7109C7.87871 15.1594 7.87871 16.0885 7.87871 16.5905V16.6652C7.87871 16.8468 7.70784 16.9215 7.40881 17.0604C7.02435 17.2206 6.54376 17.4342 6.42629 18.0536C6.35153 18.4594 6.43697 18.8652 6.5224 19.2283C6.65056 19.8157 6.75735 20.2749 6.19134 20.606C5.41172 21.0546 5.32629 21.6313 5.23017 22.3041C5.19431 22.5743 5.1408 22.8418 5.06998 23.105C4.92046 23.639 5.0593 24.0235 5.15541 24.3012C5.26221 24.6002 5.30493 24.7283 5.10202 24.8885C4.85638 25.0808 4.80299 25.508 4.79231 25.8283C4.77095 26.5652 5.01658 27.6225 5.39036 27.9536C5.68939 28.2206 5.67871 28.338 5.636 28.9788C5.61464 29.2779 5.59328 29.6837 5.59328 30.2497C5.59328 31.574 6.74668 32.0652 7.44085 32.3536C7.6224 32.4283 7.85736 32.5351 7.87871 32.5779C7.87871 32.6313 7.86803 32.6953 7.86803 32.7594C7.836 33.0478 7.79328 33.4002 8.23114 34.5536C8.49813 35.2584 8.67969 35.3652 8.85056 35.408H8.87192C8.90396 35.4613 8.90396 35.8031 8.90396 35.9099C8.90396 36.6254 9.14959 36.7322 9.49134 36.807C9.67289 36.8497 9.85444 36.8924 9.9826 37.1274C10.1855 37.4798 10.1535 37.5439 10.0894 37.672C10.0062 37.8297 9.96574 38.0065 9.97192 38.1846C9.97069 38.248 9.98236 38.311 10.0062 38.3698C10.0301 38.4285 10.0657 38.4818 10.1108 38.5264C10.4418 38.8468 11.2748 38.8468 11.9476 38.8361H12.2146C12.4069 38.8361 12.5457 38.8788 12.6311 38.9749C12.802 39.1565 12.77 39.5516 12.7486 39.9681V39.9895C12.7353 40.0935 12.7489 40.1992 12.7882 40.2965C12.8274 40.3937 12.8911 40.4793 12.9729 40.5448C13.2933 40.7905 13.9341 40.7905 14.735 40.5342C14.8992 40.4729 15.0753 40.4507 15.2496 40.4692C15.4238 40.4877 15.5913 40.5465 15.7389 40.641C16.0244 40.8319 16.2238 41.1271 16.2942 41.4633C16.2938 41.5158 16.3062 41.5675 16.3304 41.6141C16.3546 41.6607 16.3898 41.7006 16.4331 41.7303C16.5933 41.8478 16.8603 41.7944 17.3515 41.6982C17.5758 41.6555 17.8428 41.6021 18.1739 41.5487C18.868 41.4419 18.8894 41.506 18.9428 41.6555C19.0045 41.8533 19.1378 42.0209 19.3166 42.1254C19.7544 42.3924 20.0642 42.1788 20.3845 41.9332C20.5956 41.7594 20.8387 41.6288 21.1001 41.5487C21.8263 41.3672 22.5205 41.741 22.7341 42.0827C22.7527 42.1098 22.7742 42.1349 22.7981 42.1575V43.7167C22.7127 44.1118 22.0506 44.9448 21.2496 45.105C20.9826 45.1584 20.2564 45.1264 19.3273 45.0837C18.8574 45.0623 18.3341 45.041 17.7894 45.0196C17.7793 45.0032 17.7652 44.9897 17.7483 44.9803C17.7315 44.971 17.7125 44.9661 17.6933 44.9662H15.4933C15.4766 44.9654 15.4599 44.9689 15.4449 44.9763C15.43 44.9838 15.4172 44.995 15.4078 45.0089C13.2719 45.0623 11.1146 45.3186 9.91852 46.173C9.87029 46.206 9.82394 46.2416 9.77969 46.2798C9.76581 46.2892 9.75459 46.3019 9.7471 46.3169C9.73962 46.3319 9.73613 46.3485 9.73697 46.3652C9.73998 46.3981 9.75523 46.4286 9.77969 46.4507C9.84376 46.4934 15.2049 50.0817 22.7341 50.9361C23.4353 51.0299 24.1413 51.0834 24.8486 51.0963H24.8593C25.2117 51.107 25.5642 51.1177 25.9166 51.1177C27.857 51.1239 29.7918 50.9089 31.6836 50.4769C31.6942 50.4769 31.7156 50.4662 31.7263 50.4662C33.7981 50.039 34.9302 49.5371 35.1224 49.441C35.1331 49.441 35.1331 49.4303 35.1438 49.4303C36.8004 48.8062 38.3776 47.9889 39.8428 46.9953C40.1025 46.821 40.3521 46.632 40.5904 46.4293C40.6058 46.4193 40.6174 46.4043 40.6232 46.3869C40.629 46.3694 40.6288 46.3505 40.6224 46.3332C40.6212 46.3157 40.6157 46.2987 40.6064 46.2838C40.5971 46.2689 40.5843 46.2565 40.569 46.2478C39.8001 45.8633 38.0486 45.2973 35.5603 45.073H35.5282C34.7379 44.9876 33.3923 44.9555 33.2962 44.9555C33.2735 44.9577 33.2516 44.965 33.2321 44.9769C32.4297 44.9755 31.6277 45.0147 30.8292 45.0944C30.669 45.073 28.8855 44.774 28.7894 43.7167C28.7574 43.3643 28.736 42.7235 28.736 42.0186C29.3768 42.2215 30.2739 41.9546 30.7544 41.741C30.8616 41.6894 30.962 41.6248 31.0535 41.5487C31.2777 41.3779 31.4166 41.2711 32.5593 41.741C33.9904 42.3177 34.1399 42.2322 34.8447 41.3458C34.9088 41.2604 34.9836 41.1749 35.0583 41.0788C35.7311 40.2672 36.7137 40.7371 37.237 40.9934C37.3256 41.0412 37.4186 41.0806 37.5146 41.1109C37.9311 41.2283 39.3729 40.0429 39.8108 39.0817C39.8321 39.0604 39.8962 39.0283 39.9603 38.9856C40.4088 38.708 41.3273 38.1206 41.3273 37.5652C41.3273 36.9779 41.4554 36.7643 41.9467 36.4973C42.078 36.4284 42.2136 36.3677 42.3525 36.3157C42.769 36.1448 43.2496 35.9419 43.5913 35.2905C43.8049 34.8846 43.7729 34.7245 43.7088 34.5109C43.6554 34.34 43.5913 34.1584 43.837 33.5817C44.1253 32.8876 44.2642 32.8342 44.3069 32.8235C44.4137 32.7808 44.4243 32.7167 44.4243 32.5779C44.4243 32.2468 44.4243 31.6167 44.7661 30.2711C44.8377 29.9237 44.9834 29.5958 45.1933 29.3099C45.3855 29.0536 45.3962 28.9361 45.0865 28.4235ZM11.7127 47.3584C10.8263 46.8992 10.2282 46.5361 9.9826 46.3759C10.0048 46.3546 10.03 46.3366 10.0574 46.3225C11.2214 45.5429 13.2826 45.2973 15.3331 45.2439C15.3154 46.4276 15.1025 47.6003 14.703 48.7147C13.6832 48.3152 12.6851 47.8624 11.7127 47.3584ZM40.302 46.408C39.8214 46.7817 38.0379 48.1167 35.1438 49.238C35.0049 48.2769 35.5176 46.3439 35.8273 45.3614C37.9739 45.5749 39.5224 46.0448 40.302 46.408ZM33.3389 45.2225C34.0758 45.2225 34.7593 45.2546 35.4001 45.308H35.4108C35.4748 45.3186 35.5389 45.3186 35.603 45.3293C35.2719 46.3652 34.77 48.3303 34.9302 49.3021V49.3128C34.5991 49.4623 33.5098 49.9109 31.6409 50.2846C30.0175 50.6157 27.8069 50.9041 24.9981 50.9041H24.8059C24.0986 50.8912 23.3925 50.8377 22.6913 50.7439H22.6593C19.2098 50.2953 15.6108 49.0672 14.8845 48.7788C15.2934 47.6407 15.5099 46.4424 15.5253 45.2332C16.2195 45.2225 16.903 45.2332 17.5544 45.2439C18.035 46.9313 19.6476 50.0283 22.5739 50.4769C25.7777 50.9788 31.3952 50.9361 33.3389 45.2225ZM30.7865 45.34H30.8078C31.6195 45.2652 32.3884 45.2332 33.1146 45.2225C31.6302 49.4944 28.0098 50.4662 25.0088 50.4662C24.2112 50.4623 23.4151 50.398 22.6273 50.274C19.8506 49.8468 18.2913 46.9099 17.8001 45.2546C18.3234 45.2759 18.8253 45.2973 19.2739 45.308C20.2564 45.3507 20.9612 45.3827 21.2496 45.3293C22.168 45.1584 22.8836 44.2186 22.969 43.7701V39.2206C23.8719 39.627 24.8517 39.8346 25.8418 39.8293C26.7745 39.8317 27.6953 39.6198 28.5331 39.2099C28.5117 39.8186 28.501 40.7798 28.501 41.6876V41.9439C28.501 42.6914 28.5224 43.3749 28.5544 43.7487C28.6506 44.8274 30.1991 45.2652 30.7865 45.34ZM17.1807 29.0643C17.0739 28.8186 16.9564 28.5516 16.8603 28.2953C16.6146 27.5798 17.0525 27.0565 17.5117 26.5118C17.6292 26.3623 17.7574 26.2235 17.8642 26.0633C18.2593 25.5293 18.601 25.5507 18.6972 25.6041C18.72 25.614 18.7451 25.6173 18.7697 25.6135C18.7942 25.6097 18.8172 25.599 18.836 25.5827C18.8516 25.5629 18.8601 25.5385 18.8601 25.5133C18.8601 25.4881 18.8516 25.4637 18.836 25.4439C18.6758 25.2516 18.3447 24.6749 18.2273 23.8953C18.1205 23.1691 19.135 22.7099 19.6904 22.5604C20.7904 22.507 21.5379 21.3643 21.7942 20.7342C22.4415 20.3148 22.9185 19.6788 23.1399 18.94C23.5564 19.1856 24.1438 19.6342 24.3253 20.0293C24.5282 20.4565 25.0408 20.5099 25.5321 20.5633C25.8418 20.5953 26.1729 20.6274 26.4078 20.7555C26.6642 20.8944 26.7069 21.1186 26.7496 21.3856C26.803 21.6953 26.8564 22.0371 27.2836 22.2614C27.6787 22.4749 28.17 22.4429 28.6399 22.4215C29.0777 22.4002 29.4942 22.3788 29.7506 22.5497C29.9696 22.7061 30.1579 22.9016 30.3059 23.1264C30.5439 23.4749 30.8489 23.7726 31.203 24.0021C31.6942 24.3225 32.0146 24.1837 32.2923 24.0555C32.5166 23.9594 32.7088 23.874 33.0078 24.0021C33.0548 24.0215 33.0971 24.0505 33.1321 24.0873C33.167 24.1241 33.1939 24.1679 33.2108 24.2157C33.3389 24.5681 33.0292 25.1876 32.8263 25.6041C32.7622 25.7429 32.6981 25.8604 32.6661 25.9458C32.5593 26.2235 32.8049 26.5118 33.0719 26.8215C33.4137 27.2167 33.6273 27.4944 33.4137 27.708C32.9438 28.1779 33.2642 28.9041 33.6166 29.7478C33.7234 29.9827 33.8195 30.2283 33.9156 30.4847C34.1185 31.0293 33.4884 33.5604 31.8758 35.8779C31.1496 36.9245 30.103 38.0992 28.736 38.8468C28.7027 38.8688 28.6668 38.8867 28.6292 38.9002C28.5972 38.9215 28.5544 38.9322 28.5224 38.9536C27.6842 39.3755 26.7588 39.595 25.8205 39.5944C24.9952 39.5949 24.1769 39.4428 23.4069 39.1458L23.1826 39.0497C23.1078 39.0177 23.0438 38.9856 22.969 38.9536C20.8651 37.9604 19.4981 36.038 18.7612 34.7458C17.5972 32.6846 17.1913 30.7623 17.2981 30.5274C17.736 30.3245 17.4797 29.7478 17.1807 29.0643ZM45.001 29.2138C44.7788 29.5241 44.6226 29.8767 44.5418 30.2497C44.2001 31.6167 44.2001 32.2575 44.2001 32.5992V32.6526C44.104 32.6953 43.9331 32.7914 43.6234 33.5283C43.3564 34.1798 43.4311 34.4147 43.4845 34.607C43.5273 34.7565 43.57 34.8633 43.3777 35.2157C43.068 35.8031 42.6622 35.9633 42.235 36.1448C42.0923 36.2 41.9532 36.2643 41.8185 36.3371C41.2525 36.6468 41.0816 36.9351 41.0816 37.5973C41.0816 38.0351 40.1525 38.6118 39.8108 38.8361C39.6399 38.9429 39.5865 38.9749 39.5865 39.0283C39.1273 40.0109 37.771 41.0147 37.536 40.94C37.4506 40.913 37.3683 40.8772 37.2904 40.8332C36.7564 40.5769 35.6243 40.0322 34.8554 40.972C34.7807 41.0681 34.7059 41.1536 34.6418 41.239C33.9904 42.0507 33.937 42.1147 32.602 41.5701C31.4059 41.0895 31.1923 41.1856 30.8826 41.4099C30.8018 41.4704 30.7161 41.524 30.6263 41.5701C30.2525 41.741 29.2913 42.0507 28.6933 41.8157C28.6933 40.8118 28.704 39.7225 28.7253 39.1031C30.1777 38.3448 31.2884 37.1167 32.0467 36.0167C33.6166 33.7526 34.3642 31.1041 34.1078 30.4206C34.0117 30.1643 33.9049 29.908 33.7981 29.673C33.4564 28.8613 33.1787 28.2313 33.5418 27.8681C33.9049 27.505 33.5205 27.0565 33.2108 26.6934C32.9972 26.4478 32.7729 26.1914 32.837 26.0419C32.869 25.9565 32.9224 25.839 32.9865 25.7109C33.2214 25.241 33.5311 24.5895 33.3816 24.1623C33.3544 24.0865 33.3119 24.0171 33.2568 23.9583C33.2017 23.8996 33.1351 23.8527 33.0612 23.8206C32.6768 23.639 32.4098 23.7672 32.1748 23.8633C31.9078 23.9808 31.6836 24.0769 31.2884 23.8206C30.9548 23.6059 30.6679 23.3262 30.4447 22.9982C30.279 22.7552 30.0731 22.5422 29.836 22.3681C29.5156 22.1546 29.0671 22.1759 28.5972 22.208C28.1486 22.2293 27.6894 22.2614 27.3583 22.0798C27.0273 21.8982 26.9845 21.6313 26.9311 21.3536C26.8777 21.0759 26.835 20.7662 26.4826 20.574C26.2049 20.4245 25.8632 20.3924 25.5321 20.3604C25.0729 20.3177 24.6457 20.2643 24.4962 19.9439C24.1972 19.2924 23.1399 18.705 23.0972 18.6837C23.0826 18.6769 23.0667 18.6735 23.0506 18.6737C23.0346 18.674 23.0187 18.6778 23.0044 18.685C22.99 18.6922 22.9774 18.7025 22.9676 18.7152C22.9578 18.728 22.951 18.7427 22.9476 18.7584C22.8836 19.1429 22.5205 20.0186 21.6341 20.574C21.6143 20.5866 21.5993 20.6054 21.5913 20.6274C21.3671 21.2041 20.6729 22.3147 19.6476 22.3575H19.6263C19.0069 22.5177 17.8642 23.0516 17.9923 23.9274C18.0669 24.4354 18.2372 24.9246 18.4942 25.3691C18.27 25.3905 17.9709 25.5293 17.6719 25.9351C17.5635 26.0848 17.4458 26.2275 17.3195 26.3623C16.8389 26.939 16.3476 27.5264 16.636 28.3594C16.7321 28.6371 16.8496 28.8934 16.9564 29.1497C17.2554 29.8225 17.4156 30.239 17.17 30.3672C17.1059 30.3992 16.935 30.4847 17.17 31.4779C17.6078 33.3148 19.3273 37.4584 22.7127 39.1245V41.8478C22.5415 41.6771 22.3383 41.5421 22.1146 41.4505C21.891 41.3588 21.6515 41.3124 21.4098 41.3138C21.2623 41.3157 21.1155 41.3336 20.9719 41.3672C20.6829 41.4509 20.4141 41.5926 20.1816 41.7837C19.8399 42.0293 19.6583 42.1468 19.3486 41.9652C19.2116 41.8882 19.1086 41.7624 19.0603 41.6128C18.9642 41.3245 18.8146 41.2497 18.0564 41.3672C17.7253 41.4206 17.4476 41.474 17.2341 41.5167C16.8496 41.5914 16.5719 41.6448 16.4865 41.5808C16.4699 41.566 16.4565 41.5479 16.4473 41.5277C16.4381 41.5075 16.4333 41.4855 16.4331 41.4633C16.401 41.1643 16.1661 40.7371 15.7816 40.4808C15.6071 40.37 15.4094 40.3008 15.2038 40.2786C14.9983 40.2564 14.7904 40.2817 14.5962 40.3526C13.87 40.5876 13.2933 40.5982 13.037 40.3953C12.9815 40.352 12.9391 40.2941 12.9146 40.2281C12.8901 40.1621 12.8844 40.0906 12.8981 40.0215V40.0002C12.9302 39.541 12.9622 39.1031 12.7273 38.8468C12.5991 38.708 12.4176 38.6439 12.1612 38.6439H11.8942C11.3282 38.6546 10.4739 38.6652 10.2069 38.3982C10.182 38.3752 10.1624 38.347 10.1495 38.3157C10.1366 38.2843 10.1307 38.2506 10.1321 38.2167C10.1263 38.0718 10.1595 37.9279 10.2282 37.8002C10.3243 37.6186 10.3671 37.4905 10.1108 37.0526C10.0453 36.9358 9.95311 36.8362 9.84173 36.762C9.73035 36.6877 9.60294 36.6409 9.46998 36.6254C9.22435 36.572 9.05347 36.5293 9.05347 35.9419C9.05347 35.408 9.03211 35.2798 8.83988 35.2264C8.76512 35.205 8.61561 35.1623 8.3593 34.5002C7.94279 33.3895 7.97483 33.0691 8.00687 32.8021C8.01982 32.7352 8.02696 32.6673 8.02823 32.5992C8.02823 32.4283 7.81464 32.3322 7.46221 32.1827C6.77871 31.8944 5.75347 31.4458 5.75347 30.2711C5.75347 29.705 5.77483 29.3099 5.79619 29.0109C5.83891 28.3487 5.84959 28.1458 5.4758 27.8147C5.18745 27.5584 4.93114 26.5973 4.9525 25.8497C4.96318 25.4546 5.04862 25.1769 5.18745 25.0701C5.51852 24.8031 5.41172 24.5254 5.30493 24.2371C5.20881 23.9701 5.08066 23.639 5.21949 23.1691C5.29554 22.8999 5.34912 22.6249 5.37968 22.3468C5.4758 21.706 5.55056 21.2041 6.23405 20.8089C6.93891 20.4031 6.80007 19.7944 6.67192 19.207C6.59716 18.8546 6.51172 18.4808 6.5758 18.1177C6.67192 17.605 7.07774 17.4342 7.43017 17.274C7.73988 17.1351 8.02823 17.0177 8.02823 16.6866V16.6225C8.02823 16.1847 8.02823 15.2769 8.42337 14.8924C8.49106 14.8275 8.57177 14.7778 8.66015 14.7465C8.74853 14.7152 8.84256 14.703 8.936 14.7109C9.60881 14.7429 9.8224 14.1128 9.99328 13.6002C10.1321 13.173 10.2389 12.9167 10.4418 12.9167C11.0506 12.9167 11.6486 12.8526 11.7661 12.0944C11.7981 11.9235 12.001 11.7099 12.3214 11.5283C12.9088 11.208 13.87 10.9944 14.5748 11.3041C15.2797 11.6138 15.6962 11.24 16.1341 10.8448C16.4544 10.5565 16.8175 10.2361 17.3515 10.0973C17.7119 10.0086 18.0806 9.95846 18.4515 9.94776C19.0389 9.91572 19.4661 9.89436 19.8506 9.16815C20.1069 8.67689 20.502 8.36718 20.9292 8.31378C21.0819 8.2908 21.238 8.30609 21.3834 8.35828C21.5288 8.41047 21.6589 8.49793 21.7622 8.61281C22.1574 9.03999 22.5525 8.70892 22.9049 8.40989C23.1185 8.22834 23.3428 8.04679 23.5564 8.01475C23.8154 7.98066 24.078 7.98426 24.336 8.02543C24.6583 8.07506 24.9867 8.07146 25.3078 8.01475C25.6709 7.95067 25.7671 7.86523 25.8845 7.76912C26.002 7.673 26.1409 7.54485 26.7709 7.38465C27.8069 7.11766 28.0525 7.22446 28.2341 7.3099C28.3292 7.36093 28.4358 7.38668 28.5438 7.38465C29.1952 7.38465 31.3205 7.47009 31.4913 8.55941C31.4965 8.58584 31.5115 8.60933 31.5333 8.62518C31.5551 8.64102 31.5821 8.64805 31.6088 8.64485C32.9331 8.55941 34.3962 8.69824 34.503 9.14679C34.5572 9.39958 34.5858 9.65719 34.5884 9.91572C34.6098 10.4177 34.6205 10.8876 35.1331 10.9303C35.3787 10.9516 35.7098 10.8448 36.1049 10.7274C36.7564 10.5245 37.4933 10.3002 37.8243 10.6526C38.0105 10.8443 38.2065 11.0261 38.4117 11.1973C38.9884 11.7099 39.6399 12.2759 39.5438 12.7885C39.4583 13.2371 39.6933 13.3759 39.9069 13.5147C40.1205 13.6536 40.3981 13.8138 40.5049 14.3371C40.601 14.7749 40.3447 15.1701 40.1418 15.4798C39.971 15.7361 39.8214 15.9711 39.9069 16.174C39.9816 16.3342 40.1952 16.441 40.5904 16.505C41.5195 16.6546 42.3952 16.8575 42.5981 17.2953C42.6836 17.4876 42.6409 17.7332 42.4593 18.0429C42.3034 18.2918 42.1322 18.5308 41.9467 18.7584C41.6904 19.0681 41.5088 19.3031 41.5515 19.5701C41.5729 19.773 41.7331 19.9759 42.0642 20.2215C42.3418 20.4245 42.5981 20.5847 42.8331 20.7235C43.4525 21.0973 43.7302 21.2895 43.5807 21.7487C43.5214 21.9347 43.4501 22.1167 43.3671 22.2934C43.2282 22.6031 43.1535 22.774 43.335 23.1798C43.449 23.3954 43.5888 23.5962 43.7515 23.7779C43.9758 24.0342 44.168 24.2584 44.1467 24.5361C44.104 25.0381 44.2748 27.6012 44.8409 28.5303C45.1719 28.9788 45.1506 29.0109 45.001 29.2138Z" fill="black"/>
<path d="M28.0202 33.6559C28.0042 33.6443 27.9845 33.6391 27.9648 33.641C27.9452 33.643 27.9269 33.6521 27.9134 33.6665C27.4756 34.051 26.7066 34.2219 25.927 34.2219C25.1474 34.2219 24.4105 34.051 24.0261 33.8161C24.0122 33.8057 23.9953 33.8 23.978 33.8C23.9607 33.8 23.9438 33.8057 23.9299 33.8161C23.9151 33.827 23.9034 33.8416 23.8959 33.8585C23.8884 33.8753 23.8854 33.8938 23.8872 33.9122C23.962 34.286 24.229 34.6918 24.6134 35.0015C25.0092 35.3418 25.5028 35.5475 26.0231 35.5889C26.5678 35.6209 27.0163 35.3219 27.3581 34.9374C27.6619 34.5955 27.9007 34.201 28.0629 33.7733C28.0641 33.7519 28.0609 33.7304 28.0535 33.7103C28.0462 33.6901 28.0349 33.6716 28.0202 33.6559ZM26.0231 35.3966C25.543 35.354 25.0879 35.1637 24.7202 34.852C24.4552 34.6453 24.249 34.3729 24.1222 34.0617C24.5707 34.2646 25.2435 34.3928 25.927 34.3928C26.5892 34.3928 27.2727 34.2753 27.7639 33.9869C27.6227 34.2825 27.4392 34.5559 27.2193 34.7986C26.8882 35.1617 26.493 35.418 26.0231 35.3966Z" fill="black"/>
</g>
</g>
<rect x="-2.4" y="-4.4" width="55.8" height="55.8" rx="27.9" stroke="#D4D4D4" stroke-width="0.8"/>
</g>
</g>
<rect x="0.5" y="0.5" width="51" height="51" rx="25.5" stroke="#6A7294"/>
<defs>
<clipPath id="clip0_530_2138">
<rect x="1" y="1" width="50" height="50" rx="25" fill="white"/>
</clipPath>
<clipPath id="clip1_530_2138">
<rect x="1" y="1" width="50" height="50" rx="25" fill="white"/>
</clipPath>
<clipPath id="clip2_530_2138">
<rect x="-2" y="-4" width="55" height="55" rx="27.5" fill="white"/>
</clipPath>
<clipPath id="clip3_530_2138">
<rect width="55" height="55.1175" fill="white" transform="translate(-2 -4)"/>
</clipPath>
</defs>
</svg>
